<?xml version="1.0" encoding="UTF-8" standalone="no"?>
<svg
   xmlns:dc="http://purl.org/dc/elements/1.1/"
   xmlns:cc="http://creativecommons.org/ns#"
   xmlns:rdf="http://www.w3.org/1999/02/22-rdf-syntax-ns#"
   xmlns:svg="http://www.w3.org/2000/svg"
   xmlns="http://www.w3.org/2000/svg"
   viewBox="0 0 39.1064 35.004002"
   height="35.004002"
   width="39.1064"
   xml:space="preserve"
   id="svg2"
   version="1.1"><metadata
     id="metadata8"><rdf:RDF><cc:Work
         rdf:about=""><dc:format>image/svg+xml</dc:format><dc:type
           rdf:resource="http://purl.org/dc/dcmitype/StillImage" /></cc:Work></rdf:RDF></metadata><defs
     id="defs6"><clipPath
       id="clipPath18"
       clipPathUnits="userSpaceOnUse"><path
         id="path16"
         d="M 0,26.253 H 29.33 V 0 H 0 Z" /></clipPath></defs><g
     transform="matrix(1.3333333,0,0,-1.3333333,0,35.004)"
     id="g10"><g
       id="g12"><g
         clip-path="url(#clipPath18)"
         id="g14"><g
           transform="translate(8.5847,6.29)"
           id="g20"><path
             id="path22"
             style="fill:#ffffff;fill-opacity:1;fill-rule:nonzero;stroke:none"
             d="M 0,0 6.071,10.533 12.158,0.007 Z M 6.064,19.963 H 6.062 C 4.94,19.961 3.902,19.36 3.341,18.39 L -8.162,-1.579 c -0.565,-0.974 -0.563,-2.171 0,-3.143 0.561,-0.972 1.598,-1.568 2.72,-1.568 h 0.003 l 23.043,0.015 c 1.124,0 2.16,0.599 2.721,1.572 0.561,0.972 0.561,2.17 -0.003,3.144 L 8.784,18.393 c -0.558,0.971 -1.597,1.57 -2.72,1.57" /></g></g></g></g></svg>