<?xml version="1.0" encoding="UTF-8" standalone="no"?>
<svg
   xmlns:dc="http://purl.org/dc/elements/1.1/"
   xmlns:cc="http://creativecommons.org/ns#"
   xmlns:rdf="http://www.w3.org/1999/02/22-rdf-syntax-ns#"
   xmlns:svg="http://www.w3.org/2000/svg"
   xmlns="http://www.w3.org/2000/svg"
   viewBox="0 0 2073.48 1142.2227"
   height="1142.2227"
   width="2073.48"
   xml:space="preserve"
   id="svg2"
   version="1.1"><metadata
     id="metadata8"><rdf:RDF><cc:Work
         rdf:about=""><dc:format>image/svg+xml</dc:format><dc:type
           rdf:resource="http://purl.org/dc/dcmitype/StillImage" /></cc:Work></rdf:RDF></metadata><defs
     id="defs6"><clipPath
       id="clipPath18"
       clipPathUnits="userSpaceOnUse"><path
         id="path16"
         d="M 0,856.667 H 1555.115 V 0 H 0 Z" /></clipPath></defs><g
     transform="matrix(1.3333333,0,0,-1.3333333,0,1142.2227)"
     id="g10"><g
       id="g12"><g
         clip-path="url(#clipPath18)"
         id="g14"><g
           transform="translate(788.6104,688.5669)"
           id="g20"><path
             id="path22"
             style="fill:#f9ec31;fill-opacity:1;fill-rule:nonzero;stroke:none"
             d="M 0,0 H -57.555 V -56.416 C -44.709,-32.334 -24.572,-12.595 0,0" /></g><g
           transform="translate(731.0557,508.4702)"
           id="g24"><path
             id="path26"
             style="fill:#f9ec31;fill-opacity:1;fill-rule:nonzero;stroke:none"
             d="M 0,0 V -56.413 H 57.555 C 32.988,-43.822 12.846,-24.085 0,0" /></g><g
           transform="translate(921.6533,452.0571)"
           id="g28"><path
             id="path30"
             style="fill:#f9ec31;fill-opacity:1;fill-rule:nonzero;stroke:none"
             d="M 0,0 H 56.415 V 57.557 C 43.824,32.982 24.083,12.849 0,0" /></g><g
           transform="translate(978.0684,632.1528)"
           id="g32"><path
             id="path34"
             style="fill:#f9ec31;fill-opacity:1;fill-rule:nonzero;stroke:none"
             d="M 0,0 V 56.414 H -57.555 C -32.988,43.819 -12.848,24.08 0,0" /></g><g
           transform="translate(792.5859,598.3345)"
           id="g36"><path
             id="path38"
             style="fill:#ffffff;fill-opacity:1;fill-rule:nonzero;stroke:none"
             d="M 0,0 H 31.304 143.417 C 131.617,32.943 99.616,56.575 61.972,56.575 24.332,56.575 -7.664,32.943 -19.464,0 Z" /></g><g
           transform="translate(862.7969,545.1528)"
           id="g40"><path
             id="path42"
             style="fill:#ffffff;fill-opacity:1;fill-rule:nonzero;stroke:none"
             d="M 0,0 C -3.136,3.754 -5.923,7.799 -8.235,12.134 -10.549,7.799 -13.337,3.754 -16.476,0 h -74.189 c 10.931,-34.437 43.704,-59.438 82.426,-59.438 38.729,0 71.502,25.001 82.433,59.438 z" /></g><g
           transform="translate(822.4951,587.0806)"
           id="g44"><path
             id="path46"
             style="fill:#ffffff;fill-opacity:1;fill-rule:nonzero;stroke:none"
             d="M 0,0 -8.607,-8.607 -17.214,0 c -1.507,1.506 -3.951,1.506 -5.456,0 -1.507,-1.508 -1.507,-3.948 0,-5.457 l 8.606,-8.607 -8.606,-8.605 c -1.507,-1.506 -1.507,-3.952 0,-5.458 1.505,-1.507 3.949,-1.507 5.456,0 l 8.607,8.607 8.604,-8.605 c 1.507,-1.506 3.951,-1.506 5.457,0 1.507,1.508 1.507,3.95 0,5.457 l -8.604,8.604 8.606,8.607 C 6.963,-3.948 6.963,-1.508 5.456,0 3.95,1.506 1.507,1.506 0,0" /></g><g
           transform="translate(892.6914,584.3169)"
           id="g48"><path
             id="path50"
             style="fill:#ffffff;fill-opacity:1;fill-rule:nonzero;stroke:none"
             d="m 0,0 c -6.372,0 -11.558,-5.184 -11.558,-11.557 0,-6.376 5.186,-11.556 11.558,-11.556 6.376,0 11.561,5.18 11.561,11.556 C 11.561,-5.184 6.376,0 0,0 m 0,-31.522 c -11.008,0 -19.966,8.958 -19.966,19.965 0,11.01 8.958,19.968 19.966,19.968 11.012,0 19.967,-8.958 19.967,-19.968 0,-11.007 -8.955,-19.965 -19.967,-19.965" /></g><path
           id="path52"
           style="fill:#f9ec31;fill-opacity:1;fill-rule:nonzero;stroke:none"
           d="M 1252.882,324.793 H 475.921 v 490.476 h 776.961 z M 931.666,240 H 789 c -8.284,0 -15,6.715 -15,15 0,8.284 6.716,15 15,15 h 142.666 c 8.285,0 15,-6.716 15,-15 0,-8.285 -6.715,-15 -15,-15 M 1252.5,856.667 h -776 c -20.711,0 -37.5,-16.79 -37.5,-37.5 v -500 c 0,-20.711 16.789,-37.5 37.5,-37.5 h 273.25 v -68.334 c 0,0 0.667,-18.666 -18.666,-18.666 h -96.001 c 0,0 -8,5.333 -15.333,-8.667 -7.334,-14 -13.334,-28 -13.334,-28 0,0 -5.333,-9.333 7.334,-9.333 h 245.334 35.666 209.667 c 12.667,0 7.333,9.333 7.333,9.333 0,0 -6,14 -13.333,28 -7.333,14 -15.333,8.667 -15.333,8.667 h -96 c -19.334,0 -18.667,18.666 -18.667,18.666 v 68.334 H 1252.5 c 20.711,0 37.5,16.789 37.5,37.5 v 500 c 0,20.71 -16.789,37.5 -37.5,37.5" /><g
           transform="translate(1278.959,24.6665)"
           id="g54"><path
             id="path56"
             style="fill:#f9ec31;fill-opacity:1;fill-rule:nonzero;stroke:none"
             d="m 0,0 h -848.945 c -7.307,0 -12.399,7.25 -9.919,14.123 l 30.391,84.244 c 1.509,4.18 5.476,6.967 9.92,6.967 h 786.029 c 4.358,0 8.266,-2.682 9.837,-6.748 L 9.837,14.342 C 12.504,7.434 7.406,0 0,0 M 47.928,-6.148 4.556,102.623 c -1.707,5.248 -5.958,8.711 -10.699,8.711 H -844.97 c -4.833,0 -9.146,-3.598 -10.786,-8.995 L -896.809,-6.432 c -2.696,-8.874 2.842,-18.234 10.788,-18.234 h 923.25 c 8.054,0 13.599,9.598 10.699,18.518" /></g><g
           transform="translate(1434,23.9995)"
           id="g58"><path
             id="path60"
             style="fill:#f9ec31;fill-opacity:1;fill-rule:nonzero;stroke:none"
             d="m 0,0 c 0,0 -38.667,0.667 -55.333,36 -16.667,35.334 0,56.667 20.666,57.334 20.667,0.666 83,0 83,0 0,0 33.667,0.296 53.334,-26.667 C 128.15,30.357 128,0.667 98.667,0 69.333,-0.666 0,0 0,0" /></g><g
           transform="translate(320.333,736.0005)"
           id="g62"><path
             id="path64"
             style="fill:#f9ec31;fill-opacity:1;fill-rule:nonzero;stroke:none"
             d="m 0,0 h -285.333 v 34.666 c 0,19.147 15.521,34.666 34.667,34.666 h 216 C -15.521,69.332 0,53.813 0,34.666 Z m 0,-72 h -285.333 v 58 H 0 Z m 0,-70.668 H -285.333 V -86 H 0 Z m 0,-36.666 C 0,-198.48 -15.521,-214 -34.666,-214 h -216 c -19.146,0 -34.667,15.52 -34.667,34.666 v 22.666 H 0 Z m -169.648,-288.867 c 0,13.668 11.081,24.748 24.749,24.748 13.668,0 24.748,-11.08 24.748,-24.748 0,-13.668 -11.08,-24.749 -24.748,-24.749 -13.668,0 -24.749,11.081 -24.749,24.749 M -4.666,-609.668 c 0,-3.865 -3.134,-7 -7,-7 h -262 c -3.866,0 -7,3.135 -7,7 v 27.334 h 276 z m 4.833,718.334 h -288 c -17.949,0 -32.5,-14.551 -32.5,-32.5 v -626 c 0,-9.379 3.979,-17.825 10.333,-23.758 V -610 c 0,-18.41 14.925,-33.334 33.334,-33.334 H -9.333 C 9.076,-643.334 24,-628.41 24,-610 v 38.079 c 5.376,5.798 8.667,13.557 8.667,22.087 v 626 c 0,17.949 -14.551,32.5 -32.5,32.5" /></g></g></g></g></svg>