<?xml version="1.0" encoding="UTF-8" standalone="no"?>
<svg
   xmlns:dc="http://purl.org/dc/elements/1.1/"
   xmlns:cc="http://creativecommons.org/ns#"
   xmlns:rdf="http://www.w3.org/1999/02/22-rdf-syntax-ns#"
   xmlns:svg="http://www.w3.org/2000/svg"
   xmlns="http://www.w3.org/2000/svg"
   viewBox="0 0 67.819199 67.791603"
   height="67.791603"
   width="67.819199"
   xml:space="preserve"
   id="svg2"
   version="1.1"><metadata
     id="metadata8"><rdf:RDF><cc:Work
         rdf:about=""><dc:format>image/svg+xml</dc:format><dc:type
           rdf:resource="http://purl.org/dc/dcmitype/StillImage" /></cc:Work></rdf:RDF></metadata><defs
     id="defs6"><clipPath
       id="clipPath18"
       clipPathUnits="userSpaceOnUse"><path
         id="path16"
         d="M 0,50.844 H 50.864 V 0 H 0 Z" /></clipPath></defs><g
     transform="matrix(1.3333333,0,0,-1.3333333,0,67.7916)"
     id="g10"><g
       id="g12"><g
         clip-path="url(#clipPath18)"
         id="g14"><g
           transform="translate(5.1866,25.1487)"
           id="g20"><path
             id="path22"
             style="fill:#f7e943;fill-opacity:1;fill-rule:nonzero;stroke:none"
             d="m 0,0 c 0,-1.959 -0.015,-3.92 0.005,-5.879 0.015,-1.519 -0.091,-3.041 0.068,-4.558 0.037,-0.354 0.072,-0.714 0.16,-1.057 0.159,-0.616 0.317,-1.237 0.553,-1.825 0.259,-0.647 0.565,-1.284 0.926,-1.878 0.335,-0.551 0.751,-1.058 1.167,-1.554 0.311,-0.372 0.664,-0.713 1.026,-1.037 0.325,-0.29 0.677,-0.551 1.034,-0.8 0.377,-0.262 0.764,-0.513 1.166,-0.731 0.351,-0.191 0.725,-0.346 1.099,-0.488 0.468,-0.177 0.942,-0.34 1.422,-0.484 0.881,-0.264 1.789,-0.372 2.707,-0.38 1.83,-0.015 3.661,-0.018 5.492,-0.023 1.078,-0.002 2.155,10e-4 3.233,10e-4 3.232,0.001 6.463,0 9.694,0.004 0.337,0 0.675,0.016 1.01,0.05 1.256,0.128 2.465,0.439 3.621,0.953 1.646,0.732 3.034,1.804 4.186,3.177 1.048,1.249 1.784,2.669 2.23,4.238 0.247,0.87 0.416,1.755 0.418,2.656 0.012,6.323 0.009,12.645 0,18.969 -10e-4,0.496 -0.064,0.995 -0.138,1.486 -0.187,1.236 -0.587,2.404 -1.166,3.514 -0.702,1.342 -1.637,2.498 -2.788,3.473 -1.092,0.926 -2.319,1.627 -3.677,2.09 -1.106,0.377 -2.238,0.605 -3.413,0.605 -6.329,-0.003 -12.658,0 -18.986,-0.005 -0.434,-0.001 -0.873,-0.031 -1.301,-0.1 C 8.496,20.214 7.302,19.83 6.176,19.235 4.8,18.509 3.616,17.551 2.625,16.354 1.936,15.522 1.371,14.612 0.943,13.616 0.354,12.245 0.003,10.824 0.001,9.327 -0.002,6.219 0,3.109 0,0 m -5.175,0.091 c 0,4.217 -0.013,8.433 0.008,12.65 0.006,1.323 0.267,2.616 0.692,3.874 0.502,1.484 1.239,2.841 2.224,4.057 0.998,1.234 2.167,2.284 3.531,3.102 1.455,0.872 3.019,1.468 4.7,1.726 0.561,0.086 1.13,0.161 1.696,0.163 4.776,0.02 9.553,0.023 14.329,0.027 3.482,0.003 6.964,0.01 10.446,-0.002 1.228,-0.003 2.443,-0.165 3.614,-0.543 0.696,-0.226 1.39,-0.473 2.052,-0.78 0.998,-0.464 1.919,-1.062 2.759,-1.782 0.997,-0.855 1.883,-1.81 2.604,-2.912 0.866,-1.323 1.489,-2.752 1.844,-4.295 0.183,-0.799 0.316,-1.605 0.322,-2.426 0.015,-1.807 0.027,-3.614 0.028,-5.421 0.004,-6.515 0.008,-13.03 -0.004,-19.546 -0.002,-1.181 -0.192,-2.343 -0.523,-3.481 -0.375,-1.287 -0.929,-2.49 -1.663,-3.612 -0.431,-0.659 -0.929,-1.26 -1.467,-1.834 -1.113,-1.19 -2.4,-2.141 -3.862,-2.854 -1.224,-0.596 -2.51,-1.009 -3.863,-1.183 -0.592,-0.077 -1.19,-0.138 -1.785,-0.139 -6.597,-0.009 -13.194,-0.004 -19.791,-0.007 -1.679,-0.001 -3.358,-0.031 -5.036,-0.019 -0.529,0.004 -1.059,0.087 -1.583,0.166 -0.47,0.071 -0.943,0.153 -1.396,0.289 -0.625,0.186 -1.237,0.418 -1.848,0.649 -0.727,0.275 -1.398,0.665 -2.04,1.098 -0.452,0.303 -0.879,0.647 -1.3,0.995 -0.33,0.273 -0.657,0.557 -0.942,0.876 -0.457,0.51 -0.893,1.041 -1.312,1.584 -0.481,0.624 -0.858,1.314 -1.192,2.027 -0.461,0.985 -0.795,2.014 -1.006,3.082 -0.191,0.966 -0.25,1.939 -0.248,2.922 0.01,3.85 0.004,7.699 0.004,11.549 z" /></g><g
           transform="translate(35.2159,36.3762)"
           id="g24"><path
             id="path26"
             style="fill:#f7e943;fill-opacity:1;fill-rule:nonzero;stroke:none"
             d="M 0,0 C -0.086,-1.042 0.832,-1.944 1.883,-1.951 2.978,-1.958 3.826,-1.104 3.845,-0.032 3.863,1.029 2.96,1.911 1.911,1.922 0.941,1.932 -0.093,1.045 0,0 m -20.094,-12.519 c -0.047,-5.846 4.909,-11.006 11.245,-10.748 5.493,0.225 10.334,4.79 10.304,10.832 -0.03,5.882 -4.772,10.428 -10.152,10.671 -3.242,0.147 -6.029,-0.899 -8.305,-3.2 -2.059,-2.081 -3.068,-4.625 -3.092,-7.555 M -9.412,6.345 c 3.097,0 6.194,0.004 9.291,-0.002 C 1.003,6.341 2.076,6.081 3.105,5.636 4.222,5.152 5.185,4.451 6.003,3.557 6.708,2.787 7.248,1.909 7.635,0.938 7.932,0.194 8.106,-0.576 8.194,-1.369 c 0.018,-0.167 0.031,-0.336 0.031,-0.504 0.002,-6.235 0.004,-12.471 0.001,-18.705 0,-1.004 -0.204,-1.973 -0.568,-2.904 -0.454,-1.164 -1.122,-2.191 -2.025,-3.058 -1.126,-1.083 -2.448,-1.814 -3.969,-2.182 -0.732,-0.176 -1.476,-0.243 -2.227,-0.242 -6.014,10e-4 -12.027,-0.003 -18.041,10e-4 -0.643,0.001 -1.278,0.081 -1.907,0.233 -0.977,0.234 -1.894,0.604 -2.721,1.171 -0.428,0.293 -0.847,0.608 -1.223,0.962 -0.664,0.627 -1.207,1.353 -1.638,2.163 -0.334,0.628 -0.582,1.286 -0.759,1.97 -0.15,0.582 -0.236,1.176 -0.237,1.779 -0.005,2.456 -0.012,4.914 -0.013,7.37 -0.002,3.598 0.002,7.197 -0.002,10.795 -0.001,0.989 0.106,1.961 0.406,2.903 0.319,1.001 0.808,1.915 1.465,2.738 0.983,1.234 2.216,2.128 3.69,2.688 0.758,0.288 1.542,0.488 2.356,0.511 0.931,0.028 1.863,0.024 2.794,0.025 1.826,0.003 3.651,-10e-4 5.476,-10e-4 0.501,-0.001 1.003,0 1.505,0 z" /></g><g
           transform="translate(18.0807,23.8616)"
           id="g28"><path
             id="path30"
             style="fill:#f7e943;fill-opacity:1;fill-rule:nonzero;stroke:none"
             d="M 0,0 C -0.022,4.294 3.471,7.896 7.965,7.817 12.175,7.743 15.759,4.308 15.62,-0.269 15.493,-4.408 12.164,-7.634 8.148,-7.797 3.504,-7.984 -0.034,-4.245 0,0" /></g></g></g></g></svg>