<?xml version="1.0" encoding="UTF-8" standalone="no"?>
<svg
   xmlns:dc="http://purl.org/dc/elements/1.1/"
   xmlns:cc="http://creativecommons.org/ns#"
   xmlns:rdf="http://www.w3.org/1999/02/22-rdf-syntax-ns#"
   xmlns:svg="http://www.w3.org/2000/svg"
   xmlns="http://www.w3.org/2000/svg"
   viewBox="0 0 329.35068 315.34668"
   height="315.34668"
   width="329.35068"
   xml:space="preserve"
   id="svg2"
   version="1.1"><metadata
     id="metadata8"><rdf:RDF><cc:Work
         rdf:about=""><dc:format>image/svg+xml</dc:format><dc:type
           rdf:resource="http://purl.org/dc/dcmitype/StillImage" /></cc:Work></rdf:RDF></metadata><defs
     id="defs6"><clipPath
       id="clipPath18"
       clipPathUnits="userSpaceOnUse"><path
         id="path16"
         d="M 0,236.51 H 247.013 V 0 H 0 Z" /></clipPath></defs><g
     transform="matrix(1.3333333,0,0,-1.3333333,0,315.34667)"
     id="g10"><g
       id="g12"><g
         clip-path="url(#clipPath18)"
         id="g14"><g
           transform="translate(57.5546,236.5098)"
           id="g20"><path
             id="path22"
             style="fill:#f9ec31;fill-opacity:1;fill-rule:nonzero;stroke:none"
             d="M 0,0 H -57.555 V -56.416 C -44.709,-32.334 -24.573,-12.595 0,0" /></g><g
           transform="translate(-1e-4,56.4131)"
           id="g24"><path
             id="path26"
             style="fill:#f9ec31;fill-opacity:1;fill-rule:nonzero;stroke:none"
             d="M 0,0 V -56.413 H 57.555 C 32.988,-43.822 12.845,-24.085 0,0" /></g><g
           transform="translate(190.5976)"
           id="g28"><path
             id="path30"
             style="fill:#f9ec31;fill-opacity:1;fill-rule:nonzero;stroke:none"
             d="M 0,0 H 56.415 V 57.557 C 43.824,32.982 24.083,12.848 0,0" /></g><g
           transform="translate(247.0126,180.0957)"
           id="g32"><path
             id="path34"
             style="fill:#f9ec31;fill-opacity:1;fill-rule:nonzero;stroke:none"
             d="M 0,0 V 56.414 H -57.555 C -32.988,43.819 -12.848,24.08 0,0" /></g><g
           transform="translate(61.5302,146.2773)"
           id="g36"><path
             id="path38"
             style="fill:#ffffff;fill-opacity:1;fill-rule:nonzero;stroke:none"
             d="M 0,0 H 31.304 143.417 C 131.617,32.943 99.616,56.575 61.972,56.575 24.332,56.575 -7.665,32.943 -19.464,0 Z" /></g><g
           transform="translate(131.7411,93.0957)"
           id="g40"><path
             id="path42"
             style="fill:#ffffff;fill-opacity:1;fill-rule:nonzero;stroke:none"
             d="M 0,0 C -3.136,3.754 -5.923,7.799 -8.235,12.134 -10.549,7.799 -13.337,3.754 -16.476,0 h -74.19 c 10.932,-34.437 43.705,-59.438 82.427,-59.438 38.728,0 71.502,25.001 82.433,59.438 z" /></g><g
           transform="translate(91.4394,135.0234)"
           id="g44"><path
             id="path46"
             style="fill:#ffffff;fill-opacity:1;fill-rule:nonzero;stroke:none"
             d="M 0,0 -8.608,-8.607 -17.214,0 c -1.507,1.506 -3.951,1.506 -5.456,0 -1.507,-1.508 -1.507,-3.948 0,-5.457 l 8.606,-8.607 -8.606,-8.605 c -1.507,-1.507 -1.507,-3.952 0,-5.458 1.505,-1.507 3.949,-1.507 5.456,0 l 8.606,8.607 8.605,-8.605 c 1.507,-1.506 3.951,-1.506 5.457,0 1.507,1.508 1.507,3.95 0,5.457 l -8.604,8.604 8.606,8.607 C 6.963,-3.948 6.963,-1.508 5.456,0 3.95,1.506 1.506,1.506 0,0" /></g><g
           transform="translate(161.6357,132.2598)"
           id="g48"><path
             id="path50"
             style="fill:#ffffff;fill-opacity:1;fill-rule:nonzero;stroke:none"
             d="m 0,0 c -6.372,0 -11.558,-5.184 -11.558,-11.557 0,-6.376 5.186,-11.556 11.558,-11.556 6.376,0 11.561,5.18 11.561,11.556 C 11.561,-5.184 6.376,0 0,0 m 0,-31.522 c -11.008,0 -19.966,8.958 -19.966,19.965 0,11.01 8.958,19.968 19.966,19.968 11.012,0 19.967,-8.958 19.967,-19.968 0,-11.007 -8.955,-19.965 -19.967,-19.965" /></g></g></g></g></svg>