<?xml version="1.0" encoding="UTF-8" standalone="no"?>
<svg
   xmlns:dc="http://purl.org/dc/elements/1.1/"
   xmlns:cc="http://creativecommons.org/ns#"
   xmlns:rdf="http://www.w3.org/1999/02/22-rdf-syntax-ns#"
   xmlns:svg="http://www.w3.org/2000/svg"
   xmlns="http://www.w3.org/2000/svg"
   viewBox="0 0 1455.52 1476.3066"
   height="1476.3066"
   width="1455.52"
   xml:space="preserve"
   id="svg2"
   version="1.1"><metadata
     id="metadata8"><rdf:RDF><cc:Work
         rdf:about=""><dc:format>image/svg+xml</dc:format><dc:type
           rdf:resource="http://purl.org/dc/dcmitype/StillImage" /></cc:Work></rdf:RDF></metadata><defs
     id="defs6"><clipPath
       id="clipPath18"
       clipPathUnits="userSpaceOnUse"><path
         id="path16"
         d="M 0,1107.232 H 1091.645 V 0 H 0 Z" /></clipPath><clipPath
       id="clipPath90"
       clipPathUnits="userSpaceOnUse"><path
         id="path88"
         d="M 0,1107.232 H 1091.645 V 0 H 0 Z" /></clipPath></defs><g
     transform="matrix(1.3333333,0,0,-1.3333333,0,1476.3067)"
     id="g10"><g
       id="g12"><g
         clip-path="url(#clipPath18)"
         id="g14"><text
           id="text22"
           style="font-variant:normal;font-weight:normal;font-stretch:normal;font-size:54.204422px;font-family:Iris;-inkscape-font-specification:IrisNormal;writing-mode:lr-tb;fill:#f9ec31;fill-opacity:1;fill-rule:nonzero;stroke:none"
           transform="matrix(0.05946563,-0.99823035,-0.99823035,-0.05946563,11.4027,533.1542)"><tspan
             id="tspan20"
             y="0"
             x="0">C</tspan></text>
</g></g><text
       id="text26"
       style="font-variant:normal;font-weight:normal;font-stretch:normal;font-size:54.20434189px;font-family:Iris;-inkscape-font-specification:IrisNormal;writing-mode:lr-tb;fill:#f9ec31;fill-opacity:1;fill-rule:nonzero;stroke:none"
       transform="matrix(0.24977334,-0.96830433,-0.96830433,-0.24977334,24.1646,431.7971)"><tspan
         id="tspan24"
         y="0"
         x="0">Y</tspan></text>
<text
       id="text30"
       style="font-variant:normal;font-weight:normal;font-stretch:normal;font-size:54.20438385px;font-family:Iris;-inkscape-font-specification:IrisNormal;writing-mode:lr-tb;fill:#f9ec31;fill-opacity:1;fill-rule:nonzero;stroke:none"
       transform="matrix(0.43333025,-0.9012352,-0.9012352,-0.43333025,56.3565,334.3272)"><tspan
         id="tspan28"
         y="0"
         x="0">B</tspan></text>
<text
       id="text34"
       style="font-variant:normal;font-weight:normal;font-stretch:normal;font-size:54.20436096px;font-family:Iris;-inkscape-font-specification:IrisNormal;writing-mode:lr-tb;fill:#f9ec31;fill-opacity:1;fill-rule:nonzero;stroke:none"
       transform="matrix(0.59635423,-0.80272139,-0.80272139,-0.59635423,107.3293,244.2876)"><tspan
         id="tspan32"
         y="0"
         x="0">E</tspan></text>
<text
       id="text38"
       style="font-variant:normal;font-weight:normal;font-stretch:normal;font-size:54.20438004px;font-family:Iris;-inkscape-font-specification:IrisNormal;writing-mode:lr-tb;fill:#f9ec31;fill-opacity:1;fill-rule:nonzero;stroke:none"
       transform="matrix(0.73713783,-0.67574242,-0.67574242,-0.73713783,171.236,169.0203)"><tspan
         id="tspan36"
         y="0"
         x="0">R</tspan></text>
<text
       id="text42"
       style="font-variant:normal;font-weight:normal;font-stretch:normal;font-size:54.20439529px;font-family:Iris;-inkscape-font-specification:IrisNormal;writing-mode:lr-tb;fill:#f9ec31;fill-opacity:1;fill-rule:nonzero;stroke:none"
       transform="matrix(0.92580682,-0.37799701,-0.37799701,-0.92580682,327.8475,63.0042)"><tspan
         id="tspan40"
         y="0"
         x="0">S</tspan></text>
<text
       id="text46"
       style="font-variant:normal;font-weight:normal;font-stretch:normal;font-size:54.20441055px;font-family:Iris;-inkscape-font-specification:IrisNormal;writing-mode:lr-tb;fill:#f9ec31;fill-opacity:1;fill-rule:nonzero;stroke:none"
       transform="matrix(0.9809718,-0.19415025,-0.19415025,-0.9809718,423.1982,31.2763)"><tspan
         id="tspan44"
         y="0"
         x="0">P</tspan></text>
<text
       id="text50"
       style="font-variant:normal;font-weight:normal;font-stretch:normal;font-size:54.20441055px;font-family:Iris;-inkscape-font-specification:IrisNormal;writing-mode:lr-tb;fill:#f9ec31;fill-opacity:1;fill-rule:nonzero;stroke:none"
       transform="matrix(0.99999242,-0.00389267,-0.00389267,-0.99999242,524.1617,18.1508)"><tspan
         id="tspan48"
         y="0"
         x="0">O</tspan></text>
<text
       id="text54"
       style="font-variant:normal;font-weight:normal;font-stretch:normal;font-size:54.20436859px;font-family:Iris;-inkscape-font-specification:IrisNormal;writing-mode:lr-tb;fill:#f9ec31;fill-opacity:1;fill-rule:nonzero;stroke:none"
       transform="matrix(0.98038962,0.19706899,0.19706899,-0.98038962,631.1842,25.1895)"><tspan
         id="tspan52"
         y="0"
         x="0">R</tspan></text>
<text
       id="text58"
       style="font-variant:normal;font-weight:normal;font-stretch:normal;font-size:54.20440674px;font-family:Iris;-inkscape-font-specification:IrisNormal;writing-mode:lr-tb;fill:#f9ec31;fill-opacity:1;fill-rule:nonzero;stroke:none"
       transform="matrix(0.92450416,0.38117196,0.38117196,-0.92450416,731.4138,52.4561)"><tspan
         id="tspan56"
         y="0"
         x="0">T</tspan></text>
<text
       id="text62"
       style="font-variant:normal;font-weight:normal;font-stretch:normal;font-size:54.20440292px;font-family:Iris;-inkscape-font-specification:IrisNormal;writing-mode:lr-tb;fill:#f9ec31;fill-opacity:1;fill-rule:nonzero;stroke:none"
       transform="matrix(0.73485911,0.6782198,0.6782198,-0.73485911,889.7753,146.9877)"><tspan
         id="tspan60"
         y="0"
         x="0">A</tspan></text>
<text
       id="text66"
       style="font-variant:normal;font-weight:normal;font-stretch:normal;font-size:54.20440292px;font-family:Iris;-inkscape-font-specification:IrisNormal;writing-mode:lr-tb;fill:#f9ec31;fill-opacity:1;fill-rule:nonzero;stroke:none"
       transform="matrix(0.58890049,0.80820555,0.80820555,-0.58890049,962.0254,223.0767)"><tspan
         id="tspan64"
         y="0"
         x="0">R</tspan></text>
<text
       id="text70"
       style="font-variant:normal;font-weight:normal;font-stretch:normal;font-size:54.20439148px;font-family:Iris;-inkscape-font-specification:IrisNormal;writing-mode:lr-tb;fill:#f9ec31;fill-opacity:1;fill-rule:nonzero;stroke:none"
       transform="matrix(0.4247977,0.9052883,0.9052883,-0.4247977,1017.4448,310.8816)"><tspan
         id="tspan68"
         y="0"
         x="0">E</tspan></text>
<text
       id="text74"
       style="font-variant:normal;font-weight:normal;font-stretch:normal;font-size:54.20441055px;font-family:Iris;-inkscape-font-specification:IrisNormal;writing-mode:lr-tb;fill:#f9ec31;fill-opacity:1;fill-rule:nonzero;stroke:none"
       transform="matrix(0.24010224,0.97074761,0.97074761,-0.24010224,1053.5381,402.9637)"><tspan
         id="tspan72"
         y="0"
         x="0">N</tspan></text>
<text
       id="text78"
       style="font-variant:normal;font-weight:normal;font-stretch:normal;font-size:54.20435715px;font-family:Iris;-inkscape-font-specification:IrisNormal;writing-mode:lr-tb;fill:#f9ec31;fill-opacity:1;fill-rule:nonzero;stroke:none"
       transform="matrix(0.04148191,0.99913926,0.99913926,-0.04148191,1072.3823,509.326)"><tspan
         id="tspan76"
         y="0"
         x="0">A</tspan></text>
<g
       transform="translate(898.4023,530.0776)"
       id="g80"><path
         id="path82"
         style="fill:#f9ec31;fill-opacity:1;fill-rule:nonzero;stroke:none"
         d="m 0,0 -34.479,68.493 h -90.398 L -157.494,0 h -27.025 l 45.662,93.191 h 92.262 l -52.653,104.841 h 28.421 L 27.957,0 Z" /></g><g
       id="g84"><g
         clip-path="url(#clipPath90)"
         id="g86"><g
           transform="translate(300.333,573.8242)"
           id="g92"><path
             id="path94"
             style="fill:#f9ec31;fill-opacity:1;fill-rule:nonzero;stroke:none"
             d="m 0,0 c -13.22,-12.181 -30.856,-19.652 -50.255,-19.652 -40.989,0 -74.218,33.229 -74.218,74.217 0,40.989 33.229,74.216 74.218,74.216 19.399,0 37.035,-7.468 50.255,-19.653 3.314,7.953 7.334,15.529 11.976,22.668 -17.02,13.734 -38.656,21.976 -62.231,21.976 -54.79,0 -99.206,-44.418 -99.206,-99.207 0,-54.787 44.416,-99.202 99.206,-99.202 23.575,0 45.209,8.236 62.231,21.973 C 7.334,-15.529 3.314,-7.949 0,0" /></g><g
           transform="translate(713.8496,629.7231)"
           id="g96"><path
             id="path98"
             style="fill:#f9ec31;fill-opacity:1;fill-rule:nonzero;stroke:none"
             d="m 0,0 c -0.012,0.843 -0.031,1.68 -0.065,2.519 -0.035,0.916 -0.084,1.826 -0.141,2.728 -0.045,0.646 -0.093,1.291 -0.148,1.934 -0.101,1.152 -0.22,2.302 -0.355,3.446 -0.044,0.352 -0.087,0.703 -0.137,1.058 -0.189,1.466 -0.416,2.92 -0.673,4.364 -0.002,0.028 -0.004,0.049 -0.012,0.075 -2.096,11.815 -6.275,22.903 -12.159,32.871 -0.007,0.012 -0.012,0.022 -0.019,0.038 -0.734,1.24 -1.5,2.466 -2.287,3.676 -0.148,0.224 -0.287,0.454 -0.435,0.682 -0.654,0.983 -1.333,1.947 -2.021,2.908 -0.288,0.404 -0.565,0.814 -0.859,1.212 -0.578,0.781 -1.178,1.546 -1.779,2.311 -0.413,0.527 -0.819,1.06 -1.24,1.583 -0.534,0.648 -1.089,1.284 -1.635,1.922 -0.506,0.585 -1.002,1.173 -1.515,1.745 -0.559,0.619 -1.135,1.214 -1.707,1.817 -0.519,0.548 -1.032,1.1 -1.561,1.639 -0.691,0.694 -1.4,1.359 -2.109,2.038 -0.424,0.4 -0.842,0.817 -1.276,1.212 -0.954,0.877 -1.942,1.73 -2.935,2.573 -0.187,0.157 -0.37,0.329 -0.559,0.481 -11.97,9.997 -26.33,17.21 -42.095,20.689 -0.118,0.026 -0.234,0.058 -0.348,0.082 -1.183,0.251 -2.376,0.481 -3.575,0.696 -0.51,0.09 -1.016,0.187 -1.524,0.272 -0.859,0.138 -1.725,0.253 -2.591,0.375 -0.869,0.117 -1.737,0.233 -2.614,0.329 -0.572,0.063 -1.15,0.111 -1.724,0.166 -1.173,0.106 -2.34,0.202 -3.518,0.268 -0.366,0.018 -0.733,0.031 -1.099,0.05 -1.357,0.062 -2.717,0.095 -4.08,0.105 -0.126,0 -0.249,0.006 -0.376,0.006 -0.189,0 -0.372,-0.01 -0.56,-0.01 -1.202,-0.009 -2.4,-0.03 -3.603,-0.083 -0.368,-0.017 -0.732,-0.037 -1.1,-0.057 -1.126,-0.062 -2.252,-0.127 -3.383,-0.228 -0.535,-0.048 -1.066,-0.106 -1.599,-0.166 -0.953,-0.097 -1.903,-0.194 -2.857,-0.325 -1.051,-0.135 -2.097,-0.307 -3.138,-0.483 -0.444,-0.072 -0.888,-0.125 -1.329,-0.209 -3.229,-0.576 -6.396,-1.322 -9.508,-2.208 -0.206,-0.056 -0.412,-0.122 -0.618,-0.184 -1.335,-0.39 -2.653,-0.799 -3.963,-1.244 -0.155,-0.053 -0.311,-0.09 -0.465,-0.147 -0.314,-0.109 -0.621,-0.226 -0.935,-0.338 -0.702,-0.25 -1.406,-0.499 -2.099,-0.765 -0.828,-0.312 -1.642,-0.643 -2.459,-0.968 -0.35,-0.153 -0.707,-0.29 -1.06,-0.438 -16.133,-6.809 -29.612,-17.498 -39.735,-30.583 -0.026,-0.032 -0.058,-0.047 -0.078,-0.082 -0.187,-0.235 -0.363,-0.491 -0.55,-0.733 -0.18,-0.235 -0.368,-0.46 -0.543,-0.704 0.004,-0.003 0.004,-0.005 0.005,-0.005 -20.214,-27.072 -33.255,-72.463 -49.586,-99.572 -2.858,-4.419 -6.186,-8.547 -9.952,-12.298 -0.006,0.01 -0.008,0.019 -0.011,0.032 -4.985,-4.962 -10.669,-9.217 -16.89,-12.609 -0.132,-0.07 -0.264,-0.143 -0.398,-0.214 -0.798,-0.427 -1.607,-0.834 -2.422,-1.236 -0.376,-0.186 -0.755,-0.364 -1.136,-0.547 -0.576,-0.271 -1.165,-0.532 -1.752,-0.786 -0.602,-0.266 -1.204,-0.523 -1.819,-0.772 -0.393,-0.161 -0.794,-0.315 -1.193,-0.471 -0.77,-0.299 -1.545,-0.587 -2.332,-0.858 -0.282,-0.102 -0.566,-0.188 -0.845,-0.29 -0.922,-0.304 -1.843,-0.596 -2.768,-0.863 -0.301,-0.091 -0.599,-0.173 -0.901,-0.259 -0.858,-0.236 -1.72,-0.46 -2.582,-0.662 -0.417,-0.106 -0.835,-0.203 -1.255,-0.293 -0.72,-0.16 -1.437,-0.305 -2.153,-0.444 -0.593,-0.112 -1.184,-0.219 -1.779,-0.317 -0.542,-0.094 -1.08,-0.175 -1.62,-0.249 -0.784,-0.115 -1.571,-0.212 -2.362,-0.302 -0.36,-0.033 -0.722,-0.078 -1.079,-0.108 -0.958,-0.091 -1.916,-0.163 -2.884,-0.218 -0.228,-0.012 -0.45,-0.026 -0.678,-0.038 -1.061,-0.047 -2.127,-0.071 -3.2,-0.081 h -0.532 c -1.055,0.003 -2.103,0.034 -3.15,0.081 -0.247,0.009 -0.494,0.019 -0.744,0.034 -0.897,0.049 -1.794,0.121 -2.687,0.201 -0.415,0.042 -0.832,0.072 -1.246,0.12 -0.666,0.071 -1.325,0.164 -1.984,0.251 -0.64,0.09 -1.285,0.175 -1.922,0.281 -0.381,0.062 -0.757,0.133 -1.133,0.198 -0.903,0.166 -1.804,0.334 -2.697,0.526 -0.067,0.015 -0.136,0.038 -0.203,0.053 -12.745,2.826 -24.586,8.985 -34.228,17.838 -0.126,0.121 -0.248,0.241 -0.374,0.357 -0.73,0.681 -1.455,1.371 -2.16,2.087 -0.219,0.221 -0.43,0.452 -0.647,0.678 -0.609,0.632 -1.214,1.263 -1.801,1.921 -0.226,0.25 -0.442,0.514 -0.668,0.767 -0.571,0.656 -1.142,1.308 -1.689,1.987 -0.177,0.217 -0.349,0.445 -0.522,0.665 -0.592,0.747 -1.176,1.493 -1.744,2.262 -0.092,0.13 -0.183,0.264 -0.276,0.393 -4.209,5.82 -7.645,12.355 -10.091,19.505 -1.643,4.813 -2.762,9.673 -3.395,14.525 -0.01,0.081 -0.019,0.162 -0.032,0.247 -0.129,1.039 -0.233,2.08 -0.322,3.122 -0.022,0.299 -0.046,0.595 -0.065,0.893 -0.063,0.862 -0.106,1.72 -0.138,2.582 -0.015,0.441 -0.023,0.888 -0.031,1.33 -0.015,0.776 -0.021,1.55 -0.009,2.324 0.007,0.456 0.02,0.918 0.035,1.371 0.026,0.812 0.058,1.621 0.111,2.429 0.024,0.339 0.051,0.675 0.078,1.014 0.075,0.948 0.159,1.894 0.27,2.838 0.016,0.129 0.035,0.258 0.05,0.387 1.755,14.194 7.59,27.589 16.694,38.515 0.095,0.112 0.194,0.224 0.287,0.335 0.645,0.763 1.301,1.516 1.977,2.255 0.334,0.367 0.683,0.716 1.023,1.074 0.456,0.479 0.91,0.96 1.382,1.428 0.492,0.491 1.003,0.96 1.508,1.442 0.35,0.323 0.689,0.66 1.042,0.979 0.567,0.51 1.148,1.003 1.729,1.494 0.328,0.277 0.651,0.566 0.983,0.836 0.565,0.465 1.14,0.909 1.721,1.354 0.383,0.295 0.761,0.601 1.155,0.883 0.502,0.376 1.021,0.73 1.532,1.094 0.5,0.352 0.994,0.707 1.504,1.043 0.404,0.269 0.818,0.526 1.229,0.788 0.653,0.416 1.304,0.829 1.975,1.226 0.277,0.166 0.563,0.327 0.842,0.49 0.833,0.475 1.665,0.945 2.514,1.387 0.145,0.081 0.29,0.152 0.434,0.223 1.003,0.523 2.019,1.021 3.052,1.499 0.021,0.01 0.045,0.019 0.064,0.033 1.658,0.755 3.366,1.442 5.097,2.085 l -11.206,22.466 c -1.422,-0.573 -2.831,-1.164 -4.216,-1.804 -0.092,-0.04 -0.185,-0.077 -0.278,-0.125 -1.302,-0.6 -2.586,-1.235 -3.856,-1.89 -0.27,-0.138 -0.543,-0.271 -0.81,-0.414 -1.043,-0.55 -2.069,-1.126 -3.09,-1.714 -0.469,-0.265 -0.942,-0.532 -1.406,-0.805 -0.778,-0.468 -1.545,-0.956 -2.313,-1.44 -0.659,-0.417 -1.322,-0.831 -1.97,-1.266 -0.549,-0.36 -1.085,-0.747 -1.622,-1.125 -0.822,-0.571 -1.644,-1.14 -2.444,-1.734 -0.369,-0.273 -0.726,-0.562 -1.09,-0.839 -0.928,-0.71 -1.853,-1.424 -2.753,-2.162 -0.26,-0.215 -0.516,-0.441 -0.776,-0.66 -0.962,-0.809 -1.916,-1.623 -2.844,-2.465 -0.263,-0.234 -0.51,-0.483 -0.771,-0.726 -0.894,-0.826 -1.782,-1.656 -2.641,-2.519 -0.385,-0.376 -0.748,-0.774 -1.124,-1.162 -0.705,-0.725 -1.411,-1.447 -2.092,-2.19 -0.629,-0.691 -1.232,-1.403 -1.846,-2.106 -0.39,-0.462 -0.795,-0.899 -1.176,-1.362 -0.968,-1.161 -1.901,-2.342 -2.817,-3.542 -0.011,-0.016 -0.02,-0.026 -0.028,-0.044 -9.431,-12.426 -15.98,-27.146 -18.704,-43.177 -0.015,-0.091 -0.034,-0.187 -0.049,-0.279 -0.213,-1.27 -0.393,-2.551 -0.556,-3.839 -0.056,-0.429 -0.115,-0.858 -0.165,-1.29 -0.116,-1.021 -0.207,-2.035 -0.291,-3.058 -0.058,-0.703 -0.117,-1.402 -0.161,-2.109 -0.049,-0.835 -0.085,-1.674 -0.115,-2.513 -0.035,-0.866 -0.056,-1.726 -0.065,-2.591 -0.004,-0.346 -0.028,-0.687 -0.028,-1.034 0,-0.449 0.03,-0.887 0.033,-1.333 0.013,-0.842 0.033,-1.687 0.065,-2.531 0.038,-0.91 0.085,-1.811 0.145,-2.712 0.044,-0.652 0.091,-1.302 0.147,-1.95 0.098,-1.146 0.216,-2.29 0.352,-3.426 0.045,-0.363 0.09,-0.72 0.137,-1.084 0.194,-1.453 0.418,-2.896 0.669,-4.33 0.005,-0.041 0.014,-0.077 0.021,-0.116 2.094,-11.774 6.259,-22.837 12.115,-32.781 0.028,-0.046 0.053,-0.091 0.077,-0.133 0.716,-1.21 1.457,-2.398 2.22,-3.574 0.172,-0.262 0.334,-0.526 0.502,-0.781 0.629,-0.945 1.279,-1.868 1.937,-2.796 0.318,-0.439 0.624,-0.893 0.95,-1.328 0.542,-0.737 1.106,-1.453 1.667,-2.17 0.448,-0.577 0.894,-1.157 1.356,-1.724 0.486,-0.598 0.994,-1.179 1.496,-1.761 0.55,-0.637 1.091,-1.284 1.655,-1.906 0.498,-0.557 1.015,-1.085 1.528,-1.632 0.578,-0.611 1.149,-1.229 1.742,-1.826 0.613,-0.619 1.248,-1.214 1.879,-1.81 0.502,-0.483 0.996,-0.971 1.504,-1.444 0.867,-0.79 1.76,-1.555 2.655,-2.32 0.282,-0.242 0.56,-0.496 0.845,-0.735 11.912,-9.937 26.193,-17.118 41.87,-20.609 0.203,-0.045 0.411,-0.098 0.618,-0.142 1.098,-0.236 2.209,-0.444 3.323,-0.654 0.593,-0.101 1.183,-0.213 1.779,-0.313 0.777,-0.121 1.563,-0.23 2.351,-0.335 0.95,-0.135 1.9,-0.264 2.857,-0.369 0.499,-0.052 0.999,-0.095 1.498,-0.142 1.247,-0.118 2.496,-0.215 3.748,-0.283 0.294,-0.016 0.587,-0.028 0.878,-0.038 1.432,-0.069 2.866,-0.108 4.308,-0.112 0.093,0 0.186,-0.009 0.281,-0.009 0.137,0 0.274,0.009 0.411,0.013 1.29,0 2.577,0.028 3.871,0.088 0.275,0.011 0.549,0.03 0.825,0.042 1.218,0.063 2.437,0.14 3.658,0.25 0.425,0.039 0.851,0.086 1.276,0.129 1.06,0.11 2.12,0.221 3.179,0.364 0.783,0.103 1.552,0.234 2.329,0.358 0.715,0.116 1.432,0.212 2.145,0.341 3.187,0.576 6.321,1.312 9.396,2.186 0.227,0.064 0.453,0.14 0.679,0.204 1.305,0.383 2.6,0.788 3.88,1.219 0.158,0.053 0.316,0.096 0.472,0.149 0.433,0.147 0.852,0.311 1.28,0.467 0.607,0.218 1.216,0.429 1.816,0.659 1.125,0.426 2.239,0.875 3.343,1.337 0.07,0.029 0.149,0.06 0.222,0.091 16.707,7.073 30.577,18.303 40.798,32.055 13.219,17.638 35.925,77.401 50.548,101.033 0.012,0.025 0.021,0.058 0.037,0.083 2.752,4.031 5.917,7.797 9.444,11.246 0.006,-0.013 0.012,-0.027 0.015,-0.04 5.733,5.605 12.372,10.281 19.67,13.803 0.255,0.121 0.509,0.25 0.768,0.371 0.646,0.302 1.307,0.585 1.965,0.873 0.524,0.225 1.048,0.455 1.58,0.673 0.43,0.172 0.861,0.333 1.297,0.497 0.737,0.287 1.478,0.564 2.23,0.828 0.277,0.093 0.553,0.186 0.829,0.273 0.929,0.314 1.86,0.603 2.789,0.874 0.284,0.085 0.568,0.163 0.851,0.243 0.888,0.246 1.77,0.473 2.657,0.684 0.389,0.093 0.774,0.184 1.163,0.265 0.76,0.171 1.517,0.326 2.279,0.47 0.545,0.102 1.089,0.198 1.637,0.289 0.593,0.102 1.188,0.192 1.781,0.272 0.718,0.104 1.442,0.194 2.166,0.275 0.428,0.046 0.857,0.094 1.284,0.131 0.874,0.083 1.754,0.15 2.638,0.198 0.299,0.014 0.601,0.032 0.898,0.051 0.974,0.039 1.952,0.065 2.933,0.072 0.256,0 0.507,0.002 0.759,0 0.978,-0.003 1.956,-0.033 2.927,-0.072 0.32,-0.013 0.641,-0.028 0.96,-0.044 0.823,-0.05 1.643,-0.118 2.462,-0.186 0.49,-0.051 0.984,-0.085 1.474,-0.143 0.585,-0.067 1.162,-0.144 1.743,-0.221 0.719,-0.097 1.438,-0.196 2.149,-0.311 0.302,-0.054 0.595,-0.106 0.893,-0.159 13.923,-2.482 26.909,-8.901 37.324,-18.481 0.045,-0.039 0.091,-0.081 0.134,-0.125 0.814,-0.753 1.618,-1.523 2.399,-2.313 0.153,-0.156 0.297,-0.318 0.45,-0.474 0.676,-0.696 1.343,-1.4 1.995,-2.124 0.173,-0.196 0.341,-0.397 0.515,-0.593 0.624,-0.714 1.244,-1.432 1.842,-2.169 0.136,-0.166 0.265,-0.339 0.398,-0.507 0.637,-0.793 1.262,-1.599 1.866,-2.419 0.059,-0.085 0.118,-0.169 0.177,-0.255 4.244,-5.852 7.704,-12.414 10.165,-19.61 1.646,-4.818 2.766,-9.686 3.397,-14.547 0.008,-0.066 0.016,-0.13 0.023,-0.199 0.136,-1.052 0.239,-2.109 0.324,-3.163 0.027,-0.283 0.048,-0.57 0.068,-0.862 0.062,-0.87 0.107,-1.738 0.137,-2.606 0.015,-0.437 0.028,-0.872 0.034,-1.31 0.012,-0.78 0.018,-1.561 0.007,-2.342 -0.003,-0.451 -0.018,-0.908 -0.033,-1.36 -0.026,-0.815 -0.059,-1.622 -0.115,-2.432 -0.02,-0.338 -0.05,-0.678 -0.075,-1.016 -0.077,-0.942 -0.157,-1.889 -0.269,-2.83 -0.016,-0.134 -0.036,-0.267 -0.051,-0.405 -1.756,-14.176 -7.579,-27.553 -16.667,-38.471 -0.172,-0.208 -0.353,-0.404 -0.525,-0.609 -0.567,-0.668 -1.144,-1.328 -1.736,-1.98 -0.41,-0.449 -0.836,-0.882 -1.257,-1.318 -0.38,-0.397 -0.754,-0.798 -1.142,-1.185 -0.569,-0.559 -1.149,-1.107 -1.732,-1.65 -0.274,-0.258 -0.542,-0.517 -0.82,-0.772 -0.634,-0.573 -1.282,-1.124 -1.935,-1.674 -0.259,-0.217 -0.51,-0.444 -0.771,-0.658 -0.628,-0.513 -1.272,-1.008 -1.916,-1.506 -0.321,-0.239 -0.632,-0.491 -0.953,-0.731 -0.566,-0.423 -1.148,-0.821 -1.726,-1.229 -0.436,-0.301 -0.865,-0.609 -1.31,-0.903 -0.462,-0.312 -0.938,-0.609 -1.411,-0.905 -0.592,-0.374 -1.18,-0.754 -1.787,-1.112 -0.333,-0.205 -0.68,-0.394 -1.021,-0.585 -0.766,-0.445 -1.54,-0.88 -2.33,-1.294 -0.2,-0.108 -0.407,-0.207 -0.61,-0.314 -0.944,-0.488 -1.899,-0.957 -2.869,-1.402 -0.079,-0.041 -0.159,-0.078 -0.24,-0.111 -1.095,-0.499 -2.199,-0.978 -3.323,-1.427 h -0.005 c -0.543,-0.222 -1.107,-0.41 -1.658,-0.614 l 11.21,-22.476 c 1.376,0.558 2.739,1.14 4.084,1.755 0.161,0.072 0.324,0.143 0.482,0.218 1.23,0.569 2.443,1.17 3.644,1.788 0.339,0.172 0.68,0.34 1.017,0.517 0.97,0.515 1.926,1.051 2.876,1.595 0.543,0.308 1.08,0.61 1.608,0.925 0.71,0.424 1.405,0.867 2.103,1.309 0.731,0.457 1.462,0.917 2.179,1.396 0.473,0.314 0.934,0.65 1.404,0.973 0.894,0.62 1.782,1.238 2.65,1.885 0.297,0.218 0.58,0.448 0.869,0.669 1.004,0.765 2,1.533 2.966,2.332 0.187,0.152 0.366,0.315 0.555,0.467 1.037,0.868 2.065,1.751 3.064,2.656 0.183,0.168 0.358,0.342 0.543,0.51 0.97,0.896 1.931,1.8 2.864,2.731 0.303,0.301 0.594,0.616 0.895,0.924 0.78,0.805 1.563,1.601 2.317,2.431 0.549,0.604 1.075,1.226 1.614,1.843 0.469,0.54 0.948,1.073 1.406,1.622 0.891,1.071 1.754,2.172 2.601,3.279 0.078,0.1 0.163,0.202 0.24,0.304 9.411,12.417 15.952,27.116 18.674,43.121 0.021,0.106 0.042,0.212 0.059,0.317 0.208,1.262 0.389,2.535 0.55,3.817 0.059,0.435 0.118,0.873 0.17,1.312 0.112,1.008 0.203,2.022 0.288,3.042 0.059,0.702 0.118,1.416 0.16,2.118 0.051,0.836 0.084,1.674 0.118,2.51 0.034,0.861 0.058,1.727 0.065,2.589 0.004,0.351 0.027,0.692 0.027,1.042 C 0.034,-0.889 0.006,-0.445 0,0" /></g><g
           transform="translate(696.1074,474.0942)"
           id="g100"><path
             id="path102"
             style="fill:#f9ec31;fill-opacity:1;fill-rule:nonzero;stroke:none"
             d="m 0,0 c 0,-3.759 -2.562,-5.637 -7.681,-5.637 h -70.892 c -5.122,0 -7.681,2.159 -7.681,6.478 0,4.037 2.559,6.056 7.681,6.056 H -6.478 C -2.159,6.897 0,4.6 0,0" /></g><g
           transform="translate(696.1074,400.7358)"
           id="g104"><path
             id="path106"
             style="fill:#f9ec31;fill-opacity:1;fill-rule:nonzero;stroke:none"
             d="m 0,0 c 0,-3.755 -2.562,-5.634 -7.681,-5.634 h -70.892 c -5.122,0 -7.681,2.159 -7.681,6.476 0,4.044 2.559,6.059 7.681,6.059 H -6.478 C -2.159,6.901 0,4.602 0,0" /></g><g
           transform="translate(477.0547,481.2256)"
           id="g108"><path
             id="path110"
             style="fill:#f9ec31;fill-opacity:1;fill-rule:nonzero;stroke:none"
             d="m 0,0 c 3.758,0 5.637,-2.562 5.637,-7.68 v -70.894 c 0,-5.119 -2.158,-7.677 -6.477,-7.677 -4.041,0 -6.057,2.558 -6.057,7.677 V -6.477 C -6.897,-2.16 -4.603,0 0,0" /></g><g
           transform="translate(696.1074,437.064)"
           id="g112"><path
             id="path114"
             style="fill:#f9ec31;fill-opacity:1;fill-rule:nonzero;stroke:none"
             d="m 0,0 c 0,-3.754 -2.562,-5.638 -7.681,-5.638 h -70.892 c -5.122,0 -7.681,2.159 -7.681,6.479 0,4.04 2.559,6.058 7.681,6.058 H -6.478 C -2.159,6.899 0,4.603 0,0" /></g><g
           transform="translate(589.5762,475.2261)"
           id="g116"><path
             id="path118"
             style="fill:#f9ec31;fill-opacity:1;fill-rule:nonzero;stroke:none"
             d="m 0,0 c 0,-0.681 -0.259,-2.017 -0.78,-4.019 -6.357,-6.316 -27.369,-27.587 -63.039,-63.816 H -6.417 C -2.14,-68.358 0,-70.216 0,-73.414 c 0,-4.56 -2.54,-6.837 -7.617,-6.837 h -70.237 c -5.077,0 -7.619,1.999 -7.619,5.997 0,0.401 0.263,1.62 0.78,3.662 6.318,6.316 27.334,27.586 63.041,63.814 h -56.202 c -5.077,0 -7.619,1.998 -7.619,5.998 0,4.28 2.141,6.419 6.418,6.419 H -6.417 C -2.14,5.079 0,3.199 0,0" /></g><g
           transform="translate(720.5107,480.8647)"
           id="g120"><path
             id="path122"
             style="fill:#f9ec31;fill-opacity:1;fill-rule:nonzero;stroke:none"
             d="m 0,0 c 3.719,0 5.578,-2.537 5.578,-7.616 v -65.858 h 60.639 v 67.055 c 0,4.28 2.28,6.419 6.839,6.419 3.715,0 5.578,-2.537 5.578,-7.616 V -80.25 c 0,-3.44 -2.538,-5.323 -7.618,-5.64 H -1.199 c -3.038,0 -4.919,2.278 -5.64,6.838 V -6.419 C -6.839,-2.139 -4.56,0 0,0" /></g><g
           transform="translate(236.7627,473.8179)"
           id="g124"><path
             id="path126"
             style="fill:#f9ec31;fill-opacity:1;fill-rule:nonzero;stroke:none"
             d="M 0,0 C 0,-3.718 -2.539,-5.575 -7.618,-5.575 H -73.475 V -66.217 H -6.42 c 4.281,0 6.42,-2.279 6.42,-6.839 0,-3.715 -2.539,-5.578 -7.618,-5.578 h -72.634 c -3.441,0 -5.32,2.541 -5.639,7.616 V 1.2 c 0,3.036 2.279,4.918 6.837,5.636 H -6.42 C -2.139,6.836 0,4.559 0,0" /></g><path
           id="path128"
           style="fill:#f9ec31;fill-opacity:1;fill-rule:nonzero;stroke:none"
           d="m 268.337,468.956 h 60.639 v -61.565 h -60.639 z m 67.479,11.909 H 262.76 c -4.559,0 -6.837,-2.139 -6.837,-6.419 v -72.634 c 0.717,-4.56 2.598,-6.837 5.639,-6.837 h 72.213 c 5.079,0.317 7.619,2.199 7.619,5.639 v 72.635 c 0,5.079 -1.861,7.616 -5.578,7.616" /><g
           transform="translate(823.5557,480.8647)"
           id="g130"><path
             id="path132"
             style="fill:#f9ec31;fill-opacity:1;fill-rule:nonzero;stroke:none"
             d="m 0,0 h 0.838 c 3.121,0 7.54,-5.242 13.259,-15.712 1.757,-2.002 13.195,-19.476 34.307,-52.424 h 0.419 c 0,0.518 14.373,22.55 43.126,66.097 C 94.108,-0.68 95.587,0 96.388,0 h 0.781 c 2.638,0 4.518,-2.02 5.635,-6.057 v -0.781 c 0,-1.359 -7.518,-13.334 -22.55,-35.928 15.032,-22.911 22.55,-35.007 22.55,-36.286 v -1.198 c -1.079,-3.763 -2.959,-5.64 -5.635,-5.64 h -0.781 c -3.24,0 -8.359,6.316 -15.354,18.953 -4.159,5.796 -6.84,9.957 -8.039,12.476 -0.282,0 -6.859,-9.798 -19.735,-29.392 -1.558,-1.358 -2.916,-2.037 -4.075,-2.037 h -1.202 c -2.795,0 -8.176,6.858 -16.133,20.571 l -7.618,10.858 C 13.116,-72.653 6.257,-82.87 3.66,-85.111 L 0.838,-85.89 H 0 c -2.721,0 -4.6,2.018 -5.639,6.058 v 0.78 c 0,1.279 7.518,13.375 22.552,36.286 v 0.421 C 3.118,-22.311 -4.397,-10.476 -5.639,-6.838 v 0.781 C -4.478,-2.02 -2.598,0 0,0" /></g><g
           transform="translate(443.8525,407.5103)"
           id="g134"><path
             id="path136"
             style="fill:#f9ec31;fill-opacity:1;fill-rule:nonzero;stroke:none"
             d="m 0,0 h -67.357 v 65.739 c 0,5.079 -1.86,7.615 -5.582,7.615 -4.557,0 -6.834,-2.138 -6.834,-6.418 V -5.698 c 0.006,-0.036 0.012,-0.068 0.019,-0.107 -0.003,-0.089 -0.019,-0.164 -0.019,-0.254 0,-2.341 0.778,-4.023 2.284,-5.098 0.891,-0.901 2.003,-1.379 3.353,-1.379 h 2.037 61.812 9.082 c 5.121,0 7.682,1.878 7.682,5.636 C 6.477,-2.299 4.317,0 0,0" /></g></g></g><text
       id="text140"
       style="font-variant:normal;font-weight:normal;font-stretch:normal;font-size:50.69533539px;font-family:Iris;-inkscape-font-specification:IrisNormal;writing-mode:lr-tb;fill:#f9ec31;fill-opacity:1;fill-rule:nonzero;stroke:none"
       transform="matrix(0.19601409,0.98060108,0.98060108,-0.19601409,54.513,642.1864)"><tspan
         id="tspan138"
         y="0"
         x="0">.</tspan></text>
<text
       id="text144"
       style="font-variant:normal;font-weight:normal;font-stretch:normal;font-size:50.69531631px;font-family:Iris;-inkscape-font-specification:IrisNormal;writing-mode:lr-tb;fill:#f9ec31;fill-opacity:1;fill-rule:nonzero;stroke:none"
       transform="matrix(0.49097237,0.87117514,0.87117514,-0.49097237,102.1982,779.7368)"><tspan
         id="tspan142"
         y="0"
         x="0">P</tspan></text>
<text
       id="text148"
       style="font-variant:normal;font-weight:normal;font-stretch:normal;font-size:50.69532394px;font-family:Iris;-inkscape-font-specification:IrisNormal;writing-mode:lr-tb;fill:#f9ec31;fill-opacity:1;fill-rule:nonzero;stroke:none"
       transform="matrix(0.6361849,0.77153663,0.77153663,-0.6361849,151.0135,855.1467)"><tspan
         id="tspan146"
         y="0"
         x="0">L</tspan></text>
<text
       id="text152"
       style="font-variant:normal;font-weight:normal;font-stretch:normal;font-size:50.69526291px;font-family:Iris;-inkscape-font-specification:IrisNormal;writing-mode:lr-tb;fill:#f9ec31;fill-opacity:1;fill-rule:nonzero;stroke:none"
       transform="matrix(0.76281682,0.64661464,0.64661464,-0.76281682,209.0518,917.6326)"><tspan
         id="tspan150"
         y="0"
         x="0">A</tspan></text>
<text
       id="text156"
       style="font-variant:normal;font-weight:normal;font-stretch:normal;font-size:50.69527435px;font-family:Iris;-inkscape-font-specification:IrisNormal;writing-mode:lr-tb;fill:#f9ec31;fill-opacity:1;fill-rule:nonzero;stroke:none"
       transform="matrix(0.86780872,0.4968984,0.4968984,-0.86780872,283.079,973.0436)"><tspan
         id="tspan154"
         y="0"
         x="0">C</tspan></text>
<text
       id="text160"
       style="font-variant:normal;font-weight:normal;font-stretch:normal;font-size:50.69532776px;font-family:Iris;-inkscape-font-specification:IrisNormal;writing-mode:lr-tb;fill:#f9ec31;fill-opacity:1;fill-rule:nonzero;stroke:none"
       transform="matrix(0.94234524,0.33464228,0.33464228,-0.94234524,363.7508,1012.9025)"><tspan
         id="tspan158"
         y="0"
         x="0">E</tspan></text>
<text
       id="text164"
       style="font-variant:normal;font-weight:normal;font-stretch:normal;font-size:50.69527817px;font-family:Iris;-inkscape-font-specification:IrisNormal;writing-mode:lr-tb;fill:#f9ec31;fill-opacity:1;fill-rule:nonzero;stroke:none"
       transform="matrix(0.99992351,0.01236802,0.01236802,-0.99992351,522.4119,1045.6543)"><tspan
         id="tspan162"
         y="0"
         x="0">T</tspan></text>
<text
       id="text168"
       style="font-variant:normal;font-weight:normal;font-stretch:normal;font-size:50.69524002px;font-family:Iris;-inkscape-font-specification:IrisNormal;writing-mode:lr-tb;fill:#f9ec31;fill-opacity:1;fill-rule:nonzero;stroke:none"
       transform="matrix(0.98579473,-0.16795463,-0.16795463,-0.98579473,609.4643,1041.6624)"><tspan
         id="tspan166"
         y="0"
         x="0">O</tspan></text>
<text
       id="text172"
       style="font-variant:normal;font-weight:normal;font-stretch:normal;font-size:50.69532394px;font-family:Iris;-inkscape-font-specification:IrisNormal;writing-mode:lr-tb;fill:#f9ec31;fill-opacity:1;fill-rule:nonzero;stroke:none"
       transform="matrix(0.87321074,-0.48734279,-0.48734279,-0.87321074,771.2586,990.4285)"><tspan
         id="tspan170"
         y="0"
         x="0">P</tspan></text>
<text
       id="text176"
       style="font-variant:normal;font-weight:normal;font-stretch:normal;font-size:50.69531631px;font-family:Iris;-inkscape-font-specification:IrisNormal;writing-mode:lr-tb;fill:#f9ec31;fill-opacity:1;fill-rule:nonzero;stroke:none"
       transform="matrix(0.77417012,-0.63297759,-0.63297759,-0.77417012,846.8639,941.9316)"><tspan
         id="tspan174"
         y="0"
         x="0">L</tspan></text>
<text
       id="text180"
       style="font-variant:normal;font-weight:normal;font-stretch:normal;font-size:50.6952858px;font-family:Iris;-inkscape-font-specification:IrisNormal;writing-mode:lr-tb;fill:#f9ec31;fill-opacity:1;fill-rule:nonzero;stroke:none"
       transform="matrix(0.64976655,-0.76013382,-0.76013382,-0.64976655,909.5925,884.1506)"><tspan
         id="tspan178"
         y="0"
         x="0">A</tspan></text>
<text
       id="text184"
       style="font-variant:normal;font-weight:normal;font-stretch:normal;font-size:50.69528961px;font-family:Iris;-inkscape-font-specification:IrisNormal;writing-mode:lr-tb;fill:#f9ec31;fill-opacity:1;fill-rule:nonzero;stroke:none"
       transform="matrix(0.50016086,-0.86593251,-0.86593251,-0.50016086,965.3132,810.3604)"><tspan
         id="tspan182"
         y="0"
         x="0">Y</tspan></text>
<text
       id="text188"
       style="font-variant:normal;font-weight:normal;font-stretch:normal;font-size:50.69532776px;font-family:Iris;-inkscape-font-specification:IrisNormal;writing-mode:lr-tb;fill:#f9ec31;fill-opacity:1;fill-rule:nonzero;stroke:none"
       transform="matrix(0.20615115,-0.97852016,-0.97852016,-0.20615115,1027.5349,656.8794)"><tspan
         id="tspan186"
         y="0"
         x="0">.</tspan></text>
</g></svg>