<?xml version="1.0" encoding="UTF-8" standalone="no"?>
<svg
   xmlns:dc="http://purl.org/dc/elements/1.1/"
   xmlns:cc="http://creativecommons.org/ns#"
   xmlns:rdf="http://www.w3.org/1999/02/22-rdf-syntax-ns#"
   xmlns:svg="http://www.w3.org/2000/svg"
   xmlns="http://www.w3.org/2000/svg"
   viewBox="0 0 220.08533 60.279865"
   height="60.279865"
   width="220.08533"
   xml:space="preserve"
   id="svg2"
   version="1.1"><metadata
     id="metadata8"><rdf:RDF><cc:Work
         rdf:about=""><dc:format>image/svg+xml</dc:format><dc:type
           rdf:resource="http://purl.org/dc/dcmitype/StillImage" /></cc:Work></rdf:RDF></metadata><defs
     id="defs6"><clipPath
       id="clipPath18"
       clipPathUnits="userSpaceOnUse"><path
         id="path16"
         d="M 0,45.21 H 165.064 V 0 H 0 Z" /></clipPath></defs><g
     transform="matrix(1.3333333,0,0,-1.3333333,0,60.279867)"
     id="g10"><g
       id="g12"><g
         clip-path="url(#clipPath18)"
         id="g14"><g
           transform="translate(13.4473,24.7793)"
           id="g20"><path
             id="path22"
             style="fill:#ffffff;fill-opacity:1;fill-rule:nonzero;stroke:none"
             d="m 0,0 c -1.012,-1.08 -3.057,-1.815 -5.148,-1.815 -4.919,0 -8.299,3.287 -8.299,8.298 0,4.621 2.92,8.298 8.229,8.298 2.092,0 3.839,-0.666 4.897,-1.632 l -1.265,-2.091 c -0.966,0.643 -2.021,1.08 -3.632,1.08 -2.987,0 -5.241,-2.16 -5.241,-5.655 0,-3.356 2.276,-5.655 5.563,-5.655 1.356,0 2.712,0.437 3.817,1.287 z" /></g><g
           transform="translate(36.5488,25.6084)"
           id="g24"><path
             id="path26"
             style="fill:#ffffff;fill-opacity:1;fill-rule:nonzero;stroke:none"
             d="M 0,0 C 3.379,0 5.402,2.482 5.402,5.654 5.402,8.987 3.035,11.31 0,11.31 -3.079,11.31 -5.379,8.987 -5.379,5.654 -5.379,2.436 -3.01,0 0,0 m 0,13.952 c 4.781,0 8.392,-3.286 8.392,-8.298 0,-4.827 -3.611,-8.299 -8.392,-8.299 -4.782,0 -8.367,3.288 -8.367,8.299 0,4.666 3.426,8.298 8.367,8.298" /></g><g
           transform="translate(61.168,35.125)"
           id="g28"><path
             id="path30"
             style="fill:#ffffff;fill-opacity:1;fill-rule:nonzero;stroke:none"
             d="m 0,0 c 0,2.413 1.885,4.436 5.011,4.436 1.976,0 3.631,-0.666 4.596,-1.724 L 8.091,0.598 C 7.31,1.356 6.528,1.792 5.239,1.792 3.838,1.792 2.988,1.08 2.988,0.022 c 0,-3.333 7.286,-2.275 7.286,-7.631 0,-2.713 -2.367,-4.552 -5.378,-4.552 -2.071,0 -4.484,0.896 -5.264,2.529 l 1.608,1.931 c 0.944,-1.218 2.46,-1.816 3.701,-1.816 1.333,0 2.345,0.666 2.345,1.885 C 7.286,-4.46 0,-5.241 0,0" /></g><g
           transform="translate(88.4971,39.3076)"
           id="g32"><path
             id="path34"
             style="fill:#ffffff;fill-opacity:1;fill-rule:nonzero;stroke:none"
             d="M 0,0 H 2.852 L 8.345,-7.517 13.586,0 h 2.667 v -16.091 h -2.805 v 11.632 l -5.08,-7.148 H 7.956 L 2.828,-4.528 V -16.091 H 0 Z" /></g><g
           transform="translate(130.1719,25.6084)"
           id="g36"><path
             id="path38"
             style="fill:#ffffff;fill-opacity:1;fill-rule:nonzero;stroke:none"
             d="M 0,0 C 3.38,0 5.402,2.482 5.402,5.654 5.402,8.987 3.033,11.31 0,11.31 -3.081,11.31 -5.378,8.987 -5.378,5.654 -5.378,2.436 -3.011,0 0,0 m 0,13.952 c 4.781,0 8.391,-3.286 8.391,-8.298 0,-4.827 -3.61,-8.299 -8.391,-8.299 -4.781,0 -8.368,3.288 -8.368,8.299 0,4.666 3.427,8.298 8.368,8.298" /></g><g
           transform="translate(154.79,35.125)"
           id="g40"><path
             id="path42"
             style="fill:#ffffff;fill-opacity:1;fill-rule:nonzero;stroke:none"
             d="m 0,0 c 0,2.413 1.885,4.436 5.011,4.436 1.977,0 3.632,-0.666 4.597,-1.724 L 8.091,0.598 C 7.31,1.356 6.528,1.792 5.241,1.792 3.838,1.792 2.988,1.08 2.988,0.022 c 0,-3.333 7.286,-2.275 7.286,-7.631 0,-2.713 -2.367,-4.552 -5.378,-4.552 -2.069,0 -4.484,0.896 -5.264,2.529 l 1.61,1.931 c 0.942,-1.218 2.458,-1.816 3.699,-1.816 1.334,0 2.346,0.666 2.346,1.885 C 7.287,-4.46 0,-5.241 0,0" /></g><g
           transform="translate(52.6572,42.5488)"
           id="g44"><path
             id="path46"
             style="fill:#ffffff;fill-opacity:1;fill-rule:nonzero;stroke:none"
             d="m 0,0 c 0,1.47 -1.191,2.661 -2.662,2.661 -1.47,0 -2.661,-1.191 -2.661,-2.661 0,-1.471 1.191,-2.661 2.661,-2.661 C -1.191,-2.661 0,-1.471 0,0" /></g><g
           transform="translate(2.8311,5.6084)"
           id="g48"><path
             id="path50"
             style="fill:#ffffff;fill-opacity:1;fill-rule:nonzero;stroke:none"
             d="m 0,0 h -0.241 v -1.897 c -0.208,-0.165 -0.613,-0.372 -1.175,-0.372 -0.741,0 -1.156,0.389 -1.156,1.208 V 0 H -2.83 v -1.061 c 0,-1.027 0.509,-1.441 1.345,-1.441 0.518,0 0.966,0.165 1.244,0.371 V -3.882 H 0 Z M 6.265,-3.193 C 5.98,-3.503 5.497,-3.728 4.953,-3.728 c -1.069,0 -1.769,0.691 -1.778,1.795 H 6.55 c 0.009,0.079 0.017,0.164 0.017,0.268 0,1.054 -0.734,1.743 -1.735,1.743 -1.276,0 -1.924,-0.888 -1.924,-2.019 0,-1.226 0.847,-2.02 2.037,-2.02 0.518,0 1.078,0.199 1.415,0.588 z m -1.466,3.039 c 0.922,0 1.527,-0.605 1.518,-1.571 H 3.158 c 0.07,0.897 0.639,1.571 1.641,1.571 M 3.667,1.519 C 3.667,1.398 3.755,1.32 3.856,1.32 3.943,1.32 4.029,1.398 4.029,1.519 4.029,1.615 3.943,1.7 3.856,1.7 3.755,1.7 3.667,1.615 3.667,1.519 m 1.821,0 c 0,-0.121 0.086,-0.199 0.19,-0.199 0.095,0 0.181,0.078 0.181,0.199 C 5.859,1.615 5.773,1.7 5.678,1.7 5.574,1.7 5.488,1.615 5.488,1.519 m 3.979,-7.127 h 0.25 v 2.036 c 0.353,-0.267 0.838,-0.389 1.363,-0.389 1.191,0 1.977,0.898 1.977,2.081 0,1.148 -0.691,1.958 -1.848,1.958 -0.578,0 -1.182,-0.275 -1.492,-0.646 V 0 h -0.25 z m 1.691,5.454 c 1.044,0 1.64,-0.708 1.64,-1.753 0,-1.07 -0.699,-1.821 -1.727,-1.821 -0.448,0 -0.906,0.095 -1.354,0.415 v 2.503 c 0.25,0.328 0.829,0.656 1.441,0.656 m 7.87,-3.728 h 0.251 V 0 H 19.028 V -1.785 H 16.206 V 0 h -0.251 v -3.882 h 0.251 v 1.863 h 2.822 z m 3.495,3.4 c 0.371,0.215 0.647,0.328 1.086,0.328 1.141,0 1.183,-0.718 1.183,-1.795 -0.361,0.258 -0.854,0.318 -1.173,0.318 -0.837,0 -1.476,-0.405 -1.476,-1.182 0,-0.672 0.484,-1.114 1.208,-1.114 0.768,0 1.182,0.364 1.441,0.717 v -0.672 h 0.242 v 2.424 c 0,0.966 -0.353,1.536 -1.398,1.536 -0.44,0 -0.82,-0.121 -1.191,-0.353 z m 0.88,-3.211 c -0.561,0 -1.002,0.328 -1.002,0.898 0,0.672 0.631,0.957 1.235,0.957 0.44,0 0.828,-0.111 1.156,-0.344 V -2.96 C 24.542,-3.287 24.18,-3.693 23.403,-3.693 M 29.651,0 c -1.165,0 -1.545,-0.543 -1.545,-1.173 0,-0.622 0.501,-1.018 1.009,-1.079 l -1.311,-1.63 h 0.31 l 1.251,1.578 h 1.149 v -1.578 h 0.242 V 0 Z m -1.295,-1.173 c 0,0.519 0.345,0.941 1.251,0.941 h 0.907 V -2.07 h -1.217 c -0.38,0 -0.941,0.328 -0.941,0.897 m 9.415,-2.709 c 0.354,0 0.734,-0.026 1.217,-0.026 1.13,0 1.691,0.387 1.691,1.07 0,0.534 -0.276,0.862 -0.992,0.958 v 0.016 c 0.569,0.079 0.829,0.483 0.829,0.907 0,0.69 -0.527,0.982 -1.555,0.982 C 38.47,0.025 38.107,0 37.771,0 Z m 1.355,1.873 c 0.847,0 1.295,-0.251 1.295,-0.804 0,-0.585 -0.501,-0.863 -1.433,-0.863 -0.397,0 -0.689,0.018 -0.967,0.018 v 1.649 z m -0.155,1.802 c 0.699,0 1.285,-0.155 1.285,-0.775 0,-0.493 -0.406,-0.821 -1.052,-0.821 h -1.183 v 1.571 c 0.25,0.008 0.536,0.025 0.95,0.025 m 4.375,-1.734 c 0,-1.164 0.828,-2.02 2.001,-2.02 1.183,0 2.011,0.856 2.011,2.02 0,1.166 -0.828,2.019 -2.011,2.019 -1.173,0 -2.001,-0.853 -2.001,-2.019 m 0.25,0 c 0,1.045 0.734,1.787 1.751,1.787 1.027,0 1.753,-0.742 1.753,-1.787 0,-1.045 -0.726,-1.787 -1.753,-1.787 -1.026,0 -1.751,0.742 -1.751,1.787 m 5.834,-2.952 h 0.232 v 1.011 h 3.711 v -1.011 h 0.233 V -3.65 H 52.958 V 0 H 50.63 L 50.568,-1.156 C 50.482,-2.51 50.137,-3.365 49.904,-3.65 H 49.43 Z m 1.372,3.651 0.06,1.01 h 1.855 V -3.65 h -2.554 c 0.207,0.252 0.552,1.166 0.639,2.408 m 5.479,0.76 c 0.372,0.215 0.647,0.328 1.088,0.328 1.139,0 1.182,-0.718 1.182,-1.795 -0.363,0.258 -0.854,0.318 -1.174,0.318 -0.837,0 -1.476,-0.405 -1.476,-1.182 0,-0.672 0.484,-1.114 1.208,-1.114 0.769,0 1.183,0.364 1.442,0.717 v -0.672 h 0.242 v 2.424 c 0,0.966 -0.354,1.536 -1.398,1.536 -0.44,0 -0.82,-0.121 -1.191,-0.353 z m 0.88,-3.211 c -0.561,0 -1,0.328 -1,0.898 0,0.672 0.63,0.957 1.234,0.957 0.439,0 0.828,-0.111 1.156,-0.344 V -2.96 c -0.25,-0.327 -0.613,-0.733 -1.39,-0.733 m 8.561,-0.189 h 0.251 v 3.52 l 1.69,-2.347 h 0.026 l 1.658,2.347 v -3.52 h 0.241 V 0 H 69.363 L 67.689,-2.373 65.965,0 h -0.243 z m 7.309,0 2.883,3.529 v -3.529 h 0.24 V 0 h -0.24 L 73.031,-3.528 V 0 H 72.78 v -3.882 z m 9.389,0 h 0.25 V 0 H 82.42 V -1.785 H 79.598 V 0 h -0.25 v -3.882 h 0.25 v 1.863 h 2.822 z m 6.516,0.689 c -0.286,-0.31 -0.769,-0.535 -1.313,-0.535 -1.07,0 -1.769,0.691 -1.777,1.795 h 3.374 c 0.009,0.079 0.017,0.164 0.017,0.268 0,1.054 -0.734,1.743 -1.734,1.743 -1.276,0 -1.925,-0.888 -1.925,-2.019 0,-1.226 0.846,-2.02 2.037,-2.02 0.517,0 1.078,0.199 1.415,0.588 z m -1.468,3.039 c 0.923,0 1.527,-0.605 1.519,-1.571 h -3.159 c 0.069,0.897 0.639,1.571 1.64,1.571 m 4.669,-5.454 h 0.251 v 2.036 c 0.353,-0.267 0.837,-0.389 1.363,-0.389 1.19,0 1.976,0.898 1.976,2.081 0,1.148 -0.69,1.958 -1.847,1.958 -0.578,0 -1.183,-0.275 -1.492,-0.646 V 0 h -0.251 z m 1.69,5.454 c 1.046,0 1.64,-0.708 1.64,-1.753 0,-1.07 -0.698,-1.821 -1.725,-1.821 -0.448,0 -0.906,0.095 -1.354,0.415 v 2.503 c 0.25,0.328 0.828,0.656 1.439,0.656 m 4.851,-0.328 c 0.371,0.215 0.647,0.328 1.088,0.328 1.138,0 1.181,-0.718 1.181,-1.795 -0.363,0.258 -0.853,0.318 -1.173,0.318 -0.837,0 -1.475,-0.405 -1.475,-1.182 0,-0.672 0.483,-1.114 1.207,-1.114 0.767,0 1.182,0.364 1.441,0.717 v -0.672 h 0.242 v 2.424 c 0,0.966 -0.355,1.536 -1.398,1.536 -0.44,0 -0.82,-0.121 -1.191,-0.353 z m 0.88,-3.211 c -0.56,0 -1.001,0.328 -1.001,0.898 0,0.672 0.631,0.957 1.234,0.957 0.44,0 0.828,-0.111 1.156,-0.344 V -2.96 c -0.25,-0.327 -0.612,-0.733 -1.389,-0.733 m 7.542,-0.189 h 0.242 V 0 h -2.348 l -0.069,-1.208 c -0.12,-2.234 -0.811,-2.458 -1.043,-2.45 l 0.017,-0.242 c 0.439,0 1.113,0.302 1.268,2.64 l 0.061,1.019 h 1.872 z m 3.684,0 2.883,3.529 v -3.529 h 0.241 V 0 h -0.241 l -2.883,-3.528 V 0 h -0.249 v -3.882 z m 7.44,-0.079 c 0.915,0 1.571,0.433 1.571,1.157 0,0.449 -0.303,0.871 -0.881,0.914 v 0.019 c 0.518,0.188 0.717,0.568 0.717,0.948 0,0.622 -0.467,1.001 -1.338,1.001 -0.553,0 -1.079,-0.181 -1.398,-0.509 l 0.112,-0.18 c 0.293,0.258 0.682,0.457 1.251,0.457 0.682,0 1.122,-0.285 1.122,-0.795 0,-0.484 -0.423,-0.854 -0.898,-0.854 h -0.613 v -0.206 h 0.656 c 0.621,0 1.019,-0.286 1.019,-0.768 0,-0.588 -0.552,-0.951 -1.362,-0.951 -0.372,0 -0.959,0.156 -1.287,0.476 l -0.13,-0.19 c 0.258,-0.312 0.993,-0.519 1.459,-0.519 m 4.245,2.02 c 0,-1.164 0.829,-2.02 2.003,-2.02 1.182,0 2.01,0.856 2.01,2.02 0,1.166 -0.828,2.019 -2.01,2.019 -1.174,0 -2.003,-0.853 -2.003,-2.019 m 0.25,0 c 0,1.045 0.734,1.787 1.753,1.787 1.026,0 1.752,-0.742 1.752,-1.787 0,-1.045 -0.726,-1.787 -1.752,-1.787 -1.028,0 -1.753,0.742 -1.753,1.787 m 6.672,-1.941 c 0.353,0 0.732,-0.026 1.216,-0.026 1.13,0 1.692,0.387 1.692,1.07 0,0.534 -0.278,0.862 -0.993,0.958 v 0.016 c 0.57,0.079 0.829,0.483 0.829,0.907 0,0.69 -0.528,0.982 -1.555,0.982 C 130.089,0.025 129.727,0 129.391,0 Z m 1.354,1.873 c 0.846,0 1.294,-0.251 1.294,-0.804 0,-0.585 -0.5,-0.863 -1.432,-0.863 -0.398,0 -0.691,0.018 -0.966,0.018 v 1.649 z m -0.155,1.802 c 0.699,0 1.286,-0.155 1.286,-0.775 0,-0.493 -0.406,-0.821 -1.054,-0.821 h -1.181 v 1.571 c 0.25,0.008 0.535,0.025 0.949,0.025 m 4.712,-0.275 c 0.371,0.215 0.647,0.328 1.087,0.328 1.139,0 1.182,-0.718 1.182,-1.795 -0.362,0.258 -0.854,0.318 -1.175,0.318 -0.835,0 -1.475,-0.405 -1.475,-1.182 0,-0.672 0.484,-1.114 1.209,-1.114 0.767,0 1.182,0.364 1.441,0.717 v -0.672 h 0.241 v 2.424 c 0,0.966 -0.353,1.536 -1.398,1.536 -0.439,0 -0.82,-0.121 -1.19,-0.353 z m 0.88,-3.211 c -0.561,0 -1.001,0.328 -1.001,0.898 0,0.672 0.63,0.957 1.233,0.957 0.441,0 0.829,-0.111 1.157,-0.344 V -2.96 c -0.25,-0.327 -0.613,-0.733 -1.389,-0.733 m 7.809,-0.189 h 0.25 V 0 h -0.25 V -1.785 H 141.17 V 0 h -0.251 v -3.882 h 0.251 v 1.863 h 2.821 z m 6.516,0 h 0.25 V 0 h -0.25 v -1.785 h -2.822 V 0 h -0.25 v -3.882 h 0.25 v 1.863 h 2.822 z m 3.494,3.4 c 0.372,0.215 0.648,0.328 1.088,0.328 1.139,0 1.182,-0.718 1.182,-1.795 -0.363,0.258 -0.854,0.318 -1.174,0.318 -0.837,0 -1.475,-0.405 -1.475,-1.182 0,-0.672 0.482,-1.114 1.208,-1.114 0.769,0 1.182,0.364 1.441,0.717 v -0.672 h 0.243 v 2.424 c 0,0.966 -0.355,1.536 -1.399,1.536 -0.441,0 -0.82,-0.121 -1.191,-0.353 z m 0.88,-3.211 c -0.56,0 -1,0.328 -1,0.898 0,0.672 0.63,0.957 1.234,0.957 0.44,0 0.828,-0.111 1.156,-0.344 V -2.96 c -0.25,-0.327 -0.613,-0.733 -1.39,-0.733 M 161.129,0 c -1.165,0 -1.544,-0.543 -1.544,-1.173 0,-0.622 0.5,-1.018 1.009,-1.079 l -1.312,-1.63 h 0.311 l 1.252,1.578 h 1.147 v -1.578 h 0.241 V 0 Z m -1.294,-1.173 c 0,0.519 0.345,0.941 1.251,0.941 h 0.906 V -2.07 h -1.217 c -0.379,0 -0.94,0.328 -0.94,0.897" /></g></g></g></g></svg>