<?xml version="1.0" encoding="UTF-8" standalone="no"?>
<svg
   xmlns:dc="http://purl.org/dc/elements/1.1/"
   xmlns:cc="http://creativecommons.org/ns#"
   xmlns:rdf="http://www.w3.org/1999/02/22-rdf-syntax-ns#"
   xmlns:svg="http://www.w3.org/2000/svg"
   xmlns="http://www.w3.org/2000/svg"
   viewBox="0 0 219.45866 32.129066"
   height="32.129066"
   width="219.45866"
   xml:space="preserve"
   id="svg2"
   version="1.1"><metadata
     id="metadata8"><rdf:RDF><cc:Work
         rdf:about=""><dc:format>image/svg+xml</dc:format><dc:type
           rdf:resource="http://purl.org/dc/dcmitype/StillImage" /></cc:Work></rdf:RDF></metadata><defs
     id="defs6"><clipPath
       id="clipPath18"
       clipPathUnits="userSpaceOnUse"><path
         id="path16"
         d="M 0,24.097 H 164.594 V 0 H 0 Z" /></clipPath></defs><g
     transform="matrix(1.3333333,0,0,-1.3333333,0,32.129067)"
     id="g10"><g
       id="g12"><g
         clip-path="url(#clipPath18)"
         id="g14"><g
           transform="translate(90.2571,12.9067)"
           id="g20"><path
             id="path22"
             style="fill:#ffffff;fill-opacity:1;fill-rule:evenodd;stroke:none"
             d="m 0,0 c 0,0 -1.602,0.989 -2.594,1.372 0,0 -3.063,1.421 -3.673,2.098 0,0 -1.192,1.126 -0.494,2.432 0,0 0.293,0.855 1.555,0.855 0,0 1.643,-0.09 1.643,-1.441 V 3.411 h 5.89 l -0.01,2.806 c 0,0 0.453,4.597 -6.938,4.799 0,0 -5.813,0.382 -7.48,-2.749 0,0 -0.653,-0.698 -0.653,-3.131 V 3.38 c 0,0 -0.067,-2.029 0.969,-3.333 0,0 0.586,-0.859 2.028,-1.803 0,0 2.929,-1.578 4.686,-2.48 0,0 1.774,-1.013 1.539,-2.624 0,0 -0.143,-1.653 -1.858,-1.586 0,0 -1.565,0.073 -1.565,1.693 v 1.903 h -6.275 v -2.766 c 0,0 -0.177,-5.29 7.889,-5.29 0,0 7.703,-0.157 8.064,5.43 v 2.25 c 0,0 0.271,3.423 -2.723,5.226" /></g><g
           transform="translate(60.1038,23.2631)"
           id="g24"><path
             id="path26"
             style="fill:#ffffff;fill-opacity:1;fill-rule:evenodd;stroke:none"
             d="m 0,0 -1.971,-12.358 h -0.464 l -1.882,12.249 h -9.838 l -0.493,-22.379 h 5.825 l 0.07,16.861 h 0.458 l 3.087,-16.858 H 0.921 L 3.97,-5.633 h 0.407 l 0.14,-16.855 h 5.855 L 9.742,0 Z" /></g><g
           transform="translate(25.429,23.1704)"
           id="g28"><path
             id="path30"
             style="fill:#ffffff;fill-opacity:1;fill-rule:evenodd;stroke:none"
             d="M 0,0 -3.877,-22.372 H 2.396 L 4.69,-5.024 h 0.515 l 2.296,-17.348 h 6.27 L 9.896,0 Z" /></g><g
           transform="translate(157.011,13.2143)"
           id="g32"><path
             id="path34"
             style="fill:#ffffff;fill-opacity:1;fill-rule:evenodd;stroke:none"
             d="m 0,0 v -3.301 h 1.607 v -3.542 c 0,-1.731 -1.479,-1.764 -1.479,-1.764 -1.8,0 -1.732,1.645 -1.732,1.645 V 5.293 c 0,1.263 1.597,1.329 1.597,1.329 1.532,0 1.545,-1.505 1.545,-1.505 V 3.255 H 7.44 C 7.633,6.89 6.909,7.771 6.909,7.771 c -1.465,3.288 -7.005,3.11 -7.005,3.11 -8.515,0 -7.57,-6.533 -7.57,-6.533 V -7.5 c 0.183,-6.127 8.571,-5.506 8.714,-5.499 3.734,0.415 4.86,1.599 4.86,1.599 1.037,0.77 1.305,1.837 1.305,1.837 0.296,0.622 0.37,2.601 0.37,2.601 V 0 Z" /></g><g
           transform="translate(137.4397,9.5727)"
           id="g36"><path
             id="path38"
             style="fill:#ffffff;fill-opacity:1;fill-rule:evenodd;stroke:none"
             d="M 0,0 H -0.256 L -6.25,13.687 h -7.166 v -22.49 h 5.832 L -7.932,4.881 h 0.26 l 6.207,-13.684 h 6.952 v 22.49 H -0.42 Z" /></g><g
           transform="translate(109.7806,6.3735)"
           id="g40"><path
             id="path42"
             style="fill:#ffffff;fill-opacity:1;fill-rule:evenodd;stroke:none"
             d="m 0,0 c 0,0 0.084,-1.847 -1.625,-1.847 0,0 -1.802,-0.095 -1.802,1.802 L -3.445,16.872 H -9.844 V 0.089 c 0,0 -0.657,-6.352 8.307,-6.352 0,0 7.791,-0.092 7.791,6.06 V 16.871 H 0 Z" /></g><g
           transform="translate(13.2278,12.9067)"
           id="g44"><path
             id="path46"
             style="fill:#ffffff;fill-opacity:1;fill-rule:evenodd;stroke:none"
             d="m 0,0 c 0,0 -1.598,0.989 -2.59,1.372 0,0 -3.062,1.42 -3.671,2.098 0,0 -1.194,1.127 -0.494,2.43 0,0 0.291,0.857 1.553,0.857 0,0 1.643,-0.09 1.643,-1.441 V 3.411 H 2.333 L 2.321,6.218 c 0,0 0.451,4.596 -6.937,4.798 0,0 -0.557,0.034 -1.373,-0.006 0,0 -4.476,-0.239 -6.074,-2.696 -0.009,-0.017 -0.024,-0.03 -0.033,-0.047 0,0 -0.652,-0.697 -0.652,-3.131 V 3.38 c 0,0 -0.068,-2.027 0.968,-3.333 0,0 0.587,-0.859 2.028,-1.803 0,0 2.927,-1.578 4.685,-2.478 0,0 1.776,-1.012 1.542,-2.626 0,0 -0.146,-1.653 -1.858,-1.586 0,0 -1.566,0.073 -1.566,1.693 v 1.904 h -6.279 v -2.767 c 0,0 -0.174,-5.29 7.89,-5.29 0,0 7.704,-0.157 8.066,5.43 v 2.25 c 0,0 0.27,3.423 -2.728,5.226" /></g></g></g></g></svg>