<?xml version="1.0" encoding="UTF-8" standalone="no"?>
<svg
   xmlns:dc="http://purl.org/dc/elements/1.1/"
   xmlns:cc="http://creativecommons.org/ns#"
   xmlns:rdf="http://www.w3.org/1999/02/22-rdf-syntax-ns#"
   xmlns:svg="http://www.w3.org/2000/svg"
   xmlns="http://www.w3.org/2000/svg"
   viewBox="0 0 153.37466 155.42799"
   height="155.42799"
   width="153.37466"
   xml:space="preserve"
   id="svg2"
   version="1.1"><metadata
     id="metadata8"><rdf:RDF><cc:Work
         rdf:about=""><dc:format>image/svg+xml</dc:format><dc:type
           rdf:resource="http://purl.org/dc/dcmitype/StillImage" /></cc:Work></rdf:RDF></metadata><defs
     id="defs6"><clipPath
       id="clipPath18"
       clipPathUnits="userSpaceOnUse"><path
         id="path16"
         d="M 0,116.571 H 115.031 V 0 H 0 Z" /></clipPath><clipPath
       id="clipPath54"
       clipPathUnits="userSpaceOnUse"><path
         id="path52"
         d="M 0,116.571 H 115.031 V 0 H 0 Z" /></clipPath><clipPath
       id="clipPath98"
       clipPathUnits="userSpaceOnUse"><path
         id="path96"
         d="M 0,116.571 H 115.031 V 0 H 0 Z" /></clipPath></defs><g
     transform="matrix(1.3333333,0,0,-1.3333333,0,155.428)"
     id="g10"><g
       id="g12"><g
         clip-path="url(#clipPath18)"
         id="g14"><text
           id="text22"
           style="font-variant:normal;font-weight:normal;font-stretch:normal;font-size:5.71198034px;font-family:Iris;-inkscape-font-specification:IrisNormal;writing-mode:lr-tb;fill:#f4e833;fill-opacity:1;fill-rule:nonzero;stroke:none"
           transform="matrix(0.05938396,-0.99823522,-0.99823522,-0.05938396,1.208,56.1504)"><tspan
             id="tspan20"
             y="0"
             x="0">C</tspan></text>
</g></g><text
       id="text26"
       style="font-variant:normal;font-weight:normal;font-stretch:normal;font-size:5.71198177px;font-family:Iris;-inkscape-font-specification:IrisNormal;writing-mode:lr-tb;fill:#f4e833;fill-opacity:1;fill-rule:nonzero;stroke:none"
       transform="matrix(0.25054352,-0.96810534,-0.96810534,-0.25054352,2.5615,45.4232)"><tspan
         id="tspan24"
         y="0"
         x="0">Y</tspan></text>
<text
       id="text30"
       style="font-variant:normal;font-weight:normal;font-stretch:normal;font-size:5.71196747px;font-family:Iris;-inkscape-font-specification:IrisNormal;writing-mode:lr-tb;fill:#f4e833;fill-opacity:1;fill-rule:nonzero;stroke:none"
       transform="matrix(0.43417616,-0.90082799,-0.90082799,-0.43417616,5.9663,35.1451)"><tspan
         id="tspan28"
         y="0"
         x="0">B</tspan></text>
<text
       id="text34"
       style="font-variant:normal;font-weight:normal;font-stretch:normal;font-size:5.71190453px;font-family:Iris;-inkscape-font-specification:IrisNormal;writing-mode:lr-tb;fill:#f4e833;fill-opacity:1;fill-rule:nonzero;stroke:none"
       transform="matrix(0.59766408,-0.80174663,-0.80174663,-0.59766408,11.3692,25.629)"><tspan
         id="tspan32"
         y="0"
         x="0">E</tspan></text>
<text
       id="text38"
       style="font-variant:normal;font-weight:normal;font-stretch:normal;font-size:5.71192265px;font-family:Iris;-inkscape-font-specification:IrisNormal;writing-mode:lr-tb;fill:#f4e833;fill-opacity:1;fill-rule:nonzero;stroke:none"
       transform="matrix(0.73875303,-0.67397624,-0.67397624,-0.73875303,18.1484,17.6798)"><tspan
         id="tspan36"
         y="0"
         x="0">R</tspan></text>
<text
       id="text42"
       style="font-variant:normal;font-weight:normal;font-stretch:normal;font-size:5.71193123px;font-family:Iris;-inkscape-font-specification:IrisNormal;writing-mode:lr-tb;fill:#f4e833;fill-opacity:1;fill-rule:nonzero;stroke:none"
       transform="matrix(0.92716455,-0.37465438,-0.37465438,-0.92716455,34.7398,6.5212)"><tspan
         id="tspan40"
         y="0"
         x="0">S</tspan></text>
<text
       id="text46"
       style="font-variant:normal;font-weight:normal;font-stretch:normal;font-size:5.71196079px;font-family:Iris;-inkscape-font-specification:IrisNormal;writing-mode:lr-tb;fill:#f4e833;fill-opacity:1;fill-rule:nonzero;stroke:none"
       transform="matrix(0.98171194,-0.19037246,-0.19037246,-0.98171194,44.8151,3.2097)"><tspan
         id="tspan44"
         y="0"
         x="0">P</tspan></text>
<g
       id="g48"><g
         clip-path="url(#clipPath54)"
         id="g50"><text
           id="text58"
           style="font-variant:normal;font-weight:normal;font-stretch:normal;font-size:5.7119441px;font-family:Iris;-inkscape-font-specification:IrisNormal;writing-mode:lr-tb;fill:#f4e833;fill-opacity:1;fill-rule:nonzero;stroke:none"
           transform="matrix(0.99999224,-0.00393911,-0.00393911,-0.99999224,55.5002,1.8765)"><tspan
             id="tspan56"
             y="0"
             x="0">O</tspan></text>
</g></g><text
       id="text62"
       style="font-variant:normal;font-weight:normal;font-stretch:normal;font-size:5.7119112px;font-family:Iris;-inkscape-font-specification:IrisNormal;writing-mode:lr-tb;fill:#f4e833;fill-opacity:1;fill-rule:nonzero;stroke:none"
       transform="matrix(0.97925191,0.20264671,0.20264671,-0.97925191,66.8292,2.6696)"><tspan
         id="tspan60"
         y="0"
         x="0">R</tspan></text>
<text
       id="text66"
       style="font-variant:normal;font-weight:normal;font-stretch:normal;font-size:5.71193218px;font-family:Iris;-inkscape-font-specification:IrisNormal;writing-mode:lr-tb;fill:#f4e833;fill-opacity:1;fill-rule:nonzero;stroke:none"
       transform="matrix(0.92213979,0.38685683,0.38685683,-0.92213979,77.3981,5.6116)"><tspan
         id="tspan64"
         y="0"
         x="0">T</tspan></text>
<text
       id="text70"
       style="font-variant:normal;font-weight:normal;font-stretch:normal;font-size:5.71196413px;font-family:Iris;-inkscape-font-specification:IrisNormal;writing-mode:lr-tb;fill:#f4e833;fill-opacity:1;fill-rule:nonzero;stroke:none"
       transform="matrix(0.73015166,0.68328512,0.68328512,-0.73015166,94.0639,15.7094)"><tspan
         id="tspan68"
         y="0"
         x="0">A</tspan></text>
<text
       id="text74"
       style="font-variant:normal;font-weight:normal;font-stretch:normal;font-size:5.71198702px;font-family:Iris;-inkscape-font-specification:IrisNormal;writing-mode:lr-tb;fill:#f4e833;fill-opacity:1;fill-rule:nonzero;stroke:none"
       transform="matrix(0.58261687,0.81274694,0.81274694,-0.58261687,101.6491,23.8162)"><tspan
         id="tspan72"
         y="0"
         x="0">R</tspan></text>
<text
       id="text78"
       style="font-variant:normal;font-weight:normal;font-stretch:normal;font-size:5.71193266px;font-family:Iris;-inkscape-font-specification:IrisNormal;writing-mode:lr-tb;fill:#f4e833;fill-opacity:1;fill-rule:nonzero;stroke:none"
       transform="matrix(0.41742438,0.90871167,0.90871167,-0.41742438,107.4253,33.1293)"><tspan
         id="tspan76"
         y="0"
         x="0">E</tspan></text>
<text
       id="text82"
       style="font-variant:normal;font-weight:normal;font-stretch:normal;font-size:5.71198034px;font-family:Iris;-inkscape-font-specification:IrisNormal;writing-mode:lr-tb;fill:#f4e833;fill-opacity:1;fill-rule:nonzero;stroke:none"
       transform="matrix(0.23121578,0.97290249,0.97290249,-0.23121578,111.1652,42.9193)"><tspan
         id="tspan80"
         y="0"
         x="0">N</tspan></text>
<text
       id="text86"
       style="font-variant:normal;font-weight:normal;font-stretch:normal;font-size:5.71193886px;font-family:Iris;-inkscape-font-specification:IrisNormal;writing-mode:lr-tb;fill:#f4e833;fill-opacity:1;fill-rule:nonzero;stroke:none"
       transform="matrix(0.03207317,0.99948552,0.99948552,-0.03207317,113.05,54.1719)"><tspan
         id="tspan84"
         y="0"
         x="0">A</tspan></text>
<g
       transform="translate(94.709,55.7881)"
       id="g88"><path
         id="path90"
         style="fill:#f4e833;fill-opacity:1;fill-rule:nonzero;stroke:none"
         d="M 0,0 -3.633,7.218 H -13.16 L -16.597,0 h -2.847 l 4.811,9.82 h 9.723 l -5.549,11.048 h 2.995 L 2.946,0 Z" /></g><g
       id="g92"><g
         clip-path="url(#clipPath98)"
         id="g94"><g
           transform="translate(31.6851,60.3975)"
           id="g100"><path
             id="path102"
             style="fill:#f4e833;fill-opacity:1;fill-rule:nonzero;stroke:none"
             d="m 0,0 c -1.393,-1.283 -3.252,-2.07 -5.296,-2.07 -4.319,0 -7.821,3.501 -7.821,7.82 0,4.319 3.502,7.821 7.821,7.821 2.044,0 3.903,-0.787 5.296,-2.071 0.349,0.838 0.773,1.637 1.262,2.389 -1.794,1.447 -4.074,2.316 -6.558,2.316 -5.774,0 -10.454,-4.682 -10.454,-10.455 0,-5.773 4.68,-10.453 10.454,-10.453 2.484,0 4.764,0.867 6.558,2.315 C 0.773,-1.636 0.349,-0.837 0,0" /></g><g
           transform="translate(75.2607,66.2881)"
           id="g104"><path
             id="path106"
             style="fill:#f4e833;fill-opacity:1;fill-rule:nonzero;stroke:none"
             d="M 0,0 C -0.001,0.089 -0.003,0.178 -0.007,0.266 -0.01,0.362 -0.016,0.458 -0.021,0.553 -0.026,0.621 -0.031,0.689 -0.037,0.757 -0.048,0.878 -0.061,1 -0.075,1.12 c -0.004,0.037 -0.009,0.074 -0.014,0.111 -0.02,0.155 -0.044,0.308 -0.071,0.46 0,0.003 -0.001,0.005 -0.001,0.008 -0.221,1.245 -0.661,2.413 -1.281,3.464 -0.001,10e-4 -0.002,0.003 -0.002,0.004 -0.078,0.131 -0.159,0.26 -0.242,0.388 -0.015,0.023 -0.03,0.048 -0.045,0.071 -0.069,0.104 -0.141,0.206 -0.213,0.307 -0.031,0.043 -0.06,0.086 -0.091,0.128 -0.061,0.082 -0.124,0.163 -0.187,0.244 -0.044,0.054 -0.087,0.111 -0.131,0.166 -0.056,0.068 -0.115,0.135 -0.172,0.203 -0.054,0.061 -0.106,0.123 -0.16,0.183 -0.059,0.066 -0.12,0.128 -0.18,0.192 -0.054,0.057 -0.109,0.116 -0.164,0.173 -0.073,0.073 -0.148,0.143 -0.222,0.215 -0.045,0.042 -0.089,0.085 -0.135,0.127 -0.1,0.092 -0.205,0.182 -0.309,0.271 -0.02,0.017 -0.039,0.035 -0.059,0.051 -1.262,1.053 -2.775,1.813 -4.436,2.18 -0.013,0.003 -0.025,0.006 -0.037,0.008 -0.125,0.028 -0.25,0.052 -0.377,0.074 -0.053,0.009 -0.106,0.02 -0.16,0.029 -0.09,0.014 -0.182,0.026 -0.273,0.04 -0.092,0.012 -0.183,0.024 -0.276,0.034 -0.06,0.007 -0.121,0.012 -0.181,0.018 -0.124,0.01 -0.247,0.021 -0.371,0.028 -0.039,0.002 -0.077,0.003 -0.116,0.005 -0.143,0.007 -0.286,0.01 -0.43,0.011 h -0.039 c -0.02,0 -0.04,0 -0.059,0 -0.127,-0.001 -0.253,-0.003 -0.38,-0.009 l -0.116,-0.006 c -0.119,-0.007 -0.237,-0.014 -0.357,-0.025 -0.056,-0.004 -0.112,-0.01 -0.168,-0.017 -0.1,-0.01 -0.2,-0.02 -0.301,-0.034 -0.111,-0.014 -0.221,-0.033 -0.331,-0.051 -0.046,-0.007 -0.093,-0.013 -0.14,-0.022 -0.34,-0.06 -0.674,-0.139 -1.002,-0.233 -0.022,-0.006 -0.043,-0.013 -0.065,-0.019 -0.141,-0.041 -0.279,-0.084 -0.418,-0.131 -0.016,-0.005 -0.032,-0.009 -0.048,-0.015 -0.034,-0.012 -0.066,-0.024 -0.099,-0.036 -0.074,-0.027 -0.148,-0.053 -0.221,-0.081 -0.088,-0.032 -0.173,-0.068 -0.26,-0.102 -0.036,-0.015 -0.074,-0.03 -0.111,-0.046 -1.7,-0.717 -3.12,-1.843 -4.187,-3.222 -0.003,-0.004 -0.006,-0.006 -0.009,-0.009 -0.019,-0.026 -0.038,-0.052 -0.057,-0.077 -0.019,-0.026 -0.039,-0.049 -0.058,-0.074 l 0.001,-0.001 c -2.13,-2.853 -3.504,-7.636 -5.226,-10.493 -0.301,-0.465 -0.651,-0.901 -1.048,-1.297 -0.001,0.002 -0.001,0.003 -0.001,0.004 -0.526,-0.522 -1.125,-0.971 -1.78,-1.329 -0.014,-0.007 -0.028,-0.014 -0.042,-0.022 -0.084,-0.045 -0.17,-0.088 -0.255,-0.13 -0.04,-0.02 -0.08,-0.038 -0.12,-0.058 -0.061,-0.028 -0.123,-0.056 -0.185,-0.083 -0.063,-0.028 -0.127,-0.054 -0.192,-0.081 -0.041,-0.017 -0.083,-0.033 -0.125,-0.05 -0.081,-0.031 -0.163,-0.062 -0.246,-0.09 -0.029,-0.011 -0.059,-0.02 -0.089,-0.031 -0.097,-0.032 -0.194,-0.062 -0.292,-0.09 -0.031,-0.01 -0.063,-0.019 -0.095,-0.028 -0.09,-0.025 -0.181,-0.049 -0.272,-0.07 -0.044,-0.011 -0.088,-0.021 -0.132,-0.03 -0.076,-0.017 -0.151,-0.033 -0.227,-0.047 -0.062,-0.012 -0.125,-0.024 -0.187,-0.033 -0.057,-0.01 -0.114,-0.019 -0.171,-0.027 -0.083,-0.012 -0.166,-0.022 -0.249,-0.032 -0.038,-0.003 -0.076,-0.008 -0.114,-0.011 -0.1,-0.01 -0.201,-0.017 -0.303,-0.023 -0.024,-10e-4 -0.048,-0.003 -0.072,-0.004 -0.112,-0.005 -0.224,-0.008 -0.337,-0.009 h -0.056 c -0.111,0.001 -0.222,0.004 -0.332,0.009 -0.026,0.001 -0.052,0.002 -0.078,0.004 -0.095,0.005 -0.189,0.012 -0.284,0.02 -0.044,0.005 -0.087,0.008 -0.131,0.013 -0.07,0.008 -0.14,0.018 -0.209,0.026 -0.067,0.01 -0.135,0.019 -0.203,0.031 -0.04,0.006 -0.079,0.013 -0.119,0.02 -0.095,0.018 -0.19,0.035 -0.284,0.056 -0.007,0.002 -0.015,0.004 -0.021,0.006 -1.344,0.297 -2.591,0.946 -3.607,1.879 -0.014,0.013 -0.027,0.026 -0.04,0.038 -0.077,0.071 -0.153,0.144 -0.228,0.219 -0.022,0.024 -0.045,0.048 -0.068,0.072 -0.064,0.067 -0.128,0.133 -0.189,0.203 -0.024,0.026 -0.047,0.053 -0.071,0.08 -0.06,0.069 -0.12,0.139 -0.178,0.21 -0.018,0.022 -0.036,0.047 -0.055,0.07 -0.062,0.078 -0.124,0.157 -0.184,0.238 l -0.029,0.041 c -0.443,0.614 -0.806,1.302 -1.063,2.056 -0.173,0.507 -0.291,1.02 -0.358,1.53 -10e-4,0.009 -0.002,0.018 -0.003,0.027 -0.014,0.109 -0.025,0.218 -0.034,0.329 -0.002,0.031 -0.005,0.062 -0.007,0.094 -0.007,0.09 -0.011,0.181 -0.014,0.272 -0.002,0.046 -0.003,0.094 -0.004,0.14 -10e-4,0.082 -0.002,0.163 -10e-4,0.245 10e-4,0.048 0.002,0.096 0.004,0.144 0.003,0.086 0.006,0.171 0.011,0.256 0.003,0.036 0.006,0.071 0.009,0.107 0.008,0.1 0.017,0.2 0.028,0.299 0.002,0.014 0.004,0.028 0.005,0.04 0.185,1.497 0.8,2.908 1.76,4.059 0.01,0.013 0.02,0.024 0.03,0.036 0.068,0.08 0.137,0.159 0.208,0.238 0.036,0.039 0.072,0.075 0.108,0.113 0.048,0.051 0.096,0.1 0.146,0.15 0.052,0.052 0.105,0.102 0.158,0.153 0.038,0.034 0.073,0.069 0.11,0.102 0.06,0.054 0.121,0.107 0.182,0.157 0.035,0.03 0.069,0.061 0.104,0.089 0.06,0.049 0.121,0.096 0.182,0.143 0.04,0.031 0.08,0.063 0.121,0.093 0.053,0.04 0.108,0.077 0.162,0.115 0.053,0.037 0.104,0.074 0.159,0.11 0.042,0.028 0.085,0.055 0.129,0.083 0.069,0.044 0.137,0.087 0.208,0.129 0.029,0.018 0.059,0.034 0.089,0.052 0.087,0.05 0.175,0.099 0.264,0.146 0.016,0.008 0.031,0.016 0.046,0.024 0.106,0.054 0.213,0.107 0.322,0.157 0.002,0.001 0.005,0.002 0.007,0.004 0.174,0.079 0.354,0.152 0.537,0.22 l -1.181,2.367 c -0.15,-0.061 -0.298,-0.122 -0.444,-0.19 -0.01,-0.005 -0.02,-0.009 -0.03,-0.013 -0.137,-0.064 -0.272,-0.13 -0.406,-0.2 -0.028,-0.014 -0.057,-0.028 -0.085,-0.044 -0.11,-0.057 -0.219,-0.118 -0.326,-0.18 -0.049,-0.028 -0.099,-0.056 -0.148,-0.084 -0.082,-0.05 -0.163,-0.101 -0.244,-0.153 -0.07,-0.043 -0.139,-0.086 -0.208,-0.132 -0.057,-0.038 -0.114,-0.079 -0.171,-0.119 -0.086,-0.06 -0.172,-0.121 -0.257,-0.183 -0.039,-0.028 -0.077,-0.06 -0.115,-0.089 -0.098,-0.074 -0.195,-0.149 -0.29,-0.228 -0.028,-0.022 -0.054,-0.045 -0.082,-0.069 -0.101,-0.085 -0.202,-0.171 -0.3,-0.26 -0.027,-0.024 -0.053,-0.05 -0.081,-0.076 -0.094,-0.087 -0.188,-0.175 -0.278,-0.265 -0.04,-0.04 -0.079,-0.082 -0.119,-0.122 -0.074,-0.078 -0.148,-0.154 -0.22,-0.232 -0.066,-0.072 -0.13,-0.147 -0.195,-0.222 -0.041,-0.048 -0.083,-0.094 -0.123,-0.143 -0.102,-0.122 -0.201,-0.247 -0.297,-0.373 -10e-4,-0.002 -0.002,-0.003 -0.003,-0.005 -0.994,-1.31 -1.684,-2.86 -1.971,-4.55 -0.002,-0.01 -0.004,-0.019 -0.005,-0.029 -0.023,-0.134 -0.042,-0.27 -0.059,-0.405 -0.006,-0.045 -0.012,-0.09 -0.017,-0.136 -0.012,-0.108 -0.022,-0.214 -0.031,-0.322 -0.006,-0.074 -0.012,-0.148 -0.017,-0.222 -0.005,-0.088 -0.009,-0.177 -0.012,-0.265 -0.004,-0.092 -0.006,-0.182 -0.007,-0.273 0,-0.036 -0.003,-0.073 -0.003,-0.11 0,-0.046 0.003,-0.092 0.003,-0.139 0.002,-0.089 0.004,-0.178 0.008,-0.268 0.004,-0.096 0.008,-0.19 0.015,-0.285 0.004,-0.069 0.01,-0.138 0.015,-0.206 0.011,-0.12 0.023,-0.241 0.037,-0.36 0.005,-0.039 0.01,-0.077 0.015,-0.115 0.02,-0.153 0.044,-0.305 0.071,-0.457 0,-0.004 10e-4,-0.008 10e-4,-0.011 0.221,-1.242 0.66,-2.407 1.277,-3.455 0.003,-0.004 0.006,-0.009 0.008,-0.014 0.076,-0.127 0.154,-0.253 0.234,-0.376 0.018,-0.028 0.035,-0.056 0.053,-0.083 0.066,-0.1 0.135,-0.196 0.204,-0.294 0.034,-0.047 0.066,-0.095 0.1,-0.141 0.058,-0.077 0.117,-0.152 0.176,-0.228 0.047,-0.061 0.094,-0.122 0.143,-0.182 0.051,-0.062 0.105,-0.124 0.158,-0.185 0.058,-0.068 0.115,-0.135 0.174,-0.202 0.053,-0.058 0.107,-0.114 0.161,-0.171 0.061,-0.065 0.121,-0.129 0.184,-0.193 0.064,-0.065 0.131,-0.128 0.197,-0.19 0.054,-0.051 0.105,-0.103 0.159,-0.153 0.091,-0.083 0.186,-0.164 0.28,-0.244 0.03,-0.025 0.059,-0.053 0.089,-0.078 1.255,-1.047 2.76,-1.804 4.412,-2.171 0.021,-0.005 0.043,-0.011 0.065,-0.015 0.116,-0.025 0.233,-0.047 0.35,-0.069 0.063,-0.011 0.125,-0.022 0.188,-0.033 0.082,-0.013 0.164,-0.024 0.247,-0.035 0.101,-0.015 0.201,-0.028 0.302,-0.039 0.052,-0.006 0.105,-0.01 0.157,-0.015 0.132,-0.013 0.264,-0.023 0.395,-0.03 0.032,-0.002 0.062,-0.003 0.093,-0.004 0.151,-0.007 0.302,-0.012 0.454,-0.012 0.01,0 0.019,-0.001 0.03,-0.001 0.014,0 0.028,0.001 0.043,0.001 0.136,0 0.272,0.003 0.408,0.01 0.029,10e-4 0.058,0.003 0.087,0.004 0.128,0.007 0.256,0.015 0.385,0.026 0.045,0.005 0.09,0.01 0.135,0.014 0.111,0.012 0.223,0.023 0.335,0.039 0.082,0.011 0.163,0.024 0.245,0.037 0.075,0.013 0.151,0.023 0.226,0.036 0.336,0.061 0.666,0.139 0.991,0.231 0.023,0.007 0.047,0.014 0.071,0.021 0.138,0.04 0.274,0.083 0.409,0.128 0.017,0.006 0.033,0.011 0.049,0.016 0.046,0.015 0.09,0.033 0.136,0.05 0.064,0.022 0.128,0.044 0.19,0.069 0.119,0.045 0.237,0.092 0.353,0.141 0.007,0.002 0.016,0.006 0.023,0.009 1.761,0.745 3.223,1.929 4.3,3.378 1.393,1.859 3.785,8.156 5.326,10.647 10e-4,0.003 0.002,0.007 0.004,0.009 0.29,0.424 0.624,0.822 0.995,1.185 0.001,-0.001 0.002,-0.003 0.002,-0.004 0.604,0.59 1.304,1.083 2.073,1.454 0.027,0.013 0.053,0.027 0.081,0.039 0.068,0.033 0.137,0.062 0.207,0.092 0.055,0.024 0.11,0.048 0.166,0.071 0.046,0.018 0.091,0.036 0.137,0.052 0.078,0.03 0.156,0.06 0.235,0.088 0.029,0.01 0.058,0.02 0.087,0.028 0.098,0.034 0.197,0.064 0.294,0.093 0.03,0.009 0.06,0.017 0.09,0.026 0.093,0.025 0.187,0.049 0.28,0.072 0.041,0.01 0.081,0.018 0.122,0.027 0.08,0.019 0.16,0.034 0.241,0.05 0.057,0.011 0.114,0.02 0.172,0.03 0.062,0.011 0.125,0.021 0.188,0.029 0.076,0.011 0.152,0.02 0.228,0.029 0.045,0.005 0.09,0.01 0.135,0.014 0.093,0.008 0.185,0.016 0.279,0.021 0.031,0.001 0.063,0.003 0.094,0.005 0.103,0.004 0.206,0.007 0.309,0.008 h 0.08 c 0.103,0 0.206,-0.004 0.309,-0.008 0.033,-10e-4 0.067,-0.003 0.101,-0.005 0.087,-0.005 0.173,-0.012 0.259,-0.02 C -9.695,7.643 -9.643,7.639 -9.592,7.633 -9.53,7.626 -9.469,7.617 -9.408,7.609 -9.332,7.6 -9.256,7.589 -9.181,7.576 -9.149,7.571 -9.119,7.565 -9.087,7.56 -7.62,7.299 -6.252,6.622 -5.154,5.612 -5.149,5.608 -5.145,5.604 -5.14,5.6 -5.054,5.52 -4.97,5.438 -4.887,5.355 -4.871,5.339 -4.856,5.322 -4.84,5.306 -4.769,5.232 -4.698,5.158 -4.629,5.082 -4.611,5.061 -4.594,5.04 -4.575,5.02 -4.51,4.944 -4.444,4.868 -4.381,4.791 -4.367,4.773 -4.353,4.755 -4.339,4.737 -4.272,4.653 -4.207,4.568 -4.143,4.482 -4.136,4.474 -4.13,4.465 -4.124,4.455 c 0.447,-0.616 0.812,-1.308 1.071,-2.066 0.174,-0.508 0.292,-1.021 0.358,-1.533 10e-4,-0.007 0.002,-0.013 0.003,-0.021 0.014,-0.11 0.025,-0.222 0.034,-0.333 0.003,-0.03 0.005,-0.061 0.007,-0.091 0.006,-0.092 0.011,-0.183 0.014,-0.274 0.002,-0.047 0.003,-0.093 0.004,-0.139 10e-4,-0.082 0.002,-0.164 10e-4,-0.247 -10e-4,-0.047 -0.002,-0.096 -0.004,-0.143 -0.003,-0.086 -0.006,-0.17 -0.012,-0.256 C -2.65,-0.684 -2.653,-0.72 -2.656,-0.755 -2.664,-0.854 -2.672,-0.954 -2.684,-1.054 -2.686,-1.067 -2.688,-1.082 -2.689,-1.096 -2.875,-2.59 -3.488,-4 -4.446,-5.15 c -0.018,-0.022 -0.037,-0.042 -0.055,-0.065 -0.06,-0.07 -0.121,-0.139 -0.183,-0.208 -0.044,-0.048 -0.088,-0.093 -0.133,-0.139 -0.039,-0.042 -0.079,-0.084 -0.12,-0.125 -0.06,-0.059 -0.121,-0.117 -0.183,-0.173 -0.028,-0.028 -0.057,-0.055 -0.086,-0.081 -0.067,-0.061 -0.135,-0.12 -0.204,-0.177 -0.027,-0.024 -0.053,-0.047 -0.081,-0.069 -0.066,-0.055 -0.134,-0.107 -0.202,-0.16 -0.034,-0.024 -0.067,-0.051 -0.1,-0.077 -0.06,-0.044 -0.122,-0.086 -0.182,-0.129 -0.046,-0.032 -0.091,-0.064 -0.138,-0.095 -0.049,-0.033 -0.099,-0.064 -0.149,-0.095 -0.062,-0.04 -0.124,-0.08 -0.188,-0.117 -0.035,-0.022 -0.072,-0.042 -0.108,-0.063 -0.081,-0.046 -0.162,-0.092 -0.245,-0.136 -0.022,-0.011 -0.043,-0.021 -0.065,-0.033 -0.099,-0.052 -0.2,-0.1 -0.302,-0.147 -0.008,-0.005 -0.017,-0.009 -0.025,-0.012 -0.116,-0.053 -0.232,-0.103 -0.35,-0.15 h -0.001 c -0.058,-0.024 -0.117,-0.043 -0.175,-0.066 l 1.181,-2.368 c 0.145,0.059 0.289,0.12 0.431,0.186 0.017,0.006 0.034,0.014 0.051,0.022 0.129,0.06 0.257,0.123 0.384,0.189 0.035,0.018 0.071,0.036 0.107,0.054 0.102,0.054 0.203,0.111 0.303,0.168 0.057,0.032 0.114,0.065 0.169,0.098 0.075,0.044 0.148,0.091 0.222,0.138 0.077,0.047 0.154,0.096 0.229,0.147 0.051,0.033 0.099,0.068 0.148,0.103 0.095,0.064 0.188,0.129 0.28,0.198 0.031,0.023 0.061,0.047 0.091,0.07 0.106,0.081 0.211,0.162 0.313,0.246 0.02,0.016 0.039,0.033 0.059,0.049 0.109,0.092 0.217,0.185 0.322,0.28 0.019,0.018 0.038,0.036 0.057,0.054 0.103,0.095 0.204,0.189 0.302,0.288 0.032,0.031 0.063,0.065 0.094,0.097 0.083,0.085 0.165,0.169 0.245,0.257 0.058,0.063 0.113,0.129 0.17,0.193 0.049,0.058 0.1,0.113 0.148,0.172 0.094,0.112 0.185,0.228 0.274,0.345 0.008,0.01 0.017,0.021 0.025,0.032 0.992,1.308 1.681,2.857 1.968,4.544 0.002,0.011 0.004,0.022 0.006,0.034 0.022,0.133 0.041,0.267 0.059,0.401 0.006,0.046 0.012,0.093 0.018,0.139 0.011,0.106 0.021,0.213 0.03,0.32 0.006,0.074 0.012,0.15 0.016,0.224 0.006,0.088 0.009,0.176 0.013,0.265 0.004,0.089 0.006,0.181 0.007,0.272 0,0.037 0.003,0.073 0.003,0.109 C 0.004,-0.094 0,-0.047 0,0" /></g><g
           transform="translate(73.3911,49.8887)"
           id="g108"><path
             id="path110"
             style="fill:#f4e833;fill-opacity:1;fill-rule:nonzero;stroke:none"
             d="M 0,0 C 0,-0.396 -0.27,-0.595 -0.809,-0.595 H -8.28 c -0.54,0 -0.809,0.228 -0.809,0.683 0,0.426 0.269,0.639 0.809,0.639 h 7.597 C -0.228,0.727 0,0.484 0,0" /></g><g
           transform="translate(73.3911,42.1582)"
           id="g112"><path
             id="path114"
             style="fill:#f4e833;fill-opacity:1;fill-rule:nonzero;stroke:none"
             d="M 0,0 C 0,-0.396 -0.27,-0.594 -0.809,-0.594 H -8.28 c -0.54,0 -0.809,0.228 -0.809,0.682 0,0.427 0.269,0.639 0.809,0.639 h 7.597 C -0.228,0.727 0,0.484 0,0" /></g><g
           transform="translate(50.3076,50.6396)"
           id="g116"><path
             id="path118"
             style="fill:#f4e833;fill-opacity:1;fill-rule:nonzero;stroke:none"
             d="m 0,0 c 0.396,0 0.594,-0.27 0.594,-0.81 v -7.47 c 0,-0.539 -0.227,-0.809 -0.682,-0.809 -0.426,0 -0.639,0.27 -0.639,0.809 v 7.597 C -0.727,-0.228 -0.485,0 0,0" /></g><g
           transform="translate(73.3911,45.9863)"
           id="g120"><path
             id="path122"
             style="fill:#f4e833;fill-opacity:1;fill-rule:nonzero;stroke:none"
             d="M 0,0 C 0,-0.396 -0.27,-0.595 -0.809,-0.595 H -8.28 c -0.54,0 -0.809,0.228 -0.809,0.683 0,0.426 0.269,0.639 0.809,0.639 h 7.597 C -0.228,0.727 0,0.484 0,0" /></g><g
           transform="translate(62.165,50.0078)"
           id="g124"><path
             id="path126"
             style="fill:#f4e833;fill-opacity:1;fill-rule:nonzero;stroke:none"
             d="m 0,0 c 0,-0.072 -0.027,-0.213 -0.082,-0.424 -0.67,-0.665 -2.884,-2.907 -6.643,-6.724 h 6.049 C -0.226,-7.204 0,-7.399 0,-7.736 0,-8.217 -0.268,-8.457 -0.803,-8.457 h -7.401 c -0.535,0 -0.803,0.211 -0.803,0.632 0,0.042 0.028,0.171 0.082,0.386 0.666,0.666 2.881,2.907 6.643,6.724 h -5.922 c -0.535,0 -0.803,0.211 -0.803,0.633 0,0.45 0.226,0.676 0.676,0.676 h 7.655 C -0.226,0.535 0,0.337 0,0" /></g><g
           transform="translate(75.9629,50.6016)"
           id="g128"><path
             id="path130"
             style="fill:#f4e833;fill-opacity:1;fill-rule:nonzero;stroke:none"
             d="m 0,0 c 0.392,0 0.588,-0.267 0.588,-0.803 v -6.939 h 6.39 v 7.066 C 6.978,-0.226 7.218,0 7.698,0 8.09,0 8.286,-0.267 8.286,-0.803 v -7.653 c 0,-0.363 -0.267,-0.562 -0.803,-0.595 h -7.609 c -0.321,0 -0.519,0.24 -0.595,0.721 v 7.654 C -0.721,-0.226 -0.48,0 0,0" /></g><g
           transform="translate(24.9858,49.8594)"
           id="g132"><path
             id="path134"
             style="fill:#f4e833;fill-opacity:1;fill-rule:nonzero;stroke:none"
             d="m 0,0 c 0,-0.392 -0.268,-0.588 -0.803,-0.588 h -6.94 v -6.391 h 7.067 C -0.225,-6.979 0,-7.218 0,-7.698 0,-8.09 -0.268,-8.286 -0.803,-8.286 h -7.654 c -0.362,0 -0.561,0.267 -0.594,0.802 v 7.61 c 0,0.32 0.24,0.519 0.72,0.594 h 7.655 C -0.225,0.72 0,0.48 0,0" /></g><path
           id="path136"
           style="fill:#f4e833;fill-opacity:1;fill-rule:nonzero;stroke:none"
           d="m 28.313,49.347 h 6.39 V 42.86 h -6.39 z m 7.111,1.255 h -7.698 c -0.481,0 -0.721,-0.226 -0.721,-0.676 v -7.655 c 0.076,-0.48 0.274,-0.72 0.594,-0.72 h 7.61 c 0.535,0.033 0.803,0.231 0.803,0.595 v 7.653 c 0,0.536 -0.196,0.803 -0.588,0.803" /><g
           transform="translate(86.8218,50.6016)"
           id="g138"><path
             id="path140"
             style="fill:#f4e833;fill-opacity:1;fill-rule:nonzero;stroke:none"
             d="M 0,0 H 0.088 C 0.417,0 0.883,-0.552 1.485,-1.655 1.67,-1.866 2.876,-3.708 5.101,-7.18 h 0.044 c 0,0.055 1.514,2.376 4.544,6.965 C 9.917,-0.071 10.073,0 10.157,0 h 0.082 c 0.278,0 0.476,-0.213 0.594,-0.638 v -0.083 c 0,-0.142 -0.792,-1.405 -2.376,-3.786 1.584,-2.414 2.376,-3.688 2.376,-3.823 v -0.126 c -0.114,-0.397 -0.312,-0.595 -0.594,-0.595 h -0.082 c -0.342,0 -0.881,0.666 -1.618,1.997 -0.438,0.612 -0.721,1.05 -0.847,1.315 -0.03,0 -0.723,-1.032 -2.08,-3.097 C 5.448,-8.979 5.305,-9.051 5.183,-9.051 H 5.056 c -0.294,0 -0.861,0.723 -1.7,2.168 L 2.553,-5.739 C 1.382,-7.656 0.659,-8.732 0.385,-8.969 L 0.088,-9.051 H 0 c -0.287,0 -0.485,0.213 -0.594,0.639 v 0.082 c 0,0.135 0.792,1.409 2.376,3.823 v 0.045 c -1.453,2.111 -2.246,3.358 -2.376,3.741 v 0.083 C -0.472,-0.213 -0.274,0 0,0" /></g><g
           transform="translate(46.8091,42.8721)"
           id="g142"><path
             id="path144"
             style="fill:#f4e833;fill-opacity:1;fill-rule:nonzero;stroke:none"
             d="m 0,0 h -7.098 v 6.927 c 0,0.536 -0.196,0.802 -0.589,0.802 -0.48,0 -0.72,-0.225 -0.72,-0.675 v -7.655 c 10e-4,-0.003 0.002,-0.006 0.002,-0.011 0,-0.009 -0.002,-0.017 -0.002,-0.027 0,-0.247 0.082,-0.423 0.241,-0.537 0.094,-0.095 0.211,-0.145 0.354,-0.145 h 0.214 6.514 0.957 c 0.54,0 0.809,0.198 0.809,0.593 C 0.682,-0.242 0.455,0 0,0" /></g></g></g><text
       id="text148"
       style="font-variant:normal;font-weight:normal;font-stretch:normal;font-size:5.34218454px;font-family:Iris;-inkscape-font-specification:IrisNormal;writing-mode:lr-tb;fill:#f4e833;fill-opacity:1;fill-rule:nonzero;stroke:none"
       transform="matrix(0.19662368,0.98047903,0.98047903,-0.19662368,5.8002,67.6185)"><tspan
         id="tspan146"
         y="0"
         x="0">.</tspan></text>
<text
       id="text152"
       style="font-variant:normal;font-weight:normal;font-stretch:normal;font-size:5.34225845px;font-family:Iris;-inkscape-font-specification:IrisNormal;writing-mode:lr-tb;fill:#f4e833;fill-opacity:1;fill-rule:nonzero;stroke:none"
       transform="matrix(0.49168343,0.87077403,0.87077403,-0.49168343,10.8396,82.118)"><tspan
         id="tspan150"
         y="0"
         x="0">P</tspan></text>
<text
       id="text156"
       style="font-variant:normal;font-weight:normal;font-stretch:normal;font-size:5.3421855px;font-family:Iris;-inkscape-font-specification:IrisNormal;writing-mode:lr-tb;fill:#f4e833;fill-opacity:1;fill-rule:nonzero;stroke:none"
       transform="matrix(0.63724854,0.77065835,0.77065835,-0.63724854,16.0096,90.0869)"><tspan
         id="tspan154"
         y="0"
         x="0">L</tspan></text>
<text
       id="text160"
       style="font-variant:normal;font-weight:normal;font-stretch:normal;font-size:5.34220791px;font-family:Iris;-inkscape-font-specification:IrisNormal;writing-mode:lr-tb;fill:#f4e833;fill-opacity:1;fill-rule:nonzero;stroke:none"
       transform="matrix(0.76382278,0.64542603,0.64542603,-0.76382278,22.1398,96.6658)"><tspan
         id="tspan158"
         y="0"
         x="0">A</tspan></text>
<text
       id="text164"
       style="font-variant:normal;font-weight:normal;font-stretch:normal;font-size:5.34221554px;font-family:Iris;-inkscape-font-specification:IrisNormal;writing-mode:lr-tb;fill:#f4e833;fill-opacity:1;fill-rule:nonzero;stroke:none"
       transform="matrix(0.86872194,0.4953001,0.4953001,-0.86872194,29.962,102.5015)"><tspan
         id="tspan162"
         y="0"
         x="0">C</tspan></text>
<text
       id="text168"
       style="font-variant:normal;font-weight:normal;font-stretch:normal;font-size:5.34223986px;font-family:Iris;-inkscape-font-specification:IrisNormal;writing-mode:lr-tb;fill:#f4e833;fill-opacity:1;fill-rule:nonzero;stroke:none"
       transform="matrix(0.9430501,0.33265072,0.33265072,-0.9430501,38.4851,106.6917)"><tspan
         id="tspan166"
         y="0"
         x="0">E</tspan></text>
<text
       id="text172"
       style="font-variant:normal;font-weight:normal;font-stretch:normal;font-size:5.34225702px;font-family:Iris;-inkscape-font-specification:IrisNormal;writing-mode:lr-tb;fill:#f4e833;fill-opacity:1;fill-rule:nonzero;stroke:none"
       transform="matrix(0.99995189,0.00980859,0.00980859,-0.99995189,55.2385,110.1087)"><tspan
         id="tspan170"
         y="0"
         x="0">T</tspan></text>
<text
       id="text176"
       style="font-variant:normal;font-weight:normal;font-stretch:normal;font-size:5.34222078px;font-family:Iris;-inkscape-font-specification:IrisNormal;writing-mode:lr-tb;fill:#f4e833;fill-opacity:1;fill-rule:nonzero;stroke:none"
       transform="matrix(0.98524567,-0.17114605,-0.17114605,-0.98524567,64.4441,109.6598)"><tspan
         id="tspan174"
         y="0"
         x="0">O</tspan></text>
<text
       id="text180"
       style="font-variant:normal;font-weight:normal;font-stretch:normal;font-size:5.34225702px;font-family:Iris;-inkscape-font-specification:IrisNormal;writing-mode:lr-tb;fill:#f4e833;fill-opacity:1;fill-rule:nonzero;stroke:none"
       transform="matrix(0.87152304,-0.49035455,-0.49035455,-0.87152304,81.4857,104.2002)"><tspan
         id="tspan178"
         y="0"
         x="0">P</tspan></text>
<text
       id="text184"
       style="font-variant:normal;font-weight:normal;font-stretch:normal;font-size:5.34222126px;font-family:Iris;-inkscape-font-specification:IrisNormal;writing-mode:lr-tb;fill:#f4e833;fill-opacity:1;fill-rule:nonzero;stroke:none"
       transform="matrix(0.77158917,-0.63612118,-0.63612118,-0.77158917,89.4609,99.0408)"><tspan
         id="tspan182"
         y="0"
         x="0">L</tspan></text>
<text
       id="text188"
       style="font-variant:normal;font-weight:normal;font-stretch:normal;font-size:5.34223223px;font-family:Iris;-inkscape-font-specification:IrisNormal;writing-mode:lr-tb;fill:#f4e833;fill-opacity:1;fill-rule:nonzero;stroke:none"
       transform="matrix(0.64660238,-0.76282721,-0.76282721,-0.64660238,96.0519,92.9209)"><tspan
         id="tspan186"
         y="0"
         x="0">A</tspan></text>
<text
       id="text192"
       style="font-variant:normal;font-weight:normal;font-stretch:normal;font-size:5.3422637px;font-family:Iris;-inkscape-font-specification:IrisNormal;writing-mode:lr-tb;fill:#f4e833;fill-opacity:1;fill-rule:nonzero;stroke:none"
       transform="matrix(0.49662468,-0.86796539,-0.86796539,-0.49662468,101.8866,85.1251)"><tspan
         id="tspan190"
         y="0"
         x="0">Y</tspan></text>
<text
       id="text196"
       style="font-variant:normal;font-weight:normal;font-stretch:normal;font-size:5.34227324px;font-family:Iris;-inkscape-font-specification:IrisNormal;writing-mode:lr-tb;fill:#f4e833;fill-opacity:1;fill-rule:nonzero;stroke:none"
       transform="matrix(0.2011316,-0.97956423,-0.97956423,-0.2011316,108.3891,68.8719)"><tspan
         id="tspan194"
         y="0"
         x="0">.</tspan></text>
</g></svg>