<?xml version="1.0" encoding="UTF-8" standalone="no"?>
<svg
   xmlns:dc="http://purl.org/dc/elements/1.1/"
   xmlns:cc="http://creativecommons.org/ns#"
   xmlns:rdf="http://www.w3.org/1999/02/22-rdf-syntax-ns#"
   xmlns:svg="http://www.w3.org/2000/svg"
   xmlns="http://www.w3.org/2000/svg"
   viewBox="0 0 67.803329 67.791603"
   height="67.791603"
   width="67.803329"
   xml:space="preserve"
   id="svg2"
   version="1.1"><metadata
     id="metadata8"><rdf:RDF><cc:Work
         rdf:about=""><dc:format>image/svg+xml</dc:format><dc:type
           rdf:resource="http://purl.org/dc/dcmitype/StillImage" /></cc:Work></rdf:RDF></metadata><defs
     id="defs6"><clipPath
       id="clipPath18"
       clipPathUnits="userSpaceOnUse"><path
         id="path16"
         d="M 0,50.844 H 50.853 V 0 H 0 Z" /></clipPath></defs><g
     transform="matrix(1.3333333,0,0,-1.3333333,0,67.7916)"
     id="g10"><g
       id="g12"><g
         clip-path="url(#clipPath18)"
         id="g14"><g
           transform="translate(11.5815,34.1779)"
           id="g20"><path
             id="path22"
             style="fill:#f7e943;fill-opacity:1;fill-rule:nonzero;stroke:none"
             d="m 0,0 v -0.027 c -0.79,0 -1.579,0.004 -2.368,-0.002 -0.328,-0.003 -0.651,-0.053 -0.949,-0.204 -0.177,-0.09 -0.295,-0.223 -0.324,-0.427 -0.036,-0.262 0.025,-0.506 0.129,-0.741 0.904,-2.041 1.897,-4.038 2.98,-5.991 1.183,-2.132 2.463,-4.202 3.979,-6.117 0.887,-1.122 1.859,-2.16 3.013,-3.017 1.337,-0.994 2.804,-1.714 4.419,-2.124 0.853,-0.216 1.719,-0.336 2.603,-0.312 0.636,0.019 1.273,0 1.91,0.007 0.146,10e-4 0.296,0.021 0.438,0.059 0.425,0.116 0.757,0.341 0.864,0.803 0.024,0.104 0.051,0.207 0.057,0.313 0.031,0.541 0.042,1.084 0.154,1.618 0.092,0.443 0.217,0.874 0.48,1.249 0.357,0.507 0.86,0.687 1.455,0.318 0.347,-0.215 0.648,-0.481 0.92,-0.779 0.51,-0.558 1.005,-1.128 1.513,-1.686 0.412,-0.452 0.835,-0.894 1.342,-1.243 0.659,-0.454 1.37,-0.761 2.19,-0.745 0.339,0.008 0.678,0.03 1.017,0.036 0.81,0.013 1.62,0.019 2.431,0.03 0.483,0.006 0.968,0 1.45,0.03 0.414,0.027 0.812,0.142 1.147,0.406 0.299,0.235 0.45,0.546 0.363,0.928 -0.049,0.217 -0.129,0.431 -0.23,0.629 -0.387,0.758 -0.919,1.415 -1.477,2.05 -0.8,0.909 -1.68,1.738 -2.567,2.562 -0.4,0.372 -0.803,0.744 -1.128,1.189 -0.302,0.414 -0.394,0.859 -0.169,1.327 0.155,0.324 0.33,0.644 0.542,0.932 0.779,1.054 1.583,2.09 2.369,3.139 0.786,1.051 1.544,2.12 2.146,3.29 0.247,0.479 0.47,0.97 0.526,1.518 0.036,0.355 -0.093,0.642 -0.423,0.775 -0.228,0.093 -0.479,0.162 -0.722,0.173 -0.487,0.022 -0.976,-0.006 -1.463,-0.008 -1.257,-0.006 -2.513,-0.009 -3.769,-0.013 -0.301,0 -0.602,0.003 -0.903,-0.001 -0.482,-0.005 -0.844,-0.276 -1.042,-0.774 -0.58,-1.456 -1.224,-2.882 -2.034,-4.227 -0.619,-1.029 -1.254,-2.048 -2.055,-2.951 -0.252,-0.283 -0.521,-0.547 -0.861,-0.726 -0.301,-0.158 -0.506,-0.126 -0.746,0.114 -0.16,0.16 -0.28,0.351 -0.324,0.568 -0.074,0.365 -0.155,0.734 -0.167,1.103 -0.02,0.67 0.005,1.341 0.017,2.011 0.011,0.598 0.029,1.196 0.046,1.793 0.008,0.276 0.02,0.551 0.032,0.827 0.023,0.535 0.037,1.068 -0.04,1.6 -0.11,0.763 -0.456,1.141 -1.195,1.341 C 14.919,0.8 14.247,0.854 13.573,0.862 12.734,0.872 11.894,0.856 11.054,0.842 10.502,0.832 9.955,0.771 9.416,0.644 8.899,0.521 8.439,0.304 8.094,-0.114 8.025,-0.198 7.964,-0.293 7.919,-0.393 7.861,-0.521 7.908,-0.589 8.047,-0.616 c 0.129,-0.026 0.26,-0.048 0.386,-0.081 0.639,-0.172 1.131,-0.514 1.347,-1.174 0.148,-0.454 0.215,-0.923 0.241,-1.398 0.017,-0.292 0.021,-0.585 0.033,-0.877 0.047,-1.137 0.05,-2.272 -0.14,-3.399 C 9.856,-7.889 9.766,-8.223 9.589,-8.529 9.464,-8.746 9.18,-8.925 8.877,-8.857 8.663,-8.811 8.474,-8.712 8.32,-8.566 8.064,-8.326 7.805,-8.083 7.587,-7.81 6.646,-6.622 5.883,-5.317 5.167,-3.986 4.638,-3.004 4.175,-1.988 3.757,-0.953 3.514,-0.351 2.962,-0.016 2.316,-0.003 1.544,0.012 0.772,0 0,0 m 13.832,-34.176 c -5.857,0 -11.713,0.004 -17.57,-0.002 -1.183,-0.001 -2.31,0.236 -3.373,0.744 -1.522,0.73 -2.697,1.837 -3.513,3.319 -0.496,0.899 -0.795,1.861 -0.905,2.881 -0.034,0.319 -0.05,0.642 -0.051,0.964 -0.002,11.671 -0.002,23.341 -0.002,35.012 0,1.249 0.245,2.445 0.807,3.565 0.764,1.521 1.897,2.685 3.409,3.476 1.071,0.56 2.21,0.85 3.418,0.868 0.522,0.008 1.044,0.014 1.566,0.014 11.22,0 22.441,0 33.662,0.001 1.234,0 2.422,-0.219 3.537,-0.761 1.536,-0.746 2.717,-1.867 3.528,-3.373 0.587,-1.091 0.891,-2.258 0.913,-3.497 0.006,-0.351 0.013,-0.704 0.013,-1.056 0,-11.403 0,-22.806 0,-34.209 0,-1.178 -0.211,-2.311 -0.706,-3.385 -0.511,-1.11 -1.238,-2.052 -2.187,-2.823 -0.989,-0.803 -2.11,-1.333 -3.358,-1.588 -0.504,-0.103 -1.014,-0.151 -1.529,-0.151 -5.887,0.002 -11.773,10e-4 -17.659,10e-4" /></g></g></g></g></svg>