<?xml version="1.0" encoding="UTF-8" standalone="no"?>
<svg
   xmlns:dc="http://purl.org/dc/elements/1.1/"
   xmlns:cc="http://creativecommons.org/ns#"
   xmlns:rdf="http://www.w3.org/1999/02/22-rdf-syntax-ns#"
   xmlns:svg="http://www.w3.org/2000/svg"
   xmlns="http://www.w3.org/2000/svg"
   viewBox="0 0 409.28799 406.03467"
   height="406.03467"
   width="409.28799"
   xml:space="preserve"
   id="svg2"
   version="1.1"><metadata
     id="metadata8"><rdf:RDF><cc:Work
         rdf:about=""><dc:format>image/svg+xml</dc:format><dc:type
           rdf:resource="http://purl.org/dc/dcmitype/StillImage" /></cc:Work></rdf:RDF></metadata><defs
     id="defs6"><clipPath
       id="clipPath18"
       clipPathUnits="userSpaceOnUse"><path
         id="path16"
         d="M 0,304.526 H 306.966 V 0 H 0 Z" /></clipPath></defs><g
     transform="matrix(1.3333333,0,0,-1.3333333,0,406.03467)"
     id="g10"><g
       id="g12"><g
         clip-path="url(#clipPath18)"
         id="g14"><g
           transform="translate(306.9664,152.2631)"
           id="g20"><path
             id="path22"
             style="fill:#000000;fill-opacity:1;fill-rule:nonzero;stroke:none"
             d="m 0,0 c 0,-84.094 -68.717,-152.263 -153.483,-152.263 -84.767,0 -153.483,68.169 -153.483,152.263 0,84.093 68.716,152.263 153.483,152.263 C -68.717,152.263 0,84.093 0,0" /></g><g
           transform="translate(153.482,29.8041)"
           id="g24"><path
             id="path26"
             style="fill:#ffffff;fill-opacity:1;fill-rule:nonzero;stroke:none"
             d="m 0,0 c -67.52,0 -122.458,54.943 -122.458,122.465 0,67.507 54.938,122.454 122.458,122.454 67.516,0 122.455,-54.947 122.455,-122.454 C 122.455,54.943 67.516,0 0,0 M 103.64,226.099 C 75.956,253.777 39.145,269.023 0,269.023 c -39.156,0 -75.961,-15.246 -103.651,-42.924 -27.688,-27.676 -42.925,-64.484 -42.925,-103.646 0,-39.148 15.237,-75.957 42.925,-103.635 27.69,-27.696 64.495,-42.924 103.651,-42.924 39.145,0 75.956,15.228 103.64,42.924 27.689,27.678 42.938,64.487 42.938,103.635 0,39.162 -15.249,75.97 -42.938,103.646" /></g><g
           transform="translate(154.295,240.0731)"
           id="g28"><path
             id="path30"
             style="fill:none;stroke:#ffffff;stroke-width:5.75;stroke-linecap:butt;stroke-linejoin:miter;stroke-miterlimit:10;stroke-dasharray:none;stroke-opacity:1"
             d="M 0,0 C -36.137,0 -67.218,-21.635 -81.009,-52.656 H 81.009 C 67.219,-21.635 36.138,0 0,0 Z" /></g><g
           transform="translate(77.0528,131.1478)"
           id="g32"><path
             id="path34"
             style="fill:#ffffff;fill-opacity:1;fill-rule:nonzero;stroke:none"
             d="m 0,0 h -10.631 v 32.908 h -6.306 v 9.324 H 6.254 V 32.908 H 0 Z" /></g><path
           id="path36"
           style="fill:#ffffff;fill-opacity:1;fill-rule:nonzero;stroke:none"
           d="m 99.721,140.495 h 4.674 v 23.674 h -4.674 z m -2.224,-9.347 -8.404,8.199 v 25.994 l 8.404,8.039 h 9.12 l 8.409,-8.039 v -25.994 l -8.409,-8.199 z" /><path
           id="path38"
           style="fill:#ffffff;fill-opacity:1;fill-rule:nonzero;stroke:none"
           d="m 132.611,153.878 h 3.332 v 10.178 h -3.332 z m 0,-22.73 H 121.98 v 42.232 h 17.18 l 7.414,-6.004 v -16.533 l -7.362,-6.074 h -6.601 z" /><g
           transform="translate(160.0899,138.5717)"
           id="g40"><path
             id="path42"
             style="fill:#ffffff;fill-opacity:1;fill-rule:nonzero;stroke:none"
             d="m 0,0 v 27.406 l 7.362,7.403 h 8.235 l 7.424,-7.403 v -7.949 h -8.182 v 7.949 H 8.177 V 0 h 6.662 v 7.074 h -3.275 v 7.188 H 23.021 V 0 L 15.597,-7.424 H 7.362 Z" /></g><g
           transform="translate(197.648,131.1478)"
           id="g44"><path
             id="path46"
             style="fill:#ffffff;fill-opacity:1;fill-rule:nonzero;stroke:none"
             d="M 0,0 -7.414,7.424 V 42.232 H 0.762 V 7.424 h 6.425 v 34.808 h 8.182 V 7.424 L 7.942,0 Z" /></g><g
           transform="translate(236.4405,139.6986)"
           id="g48"><path
             id="path50"
             style="fill:#ffffff;fill-opacity:1;fill-rule:nonzero;stroke:none"
             d="M 0,0 -8.528,17.568 H -8.586 V -8.551 h -7.715 v 42.233 h 7.307 L 0,16.295 V 33.682 H 7.709 V -8.551 l -7.709,0 z" /></g><g
           transform="translate(71.5269,94.2397)"
           id="g52"><path
             id="path54"
             style="fill:none;stroke:#ffffff;stroke-width:5.75;stroke-linecap:butt;stroke-linejoin:miter;stroke-miterlimit:10;stroke-dasharray:none;stroke-opacity:1"
             d="m 0,0 c 0,-8.176 6.625,-14.801 14.802,-14.801 h 135.932 c 8.176,0 14.803,6.625 14.803,14.801 V 21.992 H 0 Z" /></g><path
           id="path56"
           style="fill:#ffffff;fill-opacity:1;fill-rule:nonzero;stroke:none"
           d="m 156.722,253.518 h -6.477 v 36.527 h 6.477 z" /><path
           id="path58"
           style="fill:#ffffff;fill-opacity:1;fill-rule:nonzero;stroke:none"
           d="m 156.722,18.047 h -6.477 v 36.524 h 6.477 z" /><path
           id="path60"
           style="fill:#ffffff;fill-opacity:1;fill-rule:nonzero;stroke:none"
           d="M 54.01,150.806 H 17.482 v 6.479 H 54.01 Z" /><path
           id="path62"
           style="fill:#ffffff;fill-opacity:1;fill-rule:nonzero;stroke:none"
           d="m 289.484,150.806 h -36.528 v 6.479 h 36.528 z" /><g
           transform="translate(20.5777,190.327)"
           id="g64"><path
             id="path66"
             style="fill:#231f20;fill-opacity:1;fill-rule:nonzero;stroke:none"
             d="M 0,0 3.461,-0.877 2.652,-4.071 1.499,-3.778 C 1.064,-3.668 0.74,-3.658 0.528,-3.746 0.316,-3.835 0.182,-3.991 0.125,-4.213 0.06,-4.47 0.097,-4.687 0.236,-4.864 0.375,-5.042 0.667,-5.187 1.113,-5.3 l 5.083,-1.288 c 0.435,-0.11 0.759,-0.121 0.971,-0.032 0.212,0.088 0.351,0.261 0.416,0.517 0.059,0.234 0.016,0.438 -0.13,0.611 -0.146,0.174 -0.436,0.316 -0.871,0.426 l -1.388,0.351 0.809,3.194 3.796,-0.961 c 0.33,-0.618 0.535,-1.272 0.615,-1.962 0.08,-0.691 0.003,-1.499 -0.231,-2.424 C 9.807,-8.351 9.212,-9.342 8.397,-9.841 7.583,-10.341 6.373,-10.387 4.768,-9.98 l -3.963,1.003 c -1.561,0.396 -2.592,1.019 -3.095,1.87 -0.502,0.851 -0.569,2.001 -0.202,3.45 0.215,0.847 0.528,1.556 0.939,2.128 C -1.141,-0.957 -0.623,-0.447 0,0" /></g><g
           transform="translate(35.796,200.0995)"
           id="g68"><path
             id="path70"
             style="fill:#231f20;fill-opacity:1;fill-rule:nonzero;stroke:none"
             d="m 0,0 -3.013,-8.21 -2.089,0.767 c 0.103,0.28 -0.207,0.553 -0.93,0.818 l -5.473,2.009 c -0.724,0.265 -1.137,0.258 -1.24,-0.023 l -2.057,0.755 3.013,8.21 3.967,-1.456 -1.116,-3.044 -0.405,0.148 c -0.454,0.167 -0.784,0.209 -0.992,0.128 -0.207,-0.081 -0.377,-0.303 -0.511,-0.666 l -0.134,-0.368 2.169,-0.796 0.672,1.83 2.283,-0.838 -0.671,-1.83 2.51,-0.921 0.135,0.368 c 0.129,0.352 0.12,0.637 -0.027,0.854 -0.147,0.217 -0.506,0.431 -1.078,0.641 l -0.438,0.16 1.117,3.045 z" /></g><g
           transform="translate(26.0811,209.3651)"
           id="g72"><path
             id="path74"
             style="fill:#231f20;fill-opacity:1;fill-rule:nonzero;stroke:none"
             d="M 0,0 4.542,9.204 8.888,7.059 7.781,4.816 6.482,5.458 C 5.987,5.702 5.62,5.581 5.381,5.097 l 5.924,-2.924 c 0.362,-0.178 0.652,-0.251 0.873,-0.218 0.221,0.031 0.367,0.12 0.438,0.264 l 1.996,-0.985 -2.153,-4.361 -1.995,0.984 c 0.071,0.144 0.051,0.311 -0.061,0.501 -0.111,0.189 -0.347,0.373 -0.708,0.552 L 3.77,1.833 C 3.516,1.317 3.636,0.937 4.131,0.693 l 1.3,-0.641 -1.084,-2.197 z" /></g><g
           transform="translate(41.5816,222.7738)"
           id="g76"><path
             id="path78"
             style="fill:#231f20;fill-opacity:1;fill-rule:nonzero;stroke:none"
             d="m 0,0 2.315,-1.471 0.194,0.306 C 2.953,-0.466 2.782,0.133 1.996,0.633 1.239,1.114 0.638,1.005 0.194,0.306 Z M -8.223,0.503 -5.79,4.332 -3.912,3.139 C -4.023,2.964 -4.025,2.795 -3.917,2.632 -3.81,2.468 -3.591,2.281 -3.261,2.072 L -1.98,1.258 -1.157,2.554 C -0.522,3.553 0.258,4.158 1.181,4.369 2.105,4.579 3.145,4.317 4.299,3.583 4.921,3.188 5.382,2.79 5.685,2.386 5.987,1.983 6.16,1.563 6.203,1.127 6.246,0.691 6.174,0.229 5.987,-0.258 5.8,-0.746 5.525,-1.275 5.161,-1.848 L 2.377,-6.23 0.499,-5.038 c 0.086,0.136 0.068,0.28 -0.053,0.433 -0.121,0.151 -0.352,0.335 -0.692,0.551 l -4.921,3.127 c -0.33,0.209 -0.587,0.335 -0.771,0.377 -0.185,0.043 -0.32,-0.004 -0.406,-0.14 z" /></g><g
           transform="translate(55.8155,241.5346)"
           id="g80"><path
             id="path82"
             style="fill:#231f20;fill-opacity:1;fill-rule:nonzero;stroke:none"
             d="m 0,0 2.008,-1.843 c 0.047,0.034 0.133,0.12 0.258,0.256 0.559,0.609 0.496,1.229 -0.19,1.859 C 1.415,0.879 0.77,0.839 0.14,0.153 Z M -8.006,1.94 -2.022,8.459 1.041,5.648 -1.129,3.285 -1.383,3.518 C -1.722,3.829 -2,4.006 -2.218,4.05 -2.436,4.093 -2.681,3.967 -2.953,3.67 L -3.431,3.149 -1.728,1.586 -0.69,2.717 C 0.111,3.59 0.968,4.064 1.88,4.14 2.792,4.215 3.723,3.818 4.672,2.947 5.714,1.99 6.192,1.028 6.107,0.06 6.023,-0.908 5.521,-1.892 4.604,-2.892 l -3.359,-3.659 -1.64,1.505 c 0.195,0.211 0.008,0.578 -0.559,1.099 l -4.295,3.943 C -5.537,0.26 -5.768,0.429 -5.942,0.503 -6.117,0.577 -6.258,0.554 -6.367,0.436 Z" /></g><g
           transform="translate(73.0152,250.5619)"
           id="g84"><path
             id="path86"
             style="fill:#231f20;fill-opacity:1;fill-rule:nonzero;stroke:none"
             d="m 0,0 -6.551,-5.794 -1.474,1.667 c 0.224,0.198 0.081,0.585 -0.43,1.163 l -3.862,4.367 c -0.511,0.576 -0.878,0.766 -1.102,0.568 l -1.452,1.641 6.551,5.794 2.8,-3.165 -2.429,-2.149 -0.285,0.323 C -8.555,4.777 -8.825,4.971 -9.046,4.999 -9.267,5.025 -9.522,4.911 -9.812,4.655 l -0.293,-0.259 1.531,-1.732 1.46,1.292 1.612,-1.822 -1.46,-1.292 1.771,-2.002 0.294,0.259 c 0.28,0.249 0.408,0.503 0.381,0.764 -0.026,0.261 -0.24,0.62 -0.644,1.076 l -0.309,0.35 2.429,2.148 z" /></g><g
           transform="translate(76.796,267.5868)"
           id="g88"><path
             id="path90"
             style="fill:#231f20;fill-opacity:1;fill-rule:nonzero;stroke:none"
             d="m 0,0 2.08,-2.902 -2.678,-1.92 -0.693,0.968 c -0.261,0.364 -0.501,0.581 -0.721,0.65 -0.219,0.069 -0.423,0.037 -0.61,-0.097 -0.214,-0.154 -0.326,-0.344 -0.335,-0.569 -0.008,-0.225 0.122,-0.525 0.39,-0.899 l 3.054,-4.262 c 0.262,-0.364 0.502,-0.581 0.721,-0.65 0.22,-0.069 0.437,-0.027 0.652,0.127 0.196,0.141 0.294,0.325 0.295,0.551 0,0.226 -0.131,0.522 -0.392,0.887 l -0.834,1.163 2.678,1.92 2.281,-3.183 C 5.742,-8.901 5.477,-9.533 5.093,-10.112 4.709,-10.691 4.129,-11.259 3.353,-11.815 2.11,-12.707 1.016,-13.08 0.072,-12.936 c -0.945,0.143 -1.9,0.888 -2.864,2.234 l -2.382,3.323 c -0.937,1.308 -1.324,2.449 -1.159,3.424 0.165,0.974 0.855,1.896 2.07,2.767 0.71,0.509 1.408,0.85 2.091,1.021 C -1.489,0.004 -0.765,0.06 0,0" /></g><g
           transform="translate(91.1251,263.0365)"
           id="g92"><path
             id="path94"
             style="fill:#231f20;fill-opacity:1;fill-rule:nonzero;stroke:none"
             d="m 0,0 -3.901,-2.212 -1.098,1.936 c 0.26,0.147 0.2,0.556 -0.18,1.226 l -2.876,5.072 c -0.368,0.65 -0.683,0.901 -0.943,0.754 l -1.097,1.936 8.313,4.713 1.097,-1.936 c -0.25,-0.141 -0.19,-0.537 0.178,-1.188 L 2.369,5.23 C 2.749,4.56 3.064,4.295 3.314,4.437 L 4.411,2.501 0.54,0.306 -0.558,2.242 c 0.125,0.071 0.166,0.199 0.123,0.386 -0.043,0.187 -0.164,0.456 -0.362,0.807 L -4.056,9.182 -5.271,8.493 -2.013,2.746 C -1.814,2.395 -1.646,2.154 -1.507,2.021 -1.369,1.888 -1.232,1.86 -1.098,1.936 Z" /></g><g
           transform="translate(107.5123,271.0107)"
           id="g96"><path
             id="path98"
             style="fill:#231f20;fill-opacity:1;fill-rule:nonzero;stroke:none"
             d="m 0,0 -8.024,-3.478 -0.885,2.041 c 0.274,0.119 0.259,0.532 -0.048,1.239 l -2.319,5.349 c -0.306,0.707 -0.597,1.001 -0.871,0.882 l -0.871,2.01 8.023,3.478 L -3.313,7.644 -6.289,6.354 -6.46,6.75 C -6.652,7.193 -6.85,7.462 -7.051,7.556 -7.253,7.65 -7.531,7.621 -7.886,7.467 L -8.245,7.311 -7.326,5.19 -5.538,5.965 -4.57,3.734 -6.359,2.959 -5.295,0.506 -4.936,0.662 c 0.344,0.149 0.544,0.351 0.601,0.608 0.055,0.256 -0.038,0.663 -0.28,1.223 L -4.8,2.92 -1.825,4.21 Z" /></g><g
           transform="translate(112.4591,283.3046)"
           id="g100"><path
             id="path102"
             style="fill:#231f20;fill-opacity:1;fill-rule:nonzero;stroke:none"
             d="m 0,0 1.128,-3.587 0.214,0.067 c 0.438,0.138 0.715,0.322 0.83,0.551 0.115,0.228 0.1,0.573 -0.045,1.034 L 1.781,-0.833 C 1.625,-0.339 1.435,-0.031 1.21,0.091 0.984,0.213 0.652,0.205 0.214,0.067 Z m 3.571,-9.346 -4.426,-1.392 -0.667,2.123 c 0.296,0.093 0.329,0.507 0.097,1.242 l -1.738,5.529 c -0.231,0.735 -0.495,1.056 -0.791,0.963 L -4.622,1.241 0.167,2.747 C 0.869,2.967 1.488,3.078 2.025,3.078 2.561,3.078 3.038,2.95 3.456,2.696 3.873,2.441 4.239,2.053 4.554,1.532 4.869,1.01 5.156,0.337 5.414,-0.485 5.611,-1.11 5.733,-1.693 5.783,-2.232 5.832,-2.771 5.781,-3.263 5.632,-3.708 5.482,-4.152 5.218,-4.54 4.84,-4.87 4.461,-5.2 3.949,-5.466 3.302,-5.67 3.082,-5.739 2.839,-5.791 2.573,-5.827 2.307,-5.862 2.06,-5.861 1.832,-5.825 L 1.981,-6.302 C 2.102,-6.686 2.234,-6.952 2.377,-7.1 2.52,-7.248 2.696,-7.289 2.904,-7.223 Z" /></g><g
           transform="translate(133.025,278.0775)"
           id="g104"><path
             id="path106"
             style="fill:#231f20;fill-opacity:1;fill-rule:nonzero;stroke:none"
             d="m 0,0 -8.571,-1.74 -0.442,2.181 c 0.292,0.059 0.363,0.467 0.209,1.222 l -1.16,5.713 c -0.153,0.755 -0.376,1.103 -0.669,1.044 l -0.436,2.147 8.57,1.74 L -1.658,8.165 -4.835,7.52 -4.921,7.942 C -5.018,8.416 -5.155,8.719 -5.333,8.854 -5.51,8.987 -5.789,9.016 -6.167,8.939 l -0.384,-0.078 0.46,-2.265 1.91,0.388 0.484,-2.384 -1.91,-0.388 0.531,-2.62 0.385,0.078 c 0.367,0.075 0.605,0.231 0.712,0.471 0.108,0.238 0.102,0.657 -0.02,1.254 l -0.092,0.457 3.178,0.645 z" /></g><g
           transform="translate(140.8228,284.4486)"
           id="g108"><path
             id="path110"
             style="fill:#231f20;fill-opacity:1;fill-rule:nonzero;stroke:none"
             d="m 0,0 0.26,-2.713 c 0.058,-0.006 0.179,0 0.362,0.018 0.824,0.078 1.192,0.582 1.103,1.509 C 1.64,-0.293 1.133,0.109 0.206,0.02 Z M -4.654,6.797 4.155,7.641 4.551,3.503 1.357,3.197 1.324,3.541 C 1.281,3.998 1.192,4.316 1.06,4.494 0.927,4.672 0.661,4.742 0.26,4.704 L -0.444,4.636 -0.224,2.335 1.305,2.481 C 2.483,2.595 3.438,2.374 4.167,1.82 4.895,1.266 5.321,0.348 5.444,-0.934 5.579,-2.342 5.291,-3.377 4.581,-4.041 3.87,-4.704 2.839,-5.1 1.489,-5.229 l -4.946,-0.474 -0.211,2.216 c 0.285,0.027 0.392,0.424 0.318,1.191 l -0.556,5.803 c -0.037,0.389 -0.095,0.67 -0.175,0.841 -0.08,0.172 -0.2,0.25 -0.36,0.235 z" /></g><g
           transform="translate(156.1954,283.3754)"
           id="g112"><path
             id="path114"
             style="fill:#231f20;fill-opacity:1;fill-rule:nonzero;stroke:none"
             d="M 0,0 0.085,5.243 C 0.092,5.692 0.043,6.009 -0.063,6.194 -0.17,6.38 -0.349,6.475 -0.602,6.479 -0.867,6.483 -1.058,6.397 -1.176,6.221 -1.293,6.044 -1.356,5.727 -1.364,5.267 L -1.449,0.023 c -0.007,-0.448 0.045,-0.765 0.157,-0.951 0.112,-0.186 0.3,-0.28 0.565,-0.285 0.253,-0.004 0.435,0.088 0.548,0.276 0.112,0.188 0.172,0.5 0.179,0.937 m -5.079,0.635 0.066,4.087 c 0.014,0.862 0.104,1.58 0.268,2.152 0.165,0.572 0.425,1.031 0.782,1.376 0.356,0.345 0.814,0.585 1.374,0.72 0.56,0.134 1.237,0.196 2.03,0.182 C 0.234,9.14 0.906,9.057 1.456,8.904 2.005,8.751 2.45,8.497 2.789,8.141 3.128,7.784 3.371,7.317 3.517,6.74 3.663,6.163 3.729,5.443 3.714,4.581 L 3.648,0.493 C 3.634,-0.369 3.545,-1.087 3.38,-1.659 3.216,-2.231 2.958,-2.688 2.608,-3.027 2.257,-3.366 1.805,-3.603 1.25,-3.738 0.696,-3.873 0.022,-3.934 -0.771,-3.921 c -0.793,0.013 -1.468,0.096 -2.023,0.249 -0.555,0.152 -1.005,0.404 -1.351,0.755 -0.345,0.351 -0.59,0.814 -0.736,1.392 -0.146,0.577 -0.212,1.297 -0.198,2.16" /></g><g
           transform="translate(168.3839,294.2113)"
           id="g116"><path
             id="path118"
             style="fill:#231f20;fill-opacity:1;fill-rule:nonzero;stroke:none"
             d="M 0,0 0.03,0.259 1.641,0.073 1.614,-0.154 c -0.023,-0.198 0.035,-0.378 0.172,-0.541 0.138,-0.164 0.332,-0.26 0.583,-0.289 0.24,-0.027 0.454,0.021 0.642,0.147 0.188,0.126 0.294,0.287 0.317,0.485 L 3.354,-0.125 4.948,-0.31 4.917,-0.568 C 4.871,-0.972 4.767,-1.292 4.606,-1.53 4.446,-1.768 4.246,-1.946 4.007,-2.064 3.768,-2.183 3.496,-2.25 3.193,-2.268 2.89,-2.286 2.567,-2.274 2.225,-2.234 1.882,-2.195 1.565,-2.132 1.274,-2.046 0.983,-1.959 0.734,-1.832 0.528,-1.662 0.322,-1.493 0.171,-1.274 0.075,-1.006 -0.022,-0.738 -0.047,-0.403 0,0 m 0.321,-15.246 -4.472,0.517 0.255,2.21 c 0.309,-0.035 0.507,0.33 0.596,1.095 l 0.669,5.792 c 0.086,0.742 -0.025,1.132 -0.333,1.167 l 0.255,2.211 4.472,-0.517 -0.256,-2.211 C 1.365,-4.965 1.257,-5.011 1.184,-5.118 1.11,-5.226 1.053,-5.462 1.011,-5.828 l -0.28,-2.416 1.392,1.524 c 0.18,0.199 0.305,0.364 0.375,0.495 0.069,0.131 0.114,0.288 0.136,0.47 0.028,0.24 0.02,0.409 -0.024,0.506 -0.043,0.098 -0.142,0.156 -0.297,0.174 l 0.255,2.21 4.49,-0.519 -0.256,-2.21 C 6.482,-5.557 6.279,-5.91 6.193,-6.652 l -0.669,-5.792 c -0.046,-0.4 -0.045,-0.695 0.006,-0.886 0.05,-0.191 0.163,-0.297 0.341,-0.317 l -0.255,-2.211 -4.49,0.519 0.256,2.211 c 0.155,-0.018 0.269,0.049 0.341,0.203 0.072,0.154 0.134,0.453 0.186,0.899 l 0.271,2.347 -1.404,-1.626 c -0.205,-0.242 -0.335,-0.41 -0.39,-0.502 -0.055,-0.091 -0.09,-0.2 -0.105,-0.326 -0.03,-0.263 -0.027,-0.474 0.01,-0.635 0.037,-0.161 0.132,-0.25 0.286,-0.268 z" /></g><g
           transform="translate(182.6827,276.621)"
           id="g120"><path
             id="path122"
             style="fill:#231f20;fill-opacity:1;fill-rule:nonzero;stroke:none"
             d="m 0,0 -4.37,1.007 0.499,2.168 c 0.292,-0.067 0.524,0.275 0.697,1.026 l 1.309,5.681 c 0.168,0.728 0.106,1.126 -0.185,1.193 l 0.499,2.169 4.37,-1.007 L 2.32,10.068 C 2.062,10.128 1.849,9.793 1.682,9.065 L 1.345,7.603 2.857,7.254 3.194,8.716 C 3.282,9.097 3.321,9.38 3.311,9.566 3.3,9.751 3.216,9.862 3.06,9.898 L 3.559,12.066 7.946,11.055 7.447,8.887 C 7.144,8.957 6.909,8.627 6.741,7.899 L 5.432,2.218 C 5.259,1.467 5.323,1.057 5.626,0.987 L 5.127,-1.181 0.74,-0.17 1.239,1.998 C 1.396,1.962 1.521,2.027 1.612,2.195 1.704,2.363 1.795,2.643 1.885,3.035 L 2.312,4.884 0.798,5.232 0.373,3.384 C 0.282,2.991 0.243,2.699 0.255,2.508 0.268,2.316 0.349,2.203 0.5,2.168 Z" /></g><g
           transform="translate(198.2169,275.891)"
           id="g124"><path
             id="path126"
             style="fill:#231f20;fill-opacity:1;fill-rule:nonzero;stroke:none"
             d="M 0,0 1.723,4.953 C 1.87,5.376 1.922,5.693 1.88,5.902 1.837,6.112 1.696,6.259 1.457,6.342 1.208,6.429 0.999,6.407 0.832,6.276 0.665,6.146 0.505,5.863 0.354,5.429 L -1.369,0.476 c -0.147,-0.423 -0.196,-0.741 -0.149,-0.953 0.049,-0.211 0.198,-0.36 0.448,-0.447 0.238,-0.083 0.441,-0.054 0.606,0.09 C -0.298,-0.691 -0.144,-0.413 0,0 m -4.625,2.193 1.344,3.861 c 0.283,0.815 0.592,1.468 0.928,1.96 0.335,0.492 0.727,0.846 1.173,1.062 0.447,0.216 0.956,0.3 1.531,0.253 C 0.925,9.282 1.586,9.127 2.336,8.867 3.085,8.606 3.697,8.317 4.171,8 4.645,7.683 4.988,7.302 5.198,6.857 5.409,6.413 5.493,5.894 5.451,5.299 5.408,4.705 5.245,4.001 4.962,3.187 L 3.619,-0.674 C 3.335,-1.489 3.026,-2.143 2.69,-2.634 2.355,-3.126 1.968,-3.479 1.528,-3.691 1.089,-3.904 0.585,-3.987 0.017,-3.941 c -0.569,0.045 -1.227,0.198 -1.977,0.459 -0.749,0.261 -1.364,0.55 -1.844,0.869 -0.479,0.32 -0.828,0.699 -1.046,1.141 -0.218,0.441 -0.306,0.958 -0.263,1.552 0.042,0.594 0.205,1.299 0.488,2.113" /></g><g
           transform="translate(208.7882,267.5629)"
           id="g128"><path
             id="path130"
             style="fill:#231f20;fill-opacity:1;fill-rule:nonzero;stroke:none"
             d="m 0,0 -4.173,1.948 0.941,2.016 c 0.14,-0.065 0.276,-0.027 0.409,0.114 0.133,0.141 0.284,0.393 0.454,0.758 l 2.466,5.284 c 0.165,0.354 0.258,0.625 0.278,0.812 0.021,0.187 -0.039,0.313 -0.179,0.379 L 1.137,13.327 8.562,9.862 6.512,5.47 3.886,6.695 4.294,7.57 C 4.518,8.05 4.606,8.396 4.56,8.608 4.513,8.82 4.312,9.009 3.958,9.174 L 3.724,9.284 0.93,3.297 C 0.604,2.599 0.607,2.172 0.941,2.017 Z" /></g><g
           transform="translate(221.8399,264.7787)"
           id="g132"><path
             id="path134"
             style="fill:#231f20;fill-opacity:1;fill-rule:nonzero;stroke:none"
             d="M 0,0 2.675,4.51 C 2.903,4.896 3.018,5.196 3.018,5.41 3.017,5.624 2.908,5.795 2.691,5.924 2.463,6.059 2.255,6.079 2.065,5.985 1.875,5.89 1.663,5.645 1.428,5.249 l -2.674,-4.51 c -0.229,-0.386 -0.341,-0.687 -0.336,-0.904 0.005,-0.217 0.122,-0.393 0.349,-0.528 0.217,-0.129 0.422,-0.14 0.613,-0.032 C -0.43,-0.618 -0.223,-0.376 0,0 m -4.095,3.07 2.085,3.516 c 0.44,0.742 0.873,1.321 1.3,1.736 0.427,0.415 0.88,0.684 1.361,0.807 0.48,0.123 0.997,0.104 1.55,-0.057 C 2.754,8.911 3.372,8.628 4.055,8.224 4.737,7.819 5.279,7.414 5.681,7.009 6.082,6.604 6.342,6.163 6.459,5.685 6.577,5.207 6.556,4.682 6.396,4.108 6.237,3.534 5.937,2.876 5.497,2.135 L 3.412,-1.382 C 2.972,-2.124 2.539,-2.702 2.112,-3.118 1.685,-3.533 1.236,-3.801 0.763,-3.922 0.29,-4.042 -0.22,-4.024 -0.769,-3.866 c -0.547,0.158 -1.163,0.439 -1.845,0.844 -0.683,0.404 -1.227,0.811 -1.634,1.219 -0.406,0.408 -0.672,0.85 -0.797,1.325 -0.126,0.477 -0.109,1 0.05,1.575 0.16,0.573 0.46,1.231 0.9,1.973" /></g><g
           transform="translate(237.5768,248.8212)"
           id="g136"><path
             id="path138"
             style="fill:#231f20;fill-opacity:1;fill-rule:nonzero;stroke:none"
             d="m 0,0 -3.392,2.934 1.455,1.683 c 0.227,-0.196 0.591,-0.002 1.095,0.58 l 3.814,4.41 c 0.489,0.566 0.62,0.946 0.394,1.142 L 4.822,12.432 12.05,6.181 10.594,4.498 c -0.217,0.188 -0.57,0 -1.059,-0.566 L 5.721,-0.478 C 5.217,-1.061 5.074,-1.446 5.292,-1.634 L 3.836,-3.317 0.47,-0.406 1.925,1.277 C 2.033,1.184 2.168,1.188 2.331,1.291 2.492,1.395 2.705,1.598 2.968,1.903 L 7.29,6.9 6.233,7.814 1.912,2.816 C 1.648,2.512 1.477,2.272 1.398,2.097 1.32,1.922 1.339,1.784 1.456,1.683 Z" /></g><g
           transform="translate(247.6876,239.1063)"
           id="g140"><path
             id="path142"
             style="fill:#231f20;fill-opacity:1;fill-rule:nonzero;stroke:none"
             d="m 0,0 -3.051,3.288 1.632,1.513 c 0.203,-0.219 0.587,-0.067 1.152,0.458 l 4.273,3.966 c 0.548,0.508 0.721,0.872 0.517,1.091 L 6.154,11.83 9.205,8.542 7.574,7.028 C 7.477,7.133 7.365,7.169 7.239,7.135 7.114,7.102 6.916,6.959 6.646,6.709 L 4.864,5.055 6.912,5.308 C 7.178,5.342 7.38,5.386 7.518,5.44 7.656,5.495 7.792,5.584 7.927,5.709 8.104,5.874 8.208,6.007 8.239,6.109 8.27,6.211 8.232,6.319 8.125,6.434 L 9.756,7.948 12.831,4.635 11.2,3.122 C 10.98,3.357 10.597,3.221 10.049,2.713 L 5.775,-1.253 C 5.48,-1.527 5.29,-1.752 5.204,-1.93 5.117,-2.108 5.135,-2.262 5.257,-2.393 L 3.625,-3.907 0.552,-0.594 2.183,0.919 C 2.289,0.805 2.419,0.782 2.574,0.853 2.729,0.922 2.971,1.11 3.3,1.415 L 5.032,3.022 2.908,2.699 C 2.594,2.648 2.387,2.605 2.285,2.572 2.183,2.538 2.086,2.477 1.994,2.391 1.8,2.211 1.665,2.048 1.588,1.902 1.512,1.757 1.526,1.627 1.631,1.514 Z" /></g><g
           transform="translate(263.9864,239.5829)"
           id="g144"><path
             id="path146"
             style="fill:#231f20;fill-opacity:1;fill-rule:nonzero;stroke:none"
             d="m 0,0 6.117,-8.242 -3.893,-2.888 -1.491,2.008 1.164,0.864 c 0.443,0.329 0.504,0.71 0.182,1.144 l -5.305,-3.937 c -0.323,-0.24 -0.522,-0.466 -0.593,-0.677 -0.073,-0.211 -0.061,-0.381 0.035,-0.511 l -1.787,-1.325 -2.899,3.905 1.787,1.326 c 0.096,-0.128 0.254,-0.187 0.474,-0.174 0.219,0.012 0.491,0.138 0.813,0.379 l 5.306,3.937 c -0.343,0.462 -0.736,0.528 -1.179,0.199 l -1.164,-0.863 -1.46,1.966 z" /></g><g
           transform="translate(268.7335,220.5785)"
           id="g148"><path
             id="path150"
             style="fill:#231f20;fill-opacity:1;fill-rule:nonzero;stroke:none"
             d="M 0,0 0.652,-1.097 4.285,1.805 4.276,1.82 Z M 4.625,5.721 7.932,0.161 6.019,-0.977 C 5.925,-0.818 5.76,-0.81 5.522,-0.951 5.463,-0.986 5.394,-1.034 5.316,-1.093 5.238,-1.153 5.153,-1.23 5.062,-1.325 l -4.499,-4.28 c -0.328,-0.303 -0.532,-0.518 -0.61,-0.644 -0.078,-0.127 -0.088,-0.24 -0.029,-0.339 l -1.913,-1.137 -2.204,3.706 1.913,1.138 c 0.086,-0.056 0.189,-0.088 0.308,-0.098 0.119,-0.009 0.253,0.03 0.402,0.119 0.039,0.023 0.098,0.065 0.176,0.125 0.078,0.059 0.19,0.146 0.337,0.26 l -0.97,1.631 c -0.31,-0.131 -0.505,-0.22 -0.584,-0.267 -0.277,-0.164 -0.396,-0.369 -0.357,-0.614 l -1.913,-1.137 -2.169,3.647 1.913,1.137 c 0.065,-0.109 0.172,-0.159 0.321,-0.15 0.148,0.008 0.426,0.086 0.833,0.234 L 1.926,3.915 C 2.042,3.944 2.148,3.98 2.243,4.023 2.338,4.066 2.415,4.105 2.475,4.141 2.613,4.223 2.696,4.302 2.724,4.379 2.752,4.456 2.748,4.524 2.713,4.583 Z" /></g><g
           transform="translate(270.4439,205.309)"
           id="g152"><path
             id="path154"
             style="fill:#231f20;fill-opacity:1;fill-rule:nonzero;stroke:none"
             d="M 0,0 -1.864,4.079 0.16,5.004 C 0.284,4.732 0.696,4.756 1.397,5.077 L 6.7,7.5 C 7.379,7.811 7.657,8.103 7.533,8.374 L 9.557,9.299 11.421,5.22 9.397,4.295 C 9.287,4.536 8.893,4.5 8.213,4.19 L 6.848,3.566 7.493,2.154 8.858,2.778 C 9.213,2.94 9.461,3.083 9.603,3.204 9.743,3.325 9.78,3.458 9.713,3.605 L 11.737,4.53 13.608,0.436 11.584,-0.49 c -0.128,0.282 -0.533,0.268 -1.213,-0.042 L 5.068,-2.956 C 4.368,-3.276 4.082,-3.578 4.211,-3.86 L 2.187,-4.785 0.316,-0.69 2.339,0.235 C 2.406,0.088 2.534,0.03 2.723,0.059 2.912,0.088 3.189,0.187 3.555,0.354 L 5.281,1.143 4.636,2.555 2.91,1.766 C 2.544,1.599 2.289,1.452 2.145,1.326 2,1.199 1.959,1.065 2.024,0.925 Z" /></g><g
           transform="translate(275.5831,192.2138)"
           id="g156"><path
             id="path158"
             style="fill:#231f20;fill-opacity:1;fill-rule:nonzero;stroke:none"
             d="M 0,0 -1.398,4.261 0.716,4.955 C 0.809,4.671 1.222,4.649 1.954,4.889 l 5.54,1.818 c 0.71,0.232 1.018,0.491 0.925,0.775 L 10.533,8.176 11.932,3.915 9.817,3.221 C 9.772,3.357 9.686,3.436 9.558,3.458 9.43,3.479 9.191,3.433 8.841,3.318 L 6.53,2.56 8.497,1.935 C 8.753,1.854 8.955,1.81 9.103,1.801 9.251,1.793 9.412,1.817 9.587,1.875 c 0.229,0.075 0.379,0.153 0.45,0.233 0.07,0.08 0.082,0.194 0.033,0.343 l 2.114,0.694 1.409,-4.295 -2.114,-0.693 c -0.101,0.305 -0.506,0.342 -1.216,0.109 L 4.724,-3.552 C 4.341,-3.677 4.073,-3.802 3.921,-3.928 3.768,-4.053 3.72,-4.201 3.776,-4.371 l -2.114,-0.693 -1.41,4.293 2.115,0.694 c 0.049,-0.148 0.157,-0.223 0.328,-0.224 0.17,-0.001 0.468,0.068 0.894,0.208 L 5.834,0.643 3.77,1.237 C 3.463,1.322 3.257,1.37 3.15,1.381 3.043,1.393 2.93,1.379 2.81,1.339 2.559,1.257 2.368,1.166 2.237,1.065 2.107,0.964 2.066,0.84 2.114,0.693 Z" /></g><g
           transform="translate(286.6153,179.2269)"
           id="g160"><path
             id="path162"
             style="fill:#231f20;fill-opacity:1;fill-rule:nonzero;stroke:none"
             d="M 0,0 2.65,0.557 2.555,1.013 C 2.472,1.407 2.318,1.647 2.094,1.735 1.87,1.824 1.521,1.818 1.049,1.718 0.576,1.619 0.249,1.474 0.065,1.283 -0.118,1.091 -0.166,0.788 -0.078,0.371 Z m -6.301,-5.414 -0.918,4.372 2.177,0.458 c 0.064,-0.304 0.473,-0.376 1.227,-0.218 l 1.401,0.295 -0.043,0.202 C -2.499,-0.103 -2.548,0.061 -2.603,0.184 -2.659,0.308 -2.749,0.4 -2.874,0.462 -2.998,0.524 -3.165,0.551 -3.375,0.542 -3.584,0.533 -3.864,0.492 -4.212,0.419 L -4.989,0.256 C -5.698,0.107 -6.242,0.04 -6.621,0.054 -7,0.068 -7.291,0.136 -7.493,0.258 L -8.23,3.77 -6.053,4.227 c 0.034,-0.164 0.141,-0.263 0.319,-0.299 0.177,-0.036 0.48,-0.009 0.908,0.081 l 0.405,0.085 c 0.383,0.081 0.713,0.133 0.99,0.156 0.277,0.022 0.519,0.003 0.726,-0.06 0.207,-0.062 0.395,-0.175 0.565,-0.339 0.169,-0.164 0.331,-0.389 0.485,-0.674 0.062,0.601 0.292,1.087 0.69,1.458 C -0.567,5.007 0.02,5.274 0.796,5.437 1.482,5.582 2.062,5.609 2.533,5.52 3.004,5.432 3.396,5.243 3.709,4.957 4.021,4.67 4.272,4.288 4.461,3.81 4.649,3.333 4.81,2.779 4.942,2.149 L 5.989,-2.831 3.811,-3.289 C 3.754,-3.019 3.36,-2.96 2.628,-3.114 l -5.705,-1.199 c -0.394,-0.083 -0.675,-0.171 -0.843,-0.265 -0.169,-0.094 -0.236,-0.22 -0.203,-0.378 z" /></g><path
           id="path164"
           style="fill:#ef4136;fill-opacity:1;fill-rule:nonzero;stroke:none"
           d="m 89.071,89.678 h 3.862 v 6.566 h -3.862 z m 0,10.429 h 3.862 v 6.04 H 89.071 Z M 94.268,85.219 H 84.155 v 25.388 h 9.831 l 3.477,-3.301 v -6.566 l -2.317,-2.178 2.703,-2.317 v -7.549 z" /><g
           transform="translate(110.8058,85.2191)"
           id="g166"><path
             id="path168"
             style="fill:#ef4136;fill-opacity:1;fill-rule:nonzero;stroke:none"
             d="M 0,0 -4.459,4.459 V 25.388 H 0.457 V 4.459 H 4.319 V 25.388 H 9.235 V 4.459 L 4.775,0 Z" /></g><path
           id="path170"
           style="fill:#ef4136;fill-opacity:1;fill-rule:nonzero;stroke:none"
           d="m 133.7,99.967 h 3.862 v 6.18 H 133.7 Z m 0,-14.748 h -4.916 v 25.388 h 9.832 l 3.476,-3.301 v -6.602 l -2.458,-2.633 2.844,-2.599 V 85.219 h -4.916 v 9.375 l -1.685,1.651 H 133.7 Z" /><g
           transform="translate(150.6598,89.6781)"
           id="g172"><path
             id="path174"
             style="fill:#ef4136;fill-opacity:1;fill-rule:nonzero;stroke:none"
             d="m 0,0 v 16.469 l 4.424,4.46 h 4.951 l 4.46,-4.46 V 11.693 H 8.919 v 4.776 H 4.916 V 0 H 8.919 V 4.249 H 6.952 v 4.319 h 6.883 V 0 L 9.375,-4.459 H 4.424 Z" /></g><g
           transform="translate(184.0528,85.2191)"
           id="g176"><path
             id="path178"
             style="fill:#ef4136;fill-opacity:1;fill-rule:nonzero;stroke:none"
             d="M 0,0 H -10.815 V 25.388 H 0 v -4.46 h -5.899 v -5.724 h 4.916 V 11.131 H -5.899 V 4.459 l 5.899,0 z" /></g><path
           id="path180"
           style="fill:#ef4136;fill-opacity:1;fill-rule:nonzero;stroke:none"
           d="m 197.501,99.967 h 3.862 v 6.18 h -3.862 z m 0,-14.748 h -4.916 v 25.388 h 9.832 l 3.476,-3.301 v -6.602 l -2.458,-2.633 2.844,-2.599 V 85.219 h -4.916 v 9.375 l -1.685,1.651 h -2.177 z" /><g
           transform="translate(214.6012,89.6781)"
           id="g182"><path
             id="path184"
             style="fill:#ef4136;fill-opacity:1;fill-rule:nonzero;stroke:none"
             d="M 0,0 V 3.406 H 4.916 V 0 H 8.778 V 4.986 L 7.831,5.935 H 4.108 L 0,10.043 v 6.426 l 4.459,4.46 h 4.776 l 4.459,-4.46 V 12.957 H 8.778 v 3.512 H 4.916 V 11.553 L 5.864,10.604 H 9.621 L 13.694,6.496 V 0 L 9.235,-4.459 H 4.459 Z" /></g><g
           transform="translate(154.294,214.3446)"
           id="g186"><path
             id="path188"
             style="fill:#ef4136;fill-opacity:1;fill-rule:nonzero;stroke:none"
             d="M 0,0 2.919,-5.916 9.45,-6.865 4.726,-11.471 5.841,-17.975 0,-14.904 l -5.841,-3.071 1.114,6.504 -4.724,4.606 6.531,0.949 z" /></g><g
           transform="translate(178.5103,214.3446)"
           id="g190"><path
             id="path192"
             style="fill:#ef4136;fill-opacity:1;fill-rule:nonzero;stroke:none"
             d="M 0,0 2.919,-5.916 9.45,-6.865 4.726,-11.471 5.841,-17.975 0,-14.904 l -5.841,-3.071 1.115,6.504 -4.724,4.606 6.53,0.949 z" /></g><g
           transform="translate(105.8614,214.3446)"
           id="g194"><path
             id="path196"
             style="fill:#ef4136;fill-opacity:1;fill-rule:nonzero;stroke:none"
             d="m 0,0 2.92,-5.916 6.53,-0.949 -4.726,-4.606 1.114,-6.504 -5.838,3.071 -5.84,-3.071 1.113,6.504 -4.724,4.606 6.53,0.949 z" /></g><g
           transform="translate(130.0777,214.3446)"
           id="g198"><path
             id="path200"
             style="fill:#ef4136;fill-opacity:1;fill-rule:nonzero;stroke:none"
             d="m 0,0 2.92,-5.916 6.53,-0.949 -4.725,-4.606 1.114,-6.504 -5.839,3.071 -5.84,-3.071 1.113,6.504 -4.724,4.606 6.53,0.949 z" /></g><g
           transform="translate(202.7262,214.3446)"
           id="g202"><path
             id="path204"
             style="fill:#ef4136;fill-opacity:1;fill-rule:nonzero;stroke:none"
             d="m 0,0 2.92,-5.916 6.531,-0.949 -4.725,-4.606 1.115,-6.504 -5.841,3.071 -5.84,-3.071 1.115,6.504 -4.725,4.606 6.531,0.949 z" /></g><g
           transform="translate(25.7867,137.3881)"
           id="g206"><path
             id="path208"
             style="fill:#231f20;fill-opacity:1;fill-rule:nonzero;stroke:none"
             d="m 0,0 -3.283,-0.408 0.155,-1.239 c 0.073,-0.592 0.243,-1.004 0.51,-1.236 0.266,-0.233 0.681,-0.314 1.246,-0.244 0.633,0.079 1.064,0.266 1.293,0.559 0.229,0.295 0.307,0.737 0.233,1.329 z m -5.822,-0.724 -3.778,-0.47 0.177,-1.425 c 0.073,-0.591 0.278,-1.003 0.614,-1.234 0.337,-0.23 0.842,-0.304 1.517,-0.22 0.674,0.084 1.134,0.288 1.38,0.612 0.246,0.324 0.332,0.79 0.257,1.395 z m -6.306,-2.399 -0.678,5.451 2.313,0.287 c 0.099,-0.239 0.259,-0.397 0.478,-0.475 0.22,-0.077 0.666,-0.074 1.341,0.01 l 7.04,0.875 c 0.674,0.084 1.109,0.191 1.302,0.32 0.194,0.129 0.309,0.321 0.348,0.577 L 2.225,4.197 2.882,-1.088 C 3.084,-2.712 2.91,-3.926 2.36,-4.728 1.81,-5.53 0.825,-6.02 -0.592,-6.195 c -0.799,-0.1 -1.447,-0.062 -1.943,0.114 -0.497,0.176 -0.938,0.569 -1.321,1.178 -0.155,-0.439 -0.348,-0.802 -0.577,-1.089 -0.23,-0.287 -0.495,-0.516 -0.796,-0.686 -0.3,-0.17 -0.64,-0.3 -1.02,-0.388 -0.38,-0.09 -0.805,-0.163 -1.272,-0.222 -1.446,-0.18 -2.521,0.043 -3.229,0.668 -0.706,0.625 -1.166,1.791 -1.378,3.497" /></g><g
           transform="translate(32.879,116.2729)"
           id="g210"><path
             id="path212"
             style="fill:#231f20;fill-opacity:1;fill-rule:nonzero;stroke:none"
             d="m 0,0 1.071,-3.74 -2.16,-0.618 c -0.042,0.146 -0.129,0.262 -0.262,0.346 -0.132,0.085 -0.357,0.183 -0.677,0.293 l -3.943,1.317 c 0.072,-0.903 -0.063,-1.627 -0.404,-2.172 -0.341,-0.545 -1.024,-0.964 -2.049,-1.258 l -1.358,-0.389 c -0.599,-0.172 -1.009,-0.34 -1.228,-0.503 -0.219,-0.164 -0.301,-0.346 -0.243,-0.546 l -2.236,-0.64 -0.974,3.399 c 0.18,0.125 0.402,0.245 0.664,0.365 0.261,0.118 0.706,0.266 1.333,0.446 l 1.9,0.544 c 0.747,0.214 1.269,0.493 1.567,0.839 0.297,0.344 0.361,0.817 0.189,1.417 l -0.258,0.9 -2.26,-0.647 c -0.667,-0.191 -1.081,-0.372 -1.241,-0.54 -0.161,-0.168 -0.243,-0.375 -0.244,-0.622 l -2.24,-0.641 -1.266,4.42 2.236,0.64 c 0.135,-0.22 0.317,-0.352 0.545,-0.395 0.229,-0.043 0.669,0.029 1.322,0.216 l 6.809,1.95 c 0.652,0.187 1.064,0.359 1.235,0.516 0.171,0.158 0.255,0.366 0.253,0.624 l 2.16,0.62 1.266,-4.42 -2.16,-0.619 c -0.057,0.2 -0.207,0.334 -0.45,0.401 -0.244,0.067 -0.718,0 -1.425,-0.202 l -2.34,-0.671 3.107,-1.101 c 0.354,-0.13 0.687,-0.193 0.996,-0.191 0.31,0.002 0.619,0.048 0.928,0.136 z" /></g><g
           transform="translate(36.6773,105.1147)"
           id="g214"><path
             id="path216"
             style="fill:#231f20;fill-opacity:1;fill-rule:nonzero;stroke:none"
             d="m 0,0 1.934,-4.264 -2.027,-0.92 c -0.185,0.206 -0.467,0.223 -0.845,0.051 -0.152,-0.068 -0.289,-0.153 -0.411,-0.254 l -3.647,-2.888 4.54,0.871 c 0.168,0.031 0.322,0.078 0.461,0.141 0.202,0.091 0.338,0.196 0.408,0.31 0.069,0.116 0.101,0.264 0.095,0.443 l 2.028,0.92 1.857,-4.092 -2.028,-0.92 c -0.132,0.123 -0.287,0.206 -0.465,0.246 -0.179,0.041 -0.462,0.035 -0.848,-0.019 l -7.593,-1.092 c -0.98,-0.155 -1.801,-0.234 -2.462,-0.238 -0.661,-0.003 -1.225,0.081 -1.69,0.25 -0.465,0.17 -0.851,0.433 -1.157,0.789 -0.306,0.356 -0.588,0.818 -0.846,1.387 -0.15,0.328 -0.237,0.722 -0.263,1.182 l 2.16,0.981 0.137,-0.304 c 0.155,-0.341 0.337,-0.566 0.547,-0.677 0.21,-0.11 0.499,-0.134 0.868,-0.074 l 6.447,6.032 c 0.555,0.557 0.812,0.962 0.773,1.219 z" /></g><g
           transform="translate(45.8336,77.7895)"
           id="g218"><path
             id="path220"
             style="fill:#231f20;fill-opacity:1;fill-rule:nonzero;stroke:none"
             d="m 0,0 -1.553,2.415 0.525,0.337 c 0.63,0.405 0.958,0.799 0.986,1.179 0.027,0.381 -0.087,0.769 -0.342,1.166 -0.255,0.396 -0.605,0.6 -1.049,0.611 C -1.877,5.719 -2.461,5.492 -3.184,5.026 L -7.594,2.19 C -8.317,1.725 -8.768,1.286 -8.948,0.874 -9.128,0.461 -9.09,0.057 -8.835,-0.34 c 0.262,-0.408 0.629,-0.639 1.1,-0.69 0.47,-0.052 1.072,0.158 1.807,0.631 l 0.473,0.303 1.553,-2.414 -3.919,-2.521 c -0.66,0.334 -1.285,0.773 -1.874,1.317 -0.59,0.545 -1.102,1.155 -1.537,1.832 -0.48,0.746 -0.797,1.425 -0.951,2.035 -0.154,0.611 -0.164,1.177 -0.03,1.701 0.133,0.522 0.405,1.01 0.815,1.463 0.409,0.454 0.94,0.89 1.594,1.31 l 5.546,3.568 c 1.248,0.803 2.377,1.1 3.385,0.892 C 0.135,8.878 1.097,8.062 2.013,6.639 2.854,5.332 3.354,3.873 3.517,2.263 Z" /></g><g
           transform="translate(62.3849,53.515)"
           id="g222"><path
             id="path224"
             style="fill:#231f20;fill-opacity:1;fill-rule:nonzero;stroke:none"
             d="m 0,0 -2.629,-2.896 0.647,-0.587 c 0.565,-0.513 1.08,-0.766 1.546,-0.758 0.466,0.008 0.928,0.263 1.385,0.766 0.4,0.442 0.592,0.906 0.573,1.39 -0.019,0.485 -0.31,0.984 -0.875,1.497 z M 1.357,7.282 2.854,8.931 10.047,2.399 7.054,-0.896 5.19,0.795 5.75,1.411 C 5.927,1.606 5.991,1.843 5.942,2.122 5.893,2.4 5.647,2.741 5.203,3.145 L 3.916,4.312 1.818,2.002 2.835,1.079 C 3.934,0.082 4.56,-1.003 4.715,-2.174 4.87,-3.345 4.42,-4.51 3.367,-5.67 2.295,-6.852 1.168,-7.421 -0.012,-7.38 c -1.18,0.041 -2.32,0.561 -3.418,1.558 l -3.898,3.538 1.567,1.725 c 0.231,-0.116 0.455,-0.132 0.672,-0.048 0.217,0.085 0.554,0.378 1.011,0.881 L 0.69,5.526 C 1.147,6.029 1.407,6.394 1.47,6.617 1.533,6.842 1.495,7.062 1.357,7.282" /></g><g
           transform="translate(79.9674,44.0912)"
           id="g226"><path
             id="path228"
             style="fill:#231f20;fill-opacity:1;fill-rule:nonzero;stroke:none"
             d="m 0,0 -2.902,-4.366 c -0.477,-0.716 -0.717,-1.297 -0.723,-1.743 -0.005,-0.447 0.195,-0.804 0.599,-1.074 0.404,-0.268 0.812,-0.318 1.224,-0.151 0.411,0.168 0.859,0.616 1.343,1.344 l 2.902,4.366 C 2.919,-0.908 3.155,-0.328 3.15,0.117 3.146,0.561 2.941,0.918 2.537,1.187 2.133,1.455 1.728,1.504 1.322,1.332 0.917,1.16 0.476,0.716 0,0 m -4.604,-9.556 c -1.444,0.96 -2.226,1.963 -2.346,3.009 -0.121,1.046 0.245,2.21 1.097,3.492 l 3.524,5.302 c 0.86,1.294 1.794,2.072 2.802,2.335 C 1.48,4.845 2.694,4.505 4.115,3.56 5.571,2.593 6.366,1.597 6.502,0.574 6.638,-0.449 6.276,-1.607 5.417,-2.901 L 1.892,-8.203 c -0.43,-0.647 -0.87,-1.17 -1.319,-1.571 -0.45,-0.401 -0.933,-0.67 -1.45,-0.81 -0.518,-0.14 -1.081,-0.127 -1.688,0.035 -0.608,0.163 -1.288,0.494 -2.039,0.993" /></g><g
           transform="translate(95.9757,40.2123)"
           id="g230"><path
             id="path232"
             style="fill:#231f20;fill-opacity:1;fill-rule:nonzero;stroke:none"
             d="M 0,0 9.378,-4.355 8.441,-6.374 C 8.185,-6.332 7.96,-6.381 7.766,-6.52 7.571,-6.658 7.331,-7.036 7.044,-7.652 L 4.057,-14.087 C 3.77,-14.704 3.633,-15.13 3.646,-15.365 3.66,-15.601 3.771,-15.806 3.981,-15.979 L 3,-18.093 l -4.189,1.946 0.981,2.113 c 0.268,-0.048 0.492,-0.003 0.67,0.136 0.18,0.138 0.415,0.522 0.707,1.151 l 3.497,7.529 -2.34,1.087 -3.584,-7.718 c -0.549,-1.182 -1.2,-2.001 -1.954,-2.454 -0.753,-0.452 -1.57,-0.474 -2.451,-0.065 -0.252,0.116 -0.497,0.262 -0.738,0.434 -0.241,0.173 -0.458,0.366 -0.65,0.578 l 0.955,2.056 0.321,-0.149 c 0.352,-0.163 0.67,-0.155 0.953,0.027 0.283,0.183 0.589,0.625 0.916,1.33 l 2.874,6.19 c 0.286,0.616 0.417,1.045 0.391,1.286 -0.026,0.241 -0.125,0.44 -0.296,0.596 z" /></g><g
           transform="translate(115.4566,23.3695)"
           id="g234"><path
             id="path236"
             style="fill:#231f20;fill-opacity:1;fill-rule:nonzero;stroke:none"
             d="m 0,0 -1.074,-3.761 0.84,-0.24 c 0.733,-0.21 1.307,-0.208 1.722,0.006 0.414,0.213 0.715,0.646 0.901,1.3 0.164,0.573 0.13,1.074 -0.101,1.501 C 2.056,-0.768 1.573,-0.449 0.84,-0.24 Z M -2.015,7.11 -1.398,9.271 3.143,7.974 2.526,5.812 C 2.286,5.881 2.058,5.817 1.843,5.62 1.628,5.424 1.43,5.007 1.249,4.371 L 0.743,2.601 2.063,2.224 C 3.49,1.815 4.532,1.121 5.189,0.141 5.847,-0.841 5.96,-2.085 5.53,-3.592 5.092,-5.126 4.334,-6.136 3.258,-6.621 2.182,-7.107 0.93,-7.146 -0.497,-6.739 l -5.061,1.446 0.639,2.236 c 0.259,-0.002 0.467,0.083 0.624,0.254 0.157,0.171 0.329,0.583 0.515,1.236 l 1.946,6.811 c 0.186,0.652 0.257,1.092 0.215,1.32 -0.043,0.229 -0.175,0.411 -0.396,0.546" /></g><g
           transform="translate(138.1827,27.3471)"
           id="g238"><path
             id="path240"
             style="fill:#231f20;fill-opacity:1;fill-rule:nonzero;stroke:none"
             d="M 0,0 4.532,-0.465 4.305,-2.68 C 4.063,-2.725 3.88,-2.845 3.755,-3.041 3.631,-3.238 3.534,-3.674 3.464,-4.351 l -0.866,-8.443 2.401,-0.247 0.866,8.444 c 0.071,0.691 0.065,1.141 -0.018,1.351 -0.083,0.211 -0.252,0.364 -0.507,0.46 l 0.227,2.215 4.595,-0.472 -0.227,-2.214 C 9.665,-3.3 9.468,-3.419 9.344,-3.615 9.219,-3.812 9.122,-4.248 9.052,-4.924 l -0.734,-7.16 c -0.036,-0.346 -0.05,-0.623 -0.044,-0.833 0.006,-0.209 0.032,-0.369 0.077,-0.478 0.044,-0.109 0.109,-0.189 0.194,-0.24 0.086,-0.051 0.189,-0.102 0.309,-0.157 l -0.238,-2.317 -15.729,1.613 0.238,2.318 c 0.227,0.046 0.408,0.147 0.542,0.3 0.135,0.153 0.237,0.575 0.308,1.265 l 0.735,7.161 c 0.069,0.676 0.059,1.123 -0.03,1.342 -0.089,0.218 -0.247,0.374 -0.475,0.466 L -5.567,0.571 -1.015,0.104 -1.242,-2.11 C -1.497,-2.154 -1.69,-2.271 -1.821,-2.459 -1.952,-2.647 -2.053,-3.087 -2.124,-3.776 l -0.866,-8.445 2.401,-0.246 0.866,8.444 c 0.07,0.675 0.059,1.124 -0.029,1.341 -0.09,0.219 -0.248,0.374 -0.476,0.467 z" /></g><g
           transform="translate(161.1031,21.7074)"
           id="g242"><path
             id="path244"
             style="fill:#231f20;fill-opacity:1;fill-rule:nonzero;stroke:none"
             d="m 0,0 0.358,-5.23 c 0.059,-0.859 0.223,-1.466 0.491,-1.823 0.267,-0.357 0.643,-0.519 1.128,-0.486 0.484,0.033 0.838,0.241 1.062,0.626 0.224,0.383 0.306,1.011 0.246,1.883 L 2.927,0.2 C 2.868,1.059 2.701,1.662 2.427,2.012 2.153,2.361 1.773,2.52 1.29,2.486 0.805,2.453 0.454,2.245 0.237,1.861 0.021,1.479 -0.059,0.857 0,0 m 2.171,-10.383 c -1.73,-0.118 -2.961,0.2 -3.693,0.957 -0.734,0.756 -1.153,1.902 -1.258,3.438 l -0.435,6.351 c -0.107,1.55 0.159,2.736 0.798,3.559 0.639,0.822 1.81,1.291 3.512,1.408 C 2.838,5.449 4.075,5.145 4.807,4.417 5.538,3.688 5.957,2.549 6.062,0.999 L 6.498,-5.353 C 6.551,-6.127 6.521,-6.811 6.409,-7.402 6.296,-7.993 6.078,-8.502 5.752,-8.928 5.427,-9.354 4.974,-9.687 4.393,-9.928 3.811,-10.169 3.071,-10.321 2.171,-10.383" /></g><g
           transform="translate(183.9005,14.5922)"
           id="g246"><path
             id="path248"
             style="fill:#231f20;fill-opacity:1;fill-rule:nonzero;stroke:none"
             d="m 0,0 -4.697,-1.018 -0.476,2.197 c 0.22,0.161 0.359,0.357 0.415,0.59 0.056,0.232 0.012,0.679 -0.132,1.344 l -1.503,6.934 c -0.129,0.596 -0.27,1.002 -0.423,1.217 -0.153,0.215 -0.359,0.33 -0.618,0.345 l -0.472,2.175 9.028,1.957 1.058,-4.88 -2.745,-0.594 -0.194,0.894 c -0.094,0.434 -0.287,0.754 -0.58,0.96 -0.293,0.206 -0.711,0.25 -1.253,0.133 l -0.915,-0.198 1.789,-8.255 c 0.141,-0.652 0.302,-1.099 0.483,-1.343 0.181,-0.245 0.434,-0.332 0.759,-0.262 z" /></g><g
           transform="translate(197.5758,29.1059)"
           id="g250"><path
             id="path252"
             style="fill:#231f20;fill-opacity:1;fill-rule:nonzero;stroke:none"
             d="m 0,0 1.823,-4.916 c 0.299,-0.807 0.627,-1.343 0.985,-1.609 0.358,-0.267 0.764,-0.316 1.219,-0.147 0.455,0.169 0.737,0.469 0.843,0.901 0.106,0.43 0.007,1.056 -0.297,1.875 L 2.75,1.02 C 2.451,1.826 2.121,2.358 1.759,2.616 1.397,2.874 0.988,2.918 0.533,2.75 0.078,2.581 -0.199,2.281 -0.299,1.853 -0.399,1.424 -0.299,0.806 0,0 M 5.019,-9.345 C 3.393,-9.947 2.122,-9.99 1.205,-9.472 0.288,-8.954 -0.438,-7.974 -0.974,-6.53 l -2.214,5.969 c -0.54,1.457 -0.62,2.669 -0.239,3.639 0.38,0.97 1.369,1.751 2.969,2.344 C 1.181,6.029 2.454,6.088 3.361,5.596 4.268,5.104 4.992,4.129 5.532,2.673 L 7.746,-3.296 C 8.016,-4.024 8.181,-4.688 8.24,-5.287 8.3,-5.887 8.234,-6.437 8.042,-6.937 7.851,-7.437 7.51,-7.885 7.021,-8.28 6.531,-8.676 5.864,-9.031 5.019,-9.345" /></g><g
           transform="translate(234.9503,37.2142)"
           id="g254"><path
             id="path256"
             style="fill:#231f20;fill-opacity:1;fill-rule:nonzero;stroke:none"
             d="m 0,0 -3.928,-2.769 -1.295,1.836 c 0.14,0.235 0.191,0.47 0.152,0.705 -0.039,0.237 -0.254,0.632 -0.646,1.188 l -4.087,5.799 c -0.351,0.498 -0.64,0.817 -0.864,0.955 -0.226,0.139 -0.46,0.164 -0.704,0.077 l -1.282,1.819 7.55,5.323 2.876,-4.081 -2.295,-1.619 -0.527,0.748 c -0.256,0.363 -0.559,0.582 -0.909,0.658 -0.351,0.076 -0.753,-0.046 -1.206,-0.367 L -7.93,9.733 -3.064,2.829 c 0.384,-0.544 0.707,-0.893 0.968,-1.048 0.263,-0.155 0.529,-0.136 0.801,0.055 z" /></g><g
           transform="translate(241.8932,55.9008)"
           id="g258"><path
             id="path260"
             style="fill:#231f20;fill-opacity:1;fill-rule:nonzero;stroke:none"
             d="m 0,0 3.588,-3.822 c 0.589,-0.627 1.1,-0.994 1.533,-1.101 0.433,-0.107 0.827,0.006 1.181,0.338 0.354,0.332 0.496,0.718 0.427,1.156 -0.07,0.44 -0.404,0.978 -1.002,1.615 L 2.139,2.008 C 1.55,2.635 1.039,2.997 0.605,3.094 0.172,3.191 -0.222,3.073 -0.576,2.741 -0.93,2.409 -1.069,2.025 -0.995,1.592 -0.92,1.157 -0.588,0.627 0,0 M 8.253,-6.663 C 6.989,-7.85 5.833,-8.383 4.788,-8.261 3.742,-8.14 2.691,-7.518 1.638,-6.396 l -4.357,4.642 c -1.064,1.133 -1.608,2.22 -1.634,3.261 -0.026,1.041 0.582,2.145 1.827,3.312 1.274,1.197 2.424,1.743 3.451,1.643 C 1.952,6.36 2.998,5.744 4.061,4.611 L 8.418,-0.03 C 8.95,-0.597 9.359,-1.145 9.646,-1.673 9.934,-2.202 10.087,-2.734 10.104,-3.271 10.122,-3.806 9.981,-4.351 9.685,-4.905 9.387,-5.46 8.91,-6.046 8.253,-6.663" /></g><g
           transform="translate(254.1251,71.8236)"
           id="g262"><path
             id="path264"
             style="fill:#231f20;fill-opacity:1;fill-rule:nonzero;stroke:none"
             d="m 0,0 3.461,-2.734 0.723,0.914 c 0.42,0.533 0.576,0.993 0.467,1.381 C 4.542,-0.053 4.171,0.391 3.54,0.889 2.876,1.413 2.341,1.677 1.936,1.679 1.531,1.68 1.13,1.431 0.735,0.93 Z m 5.469,-4.32 0.849,-0.671 c 0.545,-0.43 0.953,-0.647 1.224,-0.649 0.272,-0.003 0.506,0.086 0.702,0.268 l 1.829,-1.445 -2.992,-3.788 -1.829,1.445 c 0.101,0.239 0.102,0.464 0.002,0.674 -0.098,0.211 -0.414,0.526 -0.947,0.948 l -5.568,4.397 c -0.533,0.421 -0.913,0.656 -1.141,0.703 -0.228,0.047 -0.447,-0.005 -0.656,-0.158 l -1.747,1.38 3.392,4.293 C -0.39,4.373 0.666,5.037 1.752,5.071 2.84,5.104 3.999,4.636 5.229,3.664 6.012,3.046 6.616,2.439 7.041,1.848 7.466,1.256 7.741,0.681 7.866,0.123 7.991,-0.436 7.979,-0.97 7.832,-1.48 7.685,-1.992 7.435,-2.471 7.082,-2.917 7.005,-3.015 6.895,-3.137 6.754,-3.281 6.613,-3.426 6.464,-3.564 6.307,-3.696 6.149,-3.829 5.994,-3.953 5.84,-4.07 5.686,-4.187 5.562,-4.271 5.469,-4.32" /></g><g
           transform="translate(266.3517,86.1693)"
           id="g266"><path
             id="path268"
             style="fill:#231f20;fill-opacity:1;fill-rule:nonzero;stroke:none"
             d="m 0,0 4.551,-2.603 c 0.747,-0.427 1.343,-0.628 1.788,-0.603 0.446,0.024 0.789,0.248 1.031,0.669 0.24,0.422 0.263,0.832 0.068,1.231 -0.195,0.399 -0.672,0.816 -1.43,1.249 L 1.457,2.547 C 0.71,2.974 0.116,3.17 -0.328,3.136 -0.771,3.102 -1.113,2.873 -1.354,2.452 -1.595,2.03 -1.616,1.623 -1.417,1.23 -1.219,0.837 -0.746,0.427 0,0 M 9.844,-3.952 C 8.982,-5.457 8.034,-6.305 6.999,-6.495 5.963,-6.687 4.777,-6.399 3.44,-5.635 l -5.526,3.161 c -1.348,0.771 -2.187,1.651 -2.518,2.638 -0.329,0.988 -0.071,2.223 0.776,3.703 0.868,1.517 1.807,2.378 2.819,2.582 1.012,0.204 2.192,-0.079 3.54,-0.85 L 8.058,2.438 c 0.674,-0.385 1.226,-0.79 1.656,-1.21 0.43,-0.422 0.732,-0.886 0.905,-1.393 0.174,-0.507 0.2,-1.069 0.078,-1.687 -0.121,-0.618 -0.406,-1.318 -0.853,-2.1" /></g><g
           transform="translate(281.8956,100.8393)"
           id="g270"><path
             id="path272"
             style="fill:#231f20;fill-opacity:1;fill-rule:nonzero;stroke:none"
             d="M 0,0 1.196,3.106 -7.812,6.575 -8.822,3.954 -2.007,1.33 C -1.528,1.146 -1.139,0.951 -0.838,0.746 -0.538,0.542 -0.259,0.293 0,0 M 7.693,5.331 6.646,2.613 5.773,2.949 C 5.242,3.153 4.816,3.206 4.496,3.106 4.175,3.007 3.91,2.686 3.701,2.142 L 2.497,-0.983 C 2.198,-1.761 2.534,-2.336 3.504,-2.71 l 0.952,-0.366 -1.047,-2.718 -4.543,1.749 c 0.069,0.449 -0.049,0.896 -0.353,1.341 -0.305,0.443 -0.897,0.835 -1.777,1.175 l -5.553,2.137 c -0.621,0.24 -1.053,0.343 -1.296,0.31 -0.243,-0.032 -0.447,-0.166 -0.612,-0.399 l -2.116,0.814 3.798,9.863 2.117,-0.815 c -0.02,-0.245 0.045,-0.46 0.197,-0.645 0.152,-0.184 0.532,-0.394 1.14,-0.628 L 1.071,6.544 C 1.705,6.299 2.185,6.263 2.511,6.435 2.838,6.606 3.05,6.821 3.15,7.08 Z" /></g><g
           transform="translate(278.9806,124.9076)"
           id="g274"><path
             id="path276"
             style="fill:#231f20;fill-opacity:1;fill-rule:nonzero;stroke:none"
             d="m 0,0 5.59,-2.204 0.452,2.095 -6.007,0.272 z m 12.076,-3.517 -0.933,-4.332 -2.278,0.492 c -0.03,0.19 -0.137,0.37 -0.321,0.537 -0.184,0.167 -0.501,0.356 -0.953,0.567 L 0.47,-3.251 c -0.248,0.096 -0.5,0.15 -0.752,0.162 -0.253,0.012 -0.399,-0.07 -0.437,-0.246 L -3.261,-2.788 -1.75,4.229 0.793,3.682 C 0.755,3.505 0.854,3.37 1.089,3.277 1.324,3.184 1.575,3.13 1.841,3.115 L 9.572,2.939 c 0.495,-0.007 0.86,0.025 1.095,0.094 0.235,0.071 0.407,0.193 0.515,0.368 l 2.278,-0.49 -0.964,-4.474 -2.278,0.49 c 0.047,0.217 -0.009,0.386 -0.168,0.505 C 9.892,-0.449 9.765,-0.38 9.67,-0.359 9.453,-0.312 9.275,-0.281 9.137,-0.266 8.999,-0.25 8.824,-0.233 8.615,-0.217 L 8.382,-0.209 7.765,-3.077 7.98,-3.166 c 0.324,-0.141 0.663,-0.249 1.015,-0.325 0.095,-0.021 0.241,-0.002 0.438,0.054 0.196,0.057 0.318,0.195 0.365,0.412 z" /></g></g></g></g></svg>