<?xml version="1.0" encoding="UTF-8" standalone="no"?>
<svg
   xmlns:dc="http://purl.org/dc/elements/1.1/"
   xmlns:cc="http://creativecommons.org/ns#"
   xmlns:rdf="http://www.w3.org/1999/02/22-rdf-syntax-ns#"
   xmlns:svg="http://www.w3.org/2000/svg"
   xmlns="http://www.w3.org/2000/svg"
   viewBox="0 0 111.29827 63.215069"
   height="63.215069"
   width="111.29827"
   xml:space="preserve"
   id="svg2"
   version="1.1"><metadata
     id="metadata8"><rdf:RDF><cc:Work
         rdf:about=""><dc:format>image/svg+xml</dc:format><dc:type
           rdf:resource="http://purl.org/dc/dcmitype/StillImage" /></cc:Work></rdf:RDF></metadata><defs
     id="defs6"><clipPath
       id="clipPath18"
       clipPathUnits="userSpaceOnUse"><path
         id="path16"
         d="M 0,0 H 83.474 V 47.411 H 0 Z" /></clipPath></defs><g
     transform="matrix(1.3333333,0,0,-1.3333333,0,63.215067)"
     id="g10"><g
       id="g12"><g
         clip-path="url(#clipPath18)"
         id="g14"><g
           transform="translate(33.8624,0.097)"
           id="g20"><path
             id="path22"
             style="fill:#ffffff;fill-opacity:1;fill-rule:nonzero;stroke:none"
             d="M 0,0 H -3.463 V 0.552 C -4.284,0.427 -5.107,0.3 -5.932,0.173 c -1.074,-0.159 -1.891,-0.238 -2.45,-0.238 -1.317,0 -1.976,0.65 -1.976,1.946 v 8.338 c 0,1.317 0.678,1.978 2.04,1.978 h 4.887 v 3.667 h -3.466 v 0.307 l -3.27,-2.581 v 2.985 c 0,1.32 0.678,1.978 2.039,1.978 h 6.12 C -0.671,18.553 0,17.895 0,16.575 Z M -3.431,2.877 V 9.741 H -6.897 V 2.749 Z" /></g><g
           transform="translate(47.0488,0.097)"
           id="g24"><path
             id="path26"
             style="fill:#ffffff;fill-opacity:1;fill-rule:nonzero;stroke:none"
             d="m 0,0 h -3.602 v 0.552 c -2.446,-0.434 -3.818,-0.649 -4.113,-0.649 -0.908,0 -1.618,0.268 -2.134,0.797 -0.52,0.536 -0.775,1.262 -0.775,2.177 v 12.467 c 0,1.299 0.464,2.2 1.389,2.703 0.677,0.379 1.699,0.571 3.07,0.571 0.302,0 0.75,-0.009 1.33,-0.03 0.579,-0.023 0.988,-0.035 1.233,-0.035 v 8.131 L 0,29.269 Z m -3.602,3.114 v 12.422 h -2.229 c -0.804,0 -1.204,-0.405 -1.204,-1.204 V 4.113 c 0,-0.784 0.381,-1.174 1.14,-1.174 0.176,0 0.941,0.06 2.293,0.175" /></g><g
           transform="translate(59.97,0.097)"
           id="g28"><path
             id="path30"
             style="fill:#ffffff;fill-opacity:1;fill-rule:nonzero;stroke:none"
             d="M 0,0 H -3.463 V 0.552 C -4.284,0.427 -5.107,0.3 -5.93,0.173 -7.004,0.014 -7.821,-0.065 -8.381,-0.065 c -1.317,0 -1.978,0.65 -1.978,1.946 v 8.338 c 0,1.317 0.684,1.978 2.04,1.978 h 4.887 v 3.667 h -3.461 v 0.307 l -3.273,-2.581 v 2.985 c 0,1.32 0.678,1.978 2.038,1.978 h 6.12 C -0.666,18.553 0,17.895 0,16.575 Z M -3.432,2.877 V 9.741 H -6.893 V 2.749 Z" /></g><g
           transform="translate(10.3384,2.3567)"
           id="g32"><path
             id="path34"
             style="fill:#ffffff;fill-opacity:1;fill-rule:nonzero;stroke:none"
             d="m 0,0 c 0,-1.509 -0.756,-2.26 -2.261,-2.26 h -8.077 v 29.27 h 8.01 c 1.469,0 2.199,-0.761 2.199,-2.279 v -6.372 c 0,-0.845 -0.263,-1.499 -0.789,-1.961 -0.074,-0.065 -0.717,-0.472 -1.93,-1.218 1.256,-0.77 1.917,-1.192 1.994,-1.266 C -0.285,13.419 0,12.738 0,11.874 Z m -3.81,17.897 v 5.994 h -2.959 v -7.255 h 1.168 z M -3.716,0.855 v 11.573 l -1.82,1.202 H -6.769 V 0.855 Z" /></g><g
           transform="translate(21.8414,14.5607)"
           id="g36"><path
             id="path38"
             style="fill:#ffffff;fill-opacity:1;fill-rule:nonzero;stroke:none"
             d="M 0,0 -3.591,-2.583 V 1.072 L -6.454,1.005 v -15.469 h -3.621 V 4.09 h 3.621 V 3.503 c 0.749,0.139 1.494,0.277 2.233,0.416 0.893,0.157 1.64,0.236 2.24,0.236 C -0.662,4.155 0,3.503 0,2.209 Z" /></g><g
           transform="translate(70.9321,0.097)"
           id="g40"><path
             id="path42"
             style="fill:#ffffff;fill-opacity:1;fill-rule:nonzero;stroke:none"
             d="m 0,0 h -4.659 c -1.342,0 -2.012,0.659 -2.012,1.975 v 13.494 h -2.222 v 3.084 h 2.222 v 8.131 l 3.608,2.585 V 18.553 h 2.971 V 15.469 H -3.063 V 3.082 h 5.649 z" /></g><g
           transform="translate(83.4736,2.0725)"
           id="g44"><path
             id="path46"
             style="fill:#ffffff;fill-opacity:1;fill-rule:nonzero;stroke:none"
             d="m 0,0 c 0,-1.317 -0.67,-1.975 -2.01,-1.975 h -6.483 c -1.359,0 -2.038,0.658 -2.038,1.975 v 14.6 c 0,1.319 0.679,1.978 2.038,1.978 H -2.01 C -0.67,16.578 0,15.919 0,14.6 Z M -3.542,13.56 H -6.973 V 1.03 h 3.431 z" /></g></g></g><g
       transform="translate(51.6411,47.4111)"
       id="g48"><path
         id="path50"
         style="fill:#ffffff;fill-opacity:1;fill-rule:nonzero;stroke:none"
         d="m 0,0 -1.884,-0.771 -1.193,-3.508 -3.424,-0.044 -2.594,1.861 -1.724,-1.567 -1.723,1.567 -2.597,-1.861 -3.419,0.044 -1.218,3.508 L -21.641,0 v -12.365 l 7.055,-5.68 h 7.54 L 0,-12.365 Z m -15.204,-7.417 4.385,1.545 4.383,-1.545 -1.258,-4.42 h -1.982 v 3.323 h -2.287 v -3.323 h -1.98 z" /></g></g></svg>