<?xml version="1.0" encoding="UTF-8" standalone="no"?>
<svg
   xmlns:dc="http://purl.org/dc/elements/1.1/"
   xmlns:cc="http://creativecommons.org/ns#"
   xmlns:rdf="http://www.w3.org/1999/02/22-rdf-syntax-ns#"
   xmlns:svg="http://www.w3.org/2000/svg"
   xmlns="http://www.w3.org/2000/svg"
   viewBox="0 0 35.244801 14.3796"
   height="14.3796"
   width="35.244801"
   xml:space="preserve"
   id="svg2"
   version="1.1"><metadata
     id="metadata8"><rdf:RDF><cc:Work
         rdf:about=""><dc:format>image/svg+xml</dc:format><dc:type
           rdf:resource="http://purl.org/dc/dcmitype/StillImage" /></cc:Work></rdf:RDF></metadata><defs
     id="defs6"><clipPath
       id="clipPath18"
       clipPathUnits="userSpaceOnUse"><path
         id="path16"
         d="M 0,10.785 H 26.434 V 0 H 0 Z" /></clipPath></defs><g
     transform="matrix(1.3333333,0,0,-1.3333333,0,14.3796)"
     id="g10"><g
       id="g12"><g
         clip-path="url(#clipPath18)"
         id="g14"><g
           transform="translate(7.7046,10.5507)"
           id="g20"><path
             id="path22"
             style="fill:#ffffff;fill-opacity:1;fill-rule:nonzero;stroke:none"
             d="m 0,0 c 0.034,0.129 -0.017,0.234 -0.114,0.234 -0.098,0 -0.205,-0.105 -0.24,-0.234 -0.035,-0.128 0.017,-0.233 0.115,-0.233 0.096,0 0.205,0.105 0.239,0.233" /></g><g
           transform="translate(17.271,4.1991)"
           id="g24"><path
             id="path26"
             style="fill:#ffffff;fill-opacity:1;fill-rule:nonzero;stroke:none"
             d="m 0,0 c 0,-0.11 -0.048,-0.151 -0.258,-0.151 h -5.578 c -0.21,0 -0.281,0.138 -0.157,0.308 l 4.212,5.806 c 0.123,0.169 0.197,0.623 -0.292,0.623 H -8.164 C -8.323,6.586 -8.54,6.479 -8.54,6.14 V 0.229 c 0,-0.208 -0.172,-0.38 -0.382,-0.38 H -13.6 c -0.21,0 -0.381,0.172 -0.381,0.38 v 5.622 c 0,0.209 0.171,0.38 0.381,0.38 h 2.281 c 0.21,0 0.273,0.081 0.273,0.177 0,0.098 -0.063,0.178 -0.273,0.178 h -5.678 c -0.21,0 -0.274,-0.08 -0.274,-0.178 0,-0.096 0.064,-0.177 0.274,-0.177 h 2.28 c 0.21,0 0.382,-0.171 0.382,-0.38 V -0.06 c 0,-0.097 0.078,-0.445 0.445,-0.445 h 5.258 c 0.362,0 0.445,0.348 0.445,0.445 v 5.904 c 0,0.21 0.172,0.382 0.382,0.382 h 5.387 c 0.21,0 0.281,-0.14 0.158,-0.31 L -6.473,0.092 c -0.123,-0.17 -0.222,-0.597 0.293,-0.597 h 6.153 c 0.31,0 0.381,0.293 0.381,0.501 0,0.208 -0.08,0.279 -0.177,0.279 C 0.079,0.275 0,0.177 0,0" /></g><g
           transform="translate(26.2564,10.7851)"
           id="g28"><path
             id="path30"
             style="fill:#ffffff;fill-opacity:1;fill-rule:nonzero;stroke:none"
             d="m 0,0 c -0.098,0 -0.177,-0.08 -0.177,-0.178 v -6.178 c 0,-0.209 0.016,-0.381 -0.255,-0.381 h -6.369 c -0.21,0 -0.28,0.138 -0.157,0.308 l 4.212,5.806 C -2.623,-0.454 -2.588,0 -3.038,0 h -5.715 c -0.329,0 -0.356,-0.336 -0.356,-0.503 0,-0.168 0.08,-0.231 0.176,-0.231 0.098,0 0.177,0.069 0.177,0.199 0,0.068 -0.026,0.175 0.184,0.175 h 5.19 c 0.21,0 0.28,-0.14 0.158,-0.31 l -4.213,-5.824 c -0.123,-0.17 -0.261,-0.597 0.292,-0.597 h 6.891 c 0.431,0 0.431,0.348 0.431,0.445 v 6.372 C 0.177,-0.064 0.098,0 0,0" /></g><g
           transform="translate(25.0865,10.5507)"
           id="g32"><path
             id="path34"
             style="fill:#ffffff;fill-opacity:1;fill-rule:nonzero;stroke:none"
             d="M 0,0 C 0.034,0.129 -0.018,0.234 -0.115,0.234 -0.212,0.234 -0.32,0.129 -0.354,0 c -0.035,-0.128 0.017,-0.233 0.114,-0.233 0.097,0 0.205,0.105 0.24,0.233" /></g><g
           transform="translate(4.2486,1.8544)"
           id="g36"><path
             id="path38"
             style="fill:#ffffff;fill-opacity:1;fill-rule:nonzero;stroke:none"
             d="m 0,0 c 0.078,0 0.143,-0.064 0.143,-0.143 v -0.1 c 0,-0.078 -0.031,-0.143 -0.067,-0.143 -0.037,0 -0.069,0.058 -0.072,0.129 -0.003,0.07 -0.07,0.128 -0.149,0.128 h -0.222 c -0.078,0 -0.142,-0.063 -0.142,-0.142 V -1.56 c 0,-0.078 0.046,-0.145 0.102,-0.15 0.056,-0.004 0.102,-0.032 0.102,-0.062 0,-0.032 -0.064,-0.056 -0.141,-0.056 h -0.277 c -0.078,0 -0.141,0.024 -0.141,0.056 0,0.03 0.046,0.058 0.102,0.062 0.056,0.005 0.102,0.072 0.102,0.15 v 1.289 c 0,0.079 -0.064,0.142 -0.142,0.142 h -0.222 c -0.08,0 -0.145,-0.058 -0.148,-0.128 -0.003,-0.071 -0.035,-0.129 -0.072,-0.129 -0.037,0 -0.068,0.065 -0.068,0.143 v 0.1 c 0,0.079 0.065,0.143 0.143,0.143 z" /></g><g
           transform="translate(7.6119,1.1337)"
           id="g40"><path
             id="path42"
             style="fill:#ffffff;fill-opacity:1;fill-rule:nonzero;stroke:none"
             d="m 0,0 c 0,-0.078 0.063,-0.143 0.142,-0.143 h 0.103 c 0.078,0 0.206,0.008 0.283,0.017 0,0 0.145,0.017 0.221,0.083 0.076,0.066 0.114,0.154 0.114,0.265 0,0.117 -0.038,0.208 -0.114,0.272 C 0.673,0.559 0.559,0.591 0.405,0.591 H 0.142 C 0.063,0.591 0,0.527 0,0.449 Z m 0.263,0.719 c 0.078,0 0.206,-0.008 0.283,-0.017 0,0 0.205,-0.025 0.31,-0.111 C 0.961,0.506 1.014,0.382 1.014,0.221 1.014,0.125 0.985,0.04 0.93,-0.036 0.874,-0.112 0.795,-0.168 0.692,-0.202 0.806,-0.23 0.887,-0.282 0.937,-0.355 0.986,-0.428 1.012,-0.521 1.012,-0.632 v -0.024 c 0,-0.078 0.004,-0.193 0.009,-0.255 l 0.021,-0.03 c 0.02,-0.032 0.05,-0.048 0.091,-0.051 0.034,-0.002 0.061,-0.029 0.061,-0.06 0,-0.03 -0.021,-0.055 -0.048,-0.055 -0.025,0 -0.11,0.012 -0.186,0.027 0,0 -0.012,0.003 -0.047,0.063 -0.035,0.06 -0.053,0.134 -0.053,0.221 v 0.02 c 0,0.078 -0.01,0.205 -0.024,0.282 0,0 -0.011,0.058 -0.081,0.123 -0.071,0.064 -0.17,0.099 -0.296,0.1 H 0.142 C 0.063,-0.271 0,-0.334 0,-0.412 v -0.427 c 0,-0.078 0.046,-0.145 0.102,-0.15 0.056,-0.005 0.102,-0.034 0.102,-0.064 0,-0.03 -0.063,-0.054 -0.142,-0.054 h -0.274 c -0.078,0 -0.142,0.024 -0.142,0.054 0,0.03 0.045,0.059 0.102,0.064 0.056,0.005 0.102,0.072 0.102,0.15 v 1.288 c 0,0.078 -0.046,0.146 -0.102,0.151 -0.057,0.004 -0.102,0.034 -0.102,0.064 0,0.03 0.064,0.055 0.142,0.055 z" /></g><g
           transform="translate(12.7857,0.9755)"
           id="g44"><path
             id="path46"
             style="fill:#ffffff;fill-opacity:1;fill-rule:nonzero;stroke:none"
             d="m 0,0 c 0,-0.035 -0.064,-0.064 -0.143,-0.064 h -0.464 c -0.079,0 -0.143,-0.064 -0.143,-0.142 v -0.475 c 0,-0.078 0.064,-0.141 0.143,-0.141 h 0.579 c 0.078,0 0.144,0.061 0.147,0.136 0.003,0.076 0.036,0.137 0.072,0.137 0.038,0 0.067,-0.064 0.067,-0.141 v -0.117 c 0,-0.079 -0.064,-0.142 -0.142,-0.142 h -1.078 c -0.078,0 -0.142,0.024 -0.142,0.055 0,0.031 0.046,0.059 0.102,0.063 0.057,0.005 0.103,0.072 0.103,0.15 v 1.289 c 0,0.079 -0.046,0.146 -0.103,0.151 -0.056,0.005 -0.102,0.033 -0.102,0.063 0,0.032 0.046,0.057 0.102,0.057 h 0.245 0.866 c 0.078,0 0.143,-0.065 0.143,-0.143 V 0.619 C 0.252,0.541 0.222,0.477 0.186,0.477 0.148,0.477 0.116,0.538 0.113,0.614 0.11,0.688 0.043,0.75 -0.035,0.75 H -0.607 C -0.686,0.75 -0.75,0.687 -0.75,0.608 V 0.206 c 0,-0.078 0.064,-0.143 0.143,-0.143 h 0.464 C -0.064,0.063 0,0.035 0,0" /></g><g
           transform="translate(17.648,1.8544)"
           id="g48"><path
             id="path50"
             style="fill:#ffffff;fill-opacity:1;fill-rule:nonzero;stroke:none"
             d="M 0,0 C 0.057,0 0.103,-0.025 0.103,-0.057 0.103,-0.087 0.057,-0.115 0,-0.12 -0.056,-0.125 -0.102,-0.192 -0.102,-0.271 v -1.415 c 0,-0.079 -0.034,-0.142 -0.075,-0.142 -0.041,0 -0.109,0.054 -0.153,0.118 l -0.881,1.335 c -0.044,0.065 -0.08,0.118 -0.082,0.118 -0.003,0 -0.004,-0.064 -0.004,-0.143 v -1.16 c 0,-0.078 0.046,-0.145 0.102,-0.15 0.056,-0.004 0.102,-0.032 0.102,-0.062 0,-0.032 -0.063,-0.056 -0.141,-0.056 H -1.51 c -0.078,0 -0.142,0.024 -0.142,0.056 0,0.03 0.046,0.058 0.102,0.062 0.056,0.005 0.102,0.072 0.102,0.15 v 1.289 c 0,0.079 -0.046,0.146 -0.102,0.151 -0.056,0.005 -0.102,0.033 -0.102,0.063 0,0.032 0.046,0.057 0.102,0.057 h 0.177 c 0.042,0 0.111,-0.054 0.154,-0.119 l 0.881,-1.332 c 0.044,-0.065 0.08,-0.118 0.083,-0.117 0.002,0 0.004,0.064 0.004,0.141 v 1.156 c 0,0.079 -0.047,0.146 -0.103,0.151 -0.056,0.005 -0.102,0.033 -0.102,0.063 0,0.032 0.063,0.057 0.143,0.057 l 0.069,0 z" /></g><g
           transform="translate(21.1197,1.7255)"
           id="g52"><path
             id="path54"
             style="fill:#ffffff;fill-opacity:1;fill-rule:nonzero;stroke:none"
             d="m 0,0 c -0.078,0 -0.143,-0.063 -0.143,-0.142 v -1.289 c 0,-0.078 0.065,-0.141 0.143,-0.141 h 0.097 c 0.078,0 0.205,0.011 0.282,0.026 0,0 0.19,0.037 0.307,0.163 0.116,0.126 0.174,0.286 0.174,0.48 v 0.096 c 0,0.078 -0.009,0.205 -0.023,0.283 0,0 -0.035,0.209 -0.152,0.335 C 0.567,-0.062 0.419,0 0.239,0 Z m 0.097,0.129 c 0.078,0 0.205,-0.012 0.282,-0.025 0,0 0.268,-0.05 0.414,-0.199 0.145,-0.149 0.218,-0.341 0.218,-0.574 v -0.092 c 0,-0.078 -0.01,-0.206 -0.024,-0.282 0,0 -0.049,-0.286 -0.194,-0.435 -0.146,-0.147 -0.33,-0.221 -0.554,-0.221 h -0.593 c -0.079,0 -0.142,0.024 -0.142,0.055 0,0.031 0.046,0.059 0.102,0.063 0.056,0.005 0.102,0.072 0.102,0.15 v 1.289 c 0,0.079 -0.046,0.146 -0.102,0.151 -0.056,0.005 -0.102,0.033 -0.102,0.063 0,0.032 0.046,0.057 0.102,0.057 h 0.245 z" /></g><g
           transform="translate(26.3716,1.454)"
           id="g56"><path
             id="path58"
             style="fill:#ffffff;fill-opacity:1;fill-rule:nonzero;stroke:none"
             d="m 0,0 c 0,-0.078 -0.027,-0.143 -0.061,-0.143 -0.034,0 -0.066,0.059 -0.072,0.13 -0.006,0.072 -0.057,0.173 -0.114,0.227 0,0 -0.004,0.004 -0.081,0.036 -0.078,0.032 -0.169,0.048 -0.275,0.048 -0.15,0 -0.267,-0.032 -0.351,-0.098 -0.084,-0.064 -0.126,-0.146 -0.126,-0.243 0,-0.092 0.038,-0.169 0.113,-0.23 0.076,-0.062 0.207,-0.116 0.394,-0.163 0.196,-0.05 0.346,-0.118 0.449,-0.204 0.103,-0.085 0.153,-0.197 0.153,-0.337 0,-0.146 -0.059,-0.261 -0.178,-0.348 -0.119,-0.086 -0.271,-0.129 -0.455,-0.129 -0.131,0 -0.252,0.022 -0.364,0.069 -0.112,0.046 -0.203,0.112 -0.274,0.198 v 0.177 c 0,0.078 0.027,0.142 0.061,0.142 0.035,0 0.067,-0.06 0.073,-0.134 0.005,-0.073 0.058,-0.176 0.117,-0.227 0,0 0.019,-0.017 0.105,-0.049 0.086,-0.034 0.18,-0.049 0.282,-0.049 0.143,0 0.26,0.031 0.349,0.096 0.089,0.063 0.134,0.147 0.134,0.252 0,0.099 -0.037,0.18 -0.112,0.244 -0.075,0.063 -0.204,0.119 -0.389,0.168 -0.2,0.049 -0.352,0.115 -0.454,0.195 -0.104,0.08 -0.155,0.188 -0.155,0.325 0,0.14 0.058,0.254 0.175,0.342 0.118,0.088 0.269,0.132 0.453,0.132 0.134,0 0.252,-0.024 0.357,-0.07 C -0.142,0.312 -0.06,0.249 0,0.17 Z" /></g></g></g></g></svg>