<?xml version="1.0" encoding="UTF-8" standalone="no"?>
<svg
   xmlns:dc="http://purl.org/dc/elements/1.1/"
   xmlns:cc="http://creativecommons.org/ns#"
   xmlns:rdf="http://www.w3.org/1999/02/22-rdf-syntax-ns#"
   xmlns:svg="http://www.w3.org/2000/svg"
   xmlns="http://www.w3.org/2000/svg"
   viewBox="0 0 92.744797 85.470535"
   height="85.470535"
   width="92.744797"
   xml:space="preserve"
   id="svg2"
   version="1.1"><metadata
     id="metadata8"><rdf:RDF><cc:Work
         rdf:about=""><dc:format>image/svg+xml</dc:format><dc:type
           rdf:resource="http://purl.org/dc/dcmitype/StillImage" /></cc:Work></rdf:RDF></metadata><defs
     id="defs6"><clipPath
       id="clipPath18"
       clipPathUnits="userSpaceOnUse"><path
         id="path16"
         d="m 12.766,53.314 c 0,-3.224 2.614,-5.84 5.839,-5.84 v 0 c 3.226,0 5.842,2.616 5.842,5.84 v 0 c 0,3.227 -2.616,5.84 -5.842,5.84 v 0 c -3.225,0 -5.839,-2.613 -5.839,-5.84" /></clipPath><radialGradient
       id="radialGradient36"
       spreadMethod="pad"
       gradientTransform="matrix(7.7829552,0,0,-7.7829552,18.796566,55.603973)"
       gradientUnits="userSpaceOnUse"
       r="1"
       cy="0"
       cx="0"
       fy="0"
       fx="0"><stop
         id="stop24"
         offset="0"
         style="stop-opacity:1;stop-color:#ffffff" /><stop
         id="stop26"
         offset="0.12298279"
         style="stop-opacity:1;stop-color:#ed1c24" /><stop
         id="stop28"
         offset="0.612121"
         style="stop-opacity:1;stop-color:#ed1c24" /><stop
         id="stop30"
         offset="0.793939"
         style="stop-opacity:1;stop-color:#bf1e2d" /><stop
         id="stop32"
         offset="0.993939"
         style="stop-opacity:1;stop-color:#ed1c24" /><stop
         id="stop34"
         offset="1"
         style="stop-opacity:1;stop-color:#ed1c24" /></radialGradient><clipPath
       id="clipPath46"
       clipPathUnits="userSpaceOnUse"><path
         id="path44"
         d="M 0,64.103 H 69.559 V 0 H 0 Z" /></clipPath><clipPath
       id="clipPath58"
       clipPathUnits="userSpaceOnUse"><path
         id="path56"
         d="m 18.066,42.47 c -2.928,0 -5.3,-2.372 -5.3,-5.3 v 0 -20.6 c 0,-2.928 2.372,-5.3 5.3,-5.3 v 0 h 0.986 c 2.928,0 5.3,2.372 5.3,5.3 v 0 20.6 c 0,2.928 -2.372,5.3 -5.3,5.3 v 0 z" /></clipPath><linearGradient
       id="linearGradient68"
       spreadMethod="pad"
       gradientTransform="matrix(0,31.200199,31.200199,0,18.558849,11.269897)"
       gradientUnits="userSpaceOnUse"
       y2="0"
       x2="1"
       y1="0"
       x1="0"><stop
         id="stop64"
         offset="0"
         style="stop-opacity:1;stop-color:#00a79e" /><stop
         id="stop66"
         offset="1"
         style="stop-opacity:1;stop-color:#004f58" /></linearGradient><clipPath
       id="clipPath78"
       clipPathUnits="userSpaceOnUse"><path
         id="path76"
         d="M 0,64.103 H 69.559 V 0 H 0 Z" /></clipPath></defs><g
     transform="matrix(1.3333333,0,0,-1.3333333,0,85.470533)"
     id="g10"><g
       id="g12"><g
         clip-path="url(#clipPath18)"
         id="g14"><g
           id="g20"><g
             id="g22"><path
               id="path38"
               style="fill:url(#radialGradient36);stroke:none"
               d="m 12.766,53.314 c 0,-3.224 2.614,-5.84 5.839,-5.84 v 0 c 3.226,0 5.842,2.616 5.842,5.84 v 0 c 0,3.227 -2.616,5.84 -5.842,5.84 v 0 c -3.225,0 -5.839,-2.613 -5.839,-5.84" /></g></g></g></g><g
       id="g40"><g
         clip-path="url(#clipPath46)"
         id="g42"><g
           transform="translate(31.4175,24.2904)"
           id="g48"><path
             id="path50"
             style="fill:#ed1c24;fill-opacity:1;fill-rule:nonzero;stroke:none"
             d="m 0,0 c 0,-0.963 -0.78,-1.743 -1.742,-1.743 -0.961,0 -1.741,0.78 -1.741,1.743 0,0.961 0.78,1.741 1.741,1.741 C -0.78,1.741 0,0.961 0,0" /></g></g></g><g
       id="g52"><g
         clip-path="url(#clipPath58)"
         id="g54"><g
           id="g60"><g
             id="g62"><path
               id="path70"
               style="fill:url(#linearGradient68);stroke:none"
               d="m 18.066,42.47 c -2.928,0 -5.3,-2.372 -5.3,-5.3 v 0 -20.6 c 0,-2.928 2.372,-5.3 5.3,-5.3 v 0 h 0.986 c 2.928,0 5.3,2.372 5.3,5.3 v 0 20.6 c 0,2.928 -2.372,5.3 -5.3,5.3 v 0 z" /></g></g></g></g><g
       id="g72"><g
         clip-path="url(#clipPath78)"
         id="g74"><g
           transform="translate(43.7642,12.9945)"
           id="g80"><path
             id="path82"
             style="fill:#ffffff;fill-opacity:1;fill-rule:nonzero;stroke:none"
             d="m 0,0 c 0.11,-0.271 0.155,-0.476 0.155,-0.678 0,-0.551 -0.385,-0.938 -0.938,-0.938 -0.443,0 -0.792,0.272 -1.035,0.809 L -7.14,10.571 h -0.773 v -11.29 c 0,-0.643 -0.494,-0.98 -0.983,-0.98 -0.486,0 -0.979,0.337 -0.979,0.98 V 28.51 c 0,1.288 1.962,1.288 1.962,0 V 12.325 h 0.955 l 4.027,7.283 c 0.234,0.515 0.582,0.788 1.025,0.788 0.487,0 0.855,-0.369 0.855,-0.857 0,-0.18 -0.061,-0.423 -0.188,-0.74 l -4.223,-7.384 z" /></g><g
           transform="translate(67.6138,32.3764)"
           id="g84"><path
             id="path86"
             style="fill:#ffffff;fill-opacity:1;fill-rule:nonzero;stroke:none"
             d="M 0,0 -3.413,-15.912 -6.814,0 c -0.27,1.259 -2.188,0.848 -1.918,-0.411 l 4.305,-20.143 c 0.002,-0.011 0.009,-0.016 0.012,-0.027 l -2.276,-10.608 c -0.135,-0.629 0.276,-1.062 0.753,-1.164 0.476,-0.102 1.03,0.123 1.165,0.752 l 6.692,31.19 C 2.188,0.848 0.271,1.259 0,0" /></g><g
           transform="translate(49.0366,28.6234)"
           id="g88"><path
             id="path90"
             style="fill:#ffffff;fill-opacity:1;fill-rule:nonzero;stroke:none"
             d="M 0,0 C 0,2.532 1.612,2.805 2.307,2.805 2.999,2.805 4.611,2.532 4.611,0 V -4.053 H 0 Z m 5.052,-6.014 c 1.066,0 1.52,0.455 1.52,1.522 L 6.572,0 C 6.572,4.302 3.589,4.767 2.307,4.767 1.022,4.767 -1.961,4.302 -1.961,0 v -12.396 c 0,-4.676 2.983,-5.182 4.268,-5.182 1.948,0 4.224,1.205 4.224,4.6 v 2.829 c 0,0.665 -0.499,1.063 -0.981,1.063 -0.481,0 -0.98,-0.398 -0.98,-1.063 v -3.079 c 0,-2.322 -2.032,-2.388 -2.263,-2.388 -1.488,0 -2.307,1.143 -2.307,3.22 v 6.382 z" /></g><g
           transform="translate(34.8086,47.6068)"
           id="g92"><path
             id="path94"
             style="fill:#ffffff;fill-opacity:1;fill-rule:nonzero;stroke:none"
             d="m 0,0 c -0.557,0 -1.009,0.452 -1.009,1.009 0,7.427 -7.129,13.469 -15.89,13.469 -8.763,0 -15.892,-6.042 -15.892,-13.469 C -32.791,0.452 -33.243,0 -33.8,0 c -0.557,0 -1.009,0.452 -1.009,1.009 0,8.539 8.034,15.487 17.91,15.487 9.875,0 17.908,-6.948 17.908,-15.487 C 1.009,0.452 0.557,0 0,0" /></g></g></g></g></svg>