<?xml version="1.0" encoding="UTF-8" standalone="no"?>
<svg
   xmlns:dc="http://purl.org/dc/elements/1.1/"
   xmlns:cc="http://creativecommons.org/ns#"
   xmlns:rdf="http://www.w3.org/1999/02/22-rdf-syntax-ns#"
   xmlns:svg="http://www.w3.org/2000/svg"
   xmlns="http://www.w3.org/2000/svg"
   viewBox="0 0 2127.24 751.82397"
   height="751.82397"
   width="2127.24"
   xml:space="preserve"
   id="svg2"
   version="1.1"><metadata
     id="metadata8"><rdf:RDF><cc:Work
         rdf:about=""><dc:format>image/svg+xml</dc:format><dc:type
           rdf:resource="http://purl.org/dc/dcmitype/StillImage" /></cc:Work></rdf:RDF></metadata><defs
     id="defs6"><clipPath
       id="clipPath18"
       clipPathUnits="userSpaceOnUse"><path
         id="path16"
         d="m 1416.084,563.868 -63.39,-0.028 0.015,-366.709 h 66.952 l -0.027,226.763 h 0.565 l 74.029,-152.681 0.011,-74.082 66.982,0.027 -0.032,366.705 -66.985,-0.01 0.01,-151.113 z m -196.291,-0.015 0.033,-302.303 -55.821,0.011 -0.011,302.279 -71.051,-0.018 0.019,-302.278 64.451,-64.413 h 68.997 l 64.438,64.424 -0.01,302.298 z m -324.687,-0.043 -63.903,-64.356 0.016,-237.923 63.921,-64.437 71.555,0.026 64.426,64.422 -0.016,123.782 h -99.464 v -62.438 h 28.457 l 0.008,-61.355 -57.88,-0.005 -0.011,237.933 57.873,0.028 0.01,-69.072 h 71.007 l -0.016,69.066 -64.42,64.357 z m -357.925,-0.012 0.029,-366.715 h 92.339 l -0.004,118.209 57.293,-0.011 63.904,52.778 v 143.525 l -64.426,52.234 z m 92.357,-81.117 28.93,0.004 0.008,-88.29 -28.931,-0.01 z m -304.896,81.107 -73.024,-70.064 0.013,-225.608 73.011,-71.048 79.167,0.015 73.027,71.022 -0.011,225.63 -73.047,70.064 z m 19.298,-80.09 40.544,-0.016 0.019,-205.497 -40.556,-0.007 z M 0,563.782 l 0.008,-81.129 54.762,0.017 0.021,-285.609 92.3,0.022 -0.017,285.598 54.281,-0.022 v 81.123 z M 1539.314,126.395 V 0 h 56.115 v 21.848 h -31.639 v 104.547 z m -161.381,0 -21.853,-21.85 V 0 h 24.476 v 30.42 h 21.324 V 0 h 24.478 v 126.395 z m 2.623,-28.497 6.756,6.647 h 14.568 V 50.698 h -21.324 z m -154.185,28.497 V 22.201 h -19.229 v 104.194 h -24.478 V 22.201 L 1204.865,0 h 23.778 l 22.204,22.201 v 104.194 z m -224.837,0 V 0 h 45.98 l 22.198,22.201 v 81.992 l -22.198,22.202 z m 24.475,-22.202 h 13.459 l 5.77,-5.767 V 27.969 l -5.77,-5.768 h -13.459 z M 866.389,0 h 24.479 V 126.395 H 866.389 Z M 739.307,126.395 725.323,21.848 h -2.975 L 708.362,126.395 H 682.84 L 702.941,0 h 41.784 l 19.756,126.395 z M 556.631,0 h 24.475 V 126.395 H 556.631 Z M 374.795,126.395 V 0 h 45.983 l 22.199,22.201 v 81.992 l -22.199,22.202 z m 24.476,-22.202 h 13.466 L 418.5,98.426 V 27.969 l -5.763,-5.768 H 399.271 Z M 238.769,126.395 V 74.3 l -26.92,52.095 H 189.995 V 0 h 23.073 v 78.146 h 0.175 L 238.769,25.524 V 0 h 23.079 V 126.395 Z M 52.039,0 H 76.514 V 126.395 H 52.039 Z" /></clipPath><linearGradient
       id="linearGradient34"
       spreadMethod="pad"
       gradientTransform="matrix(1595.429,0,0,-1595.429,0,281.93396)"
       gradientUnits="userSpaceOnUse"
       y2="0"
       x2="1"
       y1="0"
       x1="0"><stop
         id="stop24"
         offset="0"
         style="stop-opacity:1;stop-color:#fff" /><stop
         id="stop26"
         offset="0.412121"
         style="stop-opacity:1;stop-color:#fff" /><stop
         id="stop28"
         offset="0.727273"
         style="stop-opacity:1;stop-color:#fff" /><stop
         id="stop30"
         offset="0.890909"
         style="stop-opacity:1;stop-color:#fff" /><stop
         id="stop32"
         offset="1"
         style="stop-opacity:1;stop-color:#fff" /></linearGradient></defs><g
     transform="matrix(1.3333333,0,0,-1.3333333,0,751.824)"
     id="g10"><g
       id="g12"><g
         clip-path="url(#clipPath18)"
         id="g14"><g
           id="g20"><g
             id="g22"><path
               id="path36"
               style="fill:url(#linearGradient34);stroke:none"
               d="m 1416.084,563.868 -63.39,-0.028 0.015,-366.709 h 66.952 l -0.027,226.763 h 0.565 l 74.029,-152.681 0.011,-74.082 66.982,0.027 -0.032,366.705 -66.985,-0.01 0.01,-151.113 z m -196.291,-0.015 0.033,-302.303 -55.821,0.011 -0.011,302.279 -71.051,-0.018 0.019,-302.278 64.451,-64.413 h 68.997 l 64.438,64.424 -0.01,302.298 z m -324.687,-0.043 -63.903,-64.356 0.016,-237.923 63.921,-64.437 71.555,0.026 64.426,64.422 -0.016,123.782 h -99.464 v -62.438 h 28.457 l 0.008,-61.355 -57.88,-0.005 -0.011,237.933 57.873,0.028 0.01,-69.072 h 71.007 l -0.016,69.066 -64.42,64.357 z m -357.925,-0.012 0.029,-366.715 h 92.339 l -0.004,118.209 57.293,-0.011 63.904,52.778 v 143.525 l -64.426,52.234 z m 92.357,-81.117 28.93,0.004 0.008,-88.29 -28.931,-0.01 z m -304.896,81.107 -73.024,-70.064 0.013,-225.608 73.011,-71.048 79.167,0.015 73.027,71.022 -0.011,225.63 -73.047,70.064 z m 19.298,-80.09 40.544,-0.016 0.019,-205.497 -40.556,-0.007 z M 0,563.782 l 0.008,-81.129 54.762,0.017 0.021,-285.609 92.3,0.022 -0.017,285.598 54.281,-0.022 v 81.123 z M 1539.314,126.395 V 0 h 56.115 v 21.848 h -31.639 v 104.547 z m -161.381,0 -21.853,-21.85 V 0 h 24.476 v 30.42 h 21.324 V 0 h 24.478 v 126.395 z m 2.623,-28.497 6.756,6.647 h 14.568 V 50.698 h -21.324 z m -154.185,28.497 V 22.201 h -19.229 v 104.194 h -24.478 V 22.201 L 1204.865,0 h 23.778 l 22.204,22.201 v 104.194 z m -224.837,0 V 0 h 45.98 l 22.198,22.201 v 81.992 l -22.198,22.202 z m 24.475,-22.202 h 13.459 l 5.77,-5.767 V 27.969 l -5.77,-5.768 h -13.459 z M 866.389,0 h 24.479 V 126.395 H 866.389 Z M 739.307,126.395 725.323,21.848 h -2.975 L 708.362,126.395 H 682.84 L 702.941,0 h 41.784 l 19.756,126.395 z M 556.631,0 h 24.475 V 126.395 H 556.631 Z M 374.795,126.395 V 0 h 45.983 l 22.199,22.201 v 81.992 l -22.199,22.202 z m 24.476,-22.202 h 13.466 L 418.5,98.426 V 27.969 l -5.763,-5.768 H 399.271 Z M 238.769,126.395 V 74.3 l -26.92,52.095 H 189.995 V 0 h 23.073 v 78.146 h 0.175 L 238.769,25.524 V 0 h 23.079 V 126.395 Z M 52.039,0 H 76.514 V 126.395 H 52.039 Z" /></g></g></g></g></g></svg>