<?xml version="1.0" encoding="UTF-8" standalone="no"?>
<svg
   xmlns:dc="http://purl.org/dc/elements/1.1/"
   xmlns:cc="http://creativecommons.org/ns#"
   xmlns:rdf="http://www.w3.org/1999/02/22-rdf-syntax-ns#"
   xmlns:svg="http://www.w3.org/2000/svg"
   xmlns="http://www.w3.org/2000/svg"
   viewBox="0 0 72.807732 67.09787"
   height="67.09787"
   width="72.807732"
   xml:space="preserve"
   id="svg2"
   version="1.1"><metadata
     id="metadata8"><rdf:RDF><cc:Work
         rdf:about=""><dc:format>image/svg+xml</dc:format><dc:type
           rdf:resource="http://purl.org/dc/dcmitype/StillImage" /></cc:Work></rdf:RDF></metadata><defs
     id="defs6"><clipPath
       id="clipPath18"
       clipPathUnits="userSpaceOnUse"><path
         id="path16"
         d="M 0,0 H 54.606 V 50.323 H 0 Z" /></clipPath></defs><g
     transform="matrix(1.3333333,0,0,-1.3333333,0,67.097867)"
     id="g10"><g
       id="g12"><g
         clip-path="url(#clipPath18)"
         id="g14"><g
           transform="translate(19.1904,41.8531)"
           id="g20"><path
             id="path22"
             style="fill:#ffffff;fill-opacity:1;fill-rule:nonzero;stroke:none"
             d="m 0,0 c 0,-2.531 -2.052,-4.583 -4.583,-4.583 -2.533,0 -4.587,2.052 -4.587,4.583 0,2.533 2.054,4.585 4.587,4.585 C -2.052,4.585 0,2.533 0,0" /></g><g
           transform="translate(24.6625,19.0684)"
           id="g24"><path
             id="path26"
             style="fill:#ffffff;fill-opacity:1;fill-rule:nonzero;stroke:none"
             d="m 0,0 c 0,-0.757 -0.612,-1.369 -1.364,-1.369 -0.757,0 -1.369,0.612 -1.369,1.369 0,0.755 0.612,1.368 1.369,1.368 C -0.612,1.368 0,0.755 0,0" /></g><g
           transform="translate(19.1178,13.0078)"
           id="g28"><path
             id="path30"
             style="fill:#ffffff;fill-opacity:1;fill-rule:nonzero;stroke:none"
             d="m 0,0 c 0,-2.299 -1.864,-4.163 -4.16,-4.163 h -0.772 c -2.3,0 -4.166,1.864 -4.166,4.163 v 16.171 c 0,2.299 1.866,4.159 4.166,4.159 H -4.16 C -1.864,20.33 0,18.47 0,16.171 Z" /></g><g
           transform="translate(34.3567,10.2002)"
           id="g32"><path
             id="path34"
             style="fill:#ffffff;fill-opacity:1;fill-rule:nonzero;stroke:none"
             d="m 0,0 c 0.088,-0.212 0.122,-0.373 0.122,-0.532 0,-0.435 -0.305,-0.737 -0.736,-0.737 -0.349,0 -0.622,0.215 -0.81,0.637 l -4.181,8.929 h -0.607 v -8.86 c 0,-0.506 -0.386,-0.769 -0.769,-0.769 -0.386,0 -0.771,0.263 -0.771,0.769 v 22.946 c 0,1.012 1.54,1.012 1.54,0 V 9.677 h 0.748 l 3.167,5.717 c 0.182,0.404 0.453,0.618 0.802,0.618 0.382,0 0.669,-0.29 0.669,-0.673 0,-0.139 -0.047,-0.329 -0.147,-0.583 L -4.287,8.963 Z" /></g><g
           transform="translate(53.082,25.4155)"
           id="g36"><path
             id="path38"
             style="fill:#ffffff;fill-opacity:1;fill-rule:nonzero;stroke:none"
             d="M 0,0 -2.682,-12.49 -5.352,0 c -0.212,0.989 -1.715,0.665 -1.503,-0.322 l 3.379,-15.813 c 0.003,-0.008 0.005,-0.016 0.009,-0.02 l -1.787,-8.329 c -0.106,-0.496 0.22,-0.834 0.588,-0.912 0.377,-0.083 0.811,0.094 0.919,0.588 l 5.25,24.486 C 1.717,0.665 0.21,0.989 0,0" /></g><g
           transform="translate(42.4637,17.7479)"
           id="g40"><path
             id="path42"
             style="fill:#ffffff;fill-opacity:1;fill-rule:nonzero;stroke:none"
             d="m 0,0 c 0.834,0 1.195,0.357 1.195,1.193 v 3.53 c 0,3.376 -2.343,3.741 -3.349,3.741 -1.011,0 -3.351,-0.365 -3.351,-3.741 v -9.734 c 0,-3.669 2.34,-4.067 3.351,-4.067 1.528,0 3.316,0.945 3.316,3.61 v 2.221 c 0,0.524 -0.395,0.836 -0.772,0.836 -0.376,0 -0.771,-0.312 -0.771,-0.836 v -2.417 c 0,-1.821 -1.593,-1.876 -1.773,-1.876 -1.168,0 -1.813,0.901 -1.813,2.529 l 0,5.011 z m -3.967,4.723 c 0,1.987 1.265,2.199 1.813,2.199 0.541,0 1.809,-0.212 1.809,-2.199 V 1.542 h -3.622 z" /></g><g
           transform="translate(27.3268,37.3741)"
           id="g44"><path
             id="path46"
             style="fill:#ffffff;fill-opacity:1;fill-rule:nonzero;stroke:none"
             d="m 0,0 c -0.438,0 -0.791,0.353 -0.791,0.793 0,5.829 -5.597,10.573 -12.476,10.573 -6.881,0 -12.475,-4.744 -12.475,-10.573 0,-0.44 -0.357,-0.793 -0.794,-0.793 -0.438,0 -0.791,0.353 -0.791,0.793 0,6.702 6.308,12.156 14.06,12.156 7.75,0 14.06,-5.454 14.06,-12.156 C 0.793,0.353 0.436,0 0,0" /></g></g></g></g></svg>