<?xml version="1.0" standalone="no"?>
<!DOCTYPE svg PUBLIC "-//W3C//DTD SVG 1.1//EN" "http://www.w3.org/Graphics/SVG/1.1/DTD/svg11.dtd">
<!--Generator: Xara Designer (www.xara.com), SVG filter version: 4.0.0.1-->
<svg stroke-width="0.501" stroke-linejoin="bevel" fill-rule="evenodd" xmlns:xlink="http://www.w3.org/1999/xlink" xmlns="http://www.w3.org/2000/svg" version="1.1" overflow="visible" width="32.985pt" height="27pt" viewBox="0 0 32.985 27">
 <defs>
  <marker id="DefaultArrow2" markerUnits="strokeWidth" viewBox="0 0 1 1" markerWidth="1" markerHeight="1" overflow="visible" orient="auto">
   <!-- REF_ARROW_STRAIGHT (-2) -->
   <g transform="scale(0.0092592592)">
    <!-- 1/108 -->
    <path d="M -9 54 L -9 -54 L 117 0 z"/>
   </g>
  </marker>
  <marker id="DefaultArrow3" markerUnits="strokeWidth" viewBox="0 0 1 1" markerWidth="1" markerHeight="1" overflow="visible" orient="auto">
   <!-- REF_ARROW_ANGLED -->
   <g transform="scale(0.0092592592)">
    <path d="M -27 54 L -9 0 L -27 -54 L 135 0 z"/>
   </g>
  </marker>
  <marker id="DefaultArrow4" markerUnits="strokeWidth" viewBox="0 0 1 1" markerWidth="1" markerHeight="1" overflow="visible" orient="auto">
   <!-- REF_ARROW_ROUNDED -->
   <g transform="scale(0.0092592592)">
    <path d="M -9,0 L -9,-45 C -9,-51.708 2.808,-56.580 9,-54 L 117,-9 C 120.916,-7.369 126.000,-4.242 126,0 C 126,4.242 120.916,7.369 117,9 L 9,54 C 2.808,56.580 -9,51.708 -9,45 z"/>
   </g>
  </marker>
  <marker id="DefaultArrow5" markerUnits="strokeWidth" viewBox="0 0 1 1" markerWidth="1" markerHeight="1" overflow="visible" orient="auto">
   <!-- REF_ARROW_SPOT -->
   <g transform="scale(0.0092592592)">
    <path d="M -54, 0 C -54,29.807 -29.807,54 0,54 C 29.807,54 54,29.807 54,0 C 54,-29.807 29.807,-54 0,-54 C -29.807,-54 -54,-29.807 -54,0 z"/>
   </g>
  </marker>
  <marker id="DefaultArrow6" markerUnits="strokeWidth" viewBox="0 0 1 1" markerWidth="1" markerHeight="1" overflow="visible" orient="auto">
   <!-- REF_ARROW_DIAMOND -->
   <g transform="scale(0.0092592592)">
    <path d="M -63,0 L 0,63 L 63,0 L 0,-63 z"/>
   </g>
  </marker>
  <marker id="DefaultArrow7" markerUnits="strokeWidth" viewBox="0 0 1 1" markerWidth="1" markerHeight="1" overflow="visible" orient="auto">
   <!-- REF_ARROW_FEATHER -->
   <g transform="scale(0.0092592592)">
    <path d="M 18,-54 L 108,-54 L 63,0 L 108,54 L 18, 54 L -36,0 z"/>
   </g>
  </marker>
  <marker id="DefaultArrow8" markerUnits="strokeWidth" viewBox="0 0 1 1" markerWidth="1" markerHeight="1" overflow="visible" orient="auto">
   <!-- REF_ARROW_FEATHER2 -->
   <g transform="scale(0.0092592592)">
    <path d="M -36,0 L 18,-54 L 54,-54 L 18,-18 L 27,-18 L 63,-54 L 99,-54 L 63,-18 L 72,-18 L 108,-54 L 144,-54 L 90,0 L 144,54 L 108,54 L 72,18 L 63,18 L 99,54 L 63,54 L 27,18 L 18,18 L 54,54 L 18,54 z"/>
   </g>
  </marker>
  <marker id="DefaultArrow9" markerUnits="strokeWidth" viewBox="0 0 1 1" markerWidth="1" markerHeight="1" overflow="visible" orient="auto">
   <!-- REF_ARROW_HOLLOWDIAMOND -->
   <g transform="scale(0.0092592592)">
    <path d="M 0,45 L -45,0 L 0, -45 L 45, 0 z M 0, 63 L-63, 0 L 0, -63 L 63, 0 z"/>
   </g>
  </marker>
  <filter id="StainedFilter">
   <feBlend mode="multiply" in2="BackgroundImage" in="SourceGraphic" result="blend"/>
   <feComposite in="blend" in2="SourceAlpha" operator="in" result="comp"/>
  </filter>
  <filter id="BleachFilter">
   <feBlend mode="screen" in2="BackgroundImage" in="SourceGraphic" result="blend"/>
   <feComposite in="blend" in2="SourceAlpha" operator="in" result="comp"/>
  </filter>
  <filter id="InvertTransparencyBitmapFilter">
   <feComponentTransfer>
    <feFuncR type="gamma" amplitude="1.055" exponent=".416666666" offset="-0.055"/>
    <feFuncG type="gamma" amplitude="1.055" exponent=".416666666" offset="-0.055"/>
    <feFuncB type="gamma" amplitude="1.055" exponent=".416666666" offset="-0.055"/>
   </feComponentTransfer>
   <feComponentTransfer>
    <feFuncR type="linear" slope="-1" intercept="1"/>
    <feFuncG type="linear" slope="-1" intercept="1"/>
    <feFuncB type="linear" slope="-1" intercept="1"/>
    <feFuncA type="linear" slope="1" intercept="0"/>
   </feComponentTransfer>
   <feComponentTransfer>
    <feFuncR type="gamma" amplitude="1" exponent="2.4" offset="0"/>
    <feFuncG type="gamma" amplitude="1" exponent="2.4" offset="0"/>
    <feFuncB type="gamma" amplitude="1" exponent="2.4" offset="0"/>
   </feComponentTransfer>
  </filter>
 </defs>
 <g id="Document" fill="none" stroke="black" font-family="Times New Roman" font-size="16" transform="scale(1 -1)">
  <g id="Spread" transform="translate(0 -27)">
   <g id="Layer 1">
    <g id="Group" stroke="none">
     <path d="M -0.003,26.998 L -0.003,-0.001 L 33,-0.001 L 33,26.998 L -0.003,26.998 Z" stroke-linejoin="round" marker-start="none" marker-end="none"/>
     <path d="M 16.291,5.998 C 16.118,5.998 16.054,6 16.487,6 C 16.317,6.007 16.148,6.015 16.484,6 C 16.434,6.001 16.422,6.003 16.442,6.002 C 10.795,6.361 7.186,8.509 6.163,12 L 0.751,12 C 0.337,12 0.001,12.336 0.001,12.75 L 0.001,15.75 C 0.001,16.163 0.337,16.5 0.751,16.5 L 12.751,16.5 L 12.751,18 L 14.251,18 L 14.251,16.5 L 15.751,16.5 L 15.751,19.5 L 17.251,19.5 L 17.251,16.5 L 18.75,16.5 L 18.75,18 L 20.25,18 L 20.25,16.5 L 32.251,16.5 C 32.664,16.5 33.001,16.163 33.001,15.75 L 33.001,12.75 C 33.001,12.336 32.664,12 32.251,12 L 26.837,12 C 25.818,8.529 22.24,6.377 16.546,6.001 C 16.577,6.003 16.565,6.001 16.514,6 C 16.853,6.016 16.684,6.007 16.512,6 L 16.514,6 C 16.536,6 16.527,6 16.518,6 C 17.13,6.001 16.82,5.996 16.5,5.999 C 16.426,5.998 16.351,5.998 16.291,5.998 Z M 16.509,6 C 16.511,6 16.514,6 16.518,6 C 16.511,6 16.505,6 16.5,6 C 16.495,6 16.49,6 16.485,6 C 16.488,6 16.49,6 16.492,6 C 16.494,5.999 16.497,5.999 16.5,5.999 C 16.503,5.999 16.506,5.999 16.509,6 Z M 16.487,6 C 16.475,6 16.465,6.001 16.487,6 Z M 16.512,6 C 16.534,6.001 16.524,6 16.512,6 Z M 16.485,6 L 16.487,6 C 16.423,6 16.453,6 16.485,6 C 16.475,6 16.464,6 16.485,6 Z M 16.514,6 L 16.546,6.001 C 16.556,6.002 16.55,6.002 16.514,6 Z M 16.442,6.002 L 16.485,6 C 16.449,6.002 16.443,6.002 16.442,6.002 Z M 25.515,12.897 C 25.555,13.1 25.674,13.267 25.637,13.178 C 25.788,13.347 25.869,13.402 25.833,13.372 C 25.914,13.426 26.004,13.464 25.838,13.375 C 26.048,13.478 26.147,13.5 26.223,13.497 L 26.247,13.499 L 26.251,13.5 L 31.501,13.5 L 31.501,15 L 1.501,15 L 1.501,13.5 L 6.751,13.5 C 6.853,13.5 6.95,13.478 7.142,13.385 C 7.139,13.387 7.137,13.389 7.135,13.39 C 7.088,13.42 7.128,13.398 7.167,13.373 C 7.122,13.399 7.115,13.404 7.135,13.39 C 7.138,13.388 7.141,13.386 7.146,13.384 C 7.144,13.384 7.143,13.385 7.142,13.385 C 7.159,13.373 7.189,13.352 7.228,13.323 C 7.206,13.347 7.243,13.316 7.279,13.28 C 7.209,13.344 7.246,13.313 7.312,13.241 C 7.312,13.249 7.343,13.211 7.372,13.169 C 7.389,13.171 7.465,13.029 7.492,12.866 C 8.164,9.587 11.818,7.445 16.492,7.499 L 16.509,7.499 C 21.208,7.444 24.857,9.609 25.515,12.897 Z" stroke-width="0.5" fill="#bababa" fill-rule="evenodd" marker-start="none" marker-end="none" stroke-miterlimit="79.8403193612775"/>
    </g>
   </g>
  </g>
 </g>
</svg>
