<?xml version="1.0" standalone="no"?>
<!DOCTYPE svg PUBLIC "-//W3C//DTD SVG 1.1//EN" "http://www.w3.org/Graphics/SVG/1.1/DTD/svg11.dtd">
<!--Generator: Xara Designer (www.xara.com), SVG filter version: 4.0.0.1-->
<svg stroke-width="0.501" stroke-linejoin="bevel" fill-rule="evenodd" xmlns:xlink="http://www.w3.org/1999/xlink" xmlns="http://www.w3.org/2000/svg" version="1.1" overflow="visible" width="32.985pt" height="27pt" viewBox="0 0 32.985 27">
 <defs>
  <marker id="DefaultArrow2" markerUnits="strokeWidth" viewBox="0 0 1 1" markerWidth="1" markerHeight="1" overflow="visible" orient="auto">
   <!-- REF_ARROW_STRAIGHT (-2) -->
   <g transform="scale(0.0092592592)">
    <!-- 1/108 -->
    <path d="M -9 54 L -9 -54 L 117 0 z"/>
   </g>
  </marker>
  <marker id="DefaultArrow3" markerUnits="strokeWidth" viewBox="0 0 1 1" markerWidth="1" markerHeight="1" overflow="visible" orient="auto">
   <!-- REF_ARROW_ANGLED -->
   <g transform="scale(0.0092592592)">
    <path d="M -27 54 L -9 0 L -27 -54 L 135 0 z"/>
   </g>
  </marker>
  <marker id="DefaultArrow4" markerUnits="strokeWidth" viewBox="0 0 1 1" markerWidth="1" markerHeight="1" overflow="visible" orient="auto">
   <!-- REF_ARROW_ROUNDED -->
   <g transform="scale(0.0092592592)">
    <path d="M -9,0 L -9,-45 C -9,-51.708 2.808,-56.580 9,-54 L 117,-9 C 120.916,-7.369 126.000,-4.242 126,0 C 126,4.242 120.916,7.369 117,9 L 9,54 C 2.808,56.580 -9,51.708 -9,45 z"/>
   </g>
  </marker>
  <marker id="DefaultArrow5" markerUnits="strokeWidth" viewBox="0 0 1 1" markerWidth="1" markerHeight="1" overflow="visible" orient="auto">
   <!-- REF_ARROW_SPOT -->
   <g transform="scale(0.0092592592)">
    <path d="M -54, 0 C -54,29.807 -29.807,54 0,54 C 29.807,54 54,29.807 54,0 C 54,-29.807 29.807,-54 0,-54 C -29.807,-54 -54,-29.807 -54,0 z"/>
   </g>
  </marker>
  <marker id="DefaultArrow6" markerUnits="strokeWidth" viewBox="0 0 1 1" markerWidth="1" markerHeight="1" overflow="visible" orient="auto">
   <!-- REF_ARROW_DIAMOND -->
   <g transform="scale(0.0092592592)">
    <path d="M -63,0 L 0,63 L 63,0 L 0,-63 z"/>
   </g>
  </marker>
  <marker id="DefaultArrow7" markerUnits="strokeWidth" viewBox="0 0 1 1" markerWidth="1" markerHeight="1" overflow="visible" orient="auto">
   <!-- REF_ARROW_FEATHER -->
   <g transform="scale(0.0092592592)">
    <path d="M 18,-54 L 108,-54 L 63,0 L 108,54 L 18, 54 L -36,0 z"/>
   </g>
  </marker>
  <marker id="DefaultArrow8" markerUnits="strokeWidth" viewBox="0 0 1 1" markerWidth="1" markerHeight="1" overflow="visible" orient="auto">
   <!-- REF_ARROW_FEATHER2 -->
   <g transform="scale(0.0092592592)">
    <path d="M -36,0 L 18,-54 L 54,-54 L 18,-18 L 27,-18 L 63,-54 L 99,-54 L 63,-18 L 72,-18 L 108,-54 L 144,-54 L 90,0 L 144,54 L 108,54 L 72,18 L 63,18 L 99,54 L 63,54 L 27,18 L 18,18 L 54,54 L 18,54 z"/>
   </g>
  </marker>
  <marker id="DefaultArrow9" markerUnits="strokeWidth" viewBox="0 0 1 1" markerWidth="1" markerHeight="1" overflow="visible" orient="auto">
   <!-- REF_ARROW_HOLLOWDIAMOND -->
   <g transform="scale(0.0092592592)">
    <path d="M 0,45 L -45,0 L 0, -45 L 45, 0 z M 0, 63 L-63, 0 L 0, -63 L 63, 0 z"/>
   </g>
  </marker>
  <filter id="StainedFilter">
   <feBlend mode="multiply" in2="BackgroundImage" in="SourceGraphic" result="blend"/>
   <feComposite in="blend" in2="SourceAlpha" operator="in" result="comp"/>
  </filter>
  <filter id="BleachFilter">
   <feBlend mode="screen" in2="BackgroundImage" in="SourceGraphic" result="blend"/>
   <feComposite in="blend" in2="SourceAlpha" operator="in" result="comp"/>
  </filter>
  <filter id="InvertTransparencyBitmapFilter">
   <feComponentTransfer>
    <feFuncR type="gamma" amplitude="1.055" exponent=".416666666" offset="-0.055"/>
    <feFuncG type="gamma" amplitude="1.055" exponent=".416666666" offset="-0.055"/>
    <feFuncB type="gamma" amplitude="1.055" exponent=".416666666" offset="-0.055"/>
   </feComponentTransfer>
   <feComponentTransfer>
    <feFuncR type="linear" slope="-1" intercept="1"/>
    <feFuncG type="linear" slope="-1" intercept="1"/>
    <feFuncB type="linear" slope="-1" intercept="1"/>
    <feFuncA type="linear" slope="1" intercept="0"/>
   </feComponentTransfer>
   <feComponentTransfer>
    <feFuncR type="gamma" amplitude="1" exponent="2.4" offset="0"/>
    <feFuncG type="gamma" amplitude="1" exponent="2.4" offset="0"/>
    <feFuncB type="gamma" amplitude="1" exponent="2.4" offset="0"/>
   </feComponentTransfer>
  </filter>
 </defs>
 <g id="Document" fill="none" stroke="black" font-family="Times New Roman" font-size="16" transform="scale(1 -1)">
  <g id="Spread" transform="translate(0 -27)">
   <g id="Layer 1">
    <g id="Group" stroke="none">
     <path d="M -0.003,26.998 L -0.003,-0.001 L 33,-0.001 L 33,26.998 L -0.003,26.998 Z" stroke-linejoin="round" marker-start="none" marker-end="none"/>
     <path d="M 16.492,7.5 L 16.477,7.5 C 16.473,7.5 16.469,7.5 16.475,7.5 C 16.464,7.501 16.47,7.5 16.476,7.5 C 16.475,7.5 16.474,7.5 16.475,7.5 L 16.474,7.5 C 16.467,7.5 16.462,7.5 16.472,7.5 C 16.462,7.501 16.467,7.5 16.472,7.5 L 16.474,7.5 L 16.472,7.5 C 16.468,7.5 16.465,7.5 16.472,7.5 L 16.47,7.5 L 16.473,7.5 L 16.469,7.5 L 16.465,7.5 L 16.467,7.5 L 16.465,7.5 C 16.44,7.503 16.453,7.501 16.467,7.5 C 16.464,7.5 16.463,7.5 16.465,7.5 L 16.46,7.5 C 16.461,7.5 16.463,7.5 16.466,7.5 L 16.463,7.5 C 16.461,7.5 16.46,7.5 16.46,7.5 L 16.462,7.5 L 16.455,7.501 C 16.453,7.501 16.452,7.501 16.462,7.5 L 16.461,7.5 C 16.459,7.5 16.458,7.5 16.457,7.5 L 16.459,7.5 C 16.452,7.5 16.446,7.5 16.454,7.5 C 16.437,7.501 16.436,7.501 16.454,7.5 C 16.447,7.5 16.452,7.5 16.457,7.5 L 16.449,7.501 C 16.436,7.502 16.438,7.502 16.445,7.502 C 16.372,7.507 16.352,7.509 16.445,7.502 L 16.449,7.501 C 16.45,7.501 16.452,7.501 16.455,7.501 L 16.46,7.5 L 16.457,7.501 L 16.45,7.502 L 16.449,7.502 L 16.446,7.502 L 16.443,7.502 C 16.444,7.502 16.445,7.502 16.449,7.502 L 16.439,7.503 C 16.345,7.512 16.366,7.51 16.439,7.503 L 16.443,7.502 L 16.445,7.502 L 16.444,7.502 L 16.434,7.503 C 16.262,7.523 16.131,7.54 16.434,7.503 L 16.44,7.503 C 11.971,8.234 9.306,9.935 7.69,12.024 C 7.63,12.008 7.566,12 7.501,12 L 0.751,12 C 0.337,12 0.001,12.336 0.001,12.75 L 0.001,15.75 C 0.001,16.163 0.337,16.5 0.751,16.5 L 3.751,16.5 C 4.164,16.5 4.501,16.163 4.501,15.75 C 4.501,15.336 4.164,15 3.751,15 L 1.501,15 L 1.501,13.5 L 6.752,13.5 C 6.403,14.185 6.156,14.893 6.015,15.602 C 5.934,16.008 6.197,16.404 6.603,16.485 C 7.009,16.566 7.405,16.303 7.486,15.897 C 8.166,12.494 11.905,8.946 16.492,8.999 L 16.509,8.999 C 21.097,8.946 24.835,12.495 25.515,15.897 C 25.596,16.303 25.992,16.566 26.398,16.485 C 26.804,16.404 27.067,16.008 26.986,15.602 C 26.844,14.893 26.596,14.185 26.246,13.5 L 31.501,13.5 L 31.501,15 L 29.251,15 C 28.837,15 28.501,15.336 28.501,15.75 C 28.501,16.163 28.837,16.5 29.251,16.5 L 32.251,16.5 C 32.664,16.5 33.001,16.163 33.001,15.75 L 33.001,12.75 C 33.001,12.336 32.664,12 32.251,12 L 25.501,12 C 25.434,12 25.37,12.008 25.308,12.024 C 23.691,9.936 21.026,8.234 16.557,7.503 L 16.554,7.503 C 16.874,7.541 16.728,7.522 16.554,7.503 L 16.557,7.503 L 16.545,7.501 L 16.55,7.502 C 16.63,7.509 16.636,7.51 16.554,7.502 C 16.666,7.511 16.618,7.506 16.547,7.501 C 16.545,7.501 16.543,7.501 16.541,7.501 C 16.675,7.52 16.809,7.541 16.542,7.501 L 16.54,7.501 L 16.534,7.5 L 16.532,7.5 C 16.566,7.501 16.559,7.501 16.532,7.5 L 16.53,7.5 L 16.529,7.5 L 16.528,7.5 C 16.532,7.5 16.537,7.501 16.541,7.501 C 16.54,7.501 16.537,7.501 16.534,7.5 C 16.531,7.5 16.528,7.5 16.526,7.5 L 16.522,7.5 L 16.534,7.5 C 16.538,7.501 16.542,7.501 16.544,7.502 C 16.544,7.502 16.541,7.501 16.538,7.501 C 16.536,7.501 16.533,7.501 16.529,7.5 C 16.528,7.5 16.525,7.5 16.522,7.5 L 16.521,7.5 C 16.524,7.5 16.527,7.5 16.529,7.5 C 16.532,7.501 16.534,7.501 16.535,7.501 C 16.531,7.5 16.525,7.5 16.52,7.5 L 16.509,7.5 C 16.506,7.499 16.503,7.499 16.5,7.499 C 16.497,7.499 16.494,7.499 16.492,7.5 Z M 16.462,7.501 C 16.465,7.5 16.469,7.5 16.474,7.5 L 16.475,7.5 L 16.462,7.501 Z M 16.474,7.5 C 16.469,7.5 16.466,7.5 16.468,7.5 L 16.47,7.5 L 16.473,7.5 L 16.474,7.5 Z M 16.47,7.5 L 16.463,7.5 L 16.468,7.5 L 16.472,7.5 L 16.47,7.5 Z M 16.53,7.5 L 16.534,7.5 L 16.537,7.501 L 16.531,7.5 C 16.54,7.5 16.547,7.5 16.53,7.5 Z M 16.46,7.5 C 16.459,7.5 16.458,7.5 16.46,7.5 Z M 16.465,7.5 L 16.464,7.5 L 16.465,7.5 C 16.461,7.5 16.463,7.5 16.465,7.5 Z M 16.468,7.5 L 16.464,7.5 C 16.465,7.5 16.467,7.5 16.469,7.5 C 16.455,7.501 16.442,7.503 16.468,7.5 Z M 16.463,7.5 L 16.459,7.5 C 16.458,7.501 16.457,7.501 16.46,7.5 L 16.463,7.5 Z M 16.454,7.501 L 16.463,7.5 L 16.464,7.5 L 16.468,7.5 C 16.453,7.501 16.449,7.502 16.454,7.501 Z M 16.463,7.5 L 16.459,7.5 C 16.46,7.5 16.462,7.5 16.463,7.5 Z M 16.46,7.501 L 16.451,7.502 L 16.457,7.501 L 16.459,7.501 Z M 16.543,7.501 L 16.545,7.501 C 16.549,7.501 16.543,7.501 16.537,7.501 C 16.539,7.501 16.542,7.501 16.543,7.501 Z M 16.462,7.501 C 16.445,7.502 16.449,7.502 16.475,7.5 L 16.462,7.501 Z M 16.544,7.501 L 16.543,7.501 L 16.542,7.501 L 16.544,7.501 Z M 16.538,7.501 C 16.547,7.502 16.549,7.502 16.535,7.501 C 16.536,7.501 16.537,7.501 16.538,7.501 Z M 16.547,7.501 C 16.55,7.501 16.552,7.502 16.554,7.502 L 16.55,7.502 C 16.563,7.503 16.554,7.502 16.544,7.501 C 16.546,7.501 16.547,7.501 16.547,7.501 Z M 16.541,7.501 C 16.545,7.502 16.547,7.502 16.547,7.502 C 16.55,7.502 16.546,7.502 16.541,7.501 Z M 16.44,7.503 L 16.444,7.502 L 16.445,7.502 C 16.441,7.502 16.443,7.502 16.454,7.501 L 16.44,7.503 Z M 16.451,7.502 L 16.449,7.502 L 16.457,7.501 L 16.451,7.502 Z M 16.547,7.502 L 16.557,7.503 C 16.552,7.502 16.549,7.502 16.544,7.502 C 16.549,7.502 16.551,7.502 16.547,7.502 Z M 16.445,7.502 C 16.18,7.542 16.312,7.521 16.446,7.502 L 16.449,7.502 L 16.445,7.502 Z M 8.251,15.75 C 8.251,16.163 8.587,16.5 9.001,16.5 L 12.751,16.5 L 12.751,18 L 14.251,18 L 14.251,16.5 L 15.751,16.5 L 15.751,19.5 L 17.251,19.5 L 17.251,16.5 L 18.75,16.5 L 18.75,18 L 20.25,18 L 20.25,16.5 L 24.001,16.5 C 24.414,16.5 24.751,16.163 24.751,15.75 C 24.751,15.336 24.414,15 24.001,15 L 9.001,15 C 8.587,15 8.251,15.336 8.251,15.75 Z" stroke-width="0.5" fill="#bababa" fill-rule="evenodd" marker-start="none" marker-end="none" stroke-miterlimit="79.8403193612775"/>
    </g>
   </g>
  </g>
 </g>
</svg>
