<?xml version="1.0" standalone="no"?>
<!DOCTYPE svg PUBLIC "-//W3C//DTD SVG 1.1//EN" "http://www.w3.org/Graphics/SVG/1.1/DTD/svg11.dtd">
<!--Generator: Xara Designer (www.xara.com), SVG filter version: 4.0.0.1-->
<svg stroke-width="0.501" stroke-linejoin="bevel" fill-rule="evenodd" xmlns:xlink="http://www.w3.org/1999/xlink" xmlns="http://www.w3.org/2000/svg" version="1.1" overflow="visible" width="32.984pt" height="27pt" viewBox="0 0 32.984 27">
 <defs>
  <marker id="DefaultArrow2" markerUnits="strokeWidth" viewBox="0 0 1 1" markerWidth="1" markerHeight="1" overflow="visible" orient="auto">
   <!-- REF_ARROW_STRAIGHT (-2) -->
   <g transform="scale(0.0092592592)">
    <!-- 1/108 -->
    <path d="M -9 54 L -9 -54 L 117 0 z"/>
   </g>
  </marker>
  <marker id="DefaultArrow3" markerUnits="strokeWidth" viewBox="0 0 1 1" markerWidth="1" markerHeight="1" overflow="visible" orient="auto">
   <!-- REF_ARROW_ANGLED -->
   <g transform="scale(0.0092592592)">
    <path d="M -27 54 L -9 0 L -27 -54 L 135 0 z"/>
   </g>
  </marker>
  <marker id="DefaultArrow4" markerUnits="strokeWidth" viewBox="0 0 1 1" markerWidth="1" markerHeight="1" overflow="visible" orient="auto">
   <!-- REF_ARROW_ROUNDED -->
   <g transform="scale(0.0092592592)">
    <path d="M -9,0 L -9,-45 C -9,-51.708 2.808,-56.580 9,-54 L 117,-9 C 120.916,-7.369 126.000,-4.242 126,0 C 126,4.242 120.916,7.369 117,9 L 9,54 C 2.808,56.580 -9,51.708 -9,45 z"/>
   </g>
  </marker>
  <marker id="DefaultArrow5" markerUnits="strokeWidth" viewBox="0 0 1 1" markerWidth="1" markerHeight="1" overflow="visible" orient="auto">
   <!-- REF_ARROW_SPOT -->
   <g transform="scale(0.0092592592)">
    <path d="M -54, 0 C -54,29.807 -29.807,54 0,54 C 29.807,54 54,29.807 54,0 C 54,-29.807 29.807,-54 0,-54 C -29.807,-54 -54,-29.807 -54,0 z"/>
   </g>
  </marker>
  <marker id="DefaultArrow6" markerUnits="strokeWidth" viewBox="0 0 1 1" markerWidth="1" markerHeight="1" overflow="visible" orient="auto">
   <!-- REF_ARROW_DIAMOND -->
   <g transform="scale(0.0092592592)">
    <path d="M -63,0 L 0,63 L 63,0 L 0,-63 z"/>
   </g>
  </marker>
  <marker id="DefaultArrow7" markerUnits="strokeWidth" viewBox="0 0 1 1" markerWidth="1" markerHeight="1" overflow="visible" orient="auto">
   <!-- REF_ARROW_FEATHER -->
   <g transform="scale(0.0092592592)">
    <path d="M 18,-54 L 108,-54 L 63,0 L 108,54 L 18, 54 L -36,0 z"/>
   </g>
  </marker>
  <marker id="DefaultArrow8" markerUnits="strokeWidth" viewBox="0 0 1 1" markerWidth="1" markerHeight="1" overflow="visible" orient="auto">
   <!-- REF_ARROW_FEATHER2 -->
   <g transform="scale(0.0092592592)">
    <path d="M -36,0 L 18,-54 L 54,-54 L 18,-18 L 27,-18 L 63,-54 L 99,-54 L 63,-18 L 72,-18 L 108,-54 L 144,-54 L 90,0 L 144,54 L 108,54 L 72,18 L 63,18 L 99,54 L 63,54 L 27,18 L 18,18 L 54,54 L 18,54 z"/>
   </g>
  </marker>
  <marker id="DefaultArrow9" markerUnits="strokeWidth" viewBox="0 0 1 1" markerWidth="1" markerHeight="1" overflow="visible" orient="auto">
   <!-- REF_ARROW_HOLLOWDIAMOND -->
   <g transform="scale(0.0092592592)">
    <path d="M 0,45 L -45,0 L 0, -45 L 45, 0 z M 0, 63 L-63, 0 L 0, -63 L 63, 0 z"/>
   </g>
  </marker>
  <filter id="StainedFilter">
   <feBlend mode="multiply" in2="BackgroundImage" in="SourceGraphic" result="blend"/>
   <feComposite in="blend" in2="SourceAlpha" operator="in" result="comp"/>
  </filter>
  <filter id="BleachFilter">
   <feBlend mode="screen" in2="BackgroundImage" in="SourceGraphic" result="blend"/>
   <feComposite in="blend" in2="SourceAlpha" operator="in" result="comp"/>
  </filter>
  <filter id="InvertTransparencyBitmapFilter">
   <feComponentTransfer>
    <feFuncR type="gamma" amplitude="1.055" exponent=".416666666" offset="-0.055"/>
    <feFuncG type="gamma" amplitude="1.055" exponent=".416666666" offset="-0.055"/>
    <feFuncB type="gamma" amplitude="1.055" exponent=".416666666" offset="-0.055"/>
   </feComponentTransfer>
   <feComponentTransfer>
    <feFuncR type="linear" slope="-1" intercept="1"/>
    <feFuncG type="linear" slope="-1" intercept="1"/>
    <feFuncB type="linear" slope="-1" intercept="1"/>
    <feFuncA type="linear" slope="1" intercept="0"/>
   </feComponentTransfer>
   <feComponentTransfer>
    <feFuncR type="gamma" amplitude="1" exponent="2.4" offset="0"/>
    <feFuncG type="gamma" amplitude="1" exponent="2.4" offset="0"/>
    <feFuncB type="gamma" amplitude="1" exponent="2.4" offset="0"/>
   </feComponentTransfer>
  </filter>
 </defs>
 <g id="Document" fill="none" stroke="black" font-family="Times New Roman" font-size="16" transform="scale(1 -1)">
  <g id="Spread" transform="translate(0 -27)">
   <g id="Layer 1">
    <g id="Group" stroke="none">
     <path d="M -0.003,26.998 L -0.003,-0.001 L 33,-0.001 L 33,26.998 L -0.003,26.998 Z" stroke-linejoin="round" marker-start="none" marker-end="none"/>
     <path d="M 3.345,8.368 C 2.732,8.454 2.027,8.703 1.42,9.171 C 0.614,9.79 0.001,10.779 0.001,12.181 L 0.001,12.749 C -0.001,15.428 1.975,17.25 4.5,17.25 L 12.751,17.25 L 12.751,18.75 L 14.251,18.75 L 14.251,17.25 L 15.751,17.25 L 15.751,20.25 L 17.251,20.25 L 17.251,17.25 L 18.75,17.25 L 18.75,18.75 L 20.25,18.75 L 20.25,17.25 L 28.502,17.25 C 31.024,17.25 33.002,15.426 33.001,12.749 L 33.001,12.181 C 33.001,10.779 32.387,9.79 31.581,9.171 C 30.806,8.575 29.872,8.333 29.174,8.333 C 29.07,8.333 28.968,8.337 28.868,8.346 C 28.759,8.285 28.633,8.25 28.5,8.25 L 3.75,8.25 C 3.601,8.25 3.462,8.293 3.345,8.368 Z M 25.736,10.681 C 25.658,10.862 25.596,11.053 25.552,11.25 L 7.448,11.25 C 7.405,11.053 7.342,10.862 7.265,10.681 C 7.126,10.357 6.933,10.04 6.694,9.75 L 26.307,9.75 C 26.067,10.04 25.873,10.357 25.736,10.681 Z M 5.884,11.269 C 5.987,11.511 6.06,11.788 6.022,11.887 L 6,12 C 6,12.024 6.001,12.049 6.003,12.073 C 5.945,12.318 5.77,12.542 5.395,12.695 L 5.254,12.744 L 5.143,12.762 C 4.833,12.785 4.484,12.631 4.499,12.017 C 4.509,11.604 4.181,11.26 3.767,11.25 C 3.354,11.24 3.01,11.568 3,11.982 C 2.98,12.8 3.296,13.462 3.849,13.865 C 4.377,14.251 5.039,14.339 5.619,14.201 L 5.663,14.189 C 6.494,13.937 7.083,13.433 7.354,12.75 L 25.646,12.75 C 25.917,13.433 26.506,13.937 27.338,14.189 L 27.382,14.201 C 27.962,14.339 28.624,14.251 29.152,13.865 C 29.705,13.462 30.021,12.8 30.001,11.982 C 29.991,11.568 29.647,11.24 29.234,11.25 C 28.82,11.26 28.492,11.604 28.502,12.017 C 28.516,12.637 28.161,12.785 27.855,12.761 L 27.746,12.744 L 27.607,12.696 C 27.23,12.544 27.054,12.32 26.996,12.072 C 26.998,12.048 27,12.024 27,12 C 27,11.935 26.991,11.872 26.976,11.811 C 26.986,11.629 27.042,11.442 27.117,11.269 C 27.444,10.5 28.276,9.833 29.174,9.833 C 29.574,9.833 30.178,9.984 30.667,10.36 C 31.125,10.713 31.501,11.273 31.501,12.181 L 31.501,12.75 C 31.501,14.571 30.223,15.75 28.502,15.75 L 4.5,15.75 C 2.776,15.75 1.5,14.573 1.501,12.75 L 1.501,12.181 C 1.501,11.273 1.876,10.713 2.334,10.36 C 2.823,9.984 3.427,9.833 3.828,9.833 C 4.73,9.833 5.555,10.495 5.884,11.269 Z" stroke-width="0.5" fill="#bababa" fill-rule="evenodd" marker-start="none" marker-end="none" stroke-miterlimit="79.8403193612775"/>
    </g>
   </g>
  </g>
 </g>
</svg>
