<?xml version="1.0" standalone="no"?>
<!DOCTYPE svg PUBLIC "-//W3C//DTD SVG 1.1//EN" "http://www.w3.org/Graphics/SVG/1.1/DTD/svg11.dtd">
<!--Generator: Xara Designer (www.xara.com), SVG filter version: 4.0.0.1-->
<svg stroke-width="0.501" stroke-linejoin="bevel" fill-rule="evenodd" xmlns:xlink="http://www.w3.org/1999/xlink" xmlns="http://www.w3.org/2000/svg" version="1.1" overflow="visible" width="26.984pt" height="27pt" viewBox="0 0 26.984 27">
 <defs>
  <marker id="DefaultArrow2" markerUnits="strokeWidth" viewBox="0 0 1 1" markerWidth="1" markerHeight="1" overflow="visible" orient="auto">
   <!-- REF_ARROW_STRAIGHT (-2) -->
   <g transform="scale(0.0092592592)">
    <!-- 1/108 -->
    <path d="M -9 54 L -9 -54 L 117 0 z"/>
   </g>
  </marker>
  <marker id="DefaultArrow3" markerUnits="strokeWidth" viewBox="0 0 1 1" markerWidth="1" markerHeight="1" overflow="visible" orient="auto">
   <!-- REF_ARROW_ANGLED -->
   <g transform="scale(0.0092592592)">
    <path d="M -27 54 L -9 0 L -27 -54 L 135 0 z"/>
   </g>
  </marker>
  <marker id="DefaultArrow4" markerUnits="strokeWidth" viewBox="0 0 1 1" markerWidth="1" markerHeight="1" overflow="visible" orient="auto">
   <!-- REF_ARROW_ROUNDED -->
   <g transform="scale(0.0092592592)">
    <path d="M -9,0 L -9,-45 C -9,-51.708 2.808,-56.580 9,-54 L 117,-9 C 120.916,-7.369 126.000,-4.242 126,0 C 126,4.242 120.916,7.369 117,9 L 9,54 C 2.808,56.580 -9,51.708 -9,45 z"/>
   </g>
  </marker>
  <marker id="DefaultArrow5" markerUnits="strokeWidth" viewBox="0 0 1 1" markerWidth="1" markerHeight="1" overflow="visible" orient="auto">
   <!-- REF_ARROW_SPOT -->
   <g transform="scale(0.0092592592)">
    <path d="M -54, 0 C -54,29.807 -29.807,54 0,54 C 29.807,54 54,29.807 54,0 C 54,-29.807 29.807,-54 0,-54 C -29.807,-54 -54,-29.807 -54,0 z"/>
   </g>
  </marker>
  <marker id="DefaultArrow6" markerUnits="strokeWidth" viewBox="0 0 1 1" markerWidth="1" markerHeight="1" overflow="visible" orient="auto">
   <!-- REF_ARROW_DIAMOND -->
   <g transform="scale(0.0092592592)">
    <path d="M -63,0 L 0,63 L 63,0 L 0,-63 z"/>
   </g>
  </marker>
  <marker id="DefaultArrow7" markerUnits="strokeWidth" viewBox="0 0 1 1" markerWidth="1" markerHeight="1" overflow="visible" orient="auto">
   <!-- REF_ARROW_FEATHER -->
   <g transform="scale(0.0092592592)">
    <path d="M 18,-54 L 108,-54 L 63,0 L 108,54 L 18, 54 L -36,0 z"/>
   </g>
  </marker>
  <marker id="DefaultArrow8" markerUnits="strokeWidth" viewBox="0 0 1 1" markerWidth="1" markerHeight="1" overflow="visible" orient="auto">
   <!-- REF_ARROW_FEATHER2 -->
   <g transform="scale(0.0092592592)">
    <path d="M -36,0 L 18,-54 L 54,-54 L 18,-18 L 27,-18 L 63,-54 L 99,-54 L 63,-18 L 72,-18 L 108,-54 L 144,-54 L 90,0 L 144,54 L 108,54 L 72,18 L 63,18 L 99,54 L 63,54 L 27,18 L 18,18 L 54,54 L 18,54 z"/>
   </g>
  </marker>
  <marker id="DefaultArrow9" markerUnits="strokeWidth" viewBox="0 0 1 1" markerWidth="1" markerHeight="1" overflow="visible" orient="auto">
   <!-- REF_ARROW_HOLLOWDIAMOND -->
   <g transform="scale(0.0092592592)">
    <path d="M 0,45 L -45,0 L 0, -45 L 45, 0 z M 0, 63 L-63, 0 L 0, -63 L 63, 0 z"/>
   </g>
  </marker>
  <filter id="StainedFilter">
   <feBlend mode="multiply" in2="BackgroundImage" in="SourceGraphic" result="blend"/>
   <feComposite in="blend" in2="SourceAlpha" operator="in" result="comp"/>
  </filter>
  <filter id="BleachFilter">
   <feBlend mode="screen" in2="BackgroundImage" in="SourceGraphic" result="blend"/>
   <feComposite in="blend" in2="SourceAlpha" operator="in" result="comp"/>
  </filter>
  <filter id="InvertTransparencyBitmapFilter">
   <feComponentTransfer>
    <feFuncR type="gamma" amplitude="1.055" exponent=".416666666" offset="-0.055"/>
    <feFuncG type="gamma" amplitude="1.055" exponent=".416666666" offset="-0.055"/>
    <feFuncB type="gamma" amplitude="1.055" exponent=".416666666" offset="-0.055"/>
   </feComponentTransfer>
   <feComponentTransfer>
    <feFuncR type="linear" slope="-1" intercept="1"/>
    <feFuncG type="linear" slope="-1" intercept="1"/>
    <feFuncB type="linear" slope="-1" intercept="1"/>
    <feFuncA type="linear" slope="1" intercept="0"/>
   </feComponentTransfer>
   <feComponentTransfer>
    <feFuncR type="gamma" amplitude="1" exponent="2.4" offset="0"/>
    <feFuncG type="gamma" amplitude="1" exponent="2.4" offset="0"/>
    <feFuncB type="gamma" amplitude="1" exponent="2.4" offset="0"/>
   </feComponentTransfer>
  </filter>
 </defs>
 <g id="Document" fill="none" stroke="black" font-family="Times New Roman" font-size="16" transform="scale(1 -1)">
  <g id="Spread" transform="translate(0 -27)">
   <g id="Layer 1">
    <g id="Group" stroke-linejoin="round" stroke="none">
     <path d="M -0.001,26.998 L -0.001,-0.001 L 26.999,-0.001 L 26.999,26.998 L -0.001,26.998 Z" marker-start="none" marker-end="none"/>
     <path d="M 3.751,3 L 3.751,8.914 L 2.144,15.876 C 0.905,16.244 0.001,17.392 0.001,18.75 C 0.001,20.405 1.346,21.748 3.001,21.748 C 4.656,21.748 6.001,20.405 6.001,18.75 C 6.001,18.319 5.91,17.91 5.746,17.54 L 8.8,14.104 L 11.36,19.65 C 10.829,20.191 10.501,20.932 10.501,21.75 C 10.501,23.405 11.846,24.748 13.501,24.748 C 15.156,24.748 16.501,23.405 16.501,21.75 C 16.501,20.933 16.173,20.193 15.643,19.652 L 18.202,14.105 L 21.255,17.54 C 21.091,17.91 21.001,18.319 21.001,18.75 C 21.001,20.405 22.346,21.748 24.001,21.748 C 25.656,21.748 27.001,20.405 27.001,18.75 C 27.001,17.392 26.096,16.244 24.857,15.876 L 23.251,8.914 L 23.251,3 C 23.251,2.586 22.914,2.25 22.501,2.25 L 4.501,2.25 C 4.087,2.25 3.751,2.586 3.751,3 Z M 21.751,3.75 L 21.751,9 C 21.751,9.056 21.757,9.113 21.77,9.168 L 23.128,15.055 C 23.144,15.078 23.158,15.103 23.171,15.129 L 24.241,17.269 C 24.955,17.384 25.502,18.003 25.502,18.75 C 25.502,19.578 24.829,20.25 24.001,20.25 C 23.173,20.25 22.5,19.578 22.5,18.75 C 22.5,18.504 22.559,18.272 22.662,18.069 C 22.676,18.057 22.688,18.047 22.701,18.037 C 22.763,17.98 22.814,17.916 22.853,17.847 L 21.976,16.093 L 18.561,12.251 C 18.202,11.848 17.546,11.945 17.319,12.435 L 14.349,18.873 C 14.316,18.863 14.283,18.854 14.251,18.846 L 14.251,20.45 C 14.699,20.71 15.002,21.195 15.002,21.75 C 15.002,22.578 14.329,23.25 13.501,23.25 C 12.673,23.25 12,22.578 12,21.75 C 12,21.195 12.302,20.71 12.75,20.45 L 12.75,18.846 C 12.718,18.854 12.685,18.863 12.653,18.873 L 9.681,12.435 C 9.455,11.945 8.798,11.848 8.44,12.251 L 5.024,16.093 L 4.162,17.817 C 4.197,17.88 4.242,17.938 4.296,17.992 C 4.426,18.214 4.502,18.473 4.502,18.75 C 4.502,19.578 3.829,20.25 3.001,20.25 C 2.173,20.25 1.5,19.578 1.5,18.75 C 1.5,18.039 1.995,17.444 2.658,17.289 C 2.687,17.293 2.717,17.295 2.746,17.295 L 3.83,15.129 C 3.842,15.103 3.856,15.078 3.872,15.055 L 5.231,9.168 C 5.244,9.113 5.251,9.056 5.251,9 L 5.251,3.75 L 21.751,3.75 Z" fill="#bababa" marker-start="none" marker-end="none"/>
    </g>
   </g>
  </g>
 </g>
</svg>
