<?xml version="1.0" standalone="no"?>
<!DOCTYPE svg PUBLIC "-//W3C//DTD SVG 1.1//EN" "http://www.w3.org/Graphics/SVG/1.1/DTD/svg11.dtd">
<!--Generator: Xara Designer (www.xara.com), SVG filter version: 4.0.0.1-->
<svg stroke-width="0.501" stroke-linejoin="bevel" fill-rule="evenodd" xmlns:xlink="http://www.w3.org/1999/xlink" xmlns="http://www.w3.org/2000/svg" version="1.1" overflow="visible" width="26.99pt" height="27pt" viewBox="0 0 26.99 27">
 <defs>
  <marker id="DefaultArrow2" markerUnits="strokeWidth" viewBox="0 0 1 1" markerWidth="1" markerHeight="1" overflow="visible" orient="auto">
   <!-- REF_ARROW_STRAIGHT (-2) -->
   <g transform="scale(0.0092592592)">
    <!-- 1/108 -->
    <path d="M -9 54 L -9 -54 L 117 0 z"/>
   </g>
  </marker>
  <marker id="DefaultArrow3" markerUnits="strokeWidth" viewBox="0 0 1 1" markerWidth="1" markerHeight="1" overflow="visible" orient="auto">
   <!-- REF_ARROW_ANGLED -->
   <g transform="scale(0.0092592592)">
    <path d="M -27 54 L -9 0 L -27 -54 L 135 0 z"/>
   </g>
  </marker>
  <marker id="DefaultArrow4" markerUnits="strokeWidth" viewBox="0 0 1 1" markerWidth="1" markerHeight="1" overflow="visible" orient="auto">
   <!-- REF_ARROW_ROUNDED -->
   <g transform="scale(0.0092592592)">
    <path d="M -9,0 L -9,-45 C -9,-51.708 2.808,-56.580 9,-54 L 117,-9 C 120.916,-7.369 126.000,-4.242 126,0 C 126,4.242 120.916,7.369 117,9 L 9,54 C 2.808,56.580 -9,51.708 -9,45 z"/>
   </g>
  </marker>
  <marker id="DefaultArrow5" markerUnits="strokeWidth" viewBox="0 0 1 1" markerWidth="1" markerHeight="1" overflow="visible" orient="auto">
   <!-- REF_ARROW_SPOT -->
   <g transform="scale(0.0092592592)">
    <path d="M -54, 0 C -54,29.807 -29.807,54 0,54 C 29.807,54 54,29.807 54,0 C 54,-29.807 29.807,-54 0,-54 C -29.807,-54 -54,-29.807 -54,0 z"/>
   </g>
  </marker>
  <marker id="DefaultArrow6" markerUnits="strokeWidth" viewBox="0 0 1 1" markerWidth="1" markerHeight="1" overflow="visible" orient="auto">
   <!-- REF_ARROW_DIAMOND -->
   <g transform="scale(0.0092592592)">
    <path d="M -63,0 L 0,63 L 63,0 L 0,-63 z"/>
   </g>
  </marker>
  <marker id="DefaultArrow7" markerUnits="strokeWidth" viewBox="0 0 1 1" markerWidth="1" markerHeight="1" overflow="visible" orient="auto">
   <!-- REF_ARROW_FEATHER -->
   <g transform="scale(0.0092592592)">
    <path d="M 18,-54 L 108,-54 L 63,0 L 108,54 L 18, 54 L -36,0 z"/>
   </g>
  </marker>
  <marker id="DefaultArrow8" markerUnits="strokeWidth" viewBox="0 0 1 1" markerWidth="1" markerHeight="1" overflow="visible" orient="auto">
   <!-- REF_ARROW_FEATHER2 -->
   <g transform="scale(0.0092592592)">
    <path d="M -36,0 L 18,-54 L 54,-54 L 18,-18 L 27,-18 L 63,-54 L 99,-54 L 63,-18 L 72,-18 L 108,-54 L 144,-54 L 90,0 L 144,54 L 108,54 L 72,18 L 63,18 L 99,54 L 63,54 L 27,18 L 18,18 L 54,54 L 18,54 z"/>
   </g>
  </marker>
  <marker id="DefaultArrow9" markerUnits="strokeWidth" viewBox="0 0 1 1" markerWidth="1" markerHeight="1" overflow="visible" orient="auto">
   <!-- REF_ARROW_HOLLOWDIAMOND -->
   <g transform="scale(0.0092592592)">
    <path d="M 0,45 L -45,0 L 0, -45 L 45, 0 z M 0, 63 L-63, 0 L 0, -63 L 63, 0 z"/>
   </g>
  </marker>
  <filter id="StainedFilter">
   <feBlend mode="multiply" in2="BackgroundImage" in="SourceGraphic" result="blend"/>
   <feComposite in="blend" in2="SourceAlpha" operator="in" result="comp"/>
  </filter>
  <filter id="BleachFilter">
   <feBlend mode="screen" in2="BackgroundImage" in="SourceGraphic" result="blend"/>
   <feComposite in="blend" in2="SourceAlpha" operator="in" result="comp"/>
  </filter>
  <filter id="InvertTransparencyBitmapFilter">
   <feComponentTransfer>
    <feFuncR type="gamma" amplitude="1.055" exponent=".416666666" offset="-0.055"/>
    <feFuncG type="gamma" amplitude="1.055" exponent=".416666666" offset="-0.055"/>
    <feFuncB type="gamma" amplitude="1.055" exponent=".416666666" offset="-0.055"/>
   </feComponentTransfer>
   <feComponentTransfer>
    <feFuncR type="linear" slope="-1" intercept="1"/>
    <feFuncG type="linear" slope="-1" intercept="1"/>
    <feFuncB type="linear" slope="-1" intercept="1"/>
    <feFuncA type="linear" slope="1" intercept="0"/>
   </feComponentTransfer>
   <feComponentTransfer>
    <feFuncR type="gamma" amplitude="1" exponent="2.4" offset="0"/>
    <feFuncG type="gamma" amplitude="1" exponent="2.4" offset="0"/>
    <feFuncB type="gamma" amplitude="1" exponent="2.4" offset="0"/>
   </feComponentTransfer>
  </filter>
 </defs>
 <g id="Document" fill="none" stroke="black" font-family="Times New Roman" font-size="16" transform="scale(1 -1)">
  <g id="Spread" transform="translate(0 -27)">
   <g id="Layer 1">
    <g id="Group" stroke="none">
     <path d="M -0.001,26.998 L -0.001,-0.001 L 26.999,-0.001 L 26.999,26.998 L -0.001,26.998 Z" stroke-linejoin="round" marker-start="none" marker-end="none"/>
     <path d="M 6,0.75 L 6,3.75 C 6,4.596 5.725,5.035 5.539,5.179 L 5.469,5.241 C 4.206,6.504 3.75,8.942 3.75,10.5 L 3.75,21.75 C 3.75,22.59 4.387,23.16 5.079,23.24 C 5.135,23.246 5.192,23.25 5.25,23.25 L 7.5,23.25 C 8.192,23.25 8.739,22.788 8.927,22.208 C 8.974,22.063 9,21.908 9,21.75 L 9,12.75 C 9,12.336 8.663,12 8.25,12 C 7.836,12 7.5,12.336 7.5,12.75 L 7.498,21.748 L 5.25,21.75 L 5.25,10.5 C 5.25,9.148 5.646,7.369 6.379,6.469 L 6.518,6.314 L 6.583,6.259 C 7.184,5.713 7.5,4.802 7.5,3.75 L 7.5,0.75 C 7.5,0.336 7.163,0 6.75,0 C 6.336,0 6,0.336 6,0.75 Z M 17.456,0.233 C 17.064,0.645 16.64,1.062 16.34,1.469 C 16.017,1.907 15.773,2.413 15.773,3.052 C 15.773,3.5 15.821,3.994 16.126,4.507 C 16.417,4.998 16.897,5.428 17.601,5.885 C 19.526,7.049 20.11,8.464 20.226,10.391 L 20.229,10.5 L 10.5,10.5 C 10.086,10.5 9.75,10.836 9.75,11.25 C 9.75,11.663 10.086,12 10.5,12 L 21,12 C 21.413,12 21.75,11.663 21.75,11.25 C 21.75,8.573 21.193,6.305 18.398,4.614 C 17.794,4.223 17.536,3.943 17.415,3.741 C 17.309,3.562 17.273,3.381 17.273,3.052 C 17.273,2.836 17.343,2.636 17.547,2.359 C 17.774,2.051 18.089,1.744 18.543,1.266 C 18.828,0.966 18.816,0.491 18.516,0.206 C 18.216,-0.079 17.741,-0.067 17.456,0.233 Z M 9.75,13.5 C 9.75,13.913 10.086,14.25 10.5,14.25 L 21,14.25 C 21.413,14.25 21.75,13.913 21.75,13.5 C 21.75,13.086 21.413,12.75 21,12.75 L 10.5,12.75 C 10.086,12.75 9.75,13.086 9.75,13.5 Z M 18.001,20.629 C 18.001,21.361 18.301,22.024 18.785,22.502 C 18.303,22.973 18.004,23.628 18.004,24.356 C 18.004,25.799 19.185,26.959 20.626,26.959 C 22.066,26.959 23.248,25.799 23.248,24.356 C 23.248,23.628 22.947,22.973 22.465,22.502 C 22.95,22.024 23.251,21.361 23.251,20.629 C 23.251,19.18 22.076,18.001 20.626,18.001 C 19.175,18.001 18.001,19.18 18.001,20.629 Z M 12.086,18.935 C 11.8,19.235 11.811,19.71 12.111,19.995 C 12.411,20.281 12.886,20.27 13.171,19.97 C 13.445,19.683 13.828,19.507 14.254,19.507 C 15.079,19.507 15.75,20.177 15.75,21 C 15.75,21.822 15.079,22.493 14.254,22.493 C 13.938,22.493 13.646,22.395 13.405,22.228 C 13.325,22.173 13.24,22.136 13.151,22.115 C 13.035,22.041 12.898,21.999 12.751,21.999 C 12.337,21.999 12.001,22.335 12.001,22.749 L 12.001,26.25 C 12.001,26.663 12.337,27 12.751,27 L 16.501,27 C 16.914,27 17.251,26.663 17.251,26.25 C 17.251,25.836 16.914,25.5 16.501,25.5 L 13.501,25.5 L 13.5,23.896 C 13.741,23.959 13.994,23.993 14.254,23.993 C 15.906,23.993 17.25,22.653 17.25,21 C 17.25,19.346 15.906,18.007 14.254,18.007 C 13.401,18.007 12.63,18.364 12.086,18.935 Z M 21.751,20.629 C 21.751,21.224 21.288,21.712 20.712,21.754 C 20.679,21.753 20.652,21.753 20.626,21.753 C 20.599,21.753 20.572,21.753 20.539,21.754 C 19.963,21.712 19.501,21.224 19.501,20.629 C 19.501,20.005 20.006,19.501 20.626,19.501 C 21.245,19.501 21.751,20.005 21.751,20.629 Z M 20.626,23.257 C 20.652,23.257 20.679,23.256 20.711,23.255 C 21.293,23.296 21.748,23.781 21.748,24.356 C 21.748,24.956 21.251,25.459 20.626,25.459 C 20,25.459 19.504,24.956 19.504,24.356 C 19.504,23.781 19.957,23.296 20.54,23.255 C 20.572,23.256 20.599,23.257 20.626,23.257 Z" stroke-width="0.5" fill="#bababa" fill-rule="evenodd" marker-start="none" marker-end="none" stroke-miterlimit="79.8403193612775"/>
    </g>
   </g>
  </g>
 </g>
</svg>
