<?xml version="1.0" standalone="no"?>
<!DOCTYPE svg PUBLIC "-//W3C//DTD SVG 1.1//EN" "http://www.w3.org/Graphics/SVG/1.1/DTD/svg11.dtd">
<!--Generator: Xara Designer (www.xara.com), SVG filter version: 4.0.0.1-->
<svg stroke-width="0.501" stroke-linejoin="bevel" fill-rule="evenodd" xmlns:xlink="http://www.w3.org/1999/xlink" xmlns="http://www.w3.org/2000/svg" version="1.1" overflow="visible" width="26.99pt" height="27pt" viewBox="0 0 26.99 27">
 <defs>
  <marker id="DefaultArrow2" markerUnits="strokeWidth" viewBox="0 0 1 1" markerWidth="1" markerHeight="1" overflow="visible" orient="auto">
   <!-- REF_ARROW_STRAIGHT (-2) -->
   <g transform="scale(0.0092592592)">
    <!-- 1/108 -->
    <path d="M -9 54 L -9 -54 L 117 0 z"/>
   </g>
  </marker>
  <marker id="DefaultArrow3" markerUnits="strokeWidth" viewBox="0 0 1 1" markerWidth="1" markerHeight="1" overflow="visible" orient="auto">
   <!-- REF_ARROW_ANGLED -->
   <g transform="scale(0.0092592592)">
    <path d="M -27 54 L -9 0 L -27 -54 L 135 0 z"/>
   </g>
  </marker>
  <marker id="DefaultArrow4" markerUnits="strokeWidth" viewBox="0 0 1 1" markerWidth="1" markerHeight="1" overflow="visible" orient="auto">
   <!-- REF_ARROW_ROUNDED -->
   <g transform="scale(0.0092592592)">
    <path d="M -9,0 L -9,-45 C -9,-51.708 2.808,-56.580 9,-54 L 117,-9 C 120.916,-7.369 126.000,-4.242 126,0 C 126,4.242 120.916,7.369 117,9 L 9,54 C 2.808,56.580 -9,51.708 -9,45 z"/>
   </g>
  </marker>
  <marker id="DefaultArrow5" markerUnits="strokeWidth" viewBox="0 0 1 1" markerWidth="1" markerHeight="1" overflow="visible" orient="auto">
   <!-- REF_ARROW_SPOT -->
   <g transform="scale(0.0092592592)">
    <path d="M -54, 0 C -54,29.807 -29.807,54 0,54 C 29.807,54 54,29.807 54,0 C 54,-29.807 29.807,-54 0,-54 C -29.807,-54 -54,-29.807 -54,0 z"/>
   </g>
  </marker>
  <marker id="DefaultArrow6" markerUnits="strokeWidth" viewBox="0 0 1 1" markerWidth="1" markerHeight="1" overflow="visible" orient="auto">
   <!-- REF_ARROW_DIAMOND -->
   <g transform="scale(0.0092592592)">
    <path d="M -63,0 L 0,63 L 63,0 L 0,-63 z"/>
   </g>
  </marker>
  <marker id="DefaultArrow7" markerUnits="strokeWidth" viewBox="0 0 1 1" markerWidth="1" markerHeight="1" overflow="visible" orient="auto">
   <!-- REF_ARROW_FEATHER -->
   <g transform="scale(0.0092592592)">
    <path d="M 18,-54 L 108,-54 L 63,0 L 108,54 L 18, 54 L -36,0 z"/>
   </g>
  </marker>
  <marker id="DefaultArrow8" markerUnits="strokeWidth" viewBox="0 0 1 1" markerWidth="1" markerHeight="1" overflow="visible" orient="auto">
   <!-- REF_ARROW_FEATHER2 -->
   <g transform="scale(0.0092592592)">
    <path d="M -36,0 L 18,-54 L 54,-54 L 18,-18 L 27,-18 L 63,-54 L 99,-54 L 63,-18 L 72,-18 L 108,-54 L 144,-54 L 90,0 L 144,54 L 108,54 L 72,18 L 63,18 L 99,54 L 63,54 L 27,18 L 18,18 L 54,54 L 18,54 z"/>
   </g>
  </marker>
  <marker id="DefaultArrow9" markerUnits="strokeWidth" viewBox="0 0 1 1" markerWidth="1" markerHeight="1" overflow="visible" orient="auto">
   <!-- REF_ARROW_HOLLOWDIAMOND -->
   <g transform="scale(0.0092592592)">
    <path d="M 0,45 L -45,0 L 0, -45 L 45, 0 z M 0, 63 L-63, 0 L 0, -63 L 63, 0 z"/>
   </g>
  </marker>
  <filter id="StainedFilter">
   <feBlend mode="multiply" in2="BackgroundImage" in="SourceGraphic" result="blend"/>
   <feComposite in="blend" in2="SourceAlpha" operator="in" result="comp"/>
  </filter>
  <filter id="BleachFilter">
   <feBlend mode="screen" in2="BackgroundImage" in="SourceGraphic" result="blend"/>
   <feComposite in="blend" in2="SourceAlpha" operator="in" result="comp"/>
  </filter>
  <filter id="InvertTransparencyBitmapFilter">
   <feComponentTransfer>
    <feFuncR type="gamma" amplitude="1.055" exponent=".416666666" offset="-0.055"/>
    <feFuncG type="gamma" amplitude="1.055" exponent=".416666666" offset="-0.055"/>
    <feFuncB type="gamma" amplitude="1.055" exponent=".416666666" offset="-0.055"/>
   </feComponentTransfer>
   <feComponentTransfer>
    <feFuncR type="linear" slope="-1" intercept="1"/>
    <feFuncG type="linear" slope="-1" intercept="1"/>
    <feFuncB type="linear" slope="-1" intercept="1"/>
    <feFuncA type="linear" slope="1" intercept="0"/>
   </feComponentTransfer>
   <feComponentTransfer>
    <feFuncR type="gamma" amplitude="1" exponent="2.4" offset="0"/>
    <feFuncG type="gamma" amplitude="1" exponent="2.4" offset="0"/>
    <feFuncB type="gamma" amplitude="1" exponent="2.4" offset="0"/>
   </feComponentTransfer>
  </filter>
 </defs>
 <g id="Document" fill="none" stroke="black" font-family="Times New Roman" font-size="16" transform="scale(1 -1)">
  <g id="Spread" transform="translate(0 -27)">
   <g id="Layer 1">
    <g id="Group" stroke="none">
     <path d="M -0.001,26.998 L -0.001,-0.001 L 26.999,-0.001 L 26.999,26.998 L -0.001,26.998 Z" stroke-linejoin="round" marker-start="none" marker-end="none"/>
     <path d="M 6.219,3.219 L 3.219,6.219 C 2.926,6.512 2.926,6.987 3.219,7.28 C 3.512,7.573 3.987,7.573 4.28,7.28 L 6,5.56 L 6,11.25 C 6,11.663 6.336,12 6.75,12 C 7.163,12 7.5,11.663 7.5,11.25 L 7.5,5.56 L 9.219,7.28 C 9.512,7.573 9.987,7.573 10.28,7.28 C 10.573,6.987 10.573,6.512 10.28,6.219 L 7.28,3.219 C 6.987,2.926 6.512,2.926 6.219,3.219 Z M 12.047,9.16 C 11.411,9.946 10.927,10.868 10.525,11.705 C 10.507,11.402 10.5,11.013 10.5,10.5 C 10.5,10.086 10.163,9.75 9.75,9.75 C 9.336,9.75 9,10.086 9,10.5 C 9,11.066 9.009,11.518 9.033,11.884 C 9.058,12.247 9.1,12.554 9.177,12.822 C 9.257,13.105 9.372,13.331 9.524,13.538 C 9.596,13.636 9.672,13.723 9.746,13.802 C 9.818,13.879 9.896,13.957 9.97,14.03 C 10.01,14.07 10.054,14.105 10.056,14.104 C 10.119,14.146 10.138,14.156 10.158,14.167 C 10.186,14.181 10.214,14.193 10.226,14.198 C 10.24,14.203 10.237,14.202 10.34,14.232 C 10.302,14.226 10.373,14.242 10.473,14.244 L 10.613,14.227 C 10.542,14.254 10.639,14.242 10.754,14.199 C 10.596,14.249 10.692,14.23 10.869,14.135 C 10.821,14.183 10.907,14.136 11.003,14.046 C 10.872,14.157 10.957,14.102 11.03,14.029 C 11.07,13.988 11.105,13.944 11.104,13.942 C 11.146,13.879 11.156,13.86 11.167,13.841 C 11.812,12.578 12.302,11.232 13.214,10.102 C 14.066,9.047 15.252,8.25 17.25,8.25 C 21.166,8.25 23.25,12.257 23.25,16.5 L 23.25,22.5 C 23.25,22.913 23.586,23.25 24,23.25 C 24.413,23.25 24.75,22.913 24.75,22.5 L 24.75,16.5 C 24.75,11.717 22.314,6.75 17.25,6.75 C 14.747,6.75 13.149,7.795 12.047,9.16 Z M 3.008,10.498 L 3,14.999 C 3,20.587 6.439,24 10.5,24 C 12.524,24 14.473,23.173 15.75,21.842 L 15.75,23.25 C 15.75,23.663 16.086,24 16.5,24 C 16.913,24 17.25,23.663 17.25,23.25 L 17.25,18.75 C 17.25,18.695 17.244,18.642 17.233,18.591 C 17.239,18.489 17.242,18.387 17.242,18.284 C 17.241,17.87 16.905,17.534 16.491,17.536 C 16.077,17.537 15.741,17.873 15.743,18.287 C 15.748,20.471 13.393,22.5 10.5,22.5 C 7.424,22.5 4.5,19.925 4.5,15 L 4.507,10.501 C 4.508,10.087 4.173,9.75 3.759,9.75 C 3.345,9.749 3.008,10.084 3.008,10.498 Z" stroke-width="0.5" fill="#bababa" fill-rule="evenodd" marker-start="none" marker-end="none" stroke-miterlimit="79.8403193612775"/>
    </g>
   </g>
  </g>
 </g>
</svg>
