<?xml version="1.0" standalone="no"?>
<!DOCTYPE svg PUBLIC "-//W3C//DTD SVG 1.1//EN" "http://www.w3.org/Graphics/SVG/1.1/DTD/svg11.dtd">
<!--Generator: Xara Designer (www.xara.com), SVG filter version: 4.0.0.1-->
<svg stroke-width="0.501" stroke-linejoin="bevel" fill-rule="evenodd" xmlns:xlink="http://www.w3.org/1999/xlink" xmlns="http://www.w3.org/2000/svg" version="1.1" overflow="visible" width="26.99pt" height="27pt" viewBox="0 0 26.99 27">
 <defs>
  <marker id="DefaultArrow2" markerUnits="strokeWidth" viewBox="0 0 1 1" markerWidth="1" markerHeight="1" overflow="visible" orient="auto">
   <!-- REF_ARROW_STRAIGHT (-2) -->
   <g transform="scale(0.0092592592)">
    <!-- 1/108 -->
    <path d="M -9 54 L -9 -54 L 117 0 z"/>
   </g>
  </marker>
  <marker id="DefaultArrow3" markerUnits="strokeWidth" viewBox="0 0 1 1" markerWidth="1" markerHeight="1" overflow="visible" orient="auto">
   <!-- REF_ARROW_ANGLED -->
   <g transform="scale(0.0092592592)">
    <path d="M -27 54 L -9 0 L -27 -54 L 135 0 z"/>
   </g>
  </marker>
  <marker id="DefaultArrow4" markerUnits="strokeWidth" viewBox="0 0 1 1" markerWidth="1" markerHeight="1" overflow="visible" orient="auto">
   <!-- REF_ARROW_ROUNDED -->
   <g transform="scale(0.0092592592)">
    <path d="M -9,0 L -9,-45 C -9,-51.708 2.808,-56.580 9,-54 L 117,-9 C 120.916,-7.369 126.000,-4.242 126,0 C 126,4.242 120.916,7.369 117,9 L 9,54 C 2.808,56.580 -9,51.708 -9,45 z"/>
   </g>
  </marker>
  <marker id="DefaultArrow5" markerUnits="strokeWidth" viewBox="0 0 1 1" markerWidth="1" markerHeight="1" overflow="visible" orient="auto">
   <!-- REF_ARROW_SPOT -->
   <g transform="scale(0.0092592592)">
    <path d="M -54, 0 C -54,29.807 -29.807,54 0,54 C 29.807,54 54,29.807 54,0 C 54,-29.807 29.807,-54 0,-54 C -29.807,-54 -54,-29.807 -54,0 z"/>
   </g>
  </marker>
  <marker id="DefaultArrow6" markerUnits="strokeWidth" viewBox="0 0 1 1" markerWidth="1" markerHeight="1" overflow="visible" orient="auto">
   <!-- REF_ARROW_DIAMOND -->
   <g transform="scale(0.0092592592)">
    <path d="M -63,0 L 0,63 L 63,0 L 0,-63 z"/>
   </g>
  </marker>
  <marker id="DefaultArrow7" markerUnits="strokeWidth" viewBox="0 0 1 1" markerWidth="1" markerHeight="1" overflow="visible" orient="auto">
   <!-- REF_ARROW_FEATHER -->
   <g transform="scale(0.0092592592)">
    <path d="M 18,-54 L 108,-54 L 63,0 L 108,54 L 18, 54 L -36,0 z"/>
   </g>
  </marker>
  <marker id="DefaultArrow8" markerUnits="strokeWidth" viewBox="0 0 1 1" markerWidth="1" markerHeight="1" overflow="visible" orient="auto">
   <!-- REF_ARROW_FEATHER2 -->
   <g transform="scale(0.0092592592)">
    <path d="M -36,0 L 18,-54 L 54,-54 L 18,-18 L 27,-18 L 63,-54 L 99,-54 L 63,-18 L 72,-18 L 108,-54 L 144,-54 L 90,0 L 144,54 L 108,54 L 72,18 L 63,18 L 99,54 L 63,54 L 27,18 L 18,18 L 54,54 L 18,54 z"/>
   </g>
  </marker>
  <marker id="DefaultArrow9" markerUnits="strokeWidth" viewBox="0 0 1 1" markerWidth="1" markerHeight="1" overflow="visible" orient="auto">
   <!-- REF_ARROW_HOLLOWDIAMOND -->
   <g transform="scale(0.0092592592)">
    <path d="M 0,45 L -45,0 L 0, -45 L 45, 0 z M 0, 63 L-63, 0 L 0, -63 L 63, 0 z"/>
   </g>
  </marker>
  <filter id="StainedFilter">
   <feBlend mode="multiply" in2="BackgroundImage" in="SourceGraphic" result="blend"/>
   <feComposite in="blend" in2="SourceAlpha" operator="in" result="comp"/>
  </filter>
  <filter id="BleachFilter">
   <feBlend mode="screen" in2="BackgroundImage" in="SourceGraphic" result="blend"/>
   <feComposite in="blend" in2="SourceAlpha" operator="in" result="comp"/>
  </filter>
  <filter id="InvertTransparencyBitmapFilter">
   <feComponentTransfer>
    <feFuncR type="gamma" amplitude="1.055" exponent=".416666666" offset="-0.055"/>
    <feFuncG type="gamma" amplitude="1.055" exponent=".416666666" offset="-0.055"/>
    <feFuncB type="gamma" amplitude="1.055" exponent=".416666666" offset="-0.055"/>
   </feComponentTransfer>
   <feComponentTransfer>
    <feFuncR type="linear" slope="-1" intercept="1"/>
    <feFuncG type="linear" slope="-1" intercept="1"/>
    <feFuncB type="linear" slope="-1" intercept="1"/>
    <feFuncA type="linear" slope="1" intercept="0"/>
   </feComponentTransfer>
   <feComponentTransfer>
    <feFuncR type="gamma" amplitude="1" exponent="2.4" offset="0"/>
    <feFuncG type="gamma" amplitude="1" exponent="2.4" offset="0"/>
    <feFuncB type="gamma" amplitude="1" exponent="2.4" offset="0"/>
   </feComponentTransfer>
  </filter>
 </defs>
 <g id="Document" fill="none" stroke="black" font-family="Times New Roman" font-size="16" transform="scale(1 -1)">
  <g id="Spread" transform="translate(0 -27)">
   <g id="Layer 1">
    <g id="Group" stroke="none">
     <path d="M -0.001,26.998 L -0.001,-0.001 L 26.999,-0.001 L 26.999,26.998 L -0.001,26.998 Z" stroke-linejoin="round" marker-start="none" marker-end="none"/>
     <path d="M 22.719,0.219 L 21.209,1.729 C 20.354,2.651 19.642,3.583 19.529,4.455 C 19.463,4.969 19.518,5.489 19.848,6.016 C 20.153,6.503 20.656,6.934 21.351,7.385 C 23.537,8.707 24.611,10.314 24.737,12.339 L 24.747,12.749 L 18.75,12.75 C 18.336,12.75 18,13.086 18,13.5 C 18,13.913 18.336,14.25 18.75,14.25 L 24.75,14.25 C 24.801,14.25 24.853,14.247 24.904,14.241 C 25.167,14.214 25.432,14.115 25.66,13.946 C 25.912,13.757 26.12,13.476 26.206,13.118 C 26.235,12.998 26.25,12.875 26.25,12.75 C 26.25,9.91 24.815,7.727 22.148,6.114 C 21.535,5.717 21.251,5.43 21.119,5.22 C 21.013,5.051 20.984,4.897 21.016,4.648 C 21.057,4.338 21.396,3.734 22.29,2.77 L 23.78,1.28 C 24.073,0.987 24.073,0.512 23.78,0.219 C 23.487,-0.074 23.012,-0.074 22.719,0.219 Z M 6.391,0.091 C 6.027,0.289 5.893,0.745 6.091,1.108 L 7.682,4.03 C 8.134,4.935 8.266,5.258 8.268,5.522 C 8.269,5.692 8.213,5.972 7.507,6.503 L 7.47,6.532 L 5.516,8.198 C 3.209,10.119 2.25,11.671 2.25,13.5 L 2.25,25.5 C 2.25,26.346 2.898,26.911 3.579,26.99 C 3.635,26.996 3.692,27 3.75,27 L 9,27 C 9.692,27 10.239,26.538 10.427,25.958 C 10.474,25.813 10.5,25.658 10.5,25.5 L 10.5,14.25 L 12,14.25 C 12.413,14.25 12.75,13.913 12.75,13.5 C 12.75,13.086 12.413,12.75 12,12.75 L 9.75,12.75 C 9.336,12.75 9,13.086 9,13.5 L 9,25.5 L 3.75,25.5 L 3.75,13.5 C 3.75,12.33 4.296,11.166 6.483,9.345 L 8.419,7.692 L 8.711,7.459 C 9.383,6.886 9.773,6.27 9.768,5.511 C 9.765,5.115 9.653,4.744 9.517,4.405 C 9.382,4.07 9.198,3.709 9.011,3.335 L 7.408,0.391 C 7.21,0.027 6.754,-0.107 6.391,0.091 Z M 14.254,10.582 C 14.375,11.667 14.595,12.698 14.898,13.657 C 15.023,14.051 15.445,14.27 15.84,14.145 C 16.235,14.02 16.453,13.598 16.328,13.204 C 16.055,12.34 15.855,11.406 15.745,10.417 C 15.699,10.005 15.328,9.708 14.917,9.754 C 14.505,9.8 14.208,10.171 14.254,10.582 Z M 11.25,15.75 L 11.25,26.25 C 11.25,26.663 11.586,27 12,27 C 12.413,27 12.75,26.663 12.75,26.25 L 12.75,15.75 C 12.75,15.336 12.413,15 12,15 C 11.586,15 11.25,15.336 11.25,15.75 Z M 16.445,15.52 C 16.09,15.733 15.974,16.194 16.187,16.549 C 16.771,17.523 17.46,18.366 18.228,19.039 C 18.539,19.312 19.013,19.281 19.286,18.97 C 19.559,18.659 19.528,18.184 19.217,17.911 C 18.58,17.353 17.987,16.635 17.474,15.778 C 17.261,15.423 16.8,15.308 16.445,15.52 Z M 24.001,19.015 C 23.169,19.339 22.329,19.377 21.511,19.173 C 21.11,19.072 20.702,19.316 20.602,19.718 C 20.501,20.12 20.745,20.527 21.147,20.628 C 22.257,20.906 23.416,20.853 24.546,20.412 C 24.932,20.261 25.123,19.826 24.972,19.44 C 24.821,19.055 24.386,18.864 24.001,19.015 Z" stroke-width="0.5" fill="#bababa" fill-rule="evenodd" marker-start="none" marker-end="none" stroke-miterlimit="79.8403193612775"/>
    </g>
   </g>
  </g>
 </g>
</svg>
