<?xml version="1.0" standalone="no"?>
<!DOCTYPE svg PUBLIC "-//W3C//DTD SVG 1.1//EN" "http://www.w3.org/Graphics/SVG/1.1/DTD/svg11.dtd">
<!--Generator: Xara Designer (www.xara.com), SVG filter version: 4.0.0.1-->
<svg stroke-width="0.501" stroke-linejoin="bevel" fill-rule="evenodd" xmlns:xlink="http://www.w3.org/1999/xlink" xmlns="http://www.w3.org/2000/svg" version="1.1" overflow="visible" width="26.99pt" height="27pt" viewBox="0 0 26.99 27">
 <defs>
  <marker id="DefaultArrow2" markerUnits="strokeWidth" viewBox="0 0 1 1" markerWidth="1" markerHeight="1" overflow="visible" orient="auto">
   <!-- REF_ARROW_STRAIGHT (-2) -->
   <g transform="scale(0.0092592592)">
    <!-- 1/108 -->
    <path d="M -9 54 L -9 -54 L 117 0 z"/>
   </g>
  </marker>
  <marker id="DefaultArrow3" markerUnits="strokeWidth" viewBox="0 0 1 1" markerWidth="1" markerHeight="1" overflow="visible" orient="auto">
   <!-- REF_ARROW_ANGLED -->
   <g transform="scale(0.0092592592)">
    <path d="M -27 54 L -9 0 L -27 -54 L 135 0 z"/>
   </g>
  </marker>
  <marker id="DefaultArrow4" markerUnits="strokeWidth" viewBox="0 0 1 1" markerWidth="1" markerHeight="1" overflow="visible" orient="auto">
   <!-- REF_ARROW_ROUNDED -->
   <g transform="scale(0.0092592592)">
    <path d="M -9,0 L -9,-45 C -9,-51.708 2.808,-56.580 9,-54 L 117,-9 C 120.916,-7.369 126.000,-4.242 126,0 C 126,4.242 120.916,7.369 117,9 L 9,54 C 2.808,56.580 -9,51.708 -9,45 z"/>
   </g>
  </marker>
  <marker id="DefaultArrow5" markerUnits="strokeWidth" viewBox="0 0 1 1" markerWidth="1" markerHeight="1" overflow="visible" orient="auto">
   <!-- REF_ARROW_SPOT -->
   <g transform="scale(0.0092592592)">
    <path d="M -54, 0 C -54,29.807 -29.807,54 0,54 C 29.807,54 54,29.807 54,0 C 54,-29.807 29.807,-54 0,-54 C -29.807,-54 -54,-29.807 -54,0 z"/>
   </g>
  </marker>
  <marker id="DefaultArrow6" markerUnits="strokeWidth" viewBox="0 0 1 1" markerWidth="1" markerHeight="1" overflow="visible" orient="auto">
   <!-- REF_ARROW_DIAMOND -->
   <g transform="scale(0.0092592592)">
    <path d="M -63,0 L 0,63 L 63,0 L 0,-63 z"/>
   </g>
  </marker>
  <marker id="DefaultArrow7" markerUnits="strokeWidth" viewBox="0 0 1 1" markerWidth="1" markerHeight="1" overflow="visible" orient="auto">
   <!-- REF_ARROW_FEATHER -->
   <g transform="scale(0.0092592592)">
    <path d="M 18,-54 L 108,-54 L 63,0 L 108,54 L 18, 54 L -36,0 z"/>
   </g>
  </marker>
  <marker id="DefaultArrow8" markerUnits="strokeWidth" viewBox="0 0 1 1" markerWidth="1" markerHeight="1" overflow="visible" orient="auto">
   <!-- REF_ARROW_FEATHER2 -->
   <g transform="scale(0.0092592592)">
    <path d="M -36,0 L 18,-54 L 54,-54 L 18,-18 L 27,-18 L 63,-54 L 99,-54 L 63,-18 L 72,-18 L 108,-54 L 144,-54 L 90,0 L 144,54 L 108,54 L 72,18 L 63,18 L 99,54 L 63,54 L 27,18 L 18,18 L 54,54 L 18,54 z"/>
   </g>
  </marker>
  <marker id="DefaultArrow9" markerUnits="strokeWidth" viewBox="0 0 1 1" markerWidth="1" markerHeight="1" overflow="visible" orient="auto">
   <!-- REF_ARROW_HOLLOWDIAMOND -->
   <g transform="scale(0.0092592592)">
    <path d="M 0,45 L -45,0 L 0, -45 L 45, 0 z M 0, 63 L-63, 0 L 0, -63 L 63, 0 z"/>
   </g>
  </marker>
  <filter id="StainedFilter">
   <feBlend mode="multiply" in2="BackgroundImage" in="SourceGraphic" result="blend"/>
   <feComposite in="blend" in2="SourceAlpha" operator="in" result="comp"/>
  </filter>
  <filter id="BleachFilter">
   <feBlend mode="screen" in2="BackgroundImage" in="SourceGraphic" result="blend"/>
   <feComposite in="blend" in2="SourceAlpha" operator="in" result="comp"/>
  </filter>
  <filter id="InvertTransparencyBitmapFilter">
   <feComponentTransfer>
    <feFuncR type="gamma" amplitude="1.055" exponent=".416666666" offset="-0.055"/>
    <feFuncG type="gamma" amplitude="1.055" exponent=".416666666" offset="-0.055"/>
    <feFuncB type="gamma" amplitude="1.055" exponent=".416666666" offset="-0.055"/>
   </feComponentTransfer>
   <feComponentTransfer>
    <feFuncR type="linear" slope="-1" intercept="1"/>
    <feFuncG type="linear" slope="-1" intercept="1"/>
    <feFuncB type="linear" slope="-1" intercept="1"/>
    <feFuncA type="linear" slope="1" intercept="0"/>
   </feComponentTransfer>
   <feComponentTransfer>
    <feFuncR type="gamma" amplitude="1" exponent="2.4" offset="0"/>
    <feFuncG type="gamma" amplitude="1" exponent="2.4" offset="0"/>
    <feFuncB type="gamma" amplitude="1" exponent="2.4" offset="0"/>
   </feComponentTransfer>
  </filter>
 </defs>
 <g id="Document" fill="none" stroke="black" font-family="Times New Roman" font-size="16" transform="scale(1 -1)">
  <g id="Spread" transform="translate(0 -27)">
   <g id="Layer 1">
    <g id="Group" stroke="none">
     <path d="M -0.001,26.998 L -0.001,-0.001 L 26.999,-0.001 L 26.999,26.998 L -0.001,26.998 Z" stroke-linejoin="round" marker-start="none" marker-end="none"/>
     <path d="M 0,0.75 L 0,26.25 C 0,26.663 0.336,27 0.75,27 L 18.75,27 C 19.163,27 19.5,26.663 19.5,26.25 L 19.499,25.458 C 19.746,25.485 19.996,25.5 20.25,25.5 C 23.976,25.5 27,22.476 27,18.75 C 27,15.023 23.976,12 20.25,12 C 19.996,12 19.746,12.013 19.499,12.041 L 19.5,0.75 C 19.5,0.336 19.163,0 18.75,0 L 16.5,0 C 16.086,0 15.75,0.336 15.75,0.75 C 15.75,1.163 16.086,1.5 16.5,1.5 L 18,1.5 L 18,3.75 L 9.869,3.75 C 9.841,3.748 9.813,3.747 9.786,3.746 C 9.773,3.745 9.761,3.745 9.749,3.745 C 9.737,3.745 9.725,3.745 9.713,3.746 C 9.685,3.747 9.657,3.748 9.629,3.75 L 1.5,3.75 L 1.5,1.5 L 3,1.5 C 3.413,1.5 3.75,1.163 3.75,0.75 C 3.75,0.336 3.413,0 3,0 L 0.75,0 C 0.336,0 0,0.336 0,0.75 Z M 5.314,5.977 C 4.96,6.624 4.758,7.393 4.643,8.25 L 1.5,8.25 L 1.5,5.25 L 5.821,5.25 C 5.627,5.469 5.458,5.712 5.314,5.977 Z M 11.835,5.701 C 12.307,5.938 12.632,6.263 12.868,6.696 C 13.305,7.495 13.461,8.683 13.493,10.457 L 13.493,10.504 L 6.005,10.504 L 6.006,10.462 C 6.037,8.698 6.19,7.501 6.631,6.696 C 6.867,6.263 7.192,5.938 7.664,5.701 C 8.131,5.466 8.774,5.304 9.669,5.25 L 9.828,5.25 C 10.723,5.304 11.366,5.466 11.835,5.701 Z M 18,5.25 L 18,8.25 L 14.855,8.25 C 14.741,7.391 14.538,6.623 14.185,5.977 C 14.04,5.712 13.871,5.469 13.677,5.25 L 18,5.25 Z M 4.5,11.254 C 4.5,11.667 4.836,12.004 5.25,12.004 L 7.5,12.004 L 7.5,15 L 3.75,15 C 3.336,15 3,15.336 3,15.75 L 3,23.25 C 3,23.663 3.336,24 3.75,24 L 15.75,24 C 15.825,24 15.899,23.988 15.968,23.967 C 16.567,24.459 17.253,24.851 17.999,25.115 L 18,25.5 L 1.5,25.5 L 1.5,9.75 L 4.523,9.75 C 4.505,10.234 4.5,10.737 4.5,11.254 Z M 18,9.75 L 17.999,12.383 C 16.616,12.872 15.439,13.8 14.637,15 L 12,15 L 12,12.004 L 14.25,12.004 C 14.663,12.004 15,11.667 15,11.254 C 15,10.735 14.994,10.233 14.975,9.75 L 18,9.75 Z M 10.5,12.004 L 10.5,15.75 C 10.5,16.163 10.836,16.5 11.25,16.5 L 13.884,16.5 C 13.635,17.203 13.5,17.961 13.5,18.75 C 13.5,20.137 13.919,21.427 14.637,22.5 L 4.5,22.5 L 4.5,16.5 L 8.25,16.5 C 8.663,16.5 9,16.163 9,15.75 L 9,12.004 L 10.5,12.004 Z M 25.5,18.75 C 25.5,21.647 23.147,24 20.25,24 C 17.352,24 15,21.647 15,18.75 C 15,15.852 17.352,13.5 20.25,13.5 C 23.147,13.5 25.5,15.852 25.5,18.75 Z M 18.969,16.719 L 17.469,18.219 C 17.176,18.512 17.176,18.987 17.469,19.28 C 17.762,19.573 18.237,19.573 18.53,19.28 L 19.5,18.31 L 21.969,20.78 C 22.262,21.073 22.737,21.073 23.03,20.78 C 23.323,20.487 23.323,20.012 23.03,19.719 L 20.03,16.719 C 19.737,16.426 19.262,16.426 18.969,16.719 Z M 6,19.5 C 6,19.913 6.336,20.25 6.75,20.25 L 8.25,20.25 C 8.663,20.25 9,19.913 9,19.5 C 9,19.086 8.663,18.75 8.25,18.75 L 6.75,18.75 C 6.336,18.75 6,19.086 6,19.5 Z M 10.5,19.5 C 10.5,19.913 10.836,20.25 11.25,20.25 L 12.75,20.25 C 13.163,20.25 13.5,19.913 13.5,19.5 C 13.5,19.086 13.163,18.75 12.75,18.75 L 11.25,18.75 C 10.836,18.75 10.5,19.086 10.5,19.5 Z" stroke-width="0.5" fill="#bababa" fill-rule="evenodd" marker-start="none" marker-end="none" stroke-miterlimit="79.8403193612775"/>
    </g>
   </g>
  </g>
 </g>
</svg>
