<?xml version="1.0" standalone="no"?>
<!DOCTYPE svg PUBLIC "-//W3C//DTD SVG 1.1//EN" "http://www.w3.org/Graphics/SVG/1.1/DTD/svg11.dtd">
<!--Generator: Xara Designer (www.xara.com), SVG filter version: 4.0.0.1-->
<svg stroke-width="0.501" stroke-linejoin="bevel" fill-rule="evenodd" xmlns:xlink="http://www.w3.org/1999/xlink" xmlns="http://www.w3.org/2000/svg" version="1.1" overflow="visible" width="26.99pt" height="27pt" viewBox="0 0 26.99 27">
 <defs>
  <marker id="DefaultArrow2" markerUnits="strokeWidth" viewBox="0 0 1 1" markerWidth="1" markerHeight="1" overflow="visible" orient="auto">
   <!-- REF_ARROW_STRAIGHT (-2) -->
   <g transform="scale(0.0092592592)">
    <!-- 1/108 -->
    <path d="M -9 54 L -9 -54 L 117 0 z"/>
   </g>
  </marker>
  <marker id="DefaultArrow3" markerUnits="strokeWidth" viewBox="0 0 1 1" markerWidth="1" markerHeight="1" overflow="visible" orient="auto">
   <!-- REF_ARROW_ANGLED -->
   <g transform="scale(0.0092592592)">
    <path d="M -27 54 L -9 0 L -27 -54 L 135 0 z"/>
   </g>
  </marker>
  <marker id="DefaultArrow4" markerUnits="strokeWidth" viewBox="0 0 1 1" markerWidth="1" markerHeight="1" overflow="visible" orient="auto">
   <!-- REF_ARROW_ROUNDED -->
   <g transform="scale(0.0092592592)">
    <path d="M -9,0 L -9,-45 C -9,-51.708 2.808,-56.580 9,-54 L 117,-9 C 120.916,-7.369 126.000,-4.242 126,0 C 126,4.242 120.916,7.369 117,9 L 9,54 C 2.808,56.580 -9,51.708 -9,45 z"/>
   </g>
  </marker>
  <marker id="DefaultArrow5" markerUnits="strokeWidth" viewBox="0 0 1 1" markerWidth="1" markerHeight="1" overflow="visible" orient="auto">
   <!-- REF_ARROW_SPOT -->
   <g transform="scale(0.0092592592)">
    <path d="M -54, 0 C -54,29.807 -29.807,54 0,54 C 29.807,54 54,29.807 54,0 C 54,-29.807 29.807,-54 0,-54 C -29.807,-54 -54,-29.807 -54,0 z"/>
   </g>
  </marker>
  <marker id="DefaultArrow6" markerUnits="strokeWidth" viewBox="0 0 1 1" markerWidth="1" markerHeight="1" overflow="visible" orient="auto">
   <!-- REF_ARROW_DIAMOND -->
   <g transform="scale(0.0092592592)">
    <path d="M -63,0 L 0,63 L 63,0 L 0,-63 z"/>
   </g>
  </marker>
  <marker id="DefaultArrow7" markerUnits="strokeWidth" viewBox="0 0 1 1" markerWidth="1" markerHeight="1" overflow="visible" orient="auto">
   <!-- REF_ARROW_FEATHER -->
   <g transform="scale(0.0092592592)">
    <path d="M 18,-54 L 108,-54 L 63,0 L 108,54 L 18, 54 L -36,0 z"/>
   </g>
  </marker>
  <marker id="DefaultArrow8" markerUnits="strokeWidth" viewBox="0 0 1 1" markerWidth="1" markerHeight="1" overflow="visible" orient="auto">
   <!-- REF_ARROW_FEATHER2 -->
   <g transform="scale(0.0092592592)">
    <path d="M -36,0 L 18,-54 L 54,-54 L 18,-18 L 27,-18 L 63,-54 L 99,-54 L 63,-18 L 72,-18 L 108,-54 L 144,-54 L 90,0 L 144,54 L 108,54 L 72,18 L 63,18 L 99,54 L 63,54 L 27,18 L 18,18 L 54,54 L 18,54 z"/>
   </g>
  </marker>
  <marker id="DefaultArrow9" markerUnits="strokeWidth" viewBox="0 0 1 1" markerWidth="1" markerHeight="1" overflow="visible" orient="auto">
   <!-- REF_ARROW_HOLLOWDIAMOND -->
   <g transform="scale(0.0092592592)">
    <path d="M 0,45 L -45,0 L 0, -45 L 45, 0 z M 0, 63 L-63, 0 L 0, -63 L 63, 0 z"/>
   </g>
  </marker>
  <filter id="StainedFilter">
   <feBlend mode="multiply" in2="BackgroundImage" in="SourceGraphic" result="blend"/>
   <feComposite in="blend" in2="SourceAlpha" operator="in" result="comp"/>
  </filter>
  <filter id="BleachFilter">
   <feBlend mode="screen" in2="BackgroundImage" in="SourceGraphic" result="blend"/>
   <feComposite in="blend" in2="SourceAlpha" operator="in" result="comp"/>
  </filter>
  <filter id="InvertTransparencyBitmapFilter">
   <feComponentTransfer>
    <feFuncR type="gamma" amplitude="1.055" exponent=".416666666" offset="-0.055"/>
    <feFuncG type="gamma" amplitude="1.055" exponent=".416666666" offset="-0.055"/>
    <feFuncB type="gamma" amplitude="1.055" exponent=".416666666" offset="-0.055"/>
   </feComponentTransfer>
   <feComponentTransfer>
    <feFuncR type="linear" slope="-1" intercept="1"/>
    <feFuncG type="linear" slope="-1" intercept="1"/>
    <feFuncB type="linear" slope="-1" intercept="1"/>
    <feFuncA type="linear" slope="1" intercept="0"/>
   </feComponentTransfer>
   <feComponentTransfer>
    <feFuncR type="gamma" amplitude="1" exponent="2.4" offset="0"/>
    <feFuncG type="gamma" amplitude="1" exponent="2.4" offset="0"/>
    <feFuncB type="gamma" amplitude="1" exponent="2.4" offset="0"/>
   </feComponentTransfer>
  </filter>
 </defs>
 <g id="Document" fill="none" stroke="black" font-family="Times New Roman" font-size="16" transform="scale(1 -1)">
  <g id="Spread" transform="translate(0 -27)">
   <g id="Layer 1">
    <g id="Group" stroke-linejoin="round" stroke="none">
     <path d="M -0.001,26.998 L -0.001,-0.001 L 26.999,-0.001 L 26.999,26.998 L -0.001,26.998 Z" marker-start="none" marker-end="none"/>
     <path d="M 10.156,0.041 C 9.765,0.176 9.557,0.604 9.693,0.995 L 10.287,2.711 C 10.357,2.932 10.411,3.1 10.449,3.25 C 10.487,3.397 10.499,3.49 10.5,3.557 C 10.5,3.616 10.491,3.664 10.468,3.719 C 10.443,3.78 10.391,3.871 10.281,4.001 L 10.251,4.038 L 9.522,5.016 C 9.078,5.598 8.756,6.134 8.547,6.667 C 8.335,7.207 8.25,7.721 8.25,8.25 C 8.25,8.663 8.586,9 9,9 C 9.136,9 9.264,8.963 9.374,8.899 C 9.485,8.963 9.613,9 9.75,9 L 18,9 C 18.413,9 18.75,8.663 18.75,8.25 C 18.75,7.157 18.381,6.201 17.477,5.016 L 16.748,4.038 L 16.718,4.001 C 16.512,3.758 16.499,3.643 16.499,3.557 C 16.5,3.434 16.526,3.298 16.712,2.711 L 17.306,0.995 C 17.442,0.604 17.234,0.176 16.843,0.041 C 16.452,-0.095 16.024,0.113 15.889,0.504 L 15.289,2.238 C 15.175,2.597 15.002,3.102 15,3.55 C 14.997,3.946 15.11,4.298 15.326,4.637 L 15.545,4.934 L 16.28,5.919 C 16.763,6.552 17.021,7.041 17.148,7.492 L 9.848,7.5 C 9.874,7.406 9.905,7.311 9.944,7.214 C 10.086,6.851 10.324,6.437 10.719,5.919 L 11.453,4.934 L 11.557,4.804 C 11.848,4.413 12.001,4.011 11.999,3.55 C 11.998,3.311 11.955,3.085 11.903,2.879 C 11.851,2.677 11.78,2.459 11.71,2.238 L 11.11,0.504 C 10.975,0.113 10.547,-0.095 10.156,0.041 Z M 8.25,10.499 C 8.25,10.912 8.586,11.249 9,11.249 L 12.75,11.249 L 12.75,19.5 L 9.097,19.5 C 8.214,19.5 7.499,20.215 7.499,21.098 L 7.499,25.401 C 7.499,26.283 8.214,26.999 9.097,26.999 L 17.902,26.999 C 18.75,26.999 19.445,26.336 19.496,25.5 L 21,25.5 C 21.413,25.5 21.75,25.163 21.75,24.75 L 21.75,17.25 C 21.75,16.836 21.413,16.5 21,16.5 C 20.586,16.5 20.25,16.836 20.25,17.25 L 20.25,24 L 19.5,24 L 19.5,21.098 C 19.5,20.215 18.784,19.5 17.902,19.5 L 14.25,19.5 L 14.25,11.249 L 18,11.249 C 18.413,11.249 18.75,10.912 18.75,10.499 C 18.75,10.085 18.413,9.749 18,9.749 L 9,9.749 C 8.586,9.749 8.25,10.085 8.25,10.499 Z M 20.25,15 C 20.25,15.414 20.586,15.75 21,15.75 C 21.414,15.75 21.75,15.414 21.75,15 C 21.75,14.586 21.414,14.25 21,14.25 C 20.586,14.25 20.25,14.586 20.25,15 Z M 18,21.098 L 18,25.401 C 18,25.454 17.955,25.499 17.902,25.499 L 9.097,25.499 C 9.043,25.499 8.999,25.454 8.999,25.401 L 8.999,21.098 C 8.999,21.044 9.043,21 9.097,21 L 17.902,21 C 17.955,21 18,21.044 18,21.098 Z" stroke-width="1.5" fill="#bababa" marker-start="none" marker-end="none" stroke-miterlimit="79.8403193612775"/>
    </g>
   </g>
  </g>
 </g>
</svg>
