<?xml version="1.0" standalone="no"?>
<!DOCTYPE svg PUBLIC "-//W3C//DTD SVG 1.1//EN" "http://www.w3.org/Graphics/SVG/1.1/DTD/svg11.dtd">
<!--Generator: Xara Designer (www.xara.com), SVG filter version: 4.0.0.1-->
<svg stroke-width="0.501" stroke-linejoin="bevel" fill-rule="evenodd" xmlns:xlink="http://www.w3.org/1999/xlink" xmlns="http://www.w3.org/2000/svg" version="1.1" overflow="visible" width="26.99pt" height="27pt" viewBox="0 0 26.99 27">
 <defs>
  <marker id="DefaultArrow2" markerUnits="strokeWidth" viewBox="0 0 1 1" markerWidth="1" markerHeight="1" overflow="visible" orient="auto">
   <!-- REF_ARROW_STRAIGHT (-2) -->
   <g transform="scale(0.0092592592)">
    <!-- 1/108 -->
    <path d="M -9 54 L -9 -54 L 117 0 z"/>
   </g>
  </marker>
  <marker id="DefaultArrow3" markerUnits="strokeWidth" viewBox="0 0 1 1" markerWidth="1" markerHeight="1" overflow="visible" orient="auto">
   <!-- REF_ARROW_ANGLED -->
   <g transform="scale(0.0092592592)">
    <path d="M -27 54 L -9 0 L -27 -54 L 135 0 z"/>
   </g>
  </marker>
  <marker id="DefaultArrow4" markerUnits="strokeWidth" viewBox="0 0 1 1" markerWidth="1" markerHeight="1" overflow="visible" orient="auto">
   <!-- REF_ARROW_ROUNDED -->
   <g transform="scale(0.0092592592)">
    <path d="M -9,0 L -9,-45 C -9,-51.708 2.808,-56.580 9,-54 L 117,-9 C 120.916,-7.369 126.000,-4.242 126,0 C 126,4.242 120.916,7.369 117,9 L 9,54 C 2.808,56.580 -9,51.708 -9,45 z"/>
   </g>
  </marker>
  <marker id="DefaultArrow5" markerUnits="strokeWidth" viewBox="0 0 1 1" markerWidth="1" markerHeight="1" overflow="visible" orient="auto">
   <!-- REF_ARROW_SPOT -->
   <g transform="scale(0.0092592592)">
    <path d="M -54, 0 C -54,29.807 -29.807,54 0,54 C 29.807,54 54,29.807 54,0 C 54,-29.807 29.807,-54 0,-54 C -29.807,-54 -54,-29.807 -54,0 z"/>
   </g>
  </marker>
  <marker id="DefaultArrow6" markerUnits="strokeWidth" viewBox="0 0 1 1" markerWidth="1" markerHeight="1" overflow="visible" orient="auto">
   <!-- REF_ARROW_DIAMOND -->
   <g transform="scale(0.0092592592)">
    <path d="M -63,0 L 0,63 L 63,0 L 0,-63 z"/>
   </g>
  </marker>
  <marker id="DefaultArrow7" markerUnits="strokeWidth" viewBox="0 0 1 1" markerWidth="1" markerHeight="1" overflow="visible" orient="auto">
   <!-- REF_ARROW_FEATHER -->
   <g transform="scale(0.0092592592)">
    <path d="M 18,-54 L 108,-54 L 63,0 L 108,54 L 18, 54 L -36,0 z"/>
   </g>
  </marker>
  <marker id="DefaultArrow8" markerUnits="strokeWidth" viewBox="0 0 1 1" markerWidth="1" markerHeight="1" overflow="visible" orient="auto">
   <!-- REF_ARROW_FEATHER2 -->
   <g transform="scale(0.0092592592)">
    <path d="M -36,0 L 18,-54 L 54,-54 L 18,-18 L 27,-18 L 63,-54 L 99,-54 L 63,-18 L 72,-18 L 108,-54 L 144,-54 L 90,0 L 144,54 L 108,54 L 72,18 L 63,18 L 99,54 L 63,54 L 27,18 L 18,18 L 54,54 L 18,54 z"/>
   </g>
  </marker>
  <marker id="DefaultArrow9" markerUnits="strokeWidth" viewBox="0 0 1 1" markerWidth="1" markerHeight="1" overflow="visible" orient="auto">
   <!-- REF_ARROW_HOLLOWDIAMOND -->
   <g transform="scale(0.0092592592)">
    <path d="M 0,45 L -45,0 L 0, -45 L 45, 0 z M 0, 63 L-63, 0 L 0, -63 L 63, 0 z"/>
   </g>
  </marker>
  <filter id="StainedFilter">
   <feBlend mode="multiply" in2="BackgroundImage" in="SourceGraphic" result="blend"/>
   <feComposite in="blend" in2="SourceAlpha" operator="in" result="comp"/>
  </filter>
  <filter id="BleachFilter">
   <feBlend mode="screen" in2="BackgroundImage" in="SourceGraphic" result="blend"/>
   <feComposite in="blend" in2="SourceAlpha" operator="in" result="comp"/>
  </filter>
  <filter id="InvertTransparencyBitmapFilter">
   <feComponentTransfer>
    <feFuncR type="gamma" amplitude="1.055" exponent=".416666666" offset="-0.055"/>
    <feFuncG type="gamma" amplitude="1.055" exponent=".416666666" offset="-0.055"/>
    <feFuncB type="gamma" amplitude="1.055" exponent=".416666666" offset="-0.055"/>
   </feComponentTransfer>
   <feComponentTransfer>
    <feFuncR type="linear" slope="-1" intercept="1"/>
    <feFuncG type="linear" slope="-1" intercept="1"/>
    <feFuncB type="linear" slope="-1" intercept="1"/>
    <feFuncA type="linear" slope="1" intercept="0"/>
   </feComponentTransfer>
   <feComponentTransfer>
    <feFuncR type="gamma" amplitude="1" exponent="2.4" offset="0"/>
    <feFuncG type="gamma" amplitude="1" exponent="2.4" offset="0"/>
    <feFuncB type="gamma" amplitude="1" exponent="2.4" offset="0"/>
   </feComponentTransfer>
  </filter>
 </defs>
 <g id="Document" fill="none" stroke="black" font-family="Times New Roman" font-size="16" transform="scale(1 -1)">
  <g id="Spread" transform="translate(0 -27)">
   <g id="Layer 1">
    <g id="Group" stroke="none">
     <path d="M -0.001,26.998 L -0.001,-0.001 L 26.999,-0.001 L 26.999,26.998 L -0.001,26.998 Z" stroke-linejoin="round" marker-start="none" marker-end="none"/>
     <path d="M 9.545,8.483 L 8.484,9.544 L 17.616,18.676 L 18.677,17.615 L 9.545,8.483 Z" stroke-width="0.5" fill="#bababa" fill-rule="evenodd" marker-start="none" marker-end="none" stroke-miterlimit="79.8403193612775"/>
     <path d="M 10.094,0.898 L 8.4,3.062 L 5.622,3.016 C 5.264,3.01 4.951,3.258 4.876,3.608 L 4.305,6.273 L 1.786,7.414 C 1.456,7.564 1.28,7.928 1.368,8.28 L 2.03,10.92 L 0.268,13.018 C 0.034,13.297 0.034,13.704 0.268,13.983 L 2.03,16.081 L 1.368,18.72 C 1.28,19.072 1.456,19.436 1.786,19.586 L 4.306,20.727 L 4.876,23.391 C 4.951,23.742 5.264,23.99 5.622,23.984 L 8.4,23.938 L 10.094,26.103 C 10.313,26.383 10.699,26.47 11.017,26.313 L 13.502,25.083 L 15.986,26.313 C 16.304,26.47 16.69,26.383 16.909,26.103 L 18.602,23.938 L 21.38,23.984 C 21.738,23.99 22.051,23.742 22.126,23.392 L 22.697,20.727 L 25.216,19.586 C 25.546,19.436 25.722,19.072 25.634,18.72 L 24.972,16.08 L 26.733,13.982 C 26.967,13.703 26.967,13.296 26.733,13.017 L 24.972,10.92 L 25.634,8.28 C 25.722,7.928 25.546,7.564 25.216,7.414 L 22.696,6.273 L 22.126,3.609 C 22.051,3.258 21.738,3.01 21.38,3.016 L 18.602,3.062 L 16.909,0.898 C 16.69,0.619 16.305,0.531 15.986,0.688 L 13.501,1.917 L 11.017,0.688 C 10.699,0.531 10.313,0.618 10.094,0.898 Z M 10.899,2.303 L 13.168,3.426 C 13.377,3.529 13.623,3.529 13.833,3.426 L 16.104,2.303 L 17.651,4.281 C 17.796,4.466 18.019,4.572 18.254,4.568 L 20.788,4.526 L 21.308,6.957 C 21.358,7.19 21.515,7.386 21.732,7.484 L 24.027,8.523 L 23.424,10.927 C 23.366,11.16 23.422,11.408 23.577,11.592 L 25.179,13.5 L 23.577,15.409 C 23.422,15.594 23.366,15.841 23.424,16.074 L 24.027,18.478 L 21.733,19.517 C 21.516,19.616 21.359,19.811 21.309,20.043 L 20.788,22.474 L 18.254,22.432 C 18.019,22.428 17.796,22.534 17.651,22.719 L 16.104,24.697 L 13.834,23.574 C 13.625,23.471 13.378,23.471 13.169,23.574 L 10.899,24.698 L 9.351,22.719 C 9.206,22.534 8.983,22.428 8.748,22.432 L 6.214,22.474 L 5.694,20.044 C 5.644,19.811 5.487,19.616 5.27,19.517 L 2.975,18.478 L 3.578,16.074 C 3.636,15.841 3.58,15.593 3.425,15.409 L 1.822,13.501 L 3.425,11.592 C 3.58,11.408 3.636,11.16 3.578,10.927 L 2.975,8.522 L 5.269,7.484 C 5.486,7.386 5.643,7.19 5.693,6.958 L 6.214,4.526 L 8.748,4.568 C 8.983,4.572 9.206,4.466 9.351,4.281 L 10.899,2.303 Z" stroke-width="0.5" fill="#bababa" fill-rule="evenodd" marker-start="none" marker-end="none" stroke-miterlimit="79.8403193612775"/>
     <path d="M 14.181,10.126 C 14.181,11.612 15.389,12.819 16.876,12.819 C 18.362,12.819 19.571,11.612 19.571,10.126 C 19.571,8.639 18.362,7.433 16.876,7.433 C 15.389,7.433 14.181,8.639 14.181,10.126 Z M 18.071,10.126 C 18.071,10.783 17.535,11.319 16.876,11.319 C 16.216,11.319 15.681,10.783 15.681,10.126 C 15.681,9.468 16.216,8.933 16.876,8.933 C 17.535,8.933 18.071,9.468 18.071,10.126 Z" stroke-width="0.5" fill="#bababa" fill-rule="evenodd" marker-start="none" marker-end="none" stroke-miterlimit="79.8403193612775"/>
     <path d="M 7.433,16.871 C 7.433,18.357 8.642,19.562 10.127,19.562 C 11.611,19.562 12.821,18.357 12.821,16.871 C 12.821,15.384 11.611,14.18 10.127,14.18 C 8.642,14.18 7.433,15.384 7.433,16.871 Z M 11.321,16.871 C 11.321,17.526 10.786,18.062 10.127,18.062 C 9.467,18.062 8.933,17.526 8.933,16.871 C 8.933,16.215 9.467,15.68 10.127,15.68 C 10.786,15.68 11.321,16.215 11.321,16.871 Z" stroke-width="0.5" fill="#bababa" fill-rule="evenodd" marker-start="none" marker-end="none" stroke-miterlimit="79.8403193612775"/>
    </g>
   </g>
  </g>
 </g>
</svg>
