<?xml version="1.0" encoding="UTF-8" standalone="no"?>
<svg
   xmlns:dc="http://purl.org/dc/elements/1.1/"
   xmlns:cc="http://creativecommons.org/ns#"
   xmlns:rdf="http://www.w3.org/1999/02/22-rdf-syntax-ns#"
   xmlns:svg="http://www.w3.org/2000/svg"
   xmlns="http://www.w3.org/2000/svg"
   viewBox="0 0 48.446667 61.421867"
   height="61.421867"
   width="48.446667"
   xml:space="preserve"
   id="svg2"
   version="1.1"><metadata
     id="metadata8"><rdf:RDF><cc:Work
         rdf:about=""><dc:format>image/svg+xml</dc:format><dc:type
           rdf:resource="http://purl.org/dc/dcmitype/StillImage" /></cc:Work></rdf:RDF></metadata><defs
     id="defs6"><clipPath
       id="clipPath18"
       clipPathUnits="userSpaceOnUse"><path
         id="path16"
         d="M 0,46.066 H 36.335 V 0 H 0 Z" /></clipPath></defs><g
     transform="matrix(1.3333333,0,0,-1.3333333,0,61.421867)"
     id="g10"><g
       id="g12"><g
         clip-path="url(#clipPath18)"
         id="g14"><g
           transform="translate(33.1905,3.1445)"
           id="g20"><path
             id="path22"
             style="fill:#ff6a00;fill-opacity:1;fill-rule:nonzero;stroke:none"
             d="m 0,0 h -30.046 v 29.161 h 3.694 l 2.497,-3.941 c 0.288,-0.456 0.789,-0.732 1.328,-0.732 H -7.52 c 0.539,0 1.041,0.276 1.329,0.731 l 2.5,3.942 H 0 Z m 1.572,32.306 h -6.129 c -0.005,0 -0.008,-10e-4 -0.012,-10e-4 -0.084,-10e-4 -0.167,-0.012 -0.249,-0.026 -0.021,-0.004 -0.042,-0.004 -0.063,-0.008 -0.081,-0.016 -0.158,-0.043 -0.235,-0.073 -0.019,-0.007 -0.038,-0.01 -0.057,-0.018 -0.075,-0.033 -0.145,-0.074 -0.216,-0.117 -0.015,-0.01 -0.034,-0.017 -0.049,-0.028 -0.056,-0.038 -0.106,-0.084 -0.157,-0.13 -0.026,-0.022 -0.054,-0.042 -0.079,-0.067 -0.034,-0.034 -0.063,-0.075 -0.095,-0.114 -0.035,-0.043 -0.072,-0.084 -0.102,-0.131 -0.004,-0.006 -0.01,-0.011 -0.014,-0.018 l -2.5,-3.942 h -13.277 l -2.496,3.941 c -0.004,0.006 -0.009,0.01 -0.012,0.016 -0.034,0.053 -0.075,0.098 -0.115,0.146 -0.028,0.034 -0.052,0.07 -0.082,0.1 -0.031,0.032 -0.068,0.058 -0.102,0.087 -0.044,0.037 -0.086,0.077 -0.133,0.109 -0.028,0.02 -0.06,0.033 -0.089,0.051 -0.058,0.034 -0.115,0.069 -0.176,0.095 -0.03,0.013 -0.065,0.02 -0.096,0.032 -0.064,0.022 -0.128,0.046 -0.195,0.061 -0.03,0.005 -0.063,0.006 -0.094,0.011 -0.071,0.011 -0.144,0.021 -0.217,0.022 -0.006,0 -0.011,0.002 -0.017,0.002 h -6.132 c -0.868,0 -1.572,-0.704 -1.572,-1.573 V -1.572 c 0,-0.868 0.704,-1.573 1.572,-1.573 h 33.19 c 0.868,0 1.573,0.705 1.573,1.573 v 32.305 c 0,0.869 -0.705,1.573 -1.573,1.573" /></g><g
           transform="translate(6.4463,36.083)"
           id="g24"><path
             id="path26"
             style="fill:#ff6a00;fill-opacity:1;fill-rule:nonzero;stroke:none"
             d="M 0,0 C 0.866,-0.079 1.638,0.537 1.728,1.4 1.76,1.7 1.919,2.063 2.5,2.088 3.282,2.123 3.968,2.111 4.764,2.096 5.51,2.082 6.338,2.067 7.413,2.087 c 0.858,0.015 1.545,0.715 1.545,1.572 0,0.524 0.48,3.18 2.763,3.18 2.282,0 2.762,-2.656 2.762,-3.18 0,-0.857 0.688,-1.557 1.545,-1.572 1.072,-0.021 1.905,-0.004 2.652,0.009 0.794,0.015 1.479,0.027 2.262,-0.008 0.583,-0.025 0.745,-0.39 0.777,-0.692 0.087,-0.806 0.768,-1.404 1.561,-1.404 0.056,0 0.113,0.003 0.17,0.009 0.863,0.093 1.488,0.867 1.396,1.731 C 24.635,3.704 23.086,5.143 21.08,5.23 20.199,5.269 19.434,5.255 18.623,5.24 18.251,5.234 17.856,5.227 17.42,5.224 16.83,7.517 14.979,9.983 11.721,9.983 8.463,9.983 6.611,7.517 6.021,5.224 5.585,5.227 5.191,5.234 4.819,5.24 4.009,5.256 3.243,5.269 2.362,5.23 0.354,5.143 -1.193,3.702 -1.399,1.729 -1.49,0.864 -0.863,0.091 0,0" /></g><g
           transform="translate(28.2794,24.1884)"
           id="g28"><path
             id="path30"
             style="fill:#ff6a00;fill-opacity:1;fill-rule:nonzero;stroke:none"
             d="m 0,0 h -20.221 c -0.868,0 -1.572,-0.704 -1.572,-1.572 0,-0.868 0.704,-1.573 1.572,-1.573 H 0 c 0.868,0 1.572,0.705 1.572,1.573 C 1.572,-0.704 0.868,0 0,0" /></g><g
           transform="translate(17.5255,16.7568)"
           id="g32"><path
             id="path34"
             style="fill:#ff6a00;fill-opacity:1;fill-rule:nonzero;stroke:none"
             d="m 0,0 h -9.467 c -0.868,0 -1.572,-0.704 -1.572,-1.572 0,-0.868 0.704,-1.573 1.572,-1.573 H 0 c 0.868,0 1.572,0.705 1.572,1.573 C 1.572,-0.704 0.868,0 0,0" /></g><g
           transform="translate(17.5255,10.3916)"
           id="g36"><path
             id="path38"
             style="fill:#ff6a00;fill-opacity:1;fill-rule:nonzero;stroke:none"
             d="m 0,0 h -9.467 c -0.868,0 -1.572,-0.704 -1.572,-1.572 0,-0.868 0.704,-1.573 1.572,-1.573 H 0 c 0.868,0 1.572,0.705 1.572,1.573 C 1.572,-0.704 0.868,0 0,0" /></g><g
           transform="translate(27.0108,19.0732)"
           id="g40"><path
             id="path42"
             style="fill:#ff6a00;fill-opacity:1;fill-rule:nonzero;stroke:none"
             d="m 0,0 -3.283,-3.282 -0.895,0.895 c -0.615,0.616 -1.61,0.615 -2.223,10e-4 C -7.016,-3 -7.017,-3.995 -6.402,-4.609 l 2.006,-2.008 c 0.295,-0.295 0.696,-0.461 1.113,-0.461 0.417,0 0.817,0.165 1.111,0.46 l 4.395,4.393 C 2.837,-1.61 2.838,-0.614 2.224,-0.001 1.608,0.614 0.613,0.613 0,0" /></g><g
           transform="translate(27.0108,12.6826)"
           id="g44"><path
             id="path46"
             style="fill:#ff6a00;fill-opacity:1;fill-rule:nonzero;stroke:none"
             d="m 0,0 -3.283,-3.281 -0.895,0.895 c -0.615,0.614 -1.609,0.614 -2.224,0 -0.614,-0.614 -0.614,-1.61 0,-2.224 l 2.006,-2.007 c 0.308,-0.307 0.71,-0.46 1.113,-0.46 0.402,0 0.804,0.153 1.111,0.46 l 4.395,4.392 c 0.614,0.615 0.615,1.61 0.001,2.224 C 1.608,0.614 0.613,0.613 0,0" /></g></g></g></g></svg>