<?xml version="1.0" encoding="UTF-8" standalone="no"?>
<svg
   xmlns:dc="http://purl.org/dc/elements/1.1/"
   xmlns:cc="http://creativecommons.org/ns#"
   xmlns:rdf="http://www.w3.org/1999/02/22-rdf-syntax-ns#"
   xmlns:svg="http://www.w3.org/2000/svg"
   xmlns="http://www.w3.org/2000/svg"
   viewBox="0 0 53.3764 64.298134"
   height="64.298134"
   width="53.3764"
   xml:space="preserve"
   id="svg2"
   version="1.1"><metadata
     id="metadata8"><rdf:RDF><cc:Work
         rdf:about=""><dc:format>image/svg+xml</dc:format><dc:type
           rdf:resource="http://purl.org/dc/dcmitype/StillImage" /></cc:Work></rdf:RDF></metadata><defs
     id="defs6"><clipPath
       id="clipPath18"
       clipPathUnits="userSpaceOnUse"><path
         id="path16"
         d="M 0,48.224 H 40.032 V 0 H 0 Z" /></clipPath></defs><g
     transform="matrix(1.3333333,0,0,-1.3333333,0,64.298133)"
     id="g10"><g
       id="g12"><g
         clip-path="url(#clipPath18)"
         id="g14"><g
           transform="translate(19.3174,16.4287)"
           id="g20"><path
             id="path22"
             style="fill:#ff6a00;fill-opacity:1;fill-rule:nonzero;stroke:none"
             d="m 0,0 c 0.266,0 0.533,0.067 0.779,0.208 4.853,2.774 8.211,6.399 9.714,10.482 0.3,0.815 -0.117,1.719 -0.932,2.019 C 8.75,13.01 7.843,12.591 7.542,11.776 5.971,7.507 2.148,4.613 -0.781,2.938 -1.535,2.507 -1.797,1.547 -1.366,0.793 -1.076,0.285 -0.545,0 0,0" /></g><g
           transform="translate(18.5888,20.8769)"
           id="g24"><path
             id="path26"
             style="fill:#ff6a00;fill-opacity:1;fill-rule:nonzero;stroke:none"
             d="M 0,0 C 0.35,0.795 -0.012,1.723 -0.807,2.072 -2.954,3.017 -4.722,4.953 -5.655,7.384 -5.967,8.195 -6.875,8.6 -7.687,8.288 -8.497,7.977 -8.902,7.067 -8.591,6.257 c 1.232,-3.209 3.608,-5.784 6.519,-7.064 0.206,-0.09 0.421,-0.133 0.632,-0.133 0.604,0 1.181,0.351 1.44,0.94" /></g><g
           transform="translate(38.7431,13.5332)"
           id="g28"><path
             id="path30"
             style="fill:#ff6a00;fill-opacity:1;fill-rule:nonzero;stroke:none"
             d="m 0,0 c -1.726,4.514 -9.136,7.354 -9.975,7.664 -0.773,0.281 -1.629,-0.073 -1.972,-0.818 -1.494,-3.249 -4.038,-5.189 -6.804,-5.189 -2.755,0 -5.205,1.892 -6.721,5.189 -0.343,0.745 -1.198,1.099 -1.972,0.818 -0.839,-0.31 -8.248,-3.15 -9.977,-7.662 -1.063,-2.772 -1.028,-4.407 -0.983,-6.479 0.009,-0.425 0.019,-0.876 0.019,-1.37 0,-0.868 0.704,-1.572 1.572,-1.572 0.869,0 1.573,0.704 1.573,1.572 0,0.519 -0.01,0.992 -0.02,1.439 -0.042,1.927 -0.066,3.09 0.776,5.284 0.785,2.05 4.213,4.136 6.851,5.313 2.091,-3.581 5.328,-5.676 8.881,-5.677 h 10e-4 c 3.598,10e-4 6.863,2.093 8.961,5.674 2.295,-1.036 6.007,-3.098 6.853,-5.311 0.887,-2.313 1.046,-6.506 1.075,-9.264 h -35.309 c -0.868,0 -1.572,-0.704 -1.572,-1.572 0,-0.868 0.704,-1.572 1.572,-1.572 h 36.888 c 0.868,0 1.572,0.704 1.572,1.572 C 1.289,-7.708 1.136,-2.962 0,0" /></g><g
           transform="translate(12.9668,42.3203)"
           id="g32"><path
             id="path34"
             style="fill:#ff6a00;fill-opacity:1;fill-rule:nonzero;stroke:none"
             d="m 0,0 v -4.598 c 0,-0.868 0.704,-1.572 1.572,-1.572 0.868,0 1.573,0.704 1.573,1.572 v 6.276 c 0,0.141 -0.025,0.276 -0.06,0.407 0.685,0.264 1.431,0.472 2.277,0.578 v -7.261 c 0,-0.868 0.704,-1.572 1.573,-1.572 0.868,0 1.572,0.704 1.572,1.572 V 2.663 C 9.35,2.563 10.113,2.384 10.8,2.133 10.755,1.988 10.725,1.837 10.725,1.678 v -6.276 c 0,-0.868 0.704,-1.572 1.572,-1.572 0.868,0 1.572,0.704 1.572,1.572 v 4.703 c 2.105,-2.251 2.796,-5.597 2.884,-8.727 H -2.94 C -2.855,-6.225 -2.306,-2.526 0,0 M -6.014,-11.767 H 19.91 c 0.868,0 1.572,0.704 1.572,1.573 0,0.868 -0.704,1.572 -1.572,1.572 H 19.89 C 19.654,0.614 14.971,5.903 6.935,5.903 c -9.292,0 -12.79,-7.372 -13.011,-14.531 -0.839,-0.034 -1.51,-0.72 -1.51,-1.566 0,-0.869 0.704,-1.573 1.572,-1.573" /></g></g></g></g></svg>