<?xml version="1.0" encoding="UTF-8" standalone="no"?>
<svg
   xmlns:dc="http://purl.org/dc/elements/1.1/"
   xmlns:cc="http://creativecommons.org/ns#"
   xmlns:rdf="http://www.w3.org/1999/02/22-rdf-syntax-ns#"
   xmlns:svg="http://www.w3.org/2000/svg"
   xmlns="http://www.w3.org/2000/svg"
   viewBox="0 0 52.025467 62.903599"
   height="62.903599"
   width="52.025467"
   xml:space="preserve"
   id="svg2"
   version="1.1"><metadata
     id="metadata8"><rdf:RDF><cc:Work
         rdf:about=""><dc:format>image/svg+xml</dc:format><dc:type
           rdf:resource="http://purl.org/dc/dcmitype/StillImage" /></cc:Work></rdf:RDF></metadata><defs
     id="defs6"><clipPath
       id="clipPath18"
       clipPathUnits="userSpaceOnUse"><path
         id="path16"
         d="M 0,47.178 H 39.019 V 0 H 0 Z" /></clipPath></defs><g
     transform="matrix(1.3333333,0,0,-1.3333333,0,62.9036)"
     id="g10"><g
       id="g12"><g
         clip-path="url(#clipPath18)"
         id="g14"><g
           transform="translate(18.0917,20.9795)"
           id="g20"><path
             id="path22"
             style="fill:#ff6a00;fill-opacity:1;fill-rule:nonzero;stroke:none"
             d="m 0,0 c -0.754,-0.431 -1.017,-1.391 -0.585,-2.146 0.29,-0.507 0.82,-0.792 1.366,-0.792 0.264,0 0.532,0.067 0.779,0.208 3.563,2.035 8.431,5.463 9.571,11.723 0.441,2.421 -0.166,6.124 -2.515,8.941 -1.841,2.205 -4.356,3.371 -7.274,3.371 -3.238,0 -5.966,-1.413 -7.679,-3.979 -1.954,-2.923 -2.277,-6.887 -0.844,-10.344 0.332,-0.801 1.252,-1.181 2.055,-0.851 0.802,0.333 1.183,1.253 0.85,2.055 -1.02,2.461 -0.803,5.363 0.553,7.393 0.787,1.178 2.304,2.581 5.065,2.581 1.983,0 3.618,-0.755 4.859,-2.242 C 7.815,13.984 8.346,11.254 8.038,9.557 7.349,5.775 4.794,2.739 0,0" /></g><g
           transform="translate(37.7626,14.628)"
           id="g24"><path
             id="path26"
             style="fill:#ff6a00;fill-opacity:1;fill-rule:nonzero;stroke:none"
             d="m 0,0 c -1.688,4.405 -8.91,7.175 -9.728,7.477 -0.771,0.282 -1.629,-0.074 -1.972,-0.819 -0.041,-0.091 -3.649,-7.914 -6.537,-12.597 -2.888,4.683 -6.493,12.505 -6.535,12.596 -0.343,0.746 -1.201,1.103 -1.972,0.82 -0.818,-0.302 -8.043,-3.072 -9.732,-7.478 -1.045,-2.733 -0.997,-5.366 -0.955,-7.689 0.008,-0.457 0.017,-0.912 0.017,-1.363 0,-0.868 0.704,-1.572 1.572,-1.572 0.869,0 1.572,0.704 1.572,1.572 0,0.47 -0.008,0.944 -0.017,1.42 -0.04,2.235 -0.078,4.346 0.748,6.508 0.75,1.956 4.004,3.951 6.55,5.101 1.44,-3.039 4.977,-10.296 7.488,-13.685 0.014,-0.02 0.032,-0.033 0.047,-0.052 0.034,-0.042 0.07,-0.081 0.108,-0.119 0.039,-0.039 0.079,-0.075 0.121,-0.109 0.018,-0.015 0.032,-0.032 0.051,-0.047 0.022,-0.016 0.046,-0.026 0.068,-0.04 0.046,-0.031 0.094,-0.06 0.143,-0.085 0.044,-0.024 0.088,-0.044 0.133,-0.062 0.048,-0.02 0.097,-0.037 0.147,-0.051 0.049,-0.015 0.097,-0.027 0.147,-0.037 0.049,-0.009 0.098,-0.016 0.148,-0.021 0.05,-0.004 0.1,-0.008 0.151,-0.008 0.05,0 0.1,0.004 0.151,0.008 0.05,0.005 0.099,0.012 0.148,0.021 0.049,0.01 0.098,0.022 0.146,0.037 0.051,0.014 0.1,0.032 0.148,0.051 0.045,0.019 0.088,0.038 0.131,0.061 0.051,0.026 0.099,0.056 0.147,0.088 0.021,0.013 0.044,0.022 0.065,0.038 0.018,0.014 0.032,0.031 0.05,0.046 0.043,0.034 0.083,0.071 0.122,0.111 0.038,0.038 0.075,0.077 0.108,0.119 0.015,0.018 0.033,0.032 0.047,0.051 2.512,3.389 6.051,10.646 7.491,13.685 2.545,-1.15 5.796,-3.145 6.546,-5.101 0.633,-1.652 0.979,-5.146 1.037,-10.358 h -34.29 c -0.869,0 -1.573,-0.705 -1.573,-1.573 0,-0.868 0.704,-1.572 1.573,-1.572 h 35.874 c 0.869,0 1.572,0.704 1.572,1.572 C 1.256,-8.858 1.126,-2.938 0,0" /></g><g
           transform="translate(6.1786,26.7139)"
           id="g28"><path
             id="path30"
             style="fill:#ff6a00;fill-opacity:1;fill-rule:nonzero;stroke:none"
             d="m 0,0 c 0.334,-1.045 1.051,-2.464 2.569,-3.355 0.909,-0.534 1.958,-0.799 3.144,-0.799 1.371,0 2.934,0.378 4.658,1.09 0.214,-0.075 0.441,-0.124 0.68,-0.124 1.16,0 2.102,0.948 2.102,2.105 0,1.161 -0.942,2.104 -2.102,2.104 -0.834,0 -1.549,-0.49 -1.889,-1.195 C 6.953,-1.088 5.236,-1.262 4.18,-0.653 3.012,0.017 2.851,1.575 2.85,1.576 2.788,2.396 2.104,3.03 1.282,3.03 c -0.854,0 -1.503,0.237 -1.929,0.701 -0.373,0.407 -0.578,0.998 -0.578,1.664 0,1.176 0.776,3.044 2.858,3.044 0.747,0 1.391,0.526 1.54,1.257 0.064,0.312 1.653,7.623 9.792,7.623 8.498,0 10.294,-7.054 10.365,-7.347 0.164,-0.714 0.799,-1.219 1.532,-1.219 2.289,0 3.142,-1.996 3.142,-3.253 0,-0.692 -0.217,-1.306 -0.611,-1.729 C 26.935,3.279 26.236,3.03 25.317,3.03 c -0.869,0 -1.572,-0.704 -1.572,-1.572 0,-0.868 0.703,-1.572 1.572,-1.572 2.276,0 3.636,0.947 4.377,1.741 0.938,1.008 1.455,2.383 1.455,3.873 0,2.811 -1.879,5.708 -5.088,6.292 -1.272,3.504 -5.156,8.672 -13.096,8.672 -7.688,0 -11.383,-5.369 -12.569,-9 C -2.611,10.861 -4.37,8.087 -4.37,5.395 -4.37,3.94 -3.871,2.595 -2.966,1.607 -2.399,0.987 -1.457,0.274 0,0" /></g></g></g></g></svg>