<?xml version="1.0" encoding="UTF-8" standalone="no"?>
<svg
   xmlns:dc="http://purl.org/dc/elements/1.1/"
   xmlns:cc="http://creativecommons.org/ns#"
   xmlns:rdf="http://www.w3.org/1999/02/22-rdf-syntax-ns#"
   xmlns:svg="http://www.w3.org/2000/svg"
   xmlns="http://www.w3.org/2000/svg"
   viewBox="0 0 63.652267 53.493465"
   height="53.493465"
   width="63.652267"
   xml:space="preserve"
   id="svg2"
   version="1.1"><metadata
     id="metadata8"><rdf:RDF><cc:Work
         rdf:about=""><dc:format>image/svg+xml</dc:format><dc:type
           rdf:resource="http://purl.org/dc/dcmitype/StillImage" /></cc:Work></rdf:RDF></metadata><defs
     id="defs6"><clipPath
       id="clipPath18"
       clipPathUnits="userSpaceOnUse"><path
         id="path16"
         d="M 0,40.12 H 47.739 V 0 H 0 Z" /></clipPath></defs><g
     transform="matrix(1.3333333,0,0,-1.3333333,0,53.493467)"
     id="g10"><g
       id="g12"><g
         clip-path="url(#clipPath18)"
         id="g14"><g
           transform="translate(44.7139,25.5654)"
           id="g20"><path
             id="path22"
             style="fill:#ff6a00;fill-opacity:1;fill-rule:nonzero;stroke:none"
             d="m 0,0 c -2,2.571 -8.584,11.021 -9.325,11.763 -2.096,2.094 -3.499,2.792 -7.676,2.792 h -21.353 c -3.678,0 -6.348,-2.563 -6.348,-6.093 0,-1.895 -0.012,-23.111 -0.012,-23.111 l 3.145,-0.002 c 0,0 0.011,21.218 0.011,23.113 0,1.764 1.287,2.948 3.204,2.948 h 21.353 c 3.428,0 3.999,-0.419 5.446,-1.865 0.57,-0.595 5.868,-7.355 9.108,-11.521 0.023,-0.027 2.328,-2.872 2.328,-6.168 v -6.506 c 0,-0.869 0.704,-1.573 1.572,-1.573 0.868,0 1.572,0.704 1.572,1.573 v 6.506 C 3.025,-3.665 0.09,-0.105 0,0" /></g><g
           transform="translate(36.415,3.1445)"
           id="g24"><path
             id="path26"
             style="fill:#ff6a00;fill-opacity:1;fill-rule:nonzero;stroke:none"
             d="m 0,0 c -1.987,0 -3.604,1.618 -3.604,3.606 0,1.989 1.617,3.606 3.604,3.606 1.897,0 3.44,-1.475 3.582,-3.335 C 3.566,3.789 3.555,3.699 3.555,3.606 3.555,3.514 3.566,3.424 3.582,3.336 3.44,1.476 1.897,0 0,0 m -25.748,0 c -1.988,0 -3.606,1.618 -3.606,3.606 0,1.989 1.618,3.606 3.606,3.606 1.988,0 3.605,-1.617 3.605,-3.606 C -22.143,1.618 -23.76,0 -25.748,0 m 35.5,5.179 H 6.562 C 5.85,8.144 3.182,10.356 0,10.356 c -3.18,0 -5.846,-2.212 -6.557,-5.177 H -19.19 c -0.712,2.965 -3.378,5.177 -6.558,5.177 -3.181,0 -5.847,-2.212 -6.559,-5.177 h -2.536 c -0.868,0 -1.572,-0.704 -1.572,-1.573 0,-0.868 0.704,-1.572 1.572,-1.572 h 2.536 c 0.711,-2.966 3.378,-5.179 6.559,-5.179 3.18,0 5.847,2.213 6.558,5.179 H -6.557 C -5.846,-0.932 -3.18,-3.145 0,-3.145 c 3.183,0 5.85,2.213 6.562,5.179 h 3.19 c 0.868,0 1.572,0.704 1.572,1.572 0,0.869 -0.704,1.573 -1.572,1.573" /></g><g
           transform="translate(27.623,35.9482)"
           id="g28"><path
             id="path30"
             style="fill:#ff6a00;fill-opacity:1;fill-rule:nonzero;stroke:none"
             d="m 0,0 c -0.868,0 -1.572,-0.704 -1.572,-1.572 v -14.332 c 0,-0.868 0.704,-1.573 1.572,-1.573 h 13.552 c 0.868,0 1.572,0.705 1.572,1.573 0,0.868 -0.704,1.572 -1.572,1.572 H 1.572 v 12.76 C 1.572,-0.704 0.868,0 0,0" /></g></g></g></g></svg>