<?xml version="1.0" encoding="UTF-8" standalone="no"?>
<svg
   xmlns:dc="http://purl.org/dc/elements/1.1/"
   xmlns:cc="http://creativecommons.org/ns#"
   xmlns:rdf="http://www.w3.org/1999/02/22-rdf-syntax-ns#"
   xmlns:svg="http://www.w3.org/2000/svg"
   xmlns="http://www.w3.org/2000/svg"
   viewBox="0 0 353.30267 53.333332"
   height="53.333332"
   width="353.30267"
   xml:space="preserve"
   id="svg2"
   version="1.1"><metadata
     id="metadata8"><rdf:RDF><cc:Work
         rdf:about=""><dc:format>image/svg+xml</dc:format><dc:type
           rdf:resource="http://purl.org/dc/dcmitype/StillImage" /></cc:Work></rdf:RDF></metadata><defs
     id="defs6"><clipPath
       id="clipPath18"
       clipPathUnits="userSpaceOnUse"><path
         id="path16"
         d="M 0,40 H 264.977 V 0 H 0 Z" /></clipPath></defs><g
     transform="matrix(1.3333333,0,0,-1.3333333,0,53.333333)"
     id="g10"><g
       id="g12"><g
         clip-path="url(#clipPath18)"
         id="g14"><text
           id="text22"
           style="font-variant:normal;font-weight:500;font-stretch:normal;font-size:10px;font-family:'Exo 2 Medium';-inkscape-font-specification:Exo2;writing-mode:lr-tb;fill:#333333;fill-opacity:1;fill-rule:nonzero;stroke:none"
           transform="matrix(1,0,0,-1,47.7969,7.625)"><tspan
             id="tspan20"
             y="0"
             x="0 6.5900002 12.76 20.087999 26.146 33.617001 40.886002 48.136002 54.916 64.005997 70.155998 72.916 80.396004 83.155998 90.804001 98.371002 104.441 110.953 118.034 124.565 131.795 140.88499 147.035 149.795 155.67599 161.84599 169.106 175.276 181.539 187.91 194.373 201.623 208.132">БЕНЗИНОВЫЕ И ДИЗЕЛЬНЫЕ ГЕНЕРАТОРЫ</tspan></text>
<g
           transform="translate(9.9687,21.3696)"
           id="g24"><path
             id="path26"
             style="fill:#0496ff;fill-opacity:1;fill-rule:nonzero;stroke:none"
             d="m 0,0 4.853,-4.217 -6.107,-8.54 c -3.079,3.042 -4.774,7.086 -4.774,11.387 0,4.303 1.696,8.348 4.777,11.391 3.08,3.042 7.176,4.718 11.532,4.718 1.198,0 2.375,-0.128 3.517,-0.375 z m 21.198,15.478 c -1.311,0.831 -2.726,1.514 -4.22,2.031 -2.097,0.726 -4.35,1.121 -6.697,1.121 -11.183,0 -20.25,-8.954 -20.25,-20 0,-5.761 2.468,-10.952 6.415,-14.603 l -3.525,-4.928 4.141,4.38 2.692,2.848 9.586,10.142 -3.867,3.963 12.8,12.248 z" /></g><g
           transform="translate(31.7827,8.6098)"
           id="g28"><path
             id="path30"
             style="fill:#004b91;fill-opacity:1;fill-rule:nonzero;stroke:none"
             d="m 0,0 c -3.081,-3.042 -7.176,-4.718 -11.533,-4.718 -3.066,0 -6.003,0.831 -8.548,2.384 l 14.869,12.679 -3.065,3.46 9.295,7.872 C 3.452,18.792 4.777,15.192 4.777,11.39 4.777,7.088 3.08,3.042 0,0 M 4.009,24.21 C 3.215,25.148 2.336,26.013 1.384,26.793 L -1.53,24.116 -13.422,13.192 -10.284,9.66 -21.181,-1.601 -23.919,-4.432 c 0.057,-0.043 0.114,-0.087 0.171,-0.13 3.396,-2.54 7.627,-4.047 12.215,-4.047 11.184,0 20.25,8.954 20.25,19.999 0,4.879 -1.769,9.349 -4.708,12.82" /></g><g
           transform="translate(47.7969,35.9975)"
           id="g32"><path
             id="path34"
             style="fill:#004b91;fill-opacity:1;fill-rule:nonzero;stroke:none"
             d="M 0,0 H 8.956 V -2.544 H 3.097 V -14.36 l -3.097,0 z" /></g><g
           transform="translate(58.498,35.9975)"
           id="g36"><path
             id="path38"
             style="fill:#004b91;fill-opacity:1;fill-rule:nonzero;stroke:none"
             d="M 0,0 H 9.479 V -2.525 H 3.097 V -5.997 H 8.769 V -8.502 H 3.097 v -3.314 H 9.636 V -14.36 H 0 Z" /></g><g
           transform="translate(70.5112,35.9975)"
           id="g40"><path
             id="path42"
             style="fill:#004b91;fill-opacity:1;fill-rule:nonzero;stroke:none"
             d="M 0,0 H 3.097 V -5.74 H 8.226 V 0 h 3.087 V -14.36 H 8.226 v 6.095 H 3.097 V -14.36 H 0 Z" /></g><g
           transform="translate(84.6846,35.9975)"
           id="g44"><path
             id="path46"
             style="fill:#004b91;fill-opacity:1;fill-rule:nonzero;stroke:none"
             d="M 0,0 H 9.479 V -2.525 H 3.097 V -5.997 H 8.768 V -8.502 H 3.097 v -3.314 H 9.636 V -14.36 H 0 Z" /></g><g
           transform="translate(102.3491,29.2905)"
           id="g48"><path
             id="path50"
             style="fill:#004b91;fill-opacity:1;fill-rule:nonzero;stroke:none"
             d="m 0,0 c 0.306,0 0.562,0.02 0.76,0.069 0.197,0.05 0.384,0.148 0.552,0.286 0.167,0.138 0.296,0.355 0.375,0.642 0.079,0.285 0.118,0.65 0.118,1.094 0,0.454 -0.039,0.828 -0.118,1.115 C 1.608,3.492 1.489,3.708 1.322,3.847 1.154,3.985 0.977,4.083 0.779,4.133 0.582,4.182 0.326,4.202 0.02,4.202 H -2.564 V 0.02 Z M -5.661,6.727 H 0.02 c 0.463,0 0.868,-0.01 1.213,-0.04 C 1.578,6.658 1.933,6.608 2.288,6.529 2.644,6.451 2.949,6.342 3.206,6.204 3.462,6.066 3.708,5.878 3.936,5.642 4.162,5.405 4.35,5.129 4.488,4.803 4.626,4.478 4.734,4.093 4.813,3.64 4.892,3.186 4.932,2.673 4.932,2.091 4.932,1.509 4.892,0.997 4.813,0.542 4.734,0.089 4.626,-0.296 4.488,-0.621 4.35,-0.947 4.162,-1.223 3.936,-1.45 3.708,-1.677 3.472,-1.864 3.215,-2.002 2.959,-2.14 2.653,-2.249 2.298,-2.328 1.943,-2.406 1.588,-2.456 1.243,-2.485 0.897,-2.515 0.493,-2.525 0.03,-2.525 h -2.584 v -5.128 h -3.097 z" /></g><g
           transform="translate(115.3584,28.186)"
           id="g52"><path
             id="path54"
             style="fill:#004b91;fill-opacity:1;fill-rule:nonzero;stroke:none"
             d="M 0,0 -1.45,4.725 H -1.499 L -2.949,0 Z M -3.156,7.812 H 0.197 L 5.356,-6.549 H 2.219 l -1.371,4.044 h -4.645 l -1.371,-4.044 h -3.137 z" /></g><g
           transform="translate(121.1284,35.9975)"
           id="g56"><path
             id="path58"
             style="fill:#004b91;fill-opacity:1;fill-rule:nonzero;stroke:none"
             d="M 0,0 H 11.274 V -2.525 H 7.171 V -14.36 H 4.074 v 11.835 l -4.074,0 z" /></g><g
           transform="translate(136.791,27.1108)"
           id="g60"><path
             id="path62"
             style="fill:#004b91;fill-opacity:1;fill-rule:nonzero;stroke:none"
             d="m 0,0 c 0,-0.542 0.05,-1.006 0.148,-1.391 0.099,-0.384 0.237,-0.69 0.404,-0.917 0.169,-0.227 0.394,-0.404 0.681,-0.532 0.287,-0.129 0.581,-0.218 0.878,-0.257 0.295,-0.039 0.66,-0.059 1.095,-0.059 1.163,0 1.992,0.237 2.485,0.7 0.494,0.464 0.74,1.302 0.74,2.515 v 3.255 c 0,1.213 -0.246,2.052 -0.74,2.515 -0.493,0.464 -1.322,0.7 -2.475,0.7 C 2.673,6.529 2.22,6.49 1.864,6.411 1.51,6.332 1.184,6.184 0.889,5.967 0.592,5.75 0.376,5.425 0.236,4.991 0.1,4.557 0.03,4.004 0.03,3.324 V 0.03 Z m -3.067,3.324 c 0,0.306 0.01,0.572 0.02,0.789 0.009,0.217 0.039,0.503 0.088,0.858 0.05,0.355 0.118,0.661 0.208,0.917 0.089,0.257 0.226,0.553 0.404,0.878 0.177,0.326 0.385,0.602 0.632,0.829 0.246,0.226 0.561,0.444 0.946,0.651 0.384,0.207 0.819,0.375 1.302,0.493 0.898,0.207 1.805,0.305 2.723,0.305 0.916,0 1.824,-0.098 2.722,-0.305 C 6.461,8.621 6.895,8.453 7.279,8.246 7.664,8.039 7.979,7.821 8.227,7.585 8.473,7.348 8.689,7.072 8.867,6.747 9.045,6.421 9.183,6.135 9.271,5.878 9.36,5.622 9.429,5.316 9.479,4.961 9.528,4.606 9.558,4.32 9.568,4.103 9.577,3.886 9.587,3.63 9.587,3.324 V 0.069 c 0,-0.306 0,-0.562 -0.01,-0.779 C 9.568,-0.927 9.538,-1.213 9.489,-1.568 9.439,-1.923 9.371,-2.229 9.281,-2.485 9.192,-2.742 9.064,-3.028 8.887,-3.354 8.709,-3.679 8.503,-3.955 8.256,-4.191 8.009,-4.428 7.693,-4.646 7.309,-4.853 6.925,-5.06 6.49,-5.227 6.007,-5.346 5.129,-5.543 4.222,-5.642 3.274,-5.642 c -0.936,0 -1.843,0.099 -2.722,0.296 -0.483,0.119 -0.916,0.286 -1.302,0.493 -0.384,0.207 -0.7,0.425 -0.947,0.651 -0.246,0.227 -0.452,0.503 -0.631,0.829 -0.176,0.326 -0.305,0.622 -0.394,0.878 -0.089,0.256 -0.158,0.562 -0.207,0.917 -0.049,0.355 -0.079,0.641 -0.088,0.858 -0.011,0.217 -0.011,0.473 -0.011,0.779 z" /></g><g
           transform="translate(154.4941,29.2905)"
           id="g64"><path
             id="path66"
             style="fill:#004b91;fill-opacity:1;fill-rule:nonzero;stroke:none"
             d="m 0,0 c 0.306,0 0.563,0.02 0.761,0.069 0.197,0.05 0.384,0.148 0.551,0.286 0.167,0.138 0.295,0.355 0.375,0.642 0.079,0.285 0.118,0.65 0.118,1.094 0,0.454 -0.039,0.828 -0.118,1.115 C 1.607,3.492 1.489,3.708 1.322,3.847 1.155,3.985 0.977,4.083 0.779,4.133 0.582,4.182 0.326,4.202 0.021,4.202 H -2.564 V 0.02 Z m -5.661,6.727 h 5.682 c 0.463,0 0.867,-0.01 1.212,-0.04 C 1.578,6.658 1.934,6.608 2.288,6.529 2.644,6.451 2.949,6.342 3.206,6.204 3.462,6.066 3.709,5.878 3.936,5.642 4.162,5.405 4.351,5.129 4.487,4.803 4.627,4.478 4.734,4.093 4.813,3.64 4.893,3.186 4.932,2.673 4.932,2.091 4.932,1.509 4.893,0.997 4.813,0.542 4.734,0.089 4.627,-0.296 4.487,-0.621 4.351,-0.947 4.162,-1.223 3.936,-1.45 3.709,-1.677 3.472,-1.864 3.216,-2.002 2.959,-2.14 2.654,-2.249 2.299,-2.328 1.943,-2.406 1.589,-2.456 1.243,-2.485 0.897,-2.515 0.493,-2.525 0.029,-2.525 h -2.583 v -5.128 h -3.097 z" /></g><g
           transform="translate(170.502,35.9975)"
           id="g68"><path
             id="path70"
             style="fill:#004b91;fill-opacity:1;fill-rule:nonzero;stroke:none"
             d="M 0,0 H 3.601 L 7.072,-8.946 10.603,0 h 3.56 l 1.125,-14.36 h -3.146 l -0.631,9.537 H 11.432 L 8.285,-12.625 H 5.839 L 2.791,-5.336 H 2.683 L 2.042,-14.36 h -3.195 z" /></g><g
           transform="translate(195.1797,28.186)"
           id="g72"><path
             id="path74"
             style="fill:#004b91;fill-opacity:1;fill-rule:nonzero;stroke:none"
             d="M 0,0 -1.45,4.725 H -1.499 L -2.949,0 Z M -3.156,7.812 H 0.197 L 5.356,-6.549 H 2.219 l -1.37,4.044 h -4.646 l -1.371,-4.044 h -3.137 z" /></g><g
           transform="translate(202.0537,35.9975)"
           id="g76"><path
             id="path78"
             style="fill:#004b91;fill-opacity:1;fill-rule:nonzero;stroke:none"
             d="M 0,0 H 8.956 V -2.544 H 3.099 V -14.36 l -3.099,0 z" /></g><g
           transform="translate(219.7285,28.186)"
           id="g80"><path
             id="path82"
             style="fill:#004b91;fill-opacity:1;fill-rule:nonzero;stroke:none"
             d="M 0,0 -1.45,4.725 H -1.499 L -2.949,0 Z M -3.156,7.812 H 0.197 L 5.356,-6.549 H 2.219 l -1.37,4.044 h -4.646 l -1.371,-4.044 h -3.137 z" /></g><g
           transform="translate(226.0498,24.3198)"
           id="g84"><path
             id="path86"
             style="fill:#004b91;fill-opacity:1;fill-rule:nonzero;stroke:none"
             d="m 0,0 c 1.392,-0.326 2.713,-0.483 3.976,-0.483 0.384,0 0.719,0.029 1.005,0.079 0.288,0.049 0.563,0.137 0.819,0.266 C 6.058,-0.01 6.255,0.187 6.392,0.444 6.53,0.7 6.6,1.026 6.6,1.41 6.6,1.736 6.56,2.022 6.471,2.259 6.382,2.495 6.264,2.692 6.115,2.84 5.968,2.988 5.781,3.107 5.554,3.195 5.326,3.284 5.09,3.343 4.844,3.373 4.598,3.403 4.321,3.422 4.006,3.432 H 1.815 v 2.397 h 2.191 c 0.345,0 0.621,0.01 0.838,0.029 0.217,0.02 0.425,0.07 0.631,0.139 0.207,0.069 0.364,0.177 0.473,0.315 0.11,0.138 0.198,0.316 0.257,0.542 0.059,0.228 0.089,0.514 0.089,0.849 0,0.306 -0.05,0.572 -0.148,0.789 C 6.047,8.709 5.929,8.876 5.781,8.995 5.633,9.113 5.436,9.212 5.189,9.281 4.942,9.35 4.705,9.399 4.479,9.419 4.252,9.439 3.976,9.449 3.65,9.449 2.516,9.449 1.421,9.331 0.376,9.084 v 2.328 c 1.489,0.296 2.603,0.443 3.353,0.443 0.523,0 0.966,-0.01 1.332,-0.029 0.365,-0.02 0.75,-0.059 1.164,-0.118 C 6.639,11.648 6.983,11.56 7.26,11.441 7.536,11.323 7.812,11.165 8.088,10.958 8.364,10.75 8.582,10.504 8.74,10.218 8.897,9.932 9.025,9.577 9.124,9.153 9.223,8.729 9.271,8.246 9.271,7.703 9.271,6.302 8.671,5.316 7.457,4.754 8.858,4.291 9.559,3.176 9.559,1.42 9.559,0.878 9.509,0.395 9.41,-0.03 9.312,-0.454 9.184,-0.819 9.017,-1.115 8.848,-1.411 8.631,-1.667 8.364,-1.884 8.099,-2.101 7.822,-2.269 7.536,-2.397 7.25,-2.525 6.904,-2.624 6.501,-2.693 6.097,-2.762 5.712,-2.811 5.337,-2.831 4.962,-2.851 4.519,-2.86 4.015,-2.86 c -1.085,0 -2.437,0.177 -4.064,0.542 z" /></g><g
           transform="translate(249.1309,21.6371)"
           id="g88"><path
             id="path90"
             style="fill:#004b91;fill-opacity:1;fill-rule:nonzero;stroke:none"
             d="M 0,0 H -3.099 V 8.808 H -3.177 L -7.96,0 h -3.176 v 14.36 h 3.087 V 5.651 h 0.089 l 4.606,8.709 H 0 Z" /></g><g
           transform="translate(251.9912,35.9975)"
           id="g92"><path
             id="path94"
             style="fill:#004b91;fill-opacity:1;fill-rule:nonzero;stroke:none"
             d="M 0,0 H 3.098 V -5.74 H 8.227 V 0 h 3.086 V -14.36 H 8.227 v 6.095 H 3.098 V -14.36 H 0 Z" /></g></g></g></g></svg>