<?xml version="1.0" encoding="UTF-8" standalone="no"?>
<svg
   xmlns:dc="http://purl.org/dc/elements/1.1/"
   xmlns:cc="http://creativecommons.org/ns#"
   xmlns:rdf="http://www.w3.org/1999/02/22-rdf-syntax-ns#"
   xmlns:svg="http://www.w3.org/2000/svg"
   xmlns="http://www.w3.org/2000/svg"
   viewBox="0 0 54 53.333332"
   height="53.333332"
   width="54"
   xml:space="preserve"
   id="svg2"
   version="1.1"><metadata
     id="metadata8"><rdf:RDF><cc:Work
         rdf:about=""><dc:format>image/svg+xml</dc:format><dc:type
           rdf:resource="http://purl.org/dc/dcmitype/StillImage" /></cc:Work></rdf:RDF></metadata><defs
     id="defs6"><clipPath
       id="clipPath18"
       clipPathUnits="userSpaceOnUse"><path
         id="path16"
         d="M 0,40 H 40.5 V 0 H 0 Z" /></clipPath></defs><g
     transform="matrix(1.3333333,0,0,-1.3333333,0,53.333333)"
     id="g10"><g
       id="g12"><g
         clip-path="url(#clipPath18)"
         id="g14"><g
           transform="translate(9.9687,21.3696)"
           id="g20"><path
             id="path22"
             style="fill:#0496ff;fill-opacity:1;fill-rule:nonzero;stroke:none"
             d="m 0,0 4.853,-4.217 -6.107,-8.54 c -3.079,3.042 -4.774,7.086 -4.774,11.387 0,4.303 1.696,8.348 4.777,11.391 3.08,3.042 7.176,4.718 11.532,4.718 1.198,0 2.375,-0.128 3.517,-0.375 z m 21.198,15.478 c -1.311,0.831 -2.726,1.514 -4.22,2.031 -2.097,0.726 -4.35,1.121 -6.697,1.121 -11.183,0 -20.25,-8.954 -20.25,-20 0,-5.761 2.468,-10.952 6.415,-14.603 l -3.525,-4.928 4.141,4.38 2.692,2.848 9.586,10.142 -3.867,3.963 12.8,12.248 z" /></g><g
           transform="translate(31.7827,8.6098)"
           id="g24"><path
             id="path26"
             style="fill:#004b91;fill-opacity:1;fill-rule:nonzero;stroke:none"
             d="m 0,0 c -3.081,-3.042 -7.176,-4.718 -11.533,-4.718 -3.066,0 -6.003,0.831 -8.548,2.384 l 14.869,12.679 -3.065,3.46 9.295,7.872 C 3.452,18.792 4.777,15.192 4.777,11.39 4.777,7.088 3.08,3.042 0,0 M 4.009,24.21 C 3.215,25.148 2.336,26.013 1.384,26.793 L -1.53,24.116 -13.422,13.192 -10.284,9.66 -21.181,-1.601 -23.919,-4.432 c 0.057,-0.043 0.114,-0.087 0.171,-0.13 3.396,-2.54 7.627,-4.047 12.215,-4.047 11.184,0 20.25,8.954 20.25,19.999 0,4.879 -1.769,9.349 -4.708,12.82" /></g></g></g></g></svg>