<?xml version="1.0" standalone="no"?>
<!DOCTYPE svg PUBLIC "-//W3C//DTD SVG 1.1//EN" "http://www.w3.org/Graphics/SVG/1.1/DTD/svg11.dtd">
<!--Generator: Xara Designer (www.xara.com), SVG filter version: 4.0.0.1-->
<svg stroke-width="0.501" stroke-linejoin="bevel" fill-rule="evenodd" xmlns:xlink="http://www.w3.org/1999/xlink" xmlns="http://www.w3.org/2000/svg" version="1.1" overflow="visible" width="41.99pt" height="27pt" viewBox="0 0 41.99 27">
 <defs>
  <marker id="DefaultArrow2" markerUnits="strokeWidth" viewBox="0 0 1 1" markerWidth="1" markerHeight="1" overflow="visible" orient="auto">
   <!-- REF_ARROW_STRAIGHT (-2) -->
   <g transform="scale(0.0092592592)">
    <!-- 1/108 -->
    <path d="M -9 54 L -9 -54 L 117 0 z"/>
   </g>
  </marker>
  <marker id="DefaultArrow3" markerUnits="strokeWidth" viewBox="0 0 1 1" markerWidth="1" markerHeight="1" overflow="visible" orient="auto">
   <!-- REF_ARROW_ANGLED -->
   <g transform="scale(0.0092592592)">
    <path d="M -27 54 L -9 0 L -27 -54 L 135 0 z"/>
   </g>
  </marker>
  <marker id="DefaultArrow4" markerUnits="strokeWidth" viewBox="0 0 1 1" markerWidth="1" markerHeight="1" overflow="visible" orient="auto">
   <!-- REF_ARROW_ROUNDED -->
   <g transform="scale(0.0092592592)">
    <path d="M -9,0 L -9,-45 C -9,-51.708 2.808,-56.580 9,-54 L 117,-9 C 120.916,-7.369 126.000,-4.242 126,0 C 126,4.242 120.916,7.369 117,9 L 9,54 C 2.808,56.580 -9,51.708 -9,45 z"/>
   </g>
  </marker>
  <marker id="DefaultArrow5" markerUnits="strokeWidth" viewBox="0 0 1 1" markerWidth="1" markerHeight="1" overflow="visible" orient="auto">
   <!-- REF_ARROW_SPOT -->
   <g transform="scale(0.0092592592)">
    <path d="M -54, 0 C -54,29.807 -29.807,54 0,54 C 29.807,54 54,29.807 54,0 C 54,-29.807 29.807,-54 0,-54 C -29.807,-54 -54,-29.807 -54,0 z"/>
   </g>
  </marker>
  <marker id="DefaultArrow6" markerUnits="strokeWidth" viewBox="0 0 1 1" markerWidth="1" markerHeight="1" overflow="visible" orient="auto">
   <!-- REF_ARROW_DIAMOND -->
   <g transform="scale(0.0092592592)">
    <path d="M -63,0 L 0,63 L 63,0 L 0,-63 z"/>
   </g>
  </marker>
  <marker id="DefaultArrow7" markerUnits="strokeWidth" viewBox="0 0 1 1" markerWidth="1" markerHeight="1" overflow="visible" orient="auto">
   <!-- REF_ARROW_FEATHER -->
   <g transform="scale(0.0092592592)">
    <path d="M 18,-54 L 108,-54 L 63,0 L 108,54 L 18, 54 L -36,0 z"/>
   </g>
  </marker>
  <marker id="DefaultArrow8" markerUnits="strokeWidth" viewBox="0 0 1 1" markerWidth="1" markerHeight="1" overflow="visible" orient="auto">
   <!-- REF_ARROW_FEATHER2 -->
   <g transform="scale(0.0092592592)">
    <path d="M -36,0 L 18,-54 L 54,-54 L 18,-18 L 27,-18 L 63,-54 L 99,-54 L 63,-18 L 72,-18 L 108,-54 L 144,-54 L 90,0 L 144,54 L 108,54 L 72,18 L 63,18 L 99,54 L 63,54 L 27,18 L 18,18 L 54,54 L 18,54 z"/>
   </g>
  </marker>
  <marker id="DefaultArrow9" markerUnits="strokeWidth" viewBox="0 0 1 1" markerWidth="1" markerHeight="1" overflow="visible" orient="auto">
   <!-- REF_ARROW_HOLLOWDIAMOND -->
   <g transform="scale(0.0092592592)">
    <path d="M 0,45 L -45,0 L 0, -45 L 45, 0 z M 0, 63 L-63, 0 L 0, -63 L 63, 0 z"/>
   </g>
  </marker>
  <filter id="StainedFilter">
   <feBlend mode="multiply" in2="BackgroundImage" in="SourceGraphic" result="blend"/>
   <feComposite in="blend" in2="SourceAlpha" operator="in" result="comp"/>
  </filter>
  <filter id="BleachFilter">
   <feBlend mode="screen" in2="BackgroundImage" in="SourceGraphic" result="blend"/>
   <feComposite in="blend" in2="SourceAlpha" operator="in" result="comp"/>
  </filter>
  <filter id="InvertTransparencyBitmapFilter">
   <feComponentTransfer>
    <feFuncR type="gamma" amplitude="1.055" exponent=".416666666" offset="-0.055"/>
    <feFuncG type="gamma" amplitude="1.055" exponent=".416666666" offset="-0.055"/>
    <feFuncB type="gamma" amplitude="1.055" exponent=".416666666" offset="-0.055"/>
   </feComponentTransfer>
   <feComponentTransfer>
    <feFuncR type="linear" slope="-1" intercept="1"/>
    <feFuncG type="linear" slope="-1" intercept="1"/>
    <feFuncB type="linear" slope="-1" intercept="1"/>
    <feFuncA type="linear" slope="1" intercept="0"/>
   </feComponentTransfer>
   <feComponentTransfer>
    <feFuncR type="gamma" amplitude="1" exponent="2.4" offset="0"/>
    <feFuncG type="gamma" amplitude="1" exponent="2.4" offset="0"/>
    <feFuncB type="gamma" amplitude="1" exponent="2.4" offset="0"/>
   </feComponentTransfer>
  </filter>
 </defs>
 <g id="Document" fill="none" stroke="black" font-family="Times New Roman" font-size="16" transform="scale(1 -1)">
  <g id="Spread" transform="translate(0 -27)">
   <g id="Layer 1">
    <g id="Group" stroke="none">
     <path d="M 0,26.998 L 0,-0.001 L 42,-0.001 L 42,26.998 L 0,26.998 Z" stroke-linejoin="round" marker-start="none" marker-end="none"/>
     <path d="M 7.5,4.5 L 7.499,7.276 C 7.094,7.433 6.73,7.624 6.404,7.846 C 5.355,8.559 4.777,9.535 4.42,10.538 C 3.788,12.315 3.755,14.429 3.548,16.419 C 3.406,17.485 3.093,18.061 2.801,18.362 C 2.522,18.649 2.201,18.75 1.875,18.75 L 1.874,18.776 C 1.452,18.834 1.058,18.989 0.738,19.23 C 0.318,19.545 -0.001,20.03 -0.001,20.625 C -0.001,21.222 0.32,21.707 0.738,22.02 C 1.151,22.33 1.687,22.5 2.248,22.5 L 39.751,22.5 C 40.311,22.5 40.847,22.33 41.26,22.02 C 41.68,21.705 42,21.22 42,20.625 C 42,20.028 41.678,19.543 41.26,19.23 C 40.94,18.99 40.546,18.834 40.125,18.776 L 40.125,18.75 C 39.798,18.75 39.477,18.649 39.198,18.362 C 38.906,18.061 38.593,17.485 38.451,16.419 C 38.254,14.525 38.216,12.329 37.579,10.538 C 37.222,9.535 36.644,8.559 35.595,7.846 C 35.078,7.495 34.469,7.223 33.75,7.037 L 33.75,4.5 C 33.75,4.086 33.413,3.75 33,3.75 L 32.25,3.75 C 32.013,3.75 31.791,3.861 31.65,4.05 L 29.625,6.75 L 11.625,6.75 L 9.6,4.05 C 9.458,3.861 9.236,3.75 9,3.75 L 8.25,3.75 C 7.836,3.75 7.5,4.086 7.5,4.5 Z M 9,5.75 L 9.779,6.789 C 9.508,6.811 9.248,6.842 8.999,6.882 L 9,5.75 Z M 32.25,5.75 L 32.25,6.791 C 32.008,6.771 31.757,6.758 31.497,6.753 L 32.25,5.75 Z M 34.752,9.087 C 35.46,9.568 35.88,10.237 36.166,11.041 C 36.732,12.634 36.782,14.874 36.962,16.596 C 37.081,17.494 37.318,18.205 37.636,18.751 L 4.368,18.751 C 4.692,18.194 4.918,17.481 5.037,16.596 C 5.23,14.754 5.272,12.618 5.833,11.041 C 6.119,10.237 6.539,9.568 7.247,9.087 C 7.963,8.601 9.058,8.25 10.8,8.25 L 31.2,8.25 C 32.941,8.25 34.036,8.601 34.752,9.087 Z M 12.896,10.943 C 13.424,11.663 14.196,12.422 14.798,13.143 C 15.439,13.91 15.75,14.48 15.75,14.901 L 15.75,15.117 C 15.75,15.31 15.68,15.471 15.581,15.577 C 15.488,15.678 15.351,15.75 15.16,15.75 L 14.899,15.75 C 14.705,15.75 14.545,15.694 14.441,15.615 C 14.353,15.547 14.269,15.436 14.246,15.222 C 14.204,14.81 13.835,14.511 13.423,14.554 C 13.011,14.596 12.712,14.965 12.755,15.377 C 12.818,15.992 13.106,16.481 13.53,16.806 C 13.94,17.12 14.436,17.25 14.899,17.25 L 15.16,17.25 C 15.771,17.25 16.304,17.003 16.68,16.598 C 17.05,16.2 17.25,15.669 17.25,15.117 L 17.25,14.901 C 17.25,13.859 16.553,12.904 15.949,12.181 C 15.788,11.989 15.622,11.8 15.456,11.614 L 15.125,11.25 L 16.5,11.25 C 16.913,11.25 17.25,10.913 17.25,10.5 C 17.25,10.086 16.913,9.75 16.5,9.75 L 13.501,9.75 C 12.888,9.75 12.533,10.449 12.896,10.943 Z M 17.993,12.75 L 17.993,14.249 C 17.993,15.881 19.141,17.249 20.625,17.249 C 22.112,17.249 23.258,15.878 23.258,14.249 L 23.258,12.75 C 23.258,11.117 22.109,9.75 20.625,9.75 C 19.138,9.75 17.993,11.12 17.993,12.75 Z M 23.993,12.75 L 23.993,14.249 C 23.993,15.881 25.141,17.249 26.625,17.249 C 28.112,17.249 29.258,15.878 29.258,14.249 L 29.258,12.75 C 29.258,11.117 28.109,9.75 26.625,9.75 C 25.138,9.75 23.993,11.12 23.993,12.75 Z M 21.758,12.75 L 21.758,14.249 C 21.758,15.136 21.181,15.749 20.625,15.749 C 20.06,15.749 19.493,15.126 19.493,14.249 L 19.493,12.75 C 19.493,11.862 20.069,11.25 20.625,11.25 C 21.19,11.25 21.758,11.872 21.758,12.75 Z M 27.758,12.75 L 27.758,14.249 C 27.758,15.136 27.181,15.749 26.625,15.749 C 26.06,15.749 25.493,15.126 25.493,14.249 L 25.493,12.75 C 25.493,11.862 26.069,11.25 26.625,11.25 C 27.19,11.25 27.758,11.872 27.758,12.75 Z M 40.36,20.43 C 40.483,20.522 40.5,20.595 40.5,20.625 C 40.5,20.653 40.481,20.73 40.36,20.82 C 40.23,20.917 40.017,21 39.751,21 L 2.248,21 C 1.981,21 1.768,20.917 1.638,20.82 C 1.515,20.728 1.499,20.655 1.499,20.625 C 1.499,20.597 1.517,20.52 1.638,20.43 C 1.768,20.333 1.981,20.251 2.248,20.251 L 39.751,20.251 C 40.017,20.251 40.23,20.333 40.36,20.43 Z" stroke-width="0.5" fill="#bababa" fill-rule="evenodd" marker-start="none" marker-end="none" stroke-miterlimit="79.8403193612775"/>
    </g>
   </g>
  </g>
 </g>
</svg>
