<?xml version="1.0" standalone="no"?>
<!DOCTYPE svg PUBLIC "-//W3C//DTD SVG 1.1//EN" "http://www.w3.org/Graphics/SVG/1.1/DTD/svg11.dtd">
<!--Generator: Xara Designer (www.xara.com), SVG filter version: 4.0.0.1-->
<svg stroke-width="0.501" stroke-linejoin="bevel" fill-rule="evenodd" xmlns:xlink="http://www.w3.org/1999/xlink" xmlns="http://www.w3.org/2000/svg" version="1.1" overflow="visible" width="40.49pt" height="27pt" viewBox="0 0 40.49 27">
 <defs>
  <marker id="DefaultArrow2" markerUnits="strokeWidth" viewBox="0 0 1 1" markerWidth="1" markerHeight="1" overflow="visible" orient="auto">
   <!-- REF_ARROW_STRAIGHT (-2) -->
   <g transform="scale(0.0092592592)">
    <!-- 1/108 -->
    <path d="M -9 54 L -9 -54 L 117 0 z"/>
   </g>
  </marker>
  <marker id="DefaultArrow3" markerUnits="strokeWidth" viewBox="0 0 1 1" markerWidth="1" markerHeight="1" overflow="visible" orient="auto">
   <!-- REF_ARROW_ANGLED -->
   <g transform="scale(0.0092592592)">
    <path d="M -27 54 L -9 0 L -27 -54 L 135 0 z"/>
   </g>
  </marker>
  <marker id="DefaultArrow4" markerUnits="strokeWidth" viewBox="0 0 1 1" markerWidth="1" markerHeight="1" overflow="visible" orient="auto">
   <!-- REF_ARROW_ROUNDED -->
   <g transform="scale(0.0092592592)">
    <path d="M -9,0 L -9,-45 C -9,-51.708 2.808,-56.580 9,-54 L 117,-9 C 120.916,-7.369 126.000,-4.242 126,0 C 126,4.242 120.916,7.369 117,9 L 9,54 C 2.808,56.580 -9,51.708 -9,45 z"/>
   </g>
  </marker>
  <marker id="DefaultArrow5" markerUnits="strokeWidth" viewBox="0 0 1 1" markerWidth="1" markerHeight="1" overflow="visible" orient="auto">
   <!-- REF_ARROW_SPOT -->
   <g transform="scale(0.0092592592)">
    <path d="M -54, 0 C -54,29.807 -29.807,54 0,54 C 29.807,54 54,29.807 54,0 C 54,-29.807 29.807,-54 0,-54 C -29.807,-54 -54,-29.807 -54,0 z"/>
   </g>
  </marker>
  <marker id="DefaultArrow6" markerUnits="strokeWidth" viewBox="0 0 1 1" markerWidth="1" markerHeight="1" overflow="visible" orient="auto">
   <!-- REF_ARROW_DIAMOND -->
   <g transform="scale(0.0092592592)">
    <path d="M -63,0 L 0,63 L 63,0 L 0,-63 z"/>
   </g>
  </marker>
  <marker id="DefaultArrow7" markerUnits="strokeWidth" viewBox="0 0 1 1" markerWidth="1" markerHeight="1" overflow="visible" orient="auto">
   <!-- REF_ARROW_FEATHER -->
   <g transform="scale(0.0092592592)">
    <path d="M 18,-54 L 108,-54 L 63,0 L 108,54 L 18, 54 L -36,0 z"/>
   </g>
  </marker>
  <marker id="DefaultArrow8" markerUnits="strokeWidth" viewBox="0 0 1 1" markerWidth="1" markerHeight="1" overflow="visible" orient="auto">
   <!-- REF_ARROW_FEATHER2 -->
   <g transform="scale(0.0092592592)">
    <path d="M -36,0 L 18,-54 L 54,-54 L 18,-18 L 27,-18 L 63,-54 L 99,-54 L 63,-18 L 72,-18 L 108,-54 L 144,-54 L 90,0 L 144,54 L 108,54 L 72,18 L 63,18 L 99,54 L 63,54 L 27,18 L 18,18 L 54,54 L 18,54 z"/>
   </g>
  </marker>
  <marker id="DefaultArrow9" markerUnits="strokeWidth" viewBox="0 0 1 1" markerWidth="1" markerHeight="1" overflow="visible" orient="auto">
   <!-- REF_ARROW_HOLLOWDIAMOND -->
   <g transform="scale(0.0092592592)">
    <path d="M 0,45 L -45,0 L 0, -45 L 45, 0 z M 0, 63 L-63, 0 L 0, -63 L 63, 0 z"/>
   </g>
  </marker>
  <filter id="StainedFilter">
   <feBlend mode="multiply" in2="BackgroundImage" in="SourceGraphic" result="blend"/>
   <feComposite in="blend" in2="SourceAlpha" operator="in" result="comp"/>
  </filter>
  <filter id="BleachFilter">
   <feBlend mode="screen" in2="BackgroundImage" in="SourceGraphic" result="blend"/>
   <feComposite in="blend" in2="SourceAlpha" operator="in" result="comp"/>
  </filter>
  <filter id="InvertTransparencyBitmapFilter">
   <feComponentTransfer>
    <feFuncR type="gamma" amplitude="1.055" exponent=".416666666" offset="-0.055"/>
    <feFuncG type="gamma" amplitude="1.055" exponent=".416666666" offset="-0.055"/>
    <feFuncB type="gamma" amplitude="1.055" exponent=".416666666" offset="-0.055"/>
   </feComponentTransfer>
   <feComponentTransfer>
    <feFuncR type="linear" slope="-1" intercept="1"/>
    <feFuncG type="linear" slope="-1" intercept="1"/>
    <feFuncB type="linear" slope="-1" intercept="1"/>
    <feFuncA type="linear" slope="1" intercept="0"/>
   </feComponentTransfer>
   <feComponentTransfer>
    <feFuncR type="gamma" amplitude="1" exponent="2.4" offset="0"/>
    <feFuncG type="gamma" amplitude="1" exponent="2.4" offset="0"/>
    <feFuncB type="gamma" amplitude="1" exponent="2.4" offset="0"/>
   </feComponentTransfer>
  </filter>
 </defs>
 <g id="Document" fill="none" stroke="black" font-family="Times New Roman" font-size="16" transform="scale(1 -1)">
  <g id="Spread" transform="translate(0 -27)">
   <g id="Layer 1">
    <g id="Group" stroke="none">
     <path d="M -0.002,26.998 L -0.002,-0.001 L 40.5,-0.001 L 40.5,26.998 L -0.002,26.998 Z" stroke-linejoin="round" marker-start="none" marker-end="none"/>
     <path d="M 7.5,4.5 L 7.499,7.276 C 7.094,7.433 6.73,7.624 6.404,7.846 C 5.355,8.559 4.777,9.535 4.42,10.538 C 3.788,12.315 3.755,14.429 3.548,16.419 C 3.406,17.485 3.093,18.061 2.801,18.362 C 2.522,18.649 2.201,18.75 1.875,18.75 L 1.874,18.776 C 1.452,18.834 1.058,18.989 0.738,19.23 C 0.318,19.545 -0.001,20.03 -0.001,20.625 C -0.001,21.222 0.32,21.707 0.738,22.02 C 1.151,22.33 1.687,22.5 2.248,22.5 L 38.251,22.5 C 38.811,22.5 39.347,22.33 39.76,22.02 C 40.18,21.705 40.5,21.22 40.5,20.625 C 40.5,20.028 40.178,19.543 39.76,19.23 C 39.44,18.99 39.046,18.834 38.625,18.776 L 38.625,18.75 C 38.298,18.75 37.977,18.649 37.698,18.362 C 37.406,18.061 37.093,17.485 36.951,16.419 C 36.754,14.525 36.716,12.329 36.079,10.538 C 35.722,9.535 35.144,8.559 34.095,7.846 C 33.578,7.495 32.969,7.223 32.25,7.037 L 32.25,4.5 C 32.25,4.086 31.913,3.75 31.5,3.75 L 30.75,3.75 C 30.513,3.75 30.291,3.861 30.15,4.05 L 28.125,6.75 L 11.625,6.75 L 9.6,4.05 C 9.458,3.861 9.236,3.75 9,3.75 L 8.25,3.75 C 7.836,3.75 7.5,4.086 7.5,4.5 Z M 9,5.75 L 9.779,6.789 C 9.508,6.811 9.248,6.842 8.999,6.882 L 9,5.75 Z M 30.75,5.75 L 30.75,6.791 C 30.508,6.771 30.257,6.758 29.997,6.753 L 30.75,5.75 Z M 33.252,9.087 C 33.96,9.568 34.38,10.237 34.666,11.041 C 35.232,12.634 35.282,14.874 35.462,16.596 C 35.581,17.494 35.818,18.205 36.136,18.751 L 4.368,18.751 C 4.692,18.194 4.918,17.481 5.037,16.596 C 5.23,14.754 5.272,12.618 5.833,11.041 C 6.119,10.237 6.539,9.568 7.247,9.087 C 7.963,8.601 9.058,8.25 10.8,8.25 L 29.7,8.25 C 31.441,8.25 32.536,8.601 33.252,9.087 Z M 14.251,10.5 L 14.251,14.689 L 13.281,13.719 C 12.988,13.426 12.513,13.426 12.22,13.719 C 11.927,14.012 11.927,14.487 12.22,14.78 L 14.47,17.03 C 14.941,17.501 15.751,17.166 15.751,16.5 L 15.751,10.5 C 15.751,10.086 15.414,9.75 15.001,9.75 C 14.587,9.75 14.251,10.086 14.251,10.5 Z M 17.356,10.789 C 17.142,11.143 17.255,11.605 17.609,11.819 C 17.963,12.033 18.425,11.92 18.639,11.566 C 18.736,11.406 18.966,11.25 19.283,11.25 L 19.367,11.25 C 19.697,11.25 19.858,11.348 19.973,11.516 C 20.119,11.729 20.25,12.146 20.249,12.878 C 20.014,12.795 19.76,12.75 19.496,12.75 C 18.255,12.75 17.248,13.758 17.248,15 C 17.248,16.241 18.255,17.25 19.496,17.25 C 20.736,17.25 21.744,16.241 21.744,15 C 21.744,14.962 21.743,14.924 21.741,14.887 C 21.747,14.85 21.75,14.811 21.75,14.773 L 21.75,12.888 C 21.75,12.024 21.608,11.247 21.21,10.667 C 20.777,10.037 20.122,9.75 19.367,9.75 L 19.283,9.75 C 18.485,9.75 17.747,10.143 17.356,10.789 Z M 22.493,12.75 L 22.493,14.249 C 22.493,15.881 23.641,17.249 25.125,17.249 C 26.612,17.249 27.758,15.878 27.758,14.249 L 27.758,12.75 C 27.758,11.117 26.609,9.75 25.125,9.75 C 23.638,9.75 22.493,11.12 22.493,12.75 Z M 26.258,12.75 L 26.258,14.249 C 26.258,15.136 25.681,15.749 25.125,15.749 C 24.56,15.749 23.993,15.126 23.993,14.249 L 23.993,12.75 C 23.993,11.862 24.569,11.25 25.125,11.25 C 25.69,11.25 26.258,11.872 26.258,12.75 Z M 20.244,15 C 20.244,15.414 19.907,15.75 19.496,15.75 C 19.084,15.75 18.748,15.414 18.748,15 C 18.748,14.585 19.084,14.25 19.496,14.25 C 19.907,14.25 20.244,14.585 20.244,15 Z M 38.86,20.43 C 38.983,20.522 39,20.595 39,20.625 C 39,20.653 38.981,20.73 38.86,20.82 C 38.73,20.917 38.517,21 38.251,21 L 2.248,21 C 1.981,21 1.768,20.917 1.638,20.82 C 1.515,20.728 1.499,20.655 1.499,20.625 C 1.499,20.597 1.517,20.52 1.638,20.43 C 1.768,20.333 1.981,20.251 2.248,20.251 L 38.251,20.251 C 38.517,20.251 38.73,20.333 38.86,20.43 Z" stroke-width="0.5" fill="#bababa" fill-rule="evenodd" marker-start="none" marker-end="none" stroke-miterlimit="79.8403193612775"/>
    </g>
   </g>
  </g>
 </g>
</svg>
