<?xml version="1.0" standalone="no"?>
<!DOCTYPE svg PUBLIC "-//W3C//DTD SVG 1.1//EN" "http://www.w3.org/Graphics/SVG/1.1/DTD/svg11.dtd">
<!--Generator: Xara Designer (www.xara.com), SVG filter version: 4.0.0.1-->
<svg stroke-width="0.501" stroke-linejoin="bevel" fill-rule="evenodd" xmlns:xlink="http://www.w3.org/1999/xlink" xmlns="http://www.w3.org/2000/svg" version="1.1" overflow="visible" width="37.49pt" height="27pt" viewBox="0 0 37.49 27">
 <defs>
  <marker id="DefaultArrow2" markerUnits="strokeWidth" viewBox="0 0 1 1" markerWidth="1" markerHeight="1" overflow="visible" orient="auto">
   <!-- REF_ARROW_STRAIGHT (-2) -->
   <g transform="scale(0.0092592592)">
    <!-- 1/108 -->
    <path d="M -9 54 L -9 -54 L 117 0 z"/>
   </g>
  </marker>
  <marker id="DefaultArrow3" markerUnits="strokeWidth" viewBox="0 0 1 1" markerWidth="1" markerHeight="1" overflow="visible" orient="auto">
   <!-- REF_ARROW_ANGLED -->
   <g transform="scale(0.0092592592)">
    <path d="M -27 54 L -9 0 L -27 -54 L 135 0 z"/>
   </g>
  </marker>
  <marker id="DefaultArrow4" markerUnits="strokeWidth" viewBox="0 0 1 1" markerWidth="1" markerHeight="1" overflow="visible" orient="auto">
   <!-- REF_ARROW_ROUNDED -->
   <g transform="scale(0.0092592592)">
    <path d="M -9,0 L -9,-45 C -9,-51.708 2.808,-56.580 9,-54 L 117,-9 C 120.916,-7.369 126.000,-4.242 126,0 C 126,4.242 120.916,7.369 117,9 L 9,54 C 2.808,56.580 -9,51.708 -9,45 z"/>
   </g>
  </marker>
  <marker id="DefaultArrow5" markerUnits="strokeWidth" viewBox="0 0 1 1" markerWidth="1" markerHeight="1" overflow="visible" orient="auto">
   <!-- REF_ARROW_SPOT -->
   <g transform="scale(0.0092592592)">
    <path d="M -54, 0 C -54,29.807 -29.807,54 0,54 C 29.807,54 54,29.807 54,0 C 54,-29.807 29.807,-54 0,-54 C -29.807,-54 -54,-29.807 -54,0 z"/>
   </g>
  </marker>
  <marker id="DefaultArrow6" markerUnits="strokeWidth" viewBox="0 0 1 1" markerWidth="1" markerHeight="1" overflow="visible" orient="auto">
   <!-- REF_ARROW_DIAMOND -->
   <g transform="scale(0.0092592592)">
    <path d="M -63,0 L 0,63 L 63,0 L 0,-63 z"/>
   </g>
  </marker>
  <marker id="DefaultArrow7" markerUnits="strokeWidth" viewBox="0 0 1 1" markerWidth="1" markerHeight="1" overflow="visible" orient="auto">
   <!-- REF_ARROW_FEATHER -->
   <g transform="scale(0.0092592592)">
    <path d="M 18,-54 L 108,-54 L 63,0 L 108,54 L 18, 54 L -36,0 z"/>
   </g>
  </marker>
  <marker id="DefaultArrow8" markerUnits="strokeWidth" viewBox="0 0 1 1" markerWidth="1" markerHeight="1" overflow="visible" orient="auto">
   <!-- REF_ARROW_FEATHER2 -->
   <g transform="scale(0.0092592592)">
    <path d="M -36,0 L 18,-54 L 54,-54 L 18,-18 L 27,-18 L 63,-54 L 99,-54 L 63,-18 L 72,-18 L 108,-54 L 144,-54 L 90,0 L 144,54 L 108,54 L 72,18 L 63,18 L 99,54 L 63,54 L 27,18 L 18,18 L 54,54 L 18,54 z"/>
   </g>
  </marker>
  <marker id="DefaultArrow9" markerUnits="strokeWidth" viewBox="0 0 1 1" markerWidth="1" markerHeight="1" overflow="visible" orient="auto">
   <!-- REF_ARROW_HOLLOWDIAMOND -->
   <g transform="scale(0.0092592592)">
    <path d="M 0,45 L -45,0 L 0, -45 L 45, 0 z M 0, 63 L-63, 0 L 0, -63 L 63, 0 z"/>
   </g>
  </marker>
  <filter id="StainedFilter">
   <feBlend mode="multiply" in2="BackgroundImage" in="SourceGraphic" result="blend"/>
   <feComposite in="blend" in2="SourceAlpha" operator="in" result="comp"/>
  </filter>
  <filter id="BleachFilter">
   <feBlend mode="screen" in2="BackgroundImage" in="SourceGraphic" result="blend"/>
   <feComposite in="blend" in2="SourceAlpha" operator="in" result="comp"/>
  </filter>
  <filter id="InvertTransparencyBitmapFilter">
   <feComponentTransfer>
    <feFuncR type="gamma" amplitude="1.055" exponent=".416666666" offset="-0.055"/>
    <feFuncG type="gamma" amplitude="1.055" exponent=".416666666" offset="-0.055"/>
    <feFuncB type="gamma" amplitude="1.055" exponent=".416666666" offset="-0.055"/>
   </feComponentTransfer>
   <feComponentTransfer>
    <feFuncR type="linear" slope="-1" intercept="1"/>
    <feFuncG type="linear" slope="-1" intercept="1"/>
    <feFuncB type="linear" slope="-1" intercept="1"/>
    <feFuncA type="linear" slope="1" intercept="0"/>
   </feComponentTransfer>
   <feComponentTransfer>
    <feFuncR type="gamma" amplitude="1" exponent="2.4" offset="0"/>
    <feFuncG type="gamma" amplitude="1" exponent="2.4" offset="0"/>
    <feFuncB type="gamma" amplitude="1" exponent="2.4" offset="0"/>
   </feComponentTransfer>
  </filter>
 </defs>
 <g id="Document" fill="none" stroke="black" font-family="Times New Roman" font-size="16" transform="scale(1 -1)">
  <g id="Spread" transform="translate(0 -27)">
   <g id="Layer 1">
    <g id="Group" stroke="none">
     <path d="M -0.002,26.998 L -0.002,-0.001 L 37.5,-0.001 L 37.5,26.998 L -0.002,26.998 Z" stroke-linejoin="round" marker-start="none" marker-end="none"/>
     <path d="M 7.5,4.5 L 7.499,7.276 C 7.094,7.433 6.73,7.624 6.404,7.846 C 5.355,8.559 4.777,9.535 4.42,10.538 C 3.788,12.315 3.755,14.429 3.548,16.419 C 3.406,17.485 3.093,18.061 2.801,18.362 C 2.522,18.649 2.201,18.75 1.875,18.75 L 1.874,18.776 C 1.452,18.834 1.058,18.989 0.738,19.23 C 0.318,19.545 -0.001,20.03 -0.001,20.625 C -0.001,21.222 0.32,21.707 0.738,22.02 C 1.151,22.33 1.687,22.5 2.248,22.5 L 35.251,22.5 C 35.811,22.5 36.347,22.33 36.76,22.02 C 37.18,21.705 37.5,21.22 37.5,20.625 C 37.5,20.028 37.178,19.543 36.76,19.23 C 36.44,18.99 36.046,18.834 35.625,18.776 L 35.625,18.75 C 35.298,18.75 34.977,18.649 34.698,18.362 C 34.406,18.061 34.093,17.485 33.951,16.419 C 33.754,14.525 33.716,12.329 33.079,10.538 C 32.722,9.535 32.144,8.559 31.095,7.846 C 30.578,7.495 29.969,7.222 29.25,7.037 L 29.25,4.5 C 29.25,4.086 28.913,3.75 28.5,3.75 L 27.75,3.75 C 27.513,3.75 27.291,3.861 27.15,4.05 L 25.125,6.75 L 11.625,6.75 L 9.6,4.05 C 9.458,3.861 9.236,3.75 9,3.75 L 8.25,3.75 C 7.836,3.75 7.5,4.086 7.5,4.5 Z M 9,5.75 L 9.779,6.789 C 9.508,6.811 9.248,6.842 8.999,6.882 L 9,5.75 Z M 27.75,5.75 L 27.75,6.791 C 27.508,6.771 27.257,6.758 26.997,6.753 L 27.75,5.75 Z M 30.252,9.087 C 30.96,9.568 31.38,10.237 31.666,11.041 C 32.232,12.634 32.282,14.874 32.462,16.596 C 32.581,17.494 32.818,18.205 33.136,18.751 L 4.368,18.751 C 4.692,18.194 4.918,17.481 5.037,16.596 C 5.23,14.754 5.272,12.618 5.833,11.041 C 6.119,10.237 6.539,9.568 7.247,9.087 C 7.963,8.601 9.058,8.25 10.8,8.25 L 26.7,8.25 C 28.441,8.25 29.536,8.601 30.252,9.087 Z M 12.751,10.5 L 12.751,14.689 L 11.781,13.719 C 11.488,13.426 11.013,13.426 10.72,13.719 C 10.427,14.012 10.427,14.487 10.72,14.78 L 12.97,17.03 C 13.441,17.501 14.251,17.166 14.251,16.5 L 14.251,10.5 C 14.251,10.086 13.914,9.75 13.501,9.75 C 13.087,9.75 12.751,10.086 12.751,10.5 Z M 20.993,12.75 L 20.993,14.249 C 20.993,15.881 22.141,17.249 23.625,17.249 C 25.112,17.249 26.258,15.878 26.258,14.249 L 26.258,12.75 C 26.258,11.117 25.109,9.75 23.625,9.75 C 22.138,9.75 20.993,11.12 20.993,12.75 Z M 15.749,12.004 C 15.749,12.578 15.964,13.103 16.319,13.502 C 15.968,13.894 15.754,14.41 15.754,14.98 C 15.754,16.219 16.77,17.209 18.002,17.209 C 19.233,17.209 20.25,16.219 20.25,14.98 C 20.25,14.409 20.034,13.892 19.682,13.499 C 20.036,13.101 20.251,12.577 20.251,12.004 C 20.251,10.761 19.243,9.751 18,9.751 C 16.756,9.751 15.749,10.761 15.749,12.004 Z M 24.758,12.75 L 24.758,14.249 C 24.758,15.136 24.181,15.749 23.625,15.749 C 23.06,15.749 22.493,15.126 22.493,14.249 L 22.493,12.75 C 22.493,11.862 23.069,11.25 23.625,11.25 C 24.19,11.25 24.758,11.872 24.758,12.75 Z M 18.751,12.004 C 18.751,12.39 18.456,12.71 18.084,12.752 C 18.055,12.751 18.029,12.751 18.002,12.751 C 17.973,12.751 17.945,12.751 17.916,12.752 C 17.543,12.711 17.249,12.391 17.249,12.004 C 17.249,11.588 17.587,11.251 18,11.251 C 18.412,11.251 18.751,11.588 18.751,12.004 Z M 18,14.257 C 18.028,14.257 18.056,14.256 18.086,14.255 C 18.464,14.296 18.75,14.613 18.75,14.98 C 18.75,15.372 18.422,15.709 18.002,15.709 C 17.581,15.709 17.254,15.372 17.254,14.98 C 17.254,14.613 17.538,14.296 17.916,14.255 C 17.945,14.256 17.972,14.257 18,14.257 Z M 35.86,20.43 C 35.983,20.522 36,20.595 36,20.625 C 36,20.653 35.981,20.73 35.86,20.82 C 35.73,20.917 35.517,21 35.251,21 L 2.248,21 C 1.981,21 1.768,20.917 1.638,20.82 C 1.515,20.728 1.499,20.655 1.499,20.625 C 1.499,20.597 1.517,20.52 1.638,20.43 C 1.768,20.333 1.981,20.251 2.248,20.251 L 35.251,20.251 C 35.517,20.251 35.73,20.333 35.86,20.43 Z" stroke-width="0.5" fill="#bababa" fill-rule="evenodd" marker-start="none" marker-end="none" stroke-miterlimit="79.8403193612775"/>
    </g>
   </g>
  </g>
 </g>
</svg>
