<?xml version="1.0" standalone="no"?>
<!DOCTYPE svg PUBLIC "-//W3C//DTD SVG 1.1//EN" "http://www.w3.org/Graphics/SVG/1.1/DTD/svg11.dtd">
<!--Generator: Xara Designer (www.xara.com), SVG filter version: 4.0.0.1-->
<svg stroke-width="0.501" stroke-linejoin="bevel" fill-rule="evenodd" xmlns:xlink="http://www.w3.org/1999/xlink" xmlns="http://www.w3.org/2000/svg" version="1.1" overflow="visible" width="29.99pt" height="27pt" viewBox="0 0 29.99 27">
 <defs>
  <marker id="DefaultArrow2" markerUnits="strokeWidth" viewBox="0 0 1 1" markerWidth="1" markerHeight="1" overflow="visible" orient="auto">
   <!-- REF_ARROW_STRAIGHT (-2) -->
   <g transform="scale(0.0092592592)">
    <!-- 1/108 -->
    <path d="M -9 54 L -9 -54 L 117 0 z"/>
   </g>
  </marker>
  <marker id="DefaultArrow3" markerUnits="strokeWidth" viewBox="0 0 1 1" markerWidth="1" markerHeight="1" overflow="visible" orient="auto">
   <!-- REF_ARROW_ANGLED -->
   <g transform="scale(0.0092592592)">
    <path d="M -27 54 L -9 0 L -27 -54 L 135 0 z"/>
   </g>
  </marker>
  <marker id="DefaultArrow4" markerUnits="strokeWidth" viewBox="0 0 1 1" markerWidth="1" markerHeight="1" overflow="visible" orient="auto">
   <!-- REF_ARROW_ROUNDED -->
   <g transform="scale(0.0092592592)">
    <path d="M -9,0 L -9,-45 C -9,-51.708 2.808,-56.580 9,-54 L 117,-9 C 120.916,-7.369 126.000,-4.242 126,0 C 126,4.242 120.916,7.369 117,9 L 9,54 C 2.808,56.580 -9,51.708 -9,45 z"/>
   </g>
  </marker>
  <marker id="DefaultArrow5" markerUnits="strokeWidth" viewBox="0 0 1 1" markerWidth="1" markerHeight="1" overflow="visible" orient="auto">
   <!-- REF_ARROW_SPOT -->
   <g transform="scale(0.0092592592)">
    <path d="M -54, 0 C -54,29.807 -29.807,54 0,54 C 29.807,54 54,29.807 54,0 C 54,-29.807 29.807,-54 0,-54 C -29.807,-54 -54,-29.807 -54,0 z"/>
   </g>
  </marker>
  <marker id="DefaultArrow6" markerUnits="strokeWidth" viewBox="0 0 1 1" markerWidth="1" markerHeight="1" overflow="visible" orient="auto">
   <!-- REF_ARROW_DIAMOND -->
   <g transform="scale(0.0092592592)">
    <path d="M -63,0 L 0,63 L 63,0 L 0,-63 z"/>
   </g>
  </marker>
  <marker id="DefaultArrow7" markerUnits="strokeWidth" viewBox="0 0 1 1" markerWidth="1" markerHeight="1" overflow="visible" orient="auto">
   <!-- REF_ARROW_FEATHER -->
   <g transform="scale(0.0092592592)">
    <path d="M 18,-54 L 108,-54 L 63,0 L 108,54 L 18, 54 L -36,0 z"/>
   </g>
  </marker>
  <marker id="DefaultArrow8" markerUnits="strokeWidth" viewBox="0 0 1 1" markerWidth="1" markerHeight="1" overflow="visible" orient="auto">
   <!-- REF_ARROW_FEATHER2 -->
   <g transform="scale(0.0092592592)">
    <path d="M -36,0 L 18,-54 L 54,-54 L 18,-18 L 27,-18 L 63,-54 L 99,-54 L 63,-18 L 72,-18 L 108,-54 L 144,-54 L 90,0 L 144,54 L 108,54 L 72,18 L 63,18 L 99,54 L 63,54 L 27,18 L 18,18 L 54,54 L 18,54 z"/>
   </g>
  </marker>
  <marker id="DefaultArrow9" markerUnits="strokeWidth" viewBox="0 0 1 1" markerWidth="1" markerHeight="1" overflow="visible" orient="auto">
   <!-- REF_ARROW_HOLLOWDIAMOND -->
   <g transform="scale(0.0092592592)">
    <path d="M 0,45 L -45,0 L 0, -45 L 45, 0 z M 0, 63 L-63, 0 L 0, -63 L 63, 0 z"/>
   </g>
  </marker>
  <filter id="StainedFilter">
   <feBlend mode="multiply" in2="BackgroundImage" in="SourceGraphic" result="blend"/>
   <feComposite in="blend" in2="SourceAlpha" operator="in" result="comp"/>
  </filter>
  <filter id="BleachFilter">
   <feBlend mode="screen" in2="BackgroundImage" in="SourceGraphic" result="blend"/>
   <feComposite in="blend" in2="SourceAlpha" operator="in" result="comp"/>
  </filter>
  <filter id="InvertTransparencyBitmapFilter">
   <feComponentTransfer>
    <feFuncR type="gamma" amplitude="1.055" exponent=".416666666" offset="-0.055"/>
    <feFuncG type="gamma" amplitude="1.055" exponent=".416666666" offset="-0.055"/>
    <feFuncB type="gamma" amplitude="1.055" exponent=".416666666" offset="-0.055"/>
   </feComponentTransfer>
   <feComponentTransfer>
    <feFuncR type="linear" slope="-1" intercept="1"/>
    <feFuncG type="linear" slope="-1" intercept="1"/>
    <feFuncB type="linear" slope="-1" intercept="1"/>
    <feFuncA type="linear" slope="1" intercept="0"/>
   </feComponentTransfer>
   <feComponentTransfer>
    <feFuncR type="gamma" amplitude="1" exponent="2.4" offset="0"/>
    <feFuncG type="gamma" amplitude="1" exponent="2.4" offset="0"/>
    <feFuncB type="gamma" amplitude="1" exponent="2.4" offset="0"/>
   </feComponentTransfer>
  </filter>
 </defs>
 <g id="Document" fill="none" stroke="black" font-family="Times New Roman" font-size="16" transform="scale(1 -1)">
  <g id="Spread" transform="translate(0 -27)">
   <g id="Layer 1">
    <g id="Group" stroke="none">
     <path d="M -0.002,26.998 L -0.002,-0.001 L 30,-0.001 L 30,26.998 L -0.002,26.998 Z" stroke-linejoin="round" marker-start="none" marker-end="none"/>
     <path d="M 7.5,4.5 L 7.499,7.276 C 7.094,7.433 6.73,7.624 6.404,7.846 C 5.355,8.559 4.777,9.535 4.42,10.538 C 3.788,12.315 3.755,14.429 3.548,16.419 C 3.406,17.485 3.093,18.061 2.801,18.362 C 2.522,18.649 2.201,18.75 1.875,18.75 L 1.874,18.776 C 1.452,18.834 1.058,18.989 0.738,19.23 C 0.318,19.545 -0.001,20.03 -0.001,20.625 C -0.001,21.222 0.32,21.707 0.738,22.02 C 1.151,22.33 1.687,22.5 2.248,22.5 L 27.751,22.5 C 28.311,22.5 28.847,22.33 29.26,22.02 C 29.68,21.705 30,21.22 30,20.625 C 30,20.028 29.678,19.543 29.26,19.23 C 28.94,18.99 28.546,18.834 28.125,18.776 L 28.125,18.75 C 27.798,18.75 27.477,18.649 27.198,18.362 C 26.906,18.061 26.593,17.485 26.451,16.419 C 26.254,14.525 26.216,12.329 25.579,10.538 C 25.222,9.535 24.644,8.559 23.595,7.846 C 23.078,7.495 22.469,7.222 21.75,7.037 L 21.75,4.5 C 21.75,4.086 21.413,3.75 21,3.75 L 20.25,3.75 C 20.013,3.75 19.791,3.861 19.65,4.05 L 17.625,6.75 L 11.625,6.75 L 9.6,4.05 C 9.458,3.861 9.236,3.75 9,3.75 L 8.25,3.75 C 7.836,3.75 7.5,4.086 7.5,4.5 Z M 9,5.75 L 9.779,6.789 C 9.508,6.811 9.248,6.842 8.999,6.882 L 9,5.75 Z M 20.25,5.75 L 20.25,6.791 C 20.008,6.771 19.757,6.758 19.497,6.753 L 20.25,5.75 Z M 22.752,9.087 C 23.46,9.568 23.88,10.237 24.166,11.041 C 24.732,12.634 24.782,14.874 24.962,16.596 C 25.081,17.494 25.318,18.205 25.636,18.751 L 4.368,18.751 C 4.692,18.194 4.918,17.481 5.037,16.596 C 5.23,14.754 5.272,12.618 5.833,11.041 C 6.119,10.237 6.539,9.568 7.247,9.087 C 7.963,8.601 9.058,8.25 10.8,8.25 L 19.2,8.25 C 20.941,8.25 22.036,8.601 22.752,9.087 Z M 9.001,10.5 L 9.001,14.689 L 8.031,13.719 C 7.738,13.426 7.263,13.426 6.97,13.719 C 6.677,14.012 6.677,14.487 6.97,14.78 L 9.22,17.03 C 9.691,17.501 10.501,17.166 10.501,16.5 L 10.501,10.5 C 10.501,10.086 10.164,9.75 9.751,9.75 C 9.337,9.75 9.001,10.086 9.001,10.5 Z M 12.146,10.943 C 12.674,11.663 13.446,12.422 14.048,13.143 C 14.689,13.91 15,14.48 15,14.901 L 15,15.117 C 15,15.31 14.93,15.471 14.831,15.577 C 14.738,15.678 14.601,15.75 14.41,15.75 L 14.149,15.75 C 13.955,15.75 13.795,15.694 13.691,15.615 C 13.603,15.547 13.519,15.436 13.496,15.222 C 13.454,14.81 13.085,14.511 12.673,14.554 C 12.261,14.596 11.962,14.965 12.005,15.377 C 12.068,15.992 12.356,16.481 12.78,16.806 C 13.19,17.12 13.686,17.25 14.149,17.25 L 14.41,17.25 C 15.021,17.25 15.554,17.003 15.93,16.598 C 16.3,16.2 16.5,15.669 16.5,15.117 L 16.5,14.901 C 16.5,13.859 15.803,12.904 15.199,12.181 C 15.038,11.989 14.872,11.8 14.706,11.614 L 14.375,11.25 L 15.75,11.25 C 16.163,11.25 16.5,10.913 16.5,10.5 C 16.5,10.086 16.163,9.75 15.75,9.75 L 12.751,9.75 C 12.138,9.75 11.783,10.449 12.146,10.943 Z M 17.243,12.75 L 17.243,14.249 C 17.243,15.881 18.391,17.249 19.875,17.249 C 21.362,17.249 22.508,15.878 22.508,14.249 L 22.508,12.75 C 22.508,11.117 21.359,9.75 19.875,9.75 C 18.388,9.75 17.243,11.12 17.243,12.75 Z M 21.008,12.75 L 21.008,14.249 C 21.008,15.136 20.431,15.749 19.875,15.749 C 19.31,15.749 18.743,15.126 18.743,14.249 L 18.743,12.75 C 18.743,11.862 19.319,11.25 19.875,11.25 C 20.44,11.25 21.008,11.872 21.008,12.75 Z M 28.36,20.43 C 28.483,20.522 28.5,20.595 28.5,20.625 C 28.5,20.653 28.481,20.73 28.36,20.82 C 28.23,20.917 28.017,21 27.751,21 L 2.248,21 C 1.981,21 1.768,20.917 1.638,20.82 C 1.515,20.728 1.499,20.655 1.499,20.625 C 1.499,20.597 1.517,20.52 1.638,20.43 C 1.768,20.333 1.981,20.251 2.248,20.251 L 27.751,20.251 C 28.017,20.251 28.23,20.333 28.36,20.43 Z" stroke-width="0.5" fill="#bababa" fill-rule="evenodd" marker-start="none" marker-end="none" stroke-miterlimit="79.8403193612775"/>
    </g>
   </g>
  </g>
 </g>
</svg>
