<?xml version="1.0" standalone="no"?>
<!DOCTYPE svg PUBLIC "-//W3C//DTD SVG 1.1//EN" "http://www.w3.org/Graphics/SVG/1.1/DTD/svg11.dtd">
<!--Generator: Xara Designer (www.xara.com), SVG filter version: 4.0.0.1-->
<svg stroke-width="0.501" stroke-linejoin="bevel" fill-rule="evenodd" xmlns:xlink="http://www.w3.org/1999/xlink" xmlns="http://www.w3.org/2000/svg" version="1.1" overflow="visible" width="27pt" height="27pt" viewBox="0 0 27 27">
 <defs>
  <marker id="DefaultArrow2" markerUnits="strokeWidth" viewBox="0 0 1 1" markerWidth="1" markerHeight="1" overflow="visible" orient="auto">
   <!-- REF_ARROW_STRAIGHT (-2) -->
   <g transform="scale(0.0092592592)">
    <!-- 1/108 -->
    <path d="M -9 54 L -9 -54 L 117 0 z"/>
   </g>
  </marker>
  <marker id="DefaultArrow3" markerUnits="strokeWidth" viewBox="0 0 1 1" markerWidth="1" markerHeight="1" overflow="visible" orient="auto">
   <!-- REF_ARROW_ANGLED -->
   <g transform="scale(0.0092592592)">
    <path d="M -27 54 L -9 0 L -27 -54 L 135 0 z"/>
   </g>
  </marker>
  <marker id="DefaultArrow4" markerUnits="strokeWidth" viewBox="0 0 1 1" markerWidth="1" markerHeight="1" overflow="visible" orient="auto">
   <!-- REF_ARROW_ROUNDED -->
   <g transform="scale(0.0092592592)">
    <path d="M -9,0 L -9,-45 C -9,-51.708 2.808,-56.580 9,-54 L 117,-9 C 120.916,-7.369 126.000,-4.242 126,0 C 126,4.242 120.916,7.369 117,9 L 9,54 C 2.808,56.580 -9,51.708 -9,45 z"/>
   </g>
  </marker>
  <marker id="DefaultArrow5" markerUnits="strokeWidth" viewBox="0 0 1 1" markerWidth="1" markerHeight="1" overflow="visible" orient="auto">
   <!-- REF_ARROW_SPOT -->
   <g transform="scale(0.0092592592)">
    <path d="M -54, 0 C -54,29.807 -29.807,54 0,54 C 29.807,54 54,29.807 54,0 C 54,-29.807 29.807,-54 0,-54 C -29.807,-54 -54,-29.807 -54,0 z"/>
   </g>
  </marker>
  <marker id="DefaultArrow6" markerUnits="strokeWidth" viewBox="0 0 1 1" markerWidth="1" markerHeight="1" overflow="visible" orient="auto">
   <!-- REF_ARROW_DIAMOND -->
   <g transform="scale(0.0092592592)">
    <path d="M -63,0 L 0,63 L 63,0 L 0,-63 z"/>
   </g>
  </marker>
  <marker id="DefaultArrow7" markerUnits="strokeWidth" viewBox="0 0 1 1" markerWidth="1" markerHeight="1" overflow="visible" orient="auto">
   <!-- REF_ARROW_FEATHER -->
   <g transform="scale(0.0092592592)">
    <path d="M 18,-54 L 108,-54 L 63,0 L 108,54 L 18, 54 L -36,0 z"/>
   </g>
  </marker>
  <marker id="DefaultArrow8" markerUnits="strokeWidth" viewBox="0 0 1 1" markerWidth="1" markerHeight="1" overflow="visible" orient="auto">
   <!-- REF_ARROW_FEATHER2 -->
   <g transform="scale(0.0092592592)">
    <path d="M -36,0 L 18,-54 L 54,-54 L 18,-18 L 27,-18 L 63,-54 L 99,-54 L 63,-18 L 72,-18 L 108,-54 L 144,-54 L 90,0 L 144,54 L 108,54 L 72,18 L 63,18 L 99,54 L 63,54 L 27,18 L 18,18 L 54,54 L 18,54 z"/>
   </g>
  </marker>
  <marker id="DefaultArrow9" markerUnits="strokeWidth" viewBox="0 0 1 1" markerWidth="1" markerHeight="1" overflow="visible" orient="auto">
   <!-- REF_ARROW_HOLLOWDIAMOND -->
   <g transform="scale(0.0092592592)">
    <path d="M 0,45 L -45,0 L 0, -45 L 45, 0 z M 0, 63 L-63, 0 L 0, -63 L 63, 0 z"/>
   </g>
  </marker>
  <filter id="StainedFilter">
   <feBlend mode="multiply" in2="BackgroundImage" in="SourceGraphic" result="blend"/>
   <feComposite in="blend" in2="SourceAlpha" operator="in" result="comp"/>
  </filter>
  <filter id="BleachFilter">
   <feBlend mode="screen" in2="BackgroundImage" in="SourceGraphic" result="blend"/>
   <feComposite in="blend" in2="SourceAlpha" operator="in" result="comp"/>
  </filter>
  <filter id="InvertTransparencyBitmapFilter">
   <feComponentTransfer>
    <feFuncR type="gamma" amplitude="1.055" exponent=".416666666" offset="-0.055"/>
    <feFuncG type="gamma" amplitude="1.055" exponent=".416666666" offset="-0.055"/>
    <feFuncB type="gamma" amplitude="1.055" exponent=".416666666" offset="-0.055"/>
   </feComponentTransfer>
   <feComponentTransfer>
    <feFuncR type="linear" slope="-1" intercept="1"/>
    <feFuncG type="linear" slope="-1" intercept="1"/>
    <feFuncB type="linear" slope="-1" intercept="1"/>
    <feFuncA type="linear" slope="1" intercept="0"/>
   </feComponentTransfer>
   <feComponentTransfer>
    <feFuncR type="gamma" amplitude="1" exponent="2.4" offset="0"/>
    <feFuncG type="gamma" amplitude="1" exponent="2.4" offset="0"/>
    <feFuncB type="gamma" amplitude="1" exponent="2.4" offset="0"/>
   </feComponentTransfer>
  </filter>
 </defs>
 <g id="Document" fill="none" stroke="black" font-family="Times New Roman" font-size="16" transform="scale(1 -1)">
  <g id="Spread" transform="translate(0 -27)">
   <g id="Layer 1">
    <path d="M 6.425,2.01 L 5.619,2.508 L 10.88,7.77 L 10.916,7.798 C 11.045,7.899 11.203,7.997 11.394,8.063 C 11.505,8.101 11.622,8.127 11.746,8.139 C 11.889,8.152 12.032,8.144 12.173,8.118 L 12.499,8.022 C 16.201,6.994 18.866,8.523 20.629,13.182 L 20.955,14.113 L 21,14.467 C 21.006,14.697 20.969,14.878 20.929,14.988 L 20.91,15.026 L 20.849,14.992 L 17.246,11.574 L 17.172,11.531 C 16.437,11.099 15.736,11.136 15.11,11.396 L 15.074,11.413 C 14.083,11.911 11.96,14.109 11.47,15.088 L 11.455,15.122 C 11.197,15.735 11.161,16.437 11.591,17.171 L 11.635,17.246 L 15.052,20.849 L 15.086,20.91 L 15.05,20.929 C 14.94,20.968 14.759,21.005 14.528,20.999 L 14.174,20.954 L 13.248,20.63 C 8.609,18.877 7.049,16.223 8.081,12.498 L 8.176,12.188 C 8.203,12.051 8.213,11.912 8.203,11.773 C 8.193,11.642 8.167,11.518 8.127,11.402 C 8.061,11.207 7.962,11.047 7.862,10.918 L 7.834,10.882 L 2.558,5.55 L 2.056,6.353 C 0.758,8.425 0.009,10.876 0.009,13.498 C 0.009,20.946 6.054,26.992 13.503,26.992 C 20.951,26.992 26.997,20.946 26.997,13.498 C 26.997,6.049 20.951,0.004 13.503,0.004 C 10.909,0.004 8.483,0.737 6.425,2.01 Z M 25.497,13.498 C 25.497,20.117 20.122,25.492 13.503,25.492 C 6.883,25.492 1.509,20.117 1.509,13.498 C 1.509,11.748 1.883,10.087 2.556,8.589 L 2.871,7.999 L 6.698,11.871 L 6.703,11.904 C 6.699,11.924 6.691,11.956 6.671,12.003 L 6.651,12.049 L 6.638,12.098 C 5.25,17.102 7.922,20.511 13.756,22.396 L 13.789,22.407 L 13.823,22.414 C 14.55,22.577 15.584,22.539 16.191,21.962 C 16.495,21.674 16.668,21.264 16.606,20.791 C 16.568,20.5 16.446,20.228 16.28,19.978 L 16.244,19.925 L 12.871,16.368 L 12.764,16.045 L 12.834,15.72 L 13.014,15.435 C 13.534,14.713 14.738,13.476 15.442,12.951 L 15.719,12.771 L 16.044,12.702 L 16.367,12.809 L 19.924,16.183 L 19.978,16.219 C 20.228,16.385 20.501,16.508 20.793,16.546 C 21.264,16.607 21.673,16.434 21.961,16.132 C 22.539,15.525 22.578,14.489 22.415,13.762 L 22.408,13.728 L 22.397,13.695 C 20.501,7.834 17.079,5.194 12.099,6.578 L 12.052,6.591 L 12.008,6.609 C 11.959,6.629 11.926,6.638 11.879,6.637 L 8.067,2.834 L 8.643,2.53 C 10.128,1.87 11.772,1.504 13.503,1.504 C 20.122,1.504 25.497,6.878 25.497,13.498 Z" stroke-linejoin="round" stroke-width="0.5" stroke="none" fill="#bababa" fill-rule="evenodd" marker-start="none" marker-end="none" stroke-miterlimit="79.8403193612775"/>
   </g>
  </g>
 </g>
</svg>
