<?xml version="1.0" standalone="no"?>
<!DOCTYPE svg PUBLIC "-//W3C//DTD SVG 1.1//EN" "http://www.w3.org/Graphics/SVG/1.1/DTD/svg11.dtd">
<!--Generator: Xara Designer (www.xara.com), SVG filter version: 4.0.0.1-->
<svg stroke-width="0.501" stroke-linejoin="bevel" fill-rule="evenodd" xmlns:xlink="http://www.w3.org/1999/xlink" xmlns="http://www.w3.org/2000/svg" version="1.1" overflow="visible" width="28.5pt" height="27pt" viewBox="0 0 28.5 27">
 <defs>
  <marker id="DefaultArrow2" markerUnits="strokeWidth" viewBox="0 0 1 1" markerWidth="1" markerHeight="1" overflow="visible" orient="auto">
   <!-- REF_ARROW_STRAIGHT (-2) -->
   <g transform="scale(0.0092592592)">
    <!-- 1/108 -->
    <path d="M -9 54 L -9 -54 L 117 0 z"/>
   </g>
  </marker>
  <marker id="DefaultArrow3" markerUnits="strokeWidth" viewBox="0 0 1 1" markerWidth="1" markerHeight="1" overflow="visible" orient="auto">
   <!-- REF_ARROW_ANGLED -->
   <g transform="scale(0.0092592592)">
    <path d="M -27 54 L -9 0 L -27 -54 L 135 0 z"/>
   </g>
  </marker>
  <marker id="DefaultArrow4" markerUnits="strokeWidth" viewBox="0 0 1 1" markerWidth="1" markerHeight="1" overflow="visible" orient="auto">
   <!-- REF_ARROW_ROUNDED -->
   <g transform="scale(0.0092592592)">
    <path d="M -9,0 L -9,-45 C -9,-51.708 2.808,-56.580 9,-54 L 117,-9 C 120.916,-7.369 126.000,-4.242 126,0 C 126,4.242 120.916,7.369 117,9 L 9,54 C 2.808,56.580 -9,51.708 -9,45 z"/>
   </g>
  </marker>
  <marker id="DefaultArrow5" markerUnits="strokeWidth" viewBox="0 0 1 1" markerWidth="1" markerHeight="1" overflow="visible" orient="auto">
   <!-- REF_ARROW_SPOT -->
   <g transform="scale(0.0092592592)">
    <path d="M -54, 0 C -54,29.807 -29.807,54 0,54 C 29.807,54 54,29.807 54,0 C 54,-29.807 29.807,-54 0,-54 C -29.807,-54 -54,-29.807 -54,0 z"/>
   </g>
  </marker>
  <marker id="DefaultArrow6" markerUnits="strokeWidth" viewBox="0 0 1 1" markerWidth="1" markerHeight="1" overflow="visible" orient="auto">
   <!-- REF_ARROW_DIAMOND -->
   <g transform="scale(0.0092592592)">
    <path d="M -63,0 L 0,63 L 63,0 L 0,-63 z"/>
   </g>
  </marker>
  <marker id="DefaultArrow7" markerUnits="strokeWidth" viewBox="0 0 1 1" markerWidth="1" markerHeight="1" overflow="visible" orient="auto">
   <!-- REF_ARROW_FEATHER -->
   <g transform="scale(0.0092592592)">
    <path d="M 18,-54 L 108,-54 L 63,0 L 108,54 L 18, 54 L -36,0 z"/>
   </g>
  </marker>
  <marker id="DefaultArrow8" markerUnits="strokeWidth" viewBox="0 0 1 1" markerWidth="1" markerHeight="1" overflow="visible" orient="auto">
   <!-- REF_ARROW_FEATHER2 -->
   <g transform="scale(0.0092592592)">
    <path d="M -36,0 L 18,-54 L 54,-54 L 18,-18 L 27,-18 L 63,-54 L 99,-54 L 63,-18 L 72,-18 L 108,-54 L 144,-54 L 90,0 L 144,54 L 108,54 L 72,18 L 63,18 L 99,54 L 63,54 L 27,18 L 18,18 L 54,54 L 18,54 z"/>
   </g>
  </marker>
  <marker id="DefaultArrow9" markerUnits="strokeWidth" viewBox="0 0 1 1" markerWidth="1" markerHeight="1" overflow="visible" orient="auto">
   <!-- REF_ARROW_HOLLOWDIAMOND -->
   <g transform="scale(0.0092592592)">
    <path d="M 0,45 L -45,0 L 0, -45 L 45, 0 z M 0, 63 L-63, 0 L 0, -63 L 63, 0 z"/>
   </g>
  </marker>
  <filter id="StainedFilter">
   <feBlend mode="multiply" in2="BackgroundImage" in="SourceGraphic" result="blend"/>
   <feComposite in="blend" in2="SourceAlpha" operator="in" result="comp"/>
  </filter>
  <filter id="BleachFilter">
   <feBlend mode="screen" in2="BackgroundImage" in="SourceGraphic" result="blend"/>
   <feComposite in="blend" in2="SourceAlpha" operator="in" result="comp"/>
  </filter>
  <filter id="InvertTransparencyBitmapFilter">
   <feComponentTransfer>
    <feFuncR type="gamma" amplitude="1.055" exponent=".416666666" offset="-0.055"/>
    <feFuncG type="gamma" amplitude="1.055" exponent=".416666666" offset="-0.055"/>
    <feFuncB type="gamma" amplitude="1.055" exponent=".416666666" offset="-0.055"/>
   </feComponentTransfer>
   <feComponentTransfer>
    <feFuncR type="linear" slope="-1" intercept="1"/>
    <feFuncG type="linear" slope="-1" intercept="1"/>
    <feFuncB type="linear" slope="-1" intercept="1"/>
    <feFuncA type="linear" slope="1" intercept="0"/>
   </feComponentTransfer>
   <feComponentTransfer>
    <feFuncR type="gamma" amplitude="1" exponent="2.4" offset="0"/>
    <feFuncG type="gamma" amplitude="1" exponent="2.4" offset="0"/>
    <feFuncB type="gamma" amplitude="1" exponent="2.4" offset="0"/>
   </feComponentTransfer>
  </filter>
 </defs>
 <g id="Document" fill="none" stroke="black" font-family="Times New Roman" font-size="16" transform="scale(1 -1)">
  <g id="Spread" transform="translate(0 -27)">
   <g id="Layer 1">
    <path d="M 10.928,0.001 L 8.914,2.576 L 5.36,2.517 L 4.627,5.937 L 1.395,7.402 L 2.246,10.8 L 0,13.475 L 0,13.526 L 2.246,16.201 L 1.395,19.598 L 4.629,21.063 L 5.36,24.484 L 8.914,24.424 L 10.928,27 L 11.467,27 L 14.252,25.622 L 17.036,27 L 17.575,27 L 19.591,24.424 L 23.144,24.484 L 23.877,21.063 L 27.109,19.598 L 26.258,16.2 L 28.503,13.524 L 28.503,13.473 L 26.258,10.8 L 27.109,7.402 L 23.876,5.937 L 23.144,2.517 L 19.591,2.576 L 17.575,0.001 L 17.036,0.001 L 14.252,1.378 L 11.467,0.001 L 10.928,0.001 Z M 11.508,1.694 L 14.251,3.051 L 16.996,1.694 L 18.87,4.089 L 21.935,4.038 L 22.567,6.99 L 25.35,8.251 L 24.617,11.179 L 26.565,13.5 L 24.617,15.823 L 25.35,18.749 L 22.568,20.01 L 21.935,22.963 L 18.87,22.911 L 16.996,25.307 L 14.253,23.949 L 11.508,25.307 L 9.635,22.911 L 6.569,22.963 L 5.938,20.01 L 3.154,18.749 L 3.887,15.822 L 1.938,13.501 L 3.887,11.179 L 3.154,8.251 L 5.936,6.99 L 6.569,4.038 L 9.635,4.089 L 11.508,1.694 Z M 8.065,10.146 C 8.749,11.042 9.756,11.992 10.554,12.909 C 11.391,13.871 11.858,14.647 11.858,15.271 L 11.858,15.543 C 11.858,16.117 11.451,16.567 10.849,16.567 L 10.505,16.567 C 10.078,16.567 9.491,16.394 9.415,15.699 C 9.373,15.303 9.004,15.016 8.592,15.058 C 8.18,15.098 7.881,15.452 7.924,15.848 C 8.001,16.563 8.346,17.123 8.851,17.495 C 9.341,17.855 9.94,18.008 10.505,18.008 L 10.849,18.008 C 12.36,18.008 13.358,16.845 13.358,15.543 L 13.358,15.271 C 13.358,14.05 12.504,12.904 11.704,11.985 C 11.286,11.504 10.834,11.035 10.409,10.584 L 10.417,10.5 L 12.75,10.5 C 13.163,10.5 13.358,10.117 13.358,9.721 C 13.358,9.323 13.021,9 12.608,9 L 8.67,9 C 8.056,9 7.702,9.672 8.065,10.146 Z M 15.087,9.931 C 14.801,10.219 14.812,10.676 15.111,10.95 C 15.411,11.225 15.886,11.215 16.172,10.927 C 16.467,10.63 16.879,10.448 17.337,10.448 C 18.224,10.448 18.945,11.14 18.945,11.991 C 18.945,12.84 18.224,13.533 17.337,13.533 C 16.997,13.533 16.683,13.432 16.424,13.26 C 16.343,13.205 16.255,13.17 16.164,13.149 C 16.047,13.076 15.907,13.034 15.758,13.034 C 15.344,13.034 15.008,13.357 15.008,13.755 L 15.008,17.287 C 15.008,17.684 15.344,18.008 15.758,18.008 L 19.696,18.008 C 20.109,18.008 20.446,17.684 20.446,17.287 C 20.446,16.89 20.109,16.567 19.696,16.567 L 16.508,16.567 L 16.507,14.865 C 16.771,14.936 17.049,14.974 17.337,14.974 C 19.051,14.974 20.445,13.639 20.445,11.991 C 20.445,10.343 19.051,9.007 17.337,9.007 C 16.452,9.007 15.652,9.363 15.087,9.931 Z" stroke-width="0.5" stroke="none" fill="#bababa" fill-rule="evenodd" stroke-linejoin="round" marker-start="none" marker-end="none" stroke-miterlimit="79.8403193612775"/>
   </g>
  </g>
 </g>
</svg>
