<?xml version="1.0" standalone="no"?>
<!DOCTYPE svg PUBLIC "-//W3C//DTD SVG 1.1//EN" "http://www.w3.org/Graphics/SVG/1.1/DTD/svg11.dtd">
<!--Generator: Xara Designer (www.xara.com), SVG filter version: 4.0.0.1-->
<svg stroke-width="0.501" stroke-linejoin="bevel" fill-rule="evenodd" xmlns:xlink="http://www.w3.org/1999/xlink" xmlns="http://www.w3.org/2000/svg" version="1.1" overflow="visible" width="29.25pt" height="27pt" viewBox="0 0 29.25 27">
 <defs>
  <marker id="DefaultArrow2" markerUnits="strokeWidth" viewBox="0 0 1 1" markerWidth="1" markerHeight="1" overflow="visible" orient="auto">
   <!-- REF_ARROW_STRAIGHT (-2) -->
   <g transform="scale(0.0092592592)">
    <!-- 1/108 -->
    <path d="M -9 54 L -9 -54 L 117 0 z"/>
   </g>
  </marker>
  <marker id="DefaultArrow3" markerUnits="strokeWidth" viewBox="0 0 1 1" markerWidth="1" markerHeight="1" overflow="visible" orient="auto">
   <!-- REF_ARROW_ANGLED -->
   <g transform="scale(0.0092592592)">
    <path d="M -27 54 L -9 0 L -27 -54 L 135 0 z"/>
   </g>
  </marker>
  <marker id="DefaultArrow4" markerUnits="strokeWidth" viewBox="0 0 1 1" markerWidth="1" markerHeight="1" overflow="visible" orient="auto">
   <!-- REF_ARROW_ROUNDED -->
   <g transform="scale(0.0092592592)">
    <path d="M -9,0 L -9,-45 C -9,-51.708 2.808,-56.580 9,-54 L 117,-9 C 120.916,-7.369 126.000,-4.242 126,0 C 126,4.242 120.916,7.369 117,9 L 9,54 C 2.808,56.580 -9,51.708 -9,45 z"/>
   </g>
  </marker>
  <marker id="DefaultArrow5" markerUnits="strokeWidth" viewBox="0 0 1 1" markerWidth="1" markerHeight="1" overflow="visible" orient="auto">
   <!-- REF_ARROW_SPOT -->
   <g transform="scale(0.0092592592)">
    <path d="M -54, 0 C -54,29.807 -29.807,54 0,54 C 29.807,54 54,29.807 54,0 C 54,-29.807 29.807,-54 0,-54 C -29.807,-54 -54,-29.807 -54,0 z"/>
   </g>
  </marker>
  <marker id="DefaultArrow6" markerUnits="strokeWidth" viewBox="0 0 1 1" markerWidth="1" markerHeight="1" overflow="visible" orient="auto">
   <!-- REF_ARROW_DIAMOND -->
   <g transform="scale(0.0092592592)">
    <path d="M -63,0 L 0,63 L 63,0 L 0,-63 z"/>
   </g>
  </marker>
  <marker id="DefaultArrow7" markerUnits="strokeWidth" viewBox="0 0 1 1" markerWidth="1" markerHeight="1" overflow="visible" orient="auto">
   <!-- REF_ARROW_FEATHER -->
   <g transform="scale(0.0092592592)">
    <path d="M 18,-54 L 108,-54 L 63,0 L 108,54 L 18, 54 L -36,0 z"/>
   </g>
  </marker>
  <marker id="DefaultArrow8" markerUnits="strokeWidth" viewBox="0 0 1 1" markerWidth="1" markerHeight="1" overflow="visible" orient="auto">
   <!-- REF_ARROW_FEATHER2 -->
   <g transform="scale(0.0092592592)">
    <path d="M -36,0 L 18,-54 L 54,-54 L 18,-18 L 27,-18 L 63,-54 L 99,-54 L 63,-18 L 72,-18 L 108,-54 L 144,-54 L 90,0 L 144,54 L 108,54 L 72,18 L 63,18 L 99,54 L 63,54 L 27,18 L 18,18 L 54,54 L 18,54 z"/>
   </g>
  </marker>
  <marker id="DefaultArrow9" markerUnits="strokeWidth" viewBox="0 0 1 1" markerWidth="1" markerHeight="1" overflow="visible" orient="auto">
   <!-- REF_ARROW_HOLLOWDIAMOND -->
   <g transform="scale(0.0092592592)">
    <path d="M 0,45 L -45,0 L 0, -45 L 45, 0 z M 0, 63 L-63, 0 L 0, -63 L 63, 0 z"/>
   </g>
  </marker>
  <filter id="StainedFilter">
   <feBlend mode="multiply" in2="BackgroundImage" in="SourceGraphic" result="blend"/>
   <feComposite in="blend" in2="SourceAlpha" operator="in" result="comp"/>
  </filter>
  <filter id="BleachFilter">
   <feBlend mode="screen" in2="BackgroundImage" in="SourceGraphic" result="blend"/>
   <feComposite in="blend" in2="SourceAlpha" operator="in" result="comp"/>
  </filter>
  <filter id="InvertTransparencyBitmapFilter">
   <feComponentTransfer>
    <feFuncR type="gamma" amplitude="1.055" exponent=".416666666" offset="-0.055"/>
    <feFuncG type="gamma" amplitude="1.055" exponent=".416666666" offset="-0.055"/>
    <feFuncB type="gamma" amplitude="1.055" exponent=".416666666" offset="-0.055"/>
   </feComponentTransfer>
   <feComponentTransfer>
    <feFuncR type="linear" slope="-1" intercept="1"/>
    <feFuncG type="linear" slope="-1" intercept="1"/>
    <feFuncB type="linear" slope="-1" intercept="1"/>
    <feFuncA type="linear" slope="1" intercept="0"/>
   </feComponentTransfer>
   <feComponentTransfer>
    <feFuncR type="gamma" amplitude="1" exponent="2.4" offset="0"/>
    <feFuncG type="gamma" amplitude="1" exponent="2.4" offset="0"/>
    <feFuncB type="gamma" amplitude="1" exponent="2.4" offset="0"/>
   </feComponentTransfer>
  </filter>
 </defs>
 <g id="Document" fill="none" stroke="black" font-family="Times New Roman" font-size="16" transform="scale(1 -1)">
  <g id="Spread" transform="translate(0 -27)">
   <g id="Layer 1">
    <path d="M 0.841,1.11 L 4.098,7.065 C 1.776,9.915 -0.002,13.487 -0.002,17.116 C -0.002,22.562 4.361,27 9.759,27 C 13.086,27 15.985,25.338 17.735,22.806 C 18.524,23.093 19.372,23.25 20.257,23.25 C 24.455,23.25 27.75,19.787 27.75,15.584 C 27.75,12.632 26.23,9.743 24.324,7.5 L 25.219,7.5 C 25.491,7.5 25.742,7.35 25.873,7.11 L 29.155,1.11 C 29.428,0.611 29.067,0 28.5,0 L 1.497,0 C 0.929,0 0.568,0.611 0.841,1.11 Z M 27.236,1.5 L 24.775,6 L 22.897,6 C 22.147,5.296 21.381,4.701 20.658,4.243 L 20.262,3.992 L 19.864,4.238 C 18.541,5.05 17.132,6.288 15.921,7.773 C 14.179,5.463 12.057,3.555 10.157,2.364 L 9.765,2.118 L 9.369,2.359 C 7.991,3.197 6.512,4.403 5.147,5.864 L 2.76,1.5 L 27.236,1.5 Z M 9.752,3.897 L 10.104,4.132 C 13.857,6.796 17.998,12.032 17.998,17.124 C 17.998,21.753 14.345,25.5 9.759,25.5 C 5.208,25.5 1.498,21.753 1.498,17.116 C 1.498,12.008 5.606,6.758 9.395,4.129 L 9.752,3.897 Z M 20.25,5.776 L 20.406,5.882 C 23.187,7.877 26.25,11.795 26.25,15.584 C 26.25,19.002 23.584,21.75 20.257,21.75 C 19.647,21.75 19.059,21.656 18.506,21.483 C 18.828,20.815 19.079,20.106 19.247,19.364 C 19.566,19.452 19.902,19.5 20.248,19.5 C 22.318,19.5 23.998,17.82 23.998,15.75 C 23.998,13.679 22.318,12 20.248,12 C 19.638,12 19.061,12.145 18.552,12.404 C 18.099,11.24 17.505,10.116 16.818,9.056 C 17.83,7.744 19.012,6.633 20.13,5.855 L 20.25,5.776 Z M 5.248,17.25 C 5.248,19.734 7.263,21.75 9.748,21.75 C 12.232,21.75 14.248,19.734 14.248,17.25 C 14.248,14.765 12.232,12.75 9.748,12.75 C 7.263,12.75 5.248,14.765 5.248,17.25 Z M 22.498,15.75 C 22.498,16.991 21.489,18 20.248,18 C 19.974,18 19.713,17.951 19.471,17.861 C 19.489,17.618 19.498,17.372 19.498,17.124 C 19.498,16.022 19.331,14.926 19.035,13.853 C 19.385,13.629 19.8,13.5 20.248,13.5 C 21.489,13.5 22.498,14.508 22.498,15.75 Z M 12.748,17.25 C 12.748,18.905 11.403,20.25 9.748,20.25 C 8.092,20.25 6.748,18.905 6.748,17.25 C 6.748,15.594 8.092,14.25 9.748,14.25 C 11.403,14.25 12.748,15.594 12.748,17.25 Z" stroke-linejoin="round" stroke-width="0.5" stroke="none" fill="#000000" fill-rule="evenodd" marker-start="none" marker-end="none" stroke-miterlimit="79.8403193612775"/>
   </g>
  </g>
 </g>
</svg>
