<?xml version="1.0" standalone="no"?>
<!DOCTYPE svg PUBLIC "-//W3C//DTD SVG 1.1//EN" "http://www.w3.org/Graphics/SVG/1.1/DTD/svg11.dtd">
<!--Generator: Xara Designer (www.xara.com), SVG filter version: 4.0.0.1-->
<svg stroke-width="0.501" stroke-linejoin="bevel" fill-rule="evenodd" xmlns:xlink="http://www.w3.org/1999/xlink" xmlns="http://www.w3.org/2000/svg" version="1.1" overflow="visible" width="27pt" height="27pt" viewBox="0 0 27 27">
 <defs>
  <marker id="DefaultArrow2" markerUnits="strokeWidth" viewBox="0 0 1 1" markerWidth="1" markerHeight="1" overflow="visible" orient="auto">
   <!-- REF_ARROW_STRAIGHT (-2) -->
   <g transform="scale(0.0092592592)">
    <!-- 1/108 -->
    <path d="M -9 54 L -9 -54 L 117 0 z"/>
   </g>
  </marker>
  <marker id="DefaultArrow3" markerUnits="strokeWidth" viewBox="0 0 1 1" markerWidth="1" markerHeight="1" overflow="visible" orient="auto">
   <!-- REF_ARROW_ANGLED -->
   <g transform="scale(0.0092592592)">
    <path d="M -27 54 L -9 0 L -27 -54 L 135 0 z"/>
   </g>
  </marker>
  <marker id="DefaultArrow4" markerUnits="strokeWidth" viewBox="0 0 1 1" markerWidth="1" markerHeight="1" overflow="visible" orient="auto">
   <!-- REF_ARROW_ROUNDED -->
   <g transform="scale(0.0092592592)">
    <path d="M -9,0 L -9,-45 C -9,-51.708 2.808,-56.580 9,-54 L 117,-9 C 120.916,-7.369 126.000,-4.242 126,0 C 126,4.242 120.916,7.369 117,9 L 9,54 C 2.808,56.580 -9,51.708 -9,45 z"/>
   </g>
  </marker>
  <marker id="DefaultArrow5" markerUnits="strokeWidth" viewBox="0 0 1 1" markerWidth="1" markerHeight="1" overflow="visible" orient="auto">
   <!-- REF_ARROW_SPOT -->
   <g transform="scale(0.0092592592)">
    <path d="M -54, 0 C -54,29.807 -29.807,54 0,54 C 29.807,54 54,29.807 54,0 C 54,-29.807 29.807,-54 0,-54 C -29.807,-54 -54,-29.807 -54,0 z"/>
   </g>
  </marker>
  <marker id="DefaultArrow6" markerUnits="strokeWidth" viewBox="0 0 1 1" markerWidth="1" markerHeight="1" overflow="visible" orient="auto">
   <!-- REF_ARROW_DIAMOND -->
   <g transform="scale(0.0092592592)">
    <path d="M -63,0 L 0,63 L 63,0 L 0,-63 z"/>
   </g>
  </marker>
  <marker id="DefaultArrow7" markerUnits="strokeWidth" viewBox="0 0 1 1" markerWidth="1" markerHeight="1" overflow="visible" orient="auto">
   <!-- REF_ARROW_FEATHER -->
   <g transform="scale(0.0092592592)">
    <path d="M 18,-54 L 108,-54 L 63,0 L 108,54 L 18, 54 L -36,0 z"/>
   </g>
  </marker>
  <marker id="DefaultArrow8" markerUnits="strokeWidth" viewBox="0 0 1 1" markerWidth="1" markerHeight="1" overflow="visible" orient="auto">
   <!-- REF_ARROW_FEATHER2 -->
   <g transform="scale(0.0092592592)">
    <path d="M -36,0 L 18,-54 L 54,-54 L 18,-18 L 27,-18 L 63,-54 L 99,-54 L 63,-18 L 72,-18 L 108,-54 L 144,-54 L 90,0 L 144,54 L 108,54 L 72,18 L 63,18 L 99,54 L 63,54 L 27,18 L 18,18 L 54,54 L 18,54 z"/>
   </g>
  </marker>
  <marker id="DefaultArrow9" markerUnits="strokeWidth" viewBox="0 0 1 1" markerWidth="1" markerHeight="1" overflow="visible" orient="auto">
   <!-- REF_ARROW_HOLLOWDIAMOND -->
   <g transform="scale(0.0092592592)">
    <path d="M 0,45 L -45,0 L 0, -45 L 45, 0 z M 0, 63 L-63, 0 L 0, -63 L 63, 0 z"/>
   </g>
  </marker>
  <filter id="StainedFilter">
   <feBlend mode="multiply" in2="BackgroundImage" in="SourceGraphic" result="blend"/>
   <feComposite in="blend" in2="SourceAlpha" operator="in" result="comp"/>
  </filter>
  <filter id="BleachFilter">
   <feBlend mode="screen" in2="BackgroundImage" in="SourceGraphic" result="blend"/>
   <feComposite in="blend" in2="SourceAlpha" operator="in" result="comp"/>
  </filter>
  <filter id="InvertTransparencyBitmapFilter">
   <feComponentTransfer>
    <feFuncR type="gamma" amplitude="1.055" exponent=".416666666" offset="-0.055"/>
    <feFuncG type="gamma" amplitude="1.055" exponent=".416666666" offset="-0.055"/>
    <feFuncB type="gamma" amplitude="1.055" exponent=".416666666" offset="-0.055"/>
   </feComponentTransfer>
   <feComponentTransfer>
    <feFuncR type="linear" slope="-1" intercept="1"/>
    <feFuncG type="linear" slope="-1" intercept="1"/>
    <feFuncB type="linear" slope="-1" intercept="1"/>
    <feFuncA type="linear" slope="1" intercept="0"/>
   </feComponentTransfer>
   <feComponentTransfer>
    <feFuncR type="gamma" amplitude="1" exponent="2.4" offset="0"/>
    <feFuncG type="gamma" amplitude="1" exponent="2.4" offset="0"/>
    <feFuncB type="gamma" amplitude="1" exponent="2.4" offset="0"/>
   </feComponentTransfer>
  </filter>
 </defs>
 <g id="Document" fill="none" stroke="black" font-family="Times New Roman" font-size="16" transform="scale(1 -1)">
  <g id="Spread" transform="translate(0 -27)">
   <g id="Layer 1">
    <g id="Group" stroke-linejoin="round" stroke="none">
     <path d="M -0.003,26.999 L -0.003,0 L 26.998,0 L 26.998,26.999 L -0.003,26.999 Z" marker-start="none" marker-end="none"/>
     <path d="M 4.498,0.696 L 4.227,0.8 C 3.728,0.993 3.252,1.244 2.891,1.586 C 2.514,1.943 2.248,2.419 2.248,3 L -0.002,3 L -0.002,7.5 L 2.248,7.5 L 2.248,19.5 L -0.002,19.5 L -0.002,24 L 2.248,24 C 2.248,24.582 2.515,25.057 2.891,25.413 C 3.252,25.755 3.728,26.006 4.227,26.199 L 4.498,26.303 L 4.768,26.199 C 5.267,26.006 5.743,25.755 6.104,25.413 C 6.481,25.056 6.748,24.58 6.748,24 L 8.248,24 C 8.248,24.582 8.515,25.057 8.891,25.413 C 9.252,25.755 9.728,26.006 10.227,26.199 L 10.498,26.303 L 10.768,26.199 C 11.267,26.006 11.743,25.755 12.104,25.413 C 12.481,25.056 12.748,24.58 12.748,24 L 14.248,24 C 14.248,24.582 14.515,25.057 14.891,25.413 C 15.252,25.755 15.728,26.006 16.227,26.199 L 16.498,26.303 L 16.768,26.199 C 17.267,26.006 17.743,25.755 18.104,25.413 C 18.481,25.056 18.748,24.58 18.748,24 L 20.248,24 C 20.248,24.582 20.515,25.057 20.891,25.413 C 21.252,25.755 21.728,26.006 22.227,26.199 L 22.498,26.303 L 22.768,26.199 C 23.267,26.006 23.743,25.755 24.104,25.413 C 24.481,25.056 24.748,24.58 24.748,24 L 26.998,24 L 26.998,19.5 L 24.748,19.5 L 24.748,7.5 L 26.998,7.5 L 26.998,3 L 24.748,3 C 24.748,2.417 24.48,1.942 24.104,1.586 C 23.743,1.244 23.267,0.993 22.768,0.8 L 22.498,0.696 L 22.227,0.8 C 21.728,0.993 21.252,1.244 20.891,1.586 C 20.514,1.943 20.248,2.419 20.248,3 L 18.748,3 C 18.748,2.417 18.48,1.942 18.104,1.586 C 17.743,1.244 17.267,0.993 16.768,0.8 L 16.498,0.696 L 16.227,0.8 C 15.728,0.993 15.252,1.244 14.891,1.586 C 14.514,1.943 14.248,2.419 14.248,3 L 12.748,3 C 12.748,2.417 12.48,1.942 12.104,1.586 C 11.743,1.244 11.267,0.993 10.768,0.8 L 10.498,0.696 L 10.227,0.8 C 9.728,0.993 9.252,1.244 8.891,1.586 C 8.514,1.943 8.248,2.419 8.248,3 L 6.748,3 C 6.748,2.417 6.48,1.942 6.104,1.586 C 5.743,1.244 5.267,0.993 4.768,0.8 L 4.498,0.696 Z M 5.073,2.675 C 5.218,2.813 5.248,2.913 5.248,3 L 5.248,24 C 5.248,24.085 5.22,24.184 5.073,24.324 C 4.951,24.438 4.767,24.56 4.494,24.681 C 4.228,24.56 4.043,24.438 3.922,24.324 C 3.777,24.186 3.748,24.086 3.748,24 L 3.748,3 C 3.748,2.914 3.775,2.815 3.922,2.675 C 4.043,2.56 4.228,2.438 4.501,2.316 C 4.767,2.438 4.951,2.56 5.073,2.675 Z M 11.073,2.675 C 11.218,2.813 11.248,2.913 11.248,3 L 11.248,24 C 11.248,24.085 11.22,24.184 11.073,24.324 C 10.951,24.438 10.767,24.56 10.494,24.681 C 10.228,24.56 10.043,24.438 9.922,24.324 C 9.777,24.186 9.748,24.086 9.748,24 L 9.748,3 C 9.748,2.914 9.775,2.815 9.922,2.675 C 10.043,2.56 10.228,2.438 10.501,2.316 C 10.767,2.438 10.951,2.56 11.073,2.675 Z M 17.073,2.675 C 17.218,2.813 17.248,2.913 17.248,3 L 17.248,24 C 17.248,24.085 17.22,24.184 17.073,24.324 C 16.951,24.438 16.767,24.56 16.494,24.681 C 16.228,24.56 16.043,24.438 15.922,24.324 C 15.777,24.186 15.748,24.086 15.748,24 L 15.748,3 C 15.748,2.914 15.775,2.815 15.922,2.675 C 16.043,2.56 16.228,2.438 16.501,2.316 C 16.767,2.438 16.951,2.56 17.073,2.675 Z M 23.073,2.675 C 23.218,2.813 23.248,2.913 23.248,3 L 23.248,24 C 23.248,24.085 23.22,24.184 23.073,24.324 C 22.951,24.438 22.767,24.56 22.494,24.681 C 22.228,24.56 22.043,24.438 21.922,24.324 C 21.777,24.186 21.748,24.086 21.748,24 L 21.748,3 C 21.748,2.914 21.775,2.815 21.922,2.675 C 22.043,2.56 22.228,2.438 22.501,2.316 C 22.767,2.438 22.951,2.56 23.073,2.675 Z M 2.248,4.5 L 2.248,6 L 1.498,6 L 1.498,4.5 L 2.248,4.5 Z M 8.248,4.5 L 8.248,6 L 6.748,6 L 6.748,4.5 L 8.248,4.5 Z M 14.248,4.5 L 14.248,6 L 12.748,6 L 12.748,4.5 L 14.248,4.5 Z M 20.248,4.5 L 20.248,6 L 18.748,6 L 18.748,4.5 L 20.248,4.5 Z M 25.498,4.5 L 25.498,6 L 24.748,6 L 24.748,4.5 L 25.498,4.5 Z M 8.248,7.5 L 8.248,19.5 L 6.748,19.5 L 6.748,7.5 L 8.248,7.5 Z M 14.248,7.5 L 14.248,19.5 L 12.748,19.5 L 12.748,7.5 L 14.248,7.5 Z M 20.248,7.5 L 20.248,19.5 L 18.748,19.5 L 18.748,7.5 L 20.248,7.5 Z M 2.248,21 L 2.248,22.5 L 1.498,22.5 L 1.498,21 L 2.248,21 Z M 8.248,21 L 8.248,22.5 L 6.748,22.5 L 6.748,21 L 8.248,21 Z M 14.248,21 L 14.248,22.5 L 12.748,22.5 L 12.748,21 L 14.248,21 Z M 20.248,21 L 20.248,22.5 L 18.748,22.5 L 18.748,21 L 20.248,21 Z M 25.498,21 L 25.498,22.5 L 24.748,22.5 L 24.748,21 L 25.498,21 Z" fill="#000000" stroke-width="0.5" fill-rule="evenodd" marker-start="none" marker-end="none" stroke-miterlimit="79.8403193612775"/>
    </g>
   </g>
  </g>
 </g>
</svg>
