<?xml version="1.0" standalone="no"?>
<!DOCTYPE svg PUBLIC "-//W3C//DTD SVG 1.1//EN" "http://www.w3.org/Graphics/SVG/1.1/DTD/svg11.dtd">
<!--Generator: Xara Designer (www.xara.com), SVG filter version: 4.0.0.1-->
<svg stroke-width="0.501" stroke-linejoin="bevel" fill-rule="evenodd" xmlns:xlink="http://www.w3.org/1999/xlink" xmlns="http://www.w3.org/2000/svg" version="1.1" overflow="visible" width="27pt" height="27pt" viewBox="0 0 27 27">
 <defs>
  <marker id="DefaultArrow2" markerUnits="strokeWidth" viewBox="0 0 1 1" markerWidth="1" markerHeight="1" overflow="visible" orient="auto">
   <!-- REF_ARROW_STRAIGHT (-2) -->
   <g transform="scale(0.0092592592)">
    <!-- 1/108 -->
    <path d="M -9 54 L -9 -54 L 117 0 z"/>
   </g>
  </marker>
  <marker id="DefaultArrow3" markerUnits="strokeWidth" viewBox="0 0 1 1" markerWidth="1" markerHeight="1" overflow="visible" orient="auto">
   <!-- REF_ARROW_ANGLED -->
   <g transform="scale(0.0092592592)">
    <path d="M -27 54 L -9 0 L -27 -54 L 135 0 z"/>
   </g>
  </marker>
  <marker id="DefaultArrow4" markerUnits="strokeWidth" viewBox="0 0 1 1" markerWidth="1" markerHeight="1" overflow="visible" orient="auto">
   <!-- REF_ARROW_ROUNDED -->
   <g transform="scale(0.0092592592)">
    <path d="M -9,0 L -9,-45 C -9,-51.708 2.808,-56.580 9,-54 L 117,-9 C 120.916,-7.369 126.000,-4.242 126,0 C 126,4.242 120.916,7.369 117,9 L 9,54 C 2.808,56.580 -9,51.708 -9,45 z"/>
   </g>
  </marker>
  <marker id="DefaultArrow5" markerUnits="strokeWidth" viewBox="0 0 1 1" markerWidth="1" markerHeight="1" overflow="visible" orient="auto">
   <!-- REF_ARROW_SPOT -->
   <g transform="scale(0.0092592592)">
    <path d="M -54, 0 C -54,29.807 -29.807,54 0,54 C 29.807,54 54,29.807 54,0 C 54,-29.807 29.807,-54 0,-54 C -29.807,-54 -54,-29.807 -54,0 z"/>
   </g>
  </marker>
  <marker id="DefaultArrow6" markerUnits="strokeWidth" viewBox="0 0 1 1" markerWidth="1" markerHeight="1" overflow="visible" orient="auto">
   <!-- REF_ARROW_DIAMOND -->
   <g transform="scale(0.0092592592)">
    <path d="M -63,0 L 0,63 L 63,0 L 0,-63 z"/>
   </g>
  </marker>
  <marker id="DefaultArrow7" markerUnits="strokeWidth" viewBox="0 0 1 1" markerWidth="1" markerHeight="1" overflow="visible" orient="auto">
   <!-- REF_ARROW_FEATHER -->
   <g transform="scale(0.0092592592)">
    <path d="M 18,-54 L 108,-54 L 63,0 L 108,54 L 18, 54 L -36,0 z"/>
   </g>
  </marker>
  <marker id="DefaultArrow8" markerUnits="strokeWidth" viewBox="0 0 1 1" markerWidth="1" markerHeight="1" overflow="visible" orient="auto">
   <!-- REF_ARROW_FEATHER2 -->
   <g transform="scale(0.0092592592)">
    <path d="M -36,0 L 18,-54 L 54,-54 L 18,-18 L 27,-18 L 63,-54 L 99,-54 L 63,-18 L 72,-18 L 108,-54 L 144,-54 L 90,0 L 144,54 L 108,54 L 72,18 L 63,18 L 99,54 L 63,54 L 27,18 L 18,18 L 54,54 L 18,54 z"/>
   </g>
  </marker>
  <marker id="DefaultArrow9" markerUnits="strokeWidth" viewBox="0 0 1 1" markerWidth="1" markerHeight="1" overflow="visible" orient="auto">
   <!-- REF_ARROW_HOLLOWDIAMOND -->
   <g transform="scale(0.0092592592)">
    <path d="M 0,45 L -45,0 L 0, -45 L 45, 0 z M 0, 63 L-63, 0 L 0, -63 L 63, 0 z"/>
   </g>
  </marker>
  <filter id="StainedFilter">
   <feBlend mode="multiply" in2="BackgroundImage" in="SourceGraphic" result="blend"/>
   <feComposite in="blend" in2="SourceAlpha" operator="in" result="comp"/>
  </filter>
  <filter id="BleachFilter">
   <feBlend mode="screen" in2="BackgroundImage" in="SourceGraphic" result="blend"/>
   <feComposite in="blend" in2="SourceAlpha" operator="in" result="comp"/>
  </filter>
  <filter id="InvertTransparencyBitmapFilter">
   <feComponentTransfer>
    <feFuncR type="gamma" amplitude="1.055" exponent=".416666666" offset="-0.055"/>
    <feFuncG type="gamma" amplitude="1.055" exponent=".416666666" offset="-0.055"/>
    <feFuncB type="gamma" amplitude="1.055" exponent=".416666666" offset="-0.055"/>
   </feComponentTransfer>
   <feComponentTransfer>
    <feFuncR type="linear" slope="-1" intercept="1"/>
    <feFuncG type="linear" slope="-1" intercept="1"/>
    <feFuncB type="linear" slope="-1" intercept="1"/>
    <feFuncA type="linear" slope="1" intercept="0"/>
   </feComponentTransfer>
   <feComponentTransfer>
    <feFuncR type="gamma" amplitude="1" exponent="2.4" offset="0"/>
    <feFuncG type="gamma" amplitude="1" exponent="2.4" offset="0"/>
    <feFuncB type="gamma" amplitude="1" exponent="2.4" offset="0"/>
   </feComponentTransfer>
  </filter>
 </defs>
 <g id="Document" fill="none" stroke="black" font-family="Times New Roman" font-size="16" transform="scale(1 -1)">
  <g id="Spread" transform="translate(0 -27)">
   <g id="Layer 1">
    <g id="Group" stroke-linejoin="round" stroke="none">
     <path d="M -0.003,26.999 L -0.003,0 L 26.998,0 L 26.998,26.999 L -0.003,26.999 Z" marker-start="none" marker-end="none"/>
     <path d="M 0.748,3 L 0.748,12.75 L 2.248,12.75 L 2.248,3 C 2.248,2.274 2.953,1.5 3.748,1.5 L 11.248,1.5 C 12.045,1.5 12.748,2.27 12.748,3 L 12.748,12.75 L 14.248,12.75 L 14.248,3 C 14.248,1.486 12.917,0 11.248,0 L 3.748,0 C 2.081,0 0.748,1.489 0.748,3 Z M 15.748,0 L 15.748,3.755 C 15.756,4.328 15.936,4.894 16.339,5.326 C 16.751,5.768 17.332,6 17.998,6 L 23.998,6 C 24.663,6 25.244,5.768 25.656,5.326 C 26.059,4.894 26.239,4.328 26.248,3.755 L 26.248,0 L 15.748,0 Z M 24.748,1.5 L 24.748,3.744 C 24.741,4.142 24.584,4.5 23.998,4.5 L 17.998,4.5 C 17.407,4.5 17.254,4.137 17.248,3.744 L 17.248,1.5 L 24.748,1.5 Z M 16.498,7.5 L 16.498,9 L 20.248,9 L 20.248,27 L 21.748,27 L 21.748,9 L 25.498,9 L 25.498,7.5 L 16.498,7.5 Z M -0.002,13.5 L -0.002,15 C 0.321,15 0.484,15.042 0.56,15.075 C 0.61,15.098 0.622,15.113 0.639,15.147 C 0.67,15.209 0.706,15.331 0.727,15.577 C 0.747,15.821 0.748,16.115 0.748,16.5 C 0.748,17.946 1.502,18.934 2.662,19.514 C 3.756,20.061 5.209,20.25 6.748,20.25 L 6.748,21.75 L 8.248,21.75 L 8.248,20.25 C 9.786,20.25 11.239,20.061 12.333,19.514 C 13.491,18.935 14.248,17.942 14.248,16.5 C 14.248,16.115 14.248,15.821 14.268,15.577 C 14.289,15.331 14.325,15.209 14.356,15.147 C 14.373,15.113 14.385,15.098 14.435,15.075 C 14.511,15.042 14.674,15 14.998,15 L 14.998,13.5 L -0.002,13.5 M 12.774,15.453 C 12.747,15.772 12.748,16.134 12.748,16.5 C 12.748,17.303 12.377,17.815 11.662,18.172 C 10.881,18.563 9.709,18.75 8.248,18.75 L 6.748,18.75 C 5.286,18.75 4.114,18.563 3.333,18.172 C 2.616,17.814 2.248,17.307 2.248,16.5 C 2.248,16.068 2.258,15.498 2.154,15 L 12.836,15 C 12.804,15.153 12.786,15.306 12.774,15.453 Z" fill="#000000" stroke-width="0.5" fill-rule="evenodd" marker-start="none" marker-end="none" stroke-miterlimit="79.8403193612775"/>
    </g>
   </g>
  </g>
 </g>
</svg>
