<?xml version="1.0" encoding="UTF-8" standalone="no"?>
<svg
   xmlns:dc="http://purl.org/dc/elements/1.1/"
   xmlns:cc="http://creativecommons.org/ns#"
   xmlns:rdf="http://www.w3.org/1999/02/22-rdf-syntax-ns#"
   xmlns:svg="http://www.w3.org/2000/svg"
   xmlns="http://www.w3.org/2000/svg"
   viewBox="0 0 866.58002 316.22668"
   height="316.22668"
   width="866.58002"
   xml:space="preserve"
   id="svg2"
   version="1.1"><metadata
     id="metadata8"><rdf:RDF><cc:Work
         rdf:about=""><dc:format>image/svg+xml</dc:format><dc:type
           rdf:resource="http://purl.org/dc/dcmitype/StillImage" /></cc:Work></rdf:RDF></metadata><defs
     id="defs6" /><g
     transform="matrix(1.3333333,0,0,-1.3333333,0,316.22667)"
     id="g10"><g
       transform="translate(25.6878,44.7804)"
       id="g12"><path
         id="path14"
         style="fill:#000;fill-opacity:1;fill-rule:nonzero;stroke:none"
         d="M 0,0 -8.61,-17.714 -17.219,0 h -7.743 v -44.78 h 8.362 v 27.191 h 0.062 l 7.928,-14.741 7.928,14.741 H -0.62 V -44.78 h 8.362 l 0,44.78 z" /></g><g
       transform="translate(67.9905,44.7804)"
       id="g16"><path
         id="path18"
         style="fill:#000;fill-opacity:1;fill-rule:nonzero;stroke:none"
         d="M 0,0 V -18.518 H -6.194 V 0 h -8.671 v -19.447 l 6.97,-6.628 H 0 v -10.838 h -6.194 v 5.573 h -8.671 v -5.573 l 7.867,-7.867 h 7.803 l 7.866,7.867 0,36.913 z" /></g><g
       transform="translate(126.09,44.7804)"
       id="g20"><path
         id="path22"
         style="fill:#000;fill-opacity:1;fill-rule:nonzero;stroke:none"
         d="M 0,0 -6.69,-18.395 V 0 h -8.485 V -18.395 L -21.864,0 h -8.672 l 7.371,-18.395 -7.494,-6.936 V -44.78 h 8.671 v 17.466 l 2.726,2.602 h 4.087 V -44.78 h 8.485 v 20.068 h 4.088 l 2.725,-2.602 V -44.78 h 8.672 v 19.449 L 1.301,-18.395 8.671,0 Z" /></g><g
       transform="translate(161.6418,44.7804)"
       id="g24"><path
         id="path26"
         style="fill:#000;fill-opacity:1;fill-rule:nonzero;stroke:none"
         d="M 0,0 -7.804,-7.864 V -36.913 L 0,-44.78 h 8.796 l 7.804,7.867 v 6.687 H 7.929 v -6.687 H 0.868 v 29.049 h 7.061 v -6.504 H 16.6 v 6.504 L 8.796,0 Z" /></g><g
       transform="translate(213.1749,44.7804)"
       id="g28"><path
         id="path30"
         style="fill:#000;fill-opacity:1;fill-rule:nonzero;stroke:none"
         d="M 0,0 -6.69,-18.395 V 0 h -8.671 v -44.78 h 8.671 v 20.068 h 4.088 l 2.725,-2.602 V -44.78 h 8.672 v 19.449 L 1.177,-18.395 8.672,0 Z" /></g><g
       transform="translate(257.7078,44.7804)"
       id="g32"><path
         id="path34"
         style="fill:#000;fill-opacity:1;fill-rule:nonzero;stroke:none"
         d="M 0,0 V -9.413 L -9.104,-30.1 V 0 h -7.433 v -44.78 h 7.433 L 0,-24.526 V -44.78 H 7.495 V 0 Z" /></g><g
       transform="translate(285.1461,44.7804)"
       id="g36"><path
         id="path38"
         style="fill:#000;fill-opacity:1;fill-rule:nonzero;stroke:none"
         d="m 0,0 v -44.78 h 19.078 v 7.867 H 8.672 v 11.767 h 8.672 v 7.185 H 8.672 V -7.864 H 19.078 V 0 Z" /></g><g
       transform="translate(361.3293,44.7804)"
       id="g40"><path
         id="path42"
         style="fill:#000;fill-opacity:1;fill-rule:nonzero;stroke:none"
         d="M 0,0 -7.803,-7.864 V -36.913 L 0,-44.78 h 8.797 l 7.803,7.867 v 6.687 H 7.928 v -6.687 h -7.06 v 29.049 h 7.06 v -6.504 H 16.6 v 6.504 L 8.797,0 Z" /></g><g
       transform="translate(396.2007,44.7804)"
       id="g44"><path
         id="path46"
         style="fill:#000;fill-opacity:1;fill-rule:nonzero;stroke:none"
         d="M 0,0 V -7.864 H 6.691 V -44.78 h 8.669 v 36.916 h 6.629 V 0 Z" /></g><g
       transform="translate(436.8942,44.7804)"
       id="g48"><path
         id="path50"
         style="fill:#000;fill-opacity:1;fill-rule:nonzero;stroke:none"
         d="m 0,0 v -44.78 h 8.672 v 15.299 h 7.803 l 7,6.131 v 17.281 l -7,6.069 z m 8.672,-7.864 h 6.131 V -21.925 H 8.672 Z" /></g><g
       transform="translate(496.5408,44.7804)"
       id="g52"><path
         id="path54"
         style="fill:#000;fill-opacity:1;fill-rule:nonzero;stroke:none"
         d="M 0,0 V -9.413 L -9.104,-30.1 V 0 h -7.434 v -44.78 h 7.434 L 0,-24.526 V -44.78 H 7.495 V 0 Z" /></g><g
       transform="translate(553.8951,44.7804)"
       id="g56"><path
         id="path58"
         style="fill:#000;fill-opacity:1;fill-rule:nonzero;stroke:none"
         d="M 0,0 -6.691,-18.395 V 0 h -8.484 V -18.395 L -21.865,0 h -8.67 l 7.37,-18.395 -7.494,-6.936 V -44.78 h 8.672 v 17.466 l 2.724,2.602 h 4.088 V -44.78 h 8.484 v 20.068 h 4.089 l 2.726,-2.602 V -44.78 h 8.671 v 19.449 L 1.3,-18.395 8.672,0 Z" /></g><g
       transform="translate(597.2526,44.7804)"
       id="g60"><path
         id="path62"
         style="fill:#000;fill-opacity:1;fill-rule:nonzero;stroke:none"
         d="M 0,0 -6.691,-18.395 V 0 h -8.67 v -44.78 h 8.67 v 20.068 h 4.088 l 2.725,-2.602 V -44.78 h 8.673 v 19.449 L 1.175,-18.395 8.67,0 Z" /></g><g
       transform="translate(641.7855,44.7804)"
       id="g64"><path
         id="path66"
         style="fill:#000;fill-opacity:1;fill-rule:nonzero;stroke:none"
         d="M 0,0 V -9.413 L -9.105,-30.1 V 0 h -7.432 v -44.78 h 7.432 L 0,-24.526 V -44.78 h 7.494 l 0,44.78 z" /></g><g
       transform="translate(0,237.1347)"
       id="g68"><path
         id="path70"
         style="fill:#000;fill-opacity:1;fill-rule:nonzero;stroke:none"
         d="m 0,0 0.004,-33.773 22.797,0.007 0.009,-118.901 38.422,0.009 -0.004,118.895 22.595,-0.008 0,33.771 z" /></g><g
       transform="translate(135.1476,237.1374)"
       id="g72"><path
         id="path74"
         style="fill:#000;fill-opacity:1;fill-rule:nonzero;stroke:none"
         d="m 0,0 -30.399,-29.167 0.004,-93.922 30.395,-29.578 32.957,0.007 30.403,29.567 -0.006,93.929 -30.409,29.168 z m 8.034,-33.341 16.879,-0.008 0.005,-85.547 -16.881,-0.003 z" /></g><g
       transform="translate(223.6266,237.1419)"
       id="g76"><path
         id="path78"
         style="fill:#000;fill-opacity:1;fill-rule:nonzero;stroke:none"
         d="m 0,0 0.013,-152.665 38.442,0.001 -0.003,49.209 23.85,-0.004 26.606,21.973 v 59.751 L 62.088,0.008 Z m 38.45,-33.77 12.044,0.002 0.004,-36.756 -12.046,-0.004 z" /></g><g
       transform="translate(372.6324,237.1473)"
       id="g80"><path
         id="path82"
         style="fill:#000;fill-opacity:1;fill-rule:nonzero;stroke:none"
         d="m 0,0 -26.602,-26.791 0.007,-99.049 26.609,-26.825 29.789,0.01 26.818,26.819 -0.006,51.531 -41.405,-0.002 v -25.991 h 11.844 l 0.006,-25.542 -24.096,-10e-4 -0.003,99.053 24.088,0.009 0.005,-28.754 H 56.615 L 56.609,-26.781 29.792,0.011 Z" /></g><g
       transform="translate(507.7998,237.1644)"
       id="g84"><path
         id="path86"
         style="fill:#000;fill-opacity:1;fill-rule:nonzero;stroke:none"
         d="m 0,0 0.013,-125.848 -23.238,0.004 -0.005,125.84 -29.579,-0.008 0.008,-125.839 26.833,-26.815 H 2.753 L 29.58,-125.845 29.577,0 Z" /></g><g
       transform="translate(589.5162,237.1698)"
       id="g88"><path
         id="path90"
         style="fill:#000;fill-opacity:1;fill-rule:nonzero;stroke:none"
         d="m 0,0 -26.39,-0.009 0.007,-152.662 H 1.489 l -0.01,94.4 h 0.232 l 30.82,-63.56 0.003,-30.84 27.885,0.009 -0.014,152.66 -27.884,-0.003 0.004,-62.909 z" /></g></g></svg>