<?xml version="1.0" standalone="no"?>
<!DOCTYPE svg PUBLIC "-//W3C//DTD SVG 1.1//EN" "http://www.w3.org/Graphics/SVG/1.1/DTD/svg11.dtd">
<!--Generator: Xara Designer (www.xara.com), SVG filter version: 4.0.0.1-->
<svg stroke-width="0.501" stroke-linejoin="bevel" fill-rule="evenodd" xmlns:xlink="http://www.w3.org/1999/xlink" xmlns="http://www.w3.org/2000/svg" version="1.1" overflow="visible" width="32.996pt" height="27pt" viewBox="0 0 32.996 27">
 <defs>
  <marker id="DefaultArrow2" markerUnits="strokeWidth" viewBox="0 0 1 1" markerWidth="1" markerHeight="1" overflow="visible" orient="auto">
   <!-- REF_ARROW_STRAIGHT (-2) -->
   <g transform="scale(0.0092592592)">
    <!-- 1/108 -->
    <path d="M -9 54 L -9 -54 L 117 0 z"/>
   </g>
  </marker>
  <marker id="DefaultArrow3" markerUnits="strokeWidth" viewBox="0 0 1 1" markerWidth="1" markerHeight="1" overflow="visible" orient="auto">
   <!-- REF_ARROW_ANGLED -->
   <g transform="scale(0.0092592592)">
    <path d="M -27 54 L -9 0 L -27 -54 L 135 0 z"/>
   </g>
  </marker>
  <marker id="DefaultArrow4" markerUnits="strokeWidth" viewBox="0 0 1 1" markerWidth="1" markerHeight="1" overflow="visible" orient="auto">
   <!-- REF_ARROW_ROUNDED -->
   <g transform="scale(0.0092592592)">
    <path d="M -9,0 L -9,-45 C -9,-51.708 2.808,-56.580 9,-54 L 117,-9 C 120.916,-7.369 126.000,-4.242 126,0 C 126,4.242 120.916,7.369 117,9 L 9,54 C 2.808,56.580 -9,51.708 -9,45 z"/>
   </g>
  </marker>
  <marker id="DefaultArrow5" markerUnits="strokeWidth" viewBox="0 0 1 1" markerWidth="1" markerHeight="1" overflow="visible" orient="auto">
   <!-- REF_ARROW_SPOT -->
   <g transform="scale(0.0092592592)">
    <path d="M -54, 0 C -54,29.807 -29.807,54 0,54 C 29.807,54 54,29.807 54,0 C 54,-29.807 29.807,-54 0,-54 C -29.807,-54 -54,-29.807 -54,0 z"/>
   </g>
  </marker>
  <marker id="DefaultArrow6" markerUnits="strokeWidth" viewBox="0 0 1 1" markerWidth="1" markerHeight="1" overflow="visible" orient="auto">
   <!-- REF_ARROW_DIAMOND -->
   <g transform="scale(0.0092592592)">
    <path d="M -63,0 L 0,63 L 63,0 L 0,-63 z"/>
   </g>
  </marker>
  <marker id="DefaultArrow7" markerUnits="strokeWidth" viewBox="0 0 1 1" markerWidth="1" markerHeight="1" overflow="visible" orient="auto">
   <!-- REF_ARROW_FEATHER -->
   <g transform="scale(0.0092592592)">
    <path d="M 18,-54 L 108,-54 L 63,0 L 108,54 L 18, 54 L -36,0 z"/>
   </g>
  </marker>
  <marker id="DefaultArrow8" markerUnits="strokeWidth" viewBox="0 0 1 1" markerWidth="1" markerHeight="1" overflow="visible" orient="auto">
   <!-- REF_ARROW_FEATHER2 -->
   <g transform="scale(0.0092592592)">
    <path d="M -36,0 L 18,-54 L 54,-54 L 18,-18 L 27,-18 L 63,-54 L 99,-54 L 63,-18 L 72,-18 L 108,-54 L 144,-54 L 90,0 L 144,54 L 108,54 L 72,18 L 63,18 L 99,54 L 63,54 L 27,18 L 18,18 L 54,54 L 18,54 z"/>
   </g>
  </marker>
  <marker id="DefaultArrow9" markerUnits="strokeWidth" viewBox="0 0 1 1" markerWidth="1" markerHeight="1" overflow="visible" orient="auto">
   <!-- REF_ARROW_HOLLOWDIAMOND -->
   <g transform="scale(0.0092592592)">
    <path d="M 0,45 L -45,0 L 0, -45 L 45, 0 z M 0, 63 L-63, 0 L 0, -63 L 63, 0 z"/>
   </g>
  </marker>
  <filter id="StainedFilter">
   <feBlend mode="multiply" in2="BackgroundImage" in="SourceGraphic" result="blend"/>
   <feComposite in="blend" in2="SourceAlpha" operator="in" result="comp"/>
  </filter>
  <filter id="BleachFilter">
   <feBlend mode="screen" in2="BackgroundImage" in="SourceGraphic" result="blend"/>
   <feComposite in="blend" in2="SourceAlpha" operator="in" result="comp"/>
  </filter>
  <filter id="InvertTransparencyBitmapFilter">
   <feComponentTransfer>
    <feFuncR type="gamma" amplitude="1.055" exponent=".416666666" offset="-0.055"/>
    <feFuncG type="gamma" amplitude="1.055" exponent=".416666666" offset="-0.055"/>
    <feFuncB type="gamma" amplitude="1.055" exponent=".416666666" offset="-0.055"/>
   </feComponentTransfer>
   <feComponentTransfer>
    <feFuncR type="linear" slope="-1" intercept="1"/>
    <feFuncG type="linear" slope="-1" intercept="1"/>
    <feFuncB type="linear" slope="-1" intercept="1"/>
    <feFuncA type="linear" slope="1" intercept="0"/>
   </feComponentTransfer>
   <feComponentTransfer>
    <feFuncR type="gamma" amplitude="1" exponent="2.4" offset="0"/>
    <feFuncG type="gamma" amplitude="1" exponent="2.4" offset="0"/>
    <feFuncB type="gamma" amplitude="1" exponent="2.4" offset="0"/>
   </feComponentTransfer>
  </filter>
 </defs>
 <g id="Document" fill="none" stroke="black" font-family="Times New Roman" font-size="16" transform="scale(1 -1)">
  <g id="Spread" transform="translate(0 -27)">
   <g id="Layer 1">
    <g id="Group" stroke="none">
     <path d="M -0.004,-0.003 L 33.001,-0.003 L 33.001,26.998 L -0.004,26.998 L -0.004,-0.003 Z" stroke-linejoin="round" marker-start="none" marker-end="none"/>
     <path d="M 0.001,7.24 L 0.001,19.763 C 0.001,21.269 1.224,22.494 2.731,22.494 L 30.266,22.494 C 31.772,22.494 32.996,21.269 32.996,19.763 L 32.996,7.24 C 32.996,5.733 31.772,4.509 30.266,4.509 L 2.731,4.509 C 1.224,4.509 0.001,5.733 0.001,7.24 Z M 31.496,7.24 L 31.496,19.763 C 31.496,20.442 30.943,20.994 30.266,20.994 L 2.731,20.994 C 2.053,20.994 1.501,20.442 1.501,19.763 L 1.501,7.24 C 1.501,6.56 2.053,6.009 2.731,6.009 L 30.266,6.009 C 30.943,6.009 31.496,6.56 31.496,7.24 Z M 2.992,8.76 L 2.992,18.243 C 2.992,18.937 3.555,19.503 4.251,19.503 L 28.746,19.503 C 29.441,19.503 30.005,18.937 30.005,18.243 L 30.005,8.76 C 30.005,8.065 29.441,7.5 28.746,7.5 L 4.251,7.5 C 3.555,7.5 2.992,8.065 2.992,8.76 Z M 28.505,9 L 28.505,18.003 L 4.492,18.003 L 4.492,9 L 28.505,9 Z M 10.5,9.749 L 10.5,11.249 L 12,11.249 L 12,9.749 L 10.5,9.749 Z M 14.247,9.749 L 14.247,11.249 L 15.747,11.249 L 15.747,9.749 L 14.247,9.749 Z M 17.997,9.749 L 17.997,11.249 L 19.497,11.249 L 19.497,9.749 L 17.997,9.749 Z M 21.747,9.749 L 21.747,11.249 L 23.247,11.249 L 23.247,9.749 L 21.747,9.749 Z M 5.247,11.249 L 5.247,15.749 L 6.747,15.749 L 6.747,11.249 L 5.247,11.249 Z M 24.747,13.499 C 24.747,13.913 25.083,14.25 25.497,14.25 C 25.911,14.25 26.247,13.913 26.247,13.499 C 26.247,13.085 25.911,12.748 25.497,12.748 C 25.083,12.748 24.747,13.085 24.747,13.499 Z M 10.5,15.749 L 10.5,17.249 L 12,17.249 L 12,15.749 L 10.5,15.749 Z M 14.247,15.749 L 14.247,17.249 L 15.747,17.249 L 15.747,15.749 L 14.247,15.749 Z M 17.997,15.749 L 17.997,17.249 L 19.497,17.249 L 19.497,15.749 L 17.997,15.749 Z M 21.747,15.749 L 21.747,17.249 L 23.247,17.249 L 23.247,15.749 L 21.747,15.749 Z" stroke-width="0.5" fill="#bababa" fill-rule="evenodd" marker-start="none" marker-end="none" stroke-miterlimit="79.8403193612775"/>
    </g>
   </g>
  </g>
 </g>
</svg>
