<?xml version="1.0" encoding="UTF-8" standalone="no"?>
<svg
   xmlns:dc="http://purl.org/dc/elements/1.1/"
   xmlns:cc="http://creativecommons.org/ns#"
   xmlns:rdf="http://www.w3.org/1999/02/22-rdf-syntax-ns#"
   xmlns:svg="http://www.w3.org/2000/svg"
   xmlns="http://www.w3.org/2000/svg"
   viewBox="0 0 981.01331 287.58401"
   height="287.58401"
   width="981.01331"
   xml:space="preserve"
   id="svg2"
   version="1.1"><metadata
     id="metadata8"><rdf:RDF><cc:Work
         rdf:about=""><dc:format>image/svg+xml</dc:format><dc:type
           rdf:resource="http://purl.org/dc/dcmitype/StillImage" /></cc:Work></rdf:RDF></metadata><defs
     id="defs6"><clipPath
       id="clipPath38"
       clipPathUnits="userSpaceOnUse"><path
         id="path36"
         d="M 0,215.688 H 735.76 V 0 H 0 Z" /></clipPath><clipPath
       id="clipPath56"
       clipPathUnits="userSpaceOnUse"><path
         id="path54"
         d="M 0,215.688 H 735.76 V 0 H 0 Z" /></clipPath><clipPath
       id="clipPath72"
       clipPathUnits="userSpaceOnUse"><path
         id="path70"
         d="M 0,215.688 H 735.76 V 0 H 0 Z" /></clipPath><clipPath
       id="clipPath88"
       clipPathUnits="userSpaceOnUse"><path
         id="path86"
         d="M 0,215.688 H 735.76 V 0 H 0 Z" /></clipPath><clipPath
       id="clipPath104"
       clipPathUnits="userSpaceOnUse"><path
         id="path102"
         d="M 0,215.688 H 735.76 V 0 H 0 Z" /></clipPath><clipPath
       id="clipPath120"
       clipPathUnits="userSpaceOnUse"><path
         id="path118"
         d="M 0,215.688 H 735.76 V 0 H 0 Z" /></clipPath></defs><g
     transform="matrix(1.3333333,0,0,-1.3333333,0,287.584)"
     id="g10"><g
       transform="translate(64.2402,215.6877)"
       id="g12"><path
         id="path14"
         style="fill:#fff;fill-opacity:1;fill-rule:nonzero;stroke:none"
         d="m 0,0 -5.481,-16.218 -0.346,-1.021 -3.385,-10.014 -1.144,-3.388 -0.953,-2.816 -3.384,-10.013 -0.345,-1.022 -0.8,-2.367 -0.345,-1.021 -3.384,-10.013 -0.952,-2.817 -1.145,-3.387 -3.385,-10.014 -0.345,-1.021 -5.482,-16.218 0.845,-0.285 0.285,0.843 5.196,15.375 0.285,0.843 0.06,0.177 3.384,10.014 0.286,0.844 0.86,2.544 0.285,0.843 0.666,1.973 3.385,10.015 0.286,0.843 0.059,0.177 0.801,2.367 0.284,0.844 0.061,0.177 3.385,10.014 0.284,0.843 0.666,1.973 1.146,3.388 3.385,10.014 0.285,0.844 0.059,0.177 5.482,16.218 z" /></g><g
       transform="translate(205.3485,215.6877)"
       id="g16"><path
         id="path18"
         style="fill:#fff;fill-opacity:1;fill-rule:nonzero;stroke:none"
         d="m 0,0 -5.481,-16.218 -0.345,-1.021 -3.385,-10.014 -1.145,-3.388 -0.953,-2.816 -3.384,-10.013 -0.345,-1.022 -0.8,-2.367 -0.345,-1.021 -3.384,-10.013 -0.952,-2.817 -1.145,-3.387 -3.385,-10.014 -0.344,-1.021 -5.481,-16.218 0.843,-0.285 0.285,0.843 5.197,15.375 0.284,0.843 0.06,0.177 3.384,10.014 0.286,0.844 0.86,2.544 0.285,0.843 0.666,1.973 3.385,10.015 0.286,0.843 0.059,0.177 0.801,2.367 0.285,0.844 0.06,0.177 3.385,10.014 0.284,0.843 0.666,1.973 1.146,3.388 3.385,10.014 0.285,0.844 0.059,0.177 5.482,16.218 z" /></g><g
       transform="translate(339.3144,215.6877)"
       id="g20"><path
         id="path22"
         style="fill:#fff;fill-opacity:1;fill-rule:nonzero;stroke:none"
         d="m 0,0 -5.481,-16.218 -0.345,-1.021 -3.385,-10.014 -1.145,-3.388 -0.952,-2.816 -3.385,-10.013 -0.344,-1.022 -0.801,-2.367 -0.345,-1.021 -3.384,-10.013 -0.951,-2.817 -1.146,-3.387 -3.385,-10.014 -0.344,-1.021 -5.482,-16.218 0.844,-0.285 0.285,0.843 5.196,15.375 0.285,0.843 0.061,0.177 3.383,10.014 0.286,0.844 0.86,2.544 0.285,0.843 0.667,1.973 3.384,10.015 0.286,0.843 0.06,0.177 0.8,2.367 0.284,0.844 0.061,0.177 3.385,10.014 0.284,0.843 0.667,1.973 1.145,3.388 3.385,10.014 0.285,0.844 0.059,0.177 5.482,16.218 z" /></g><g
       transform="translate(618.9309,215.6877)"
       id="g24"><path
         id="path26"
         style="fill:#fff;fill-opacity:1;fill-rule:nonzero;stroke:none"
         d="m 0,0 -5.482,-16.218 -0.345,-1.021 -3.385,-10.014 -1.144,-3.388 -0.952,-2.816 -3.385,-10.013 -0.344,-1.022 -0.801,-2.367 -0.345,-1.021 -3.385,-10.013 -0.951,-2.817 -1.145,-3.387 -3.385,-10.014 -0.345,-1.021 -5.481,-16.218 0.844,-0.285 0.285,0.843 5.196,15.375 0.285,0.843 0.06,0.177 3.385,10.014 0.286,0.844 0.859,2.544 0.285,0.843 0.667,1.973 3.385,10.015 0.285,0.843 0.06,0.177 0.799,2.367 0.285,0.844 0.06,0.177 3.385,10.014 0.285,0.843 0.667,1.973 1.145,3.388 3.385,10.014 0.285,0.844 0.06,0.177 5.481,16.218 z" /></g><g
       transform="translate(721.935,215.6877)"
       id="g28"><path
         id="path30"
         style="fill:#fff;fill-opacity:1;fill-rule:nonzero;stroke:none"
         d="m 0,0 -5.482,-16.218 -0.346,-1.021 -3.384,-10.014 -1.145,-3.388 -0.952,-2.816 -3.384,-10.013 -0.345,-1.022 -0.8,-2.367 -0.345,-1.021 -3.385,-10.013 -0.952,-2.817 -1.145,-3.387 -3.385,-10.014 -0.344,-1.021 -5.482,-16.218 0.844,-0.285 0.285,0.843 5.197,15.375 0.285,0.843 0.059,0.177 3.385,10.014 0.286,0.844 0.86,2.544 0.284,0.843 0.667,1.973 3.384,10.015 0.286,0.843 0.059,0.177 0.801,2.367 0.285,0.844 0.06,0.177 3.385,10.014 0.285,0.843 0.666,1.973 1.146,3.388 3.384,10.014 0.285,0.844 0.06,0.177 5.481,16.218 z" /></g><g
       id="g32"><g
         clip-path="url(#clipPath38)"
         id="g34"><text
           id="text44"
           style="font-variant:normal;font-weight:100;font-stretch:normal;font-size:32.82870102px;font-family:Supermolot;-inkscape-font-specification:Supermolot-Thin;writing-mode:lr-tb;fill:#fff;fill-opacity:1;fill-rule:nonzero;stroke:none"
           transform="matrix(1,0,0,-1,0,108.4648)"><tspan
             id="tspan40"
             y="0"
             x="0">Л</tspan><tspan
             id="tspan42"
             y="-76.326729"
             x="70.384735">А</tspan></text>
</g></g><text
       id="text48"
       style="font-variant:normal;font-weight:100;font-stretch:normal;font-size:32.82870102px;font-family:Supermolot;-inkscape-font-specification:Supermolot-Thin;writing-mode:lr-tb;fill:#fff;fill-opacity:1;fill-rule:nonzero;stroke:none"
       transform="matrix(1,0,0,-1,140.75,108.4648)"><tspan
         id="tspan46"
         y="0"
         x="0">Б</tspan></text>
<g
       id="g50"><g
         clip-path="url(#clipPath56)"
         id="g52"><text
           id="text60"
           style="font-variant:normal;font-weight:100;font-stretch:normal;font-size:32.82870102px;font-family:Supermolot;-inkscape-font-specification:Supermolot-Thin;writing-mode:lr-tb;fill:#fff;fill-opacity:1;fill-rule:nonzero;stroke:none"
           transform="matrix(1,0,0,-1,211.125,184.7881)"><tspan
             id="tspan58"
             y="0"
             x="0">О</tspan></text>
</g></g><g
       transform="translate(488.2518,215.6877)"
       id="g62"><path
         id="path64"
         style="fill:#fff;fill-opacity:1;fill-rule:nonzero;stroke:none"
         d="m 0,0 -5.481,-16.218 -0.346,-1.021 -3.385,-10.014 -1.144,-3.388 -0.953,-2.816 -3.384,-10.013 -0.345,-1.022 -0.799,-2.367 -0.346,-1.021 -3.384,-10.013 -0.952,-2.817 -1.145,-3.387 -3.385,-10.014 -0.345,-1.021 -5.481,-16.218 0.844,-0.285 0.285,0.843 5.197,15.375 0.284,0.843 0.06,0.177 3.384,10.014 0.286,0.844 0.86,2.544 0.285,0.843 0.666,1.973 3.385,10.015 0.286,0.843 0.059,0.177 0.801,2.367 0.285,0.844 0.06,0.177 3.385,10.014 0.284,0.843 0.666,1.973 1.146,3.388 3.385,10.014 0.285,0.844 0.059,0.177 5.482,16.218 z" /></g><g
       id="g66"><g
         clip-path="url(#clipPath72)"
         id="g68"><text
           id="text76"
           style="font-variant:normal;font-weight:100;font-stretch:normal;font-size:32.82870102px;font-family:Supermolot;-inkscape-font-specification:Supermolot-Thin;writing-mode:lr-tb;fill:#fff;fill-opacity:1;fill-rule:nonzero;stroke:none"
           transform="matrix(1,0,0,-1,494.0293,184.7881)"><tspan
             id="tspan74"
             y="0"
             x="0">О</tspan></text>
</g></g><text
       id="text80"
       style="font-variant:normal;font-weight:100;font-stretch:normal;font-size:32.82870102px;font-family:Supermolot;-inkscape-font-specification:Supermolot-Thin;writing-mode:lr-tb;fill:#fff;fill-opacity:1;fill-rule:nonzero;stroke:none"
       transform="matrix(1,0,0,-1,281.501,108.4648)"><tspan
         id="tspan78"
         y="0"
         x="0">Р</tspan></text>
<g
       id="g82"><g
         clip-path="url(#clipPath88)"
         id="g84"><text
           id="text92"
           style="font-variant:normal;font-weight:100;font-stretch:normal;font-size:32.82870102px;font-family:Supermolot;-inkscape-font-specification:Supermolot-Thin;writing-mode:lr-tb;fill:#fff;fill-opacity:1;fill-rule:nonzero;stroke:none"
           transform="matrix(1,0,0,-1,351.875,184.7881)"><tspan
             id="tspan90"
             y="0"
             x="0">А</tspan></text>
</g></g><text
       id="text96"
       style="font-variant:normal;font-weight:100;font-stretch:normal;font-size:32.82870102px;font-family:Supermolot;-inkscape-font-specification:Supermolot-Thin;writing-mode:lr-tb;fill:#fff;fill-opacity:1;fill-rule:nonzero;stroke:none"
       transform="matrix(1,0,0,-1,422.252,108.4648)"><tspan
         id="tspan94"
         y="0"
         x="0 140.73663">ТР</tspan></text>
<g
       id="g98"><g
         clip-path="url(#clipPath104)"
         id="g100"><text
           id="text108"
           style="font-variant:normal;font-weight:100;font-stretch:normal;font-size:32.82870102px;font-family:Supermolot;-inkscape-font-specification:Supermolot-Thin;writing-mode:lr-tb;fill:#fff;fill-opacity:1;fill-rule:nonzero;stroke:none"
           transform="matrix(1,0,0,-1,633.377,184.7881)"><tspan
             id="tspan106"
             y="0"
             x="0">И</tspan></text>
</g></g><text
       id="text112"
       style="font-variant:normal;font-weight:100;font-stretch:normal;font-size:32.82870102px;font-family:Supermolot;-inkscape-font-specification:Supermolot-Thin;writing-mode:lr-tb;fill:#fff;fill-opacity:1;fill-rule:nonzero;stroke:none"
       transform="matrix(1,0,0,-1,703.752,108.4648)"><tspan
         id="tspan110"
         y="0"
         x="0">Я</tspan></text>
<g
       id="g114"><g
         clip-path="url(#clipPath120)"
         id="g116"><text
           id="text124"
           style="font-variant:normal;font-weight:100;font-stretch:normal;font-size:32.82870102px;font-family:Supermolot;-inkscape-font-specification:Supermolot-Thin;writing-mode:lr-tb;fill:#fff;fill-opacity:1;fill-rule:nonzero;stroke:none"
           transform="matrix(1,0,0,-1,0,8.667)"><tspan
             id="tspan122"
             y="0"
             x="0 140.73663 281.47327 422.2099 562.94653 703.68317">УЛЫБОК</tspan></text>
</g></g></g></svg>