<?xml version="1.0" encoding="UTF-8" standalone="no"?>
<svg
   xmlns:dc="http://purl.org/dc/elements/1.1/"
   xmlns:cc="http://creativecommons.org/ns#"
   xmlns:rdf="http://www.w3.org/1999/02/22-rdf-syntax-ns#"
   xmlns:svg="http://www.w3.org/2000/svg"
   xmlns="http://www.w3.org/2000/svg"
   viewBox="0 0 1064.7841 1329.5253"
   height="1329.5253"
   width="1064.7841"
   xml:space="preserve"
   id="svg2"
   version="1.1"><metadata
     id="metadata8"><rdf:RDF><cc:Work
         rdf:about=""><dc:format>image/svg+xml</dc:format><dc:type
           rdf:resource="http://purl.org/dc/dcmitype/StillImage" /></cc:Work></rdf:RDF></metadata><defs
     id="defs6" /><g
     transform="matrix(1.3333333,0,0,-1.3333333,0,1329.5253)"
     id="g10"><g
       transform="translate(467.3521,423.2449)"
       id="g12"><path
         id="path14"
         style="fill:#000000;fill-opacity:1;fill-rule:nonzero;stroke:none"
         d="m 0,0 h -6.785 v -2.936 l 1.018,1.019 h 4.991 l 5.194,-5.174 v -10.771 l -5.194,-5.175 H -14.819 V 9.226 h -1.896 v -21.327 -0.751 -11.726 -0.35 h 1.286 0.61 H 0 l 6.335,6.31 v 12.285 z" /></g><g
       transform="translate(418.1617,399.5457)"
       id="g16"><path
         id="path18"
         style="fill:#000000;fill-opacity:1;fill-rule:nonzero;stroke:none"
         d="M 0,0 -5.885,5.837 V 32.925 H -7.806 V 5.083 l 6.427,-6.459 z" /></g><g
       transform="translate(431.0113,400.2274)"
       id="g20"><path
         id="path22"
         style="fill:#000000;fill-opacity:1;fill-rule:nonzero;stroke:none"
         d="M 0,0 -5.178,5.181 V 15.926 L 0,21.106 H 4.994 L 15.547,10.554 4.994,0 Z M -0.762,23.018 -7.091,16.686 V 4.416 l 6.329,-6.328 H 5.756 L 18.219,10.554 5.756,23.018 Z" /></g><g
       transform="translate(38.1246,927.9842)"
       id="g24"><path
         id="path26"
         style="fill:#000000;fill-opacity:1;fill-rule:nonzero;stroke:none"
         d="m 0,0 h -21.553 l -10.416,10.435 v 44.571 l 10.416,10.433 H 0 L 11.602,53.643 14.146,56.212 1.394,68.947 H -22.947 L -35.478,56.396 V 9.046 L -22.947,-3.509 H 1.394 l 12.759,12.656 -2.551,2.551 z" /></g><g
       transform="translate(205.6518,997.1442)"
       id="g28"><path
         id="path30"
         style="fill:#000000;fill-opacity:1;fill-rule:nonzero;stroke:none"
         d="m 0,0 v -71.689 h 3.505 v 33.662 h 9.072 l 34.687,-34.642 2.556,2.543 -32.375,32.099 h 19.43 l 12.533,12.565 v 12.898 L 36.875,0 Z M 3.505,-3.507 H 35.48 L 45.901,-13.954 V -24.073 L 35.48,-34.521 H 3.505 Z" /></g><g
       transform="translate(342.9829,753.4891)"
       id="g32"><path
         id="path34"
         style="fill:#000000;fill-opacity:1;fill-rule:nonzero;stroke:none"
         d="m 0,0 -21.97,33.002 -3.06,-1.751 23.275,-34.865 v -34.924 h 3.509 v 34.924 l 23.275,34.865 -3.063,1.751 z" /></g><g
       transform="translate(531.2584,259.1297)"
       id="g36"><path
         id="path38"
         style="fill:#000000;fill-opacity:1;fill-rule:nonzero;stroke:none"
         d="m 0,0 h 22.186 v -68.18 h 3.507 V 0 H 47.876 V 3.508 H 0 Z" /></g><g
       transform="translate(734.0094,71.5968)"
       id="g40"><path
         id="path42"
         style="fill:#000000;fill-opacity:1;fill-rule:nonzero;stroke:none"
         d="m 0,0 v -71.597 h 48.642 v 3.504 H 3.505 L 3.505,0 Z" /></g><g
       transform="translate(753.2115,398.285)"
       id="g44"><path
         id="path46"
         style="fill:#000000;fill-opacity:1;fill-rule:nonzero;stroke:none"
         d="M 0,0 H -0.291 -1.67 l -13.683,-35.516 3.082,-1.765 12.158,32.156 26.474,-67.388 3.079,1.764 L 1.401,0 Z" /></g><g
       transform="translate(452.1236,541.2733)"
       id="g48"><path
         id="path50"
         style="fill:#000000;fill-opacity:1;fill-rule:nonzero;stroke:none"
         d="M 0,0 25.383,25.418 24.02,26.778 6.888,43.896 H -27.11 L -45.587,25.397 18.523,-38.799 4.943,-52.396 h -30.104 l -16.197,16.333 -3.568,-3.562 17.819,-17.672 H 6.888 l 18.473,18.501 -64.107,64.196 13.58,13.599 H 4.936 L 18.412,25.292 -3.423,3.425 Z" /></g><g
       transform="translate(750.9,790.6346)"
       id="g52"><path
         id="path54"
         style="fill:#000000;fill-opacity:1;fill-rule:nonzero;stroke:none"
         d="m 0,0 h -23.479 l -22.806,-22.808 v -44.211 l 22.806,-22.807 H 0 l 44.913,44.913 z m -1.625,-3.923 40.99,-40.99 -40.99,-40.99 h -20.229 l -20.507,20.509 v 40.961 l 20.507,20.51 z" /></g><g
       transform="translate(208.2476,392.8416)"
       id="g56"><path
         id="path58"
         style="fill:#000000;fill-opacity:1;fill-rule:nonzero;stroke:none"
         d="M 0,0 H -23.479 L -46.285,-22.809 V -67.02 l 22.806,-22.807 H 0 l 44.913,44.913 z m -1.625,-3.924 40.99,-40.99 -40.99,-40.99 h -20.229 l -20.508,20.509 v 40.961 l 20.508,20.51 z" /></g><g
       transform="translate(48.2466,790.6346)"
       id="g60"><path
         id="path62"
         style="fill:#000000;fill-opacity:1;fill-rule:nonzero;stroke:none"
         d="m 0,0 h -23.479 l -22.806,-22.808 v -44.211 l 22.806,-22.807 H 0 l 44.913,44.913 z m -1.625,-3.923 40.99,-40.99 -40.99,-40.99 h -20.229 l -20.507,20.509 v 40.961 l 20.507,20.51 z" /></g></g></svg>