<?xml version="1.0" encoding="UTF-8" standalone="no"?>
<svg
   xmlns:dc="http://purl.org/dc/elements/1.1/"
   xmlns:cc="http://creativecommons.org/ns#"
   xmlns:rdf="http://www.w3.org/1999/02/22-rdf-syntax-ns#"
   xmlns:svg="http://www.w3.org/2000/svg"
   xmlns="http://www.w3.org/2000/svg"
   viewBox="0 0 101.332 172.25467"
   height="172.25467"
   width="101.332"
   xml:space="preserve"
   id="svg2"
   version="1.1"><metadata
     id="metadata8"><rdf:RDF><cc:Work
         rdf:about=""><dc:format>image/svg+xml</dc:format><dc:type
           rdf:resource="http://purl.org/dc/dcmitype/StillImage" /></cc:Work></rdf:RDF></metadata><defs
     id="defs6"><clipPath
       id="clipPath42"
       clipPathUnits="userSpaceOnUse"><path
         id="path40"
         d="M 0,129.191 H 75.999 V 0 H 0 Z" /></clipPath><clipPath
       id="clipPath78"
       clipPathUnits="userSpaceOnUse"><path
         id="path76"
         d="M 0,129.191 H 75.999 V 0 H 0 Z" /></clipPath></defs><g
     transform="matrix(1.3333333,0,0,-1.3333333,0,172.25467)"
     id="g10"><g
       transform="translate(0.5193,113.7357)"
       id="g12"><path
         id="path14"
         style="fill:#ffffff;fill-opacity:1;fill-rule:nonzero;stroke:none"
         d="m 0,0 v -3.796 h 2.562 l 0.002,-13.364 4.318,0.001 v 13.364 l 2.54,-10e-4 V 0 Z" /></g><g
       transform="translate(15.71,96.5752)"
       id="g16"><path
         id="path18"
         style="fill:#ffffff;fill-opacity:1;fill-rule:nonzero;stroke:none"
         d="M 0,0 -3.416,3.325 -3.417,13.882 0,17.16 3.703,17.161 7.121,13.882 7.122,3.324 3.704,0.001 Z M 0.903,13.413 V 3.796 H 2.801 L 2.8,13.412 Z" /></g><g
       transform="translate(29.9775,96.5762)"
       id="g20"><path
         id="path22"
         style="fill:#ffffff;fill-opacity:1;fill-rule:nonzero;stroke:none"
         d="m 0,0 h -4.321 l -0.001,17.16 6.978,0.001 3.015,-2.444 V 8.001 L 2.681,5.531 H 0 Z m 0,9.232 h 1.354 v 4.132 h -1.355 z" /></g><g
       transform="translate(39.4141,99.5918)"
       id="g24"><path
         id="path26"
         style="fill:#ffffff;fill-opacity:1;fill-rule:nonzero;stroke:none"
         d="m 0,0 -0.001,11.134 2.99,3.011 3.349,0.001 3.015,-3.011 10e-4,-3.232 H 6.03 v 3.232 L 3.322,11.134 V 0 H 6.031 L 6.03,2.871 H 4.699 V 5.793 H 9.354 V 0.001 L 6.34,-3.014 2.991,-3.015 Z" /></g><g
       transform="translate(54.6777,96.5791)"
       id="g28"><path
         id="path30"
         style="fill:#ffffff;fill-opacity:1;fill-rule:nonzero;stroke:none"
         d="M 0,0 -3.017,3.014 V 17.158 L 0.308,17.159 0.309,3.015 2.92,3.014 2.919,17.159 H 6.243 L 6.244,3.015 3.229,0 Z" /></g><g
       transform="translate(70.4385,100.0449)"
       id="g32"><path
         id="path34"
         style="fill:#ffffff;fill-opacity:1;fill-rule:nonzero;stroke:none"
         d="m 0,0 -3.465,7.145 h -0.026 l 0.002,-10.611 h -3.133 l -0.001,17.159 2.966,0.001 3.656,-7.071 -0.001,7.07 3.135,0.001 L 3.135,-3.465 0,-3.466 Z" /></g><g
       id="g36"><g
         clip-path="url(#clipPath42)"
         id="g38"><text
           id="text46"
           style="font-variant:normal;font-weight:bold;font-stretch:normal;font-size:13.44659996px;font-family:'Bebas Neue Bold';-inkscape-font-specification:BebasNeueBold;writing-mode:lr-tb;fill:#ffffff;fill-opacity:1;fill-rule:nonzero;stroke:none"
           transform="matrix(1,0,0,-1,0,117.6816)"><tspan
             id="tspan44"
             y="0"
             x="0 6.4140282 12.411212 18.542862 27.000772 33.441692 36.198246 44.709946 50.70713 56.448826 64.395767 70.540863">новый формат</tspan></text>
</g></g><text
       id="text50"
       style="font-variant:normal;font-weight:bold;font-stretch:normal;font-size:23px;font-family:'Bebas Neue Bold';-inkscape-font-specification:BebasNeueBold;writing-mode:lr-tb;fill:#c3a376;fill-opacity:1;fill-rule:nonzero;stroke:none"
       transform="matrix(1,0,0,-1,11.998,74.958)"><tspan
         id="tspan48"
         y="0"
         x="0 10.672 21.205999 32.706001 42.872002">культ</tspan></text>
<text
       id="text54"
       style="font-variant:normal;font-weight:bold;font-stretch:normal;font-size:13px;font-family:'Bebas Neue Bold';-inkscape-font-specification:BebasNeueBold;writing-mode:lr-tb;fill:#c3a376;fill-opacity:1;fill-rule:nonzero;stroke:none"
       transform="matrix(1,0,0,-1,11.998,62.958)"><tspan
         id="tspan52"
         y="0"
         x="0 5.5510001 11.492 17.290001 23.218 29.419001 34.696999 40.494999 45.889999">развитого</tspan></text>
<text
       id="text58"
       style="font-variant:normal;font-weight:bold;font-stretch:normal;font-size:7px;font-family:'Bebas Neue Bold';-inkscape-font-specification:BebasNeueBold;writing-mode:lr-tb;fill:#c3a376;fill-opacity:1;fill-rule:nonzero;stroke:none"
       transform="matrix(1,0,0,-1,11.998,55.958)"><tspan
         id="tspan56"
         y="0"
         x="0 3.619 7.2379999 11.284 14.903 18.375 21.993999 26.040001 29.525999 33.005001 36.785 40.403999 43.806 48.223">индивидуализма</tspan></text>
<text
       id="text62"
       style="font-variant:normal;font-weight:bold;font-stretch:normal;font-size:9px;font-family:'Bebas Neue Bold';-inkscape-font-specification:BebasNeueBold;writing-mode:lr-tb;fill:#c3a376;fill-opacity:1;fill-rule:nonzero;stroke:none"
       transform="matrix(1,0,0,-1,11.998,46.958)"><tspan
         id="tspan60"
         y="0"
         x="0 4.842 9.342 13.41 15.255 19.799999 23.562 27.855 32.147999 35.801998 39.563999 44.063999 47.826">для ценителей</tspan></text>
<text
       id="text66"
       style="font-variant:normal;font-weight:bold;font-stretch:normal;font-size:14px;font-family:'Bebas Neue Bold';-inkscape-font-specification:BebasNeueBold;writing-mode:lr-tb;fill:#c3a376;fill-opacity:1;fill-rule:nonzero;stroke:none"
       transform="matrix(1,0,0,-1,11.998,34.958)"><tspan
         id="tspan64"
         y="0"
         x="0 6.3839998 15.19 21.294001 27.538 34.034 40.278 46.088001 52.332001">высокого </tspan></text>
<text
       id="text70"
       style="font-variant:normal;font-weight:bold;font-stretch:normal;font-size:17px;font-family:'Bebas Neue Bold';-inkscape-font-specification:BebasNeueBold;writing-mode:lr-tb;fill:#c3a376;fill-opacity:1;fill-rule:nonzero;stroke:none"
       transform="matrix(1,0,0,-1,11.998,21.958)"><tspan
         id="tspan68"
         y="0"
         x="0 10.812 21.114 32.623001 44.522999">стиля</tspan></text>
<g
       id="g72"><g
         clip-path="url(#clipPath78)"
         id="g74"><g
           transform="translate(26.6816,0.54)"
           id="g80"><path
             id="path82"
             style="fill:#c3a376;fill-opacity:1;fill-rule:nonzero;stroke:none"
             d="m 0,0 c 0.013,-0.509 0.371,-0.691 0.791,-0.404 l 12.001,8.216 c 0.419,0.289 0.182,0.524 0.69,0.524 H 46.03 c 0.511,0 0.926,0.416 0.926,0.926 v 80.536 c 0,0.51 -0.415,0.926 -0.926,0.926 h -3.396 c -0.509,0 -0.925,-0.416 -0.925,-0.926 v 0.543 c 0,-0.508 0.416,-0.925 0.925,-0.925 h 1.927 c 0.507,0 0.924,-0.417 0.924,-0.926 V 12.366 c 0,-0.509 -0.417,-0.925 -0.924,-0.925 h -31.04 c -0.507,0 -1.27,-0.237 -1.688,-0.524 L 3.729,5.37 C 3.31,5.083 2.953,5.263 2.938,5.773 L 2.801,10.516 C 2.785,11.023 2.357,11.441 1.847,11.441 H -21.66 c -0.509,0 -0.926,0.416 -0.926,0.925 V 88.49 c 0,0.509 0.417,0.926 0.926,0.926 h 1.686 c 0.508,0 0.925,0.417 0.925,0.925 v -0.543 c 0,0.51 -0.417,0.926 -0.925,0.926 h -3.156 c -0.51,0 -0.928,-0.416 -0.928,-0.926 V 9.262 c 0,-0.51 0.418,-0.926 0.928,-0.926 h 21.963 c 0.509,0 0.938,-0.416 0.953,-0.925 z" /></g></g></g></g></svg>