<?xml version="1.0" encoding="UTF-8" standalone="no"?>
<svg
   xmlns:dc="http://purl.org/dc/elements/1.1/"
   xmlns:cc="http://creativecommons.org/ns#"
   xmlns:rdf="http://www.w3.org/1999/02/22-rdf-syntax-ns#"
   xmlns:svg="http://www.w3.org/2000/svg"
   xmlns="http://www.w3.org/2000/svg"
   viewBox="0 0 434.77066 203.96533"
   height="203.96533"
   width="434.77066"
   xml:space="preserve"
   id="svg2"
   version="1.1"><metadata
     id="metadata8"><rdf:RDF><cc:Work
         rdf:about=""><dc:format>image/svg+xml</dc:format><dc:type
           rdf:resource="http://purl.org/dc/dcmitype/StillImage" /></cc:Work></rdf:RDF></metadata><defs
     id="defs6"><clipPath
       id="clipPath18"
       clipPathUnits="userSpaceOnUse"><path
         id="path16"
         d="M 0,152.974 H 326.078 V 0 H 0 Z" /></clipPath></defs><g
     transform="matrix(1.3333333,0,0,-1.3333333,0,203.96533)"
     id="g10"><g
       id="g12"><g
         clip-path="url(#clipPath18)"
         id="g14"><g
           transform="translate(29.175,136.6737)"
           id="g20"><path
             id="path22"
             style="fill:#ffffff;fill-opacity:1;fill-rule:nonzero;stroke:none"
             d="M 0,0 V -5.834 H -6.855 V 0.37 c 0,5.836 -2.315,9.353 -7.594,9.353 -5.184,0 -7.593,-3.517 -7.593,-9.353 v -34.263 c 0,-5.834 2.409,-9.352 7.593,-9.352 5.279,0 7.594,3.518 7.594,9.352 v 8.428 H 0 v -8.058 c 0,-9.816 -4.631,-16.299 -14.636,-16.299 -9.908,0 -14.539,6.483 -14.539,16.299 V 0 c 0,9.817 4.631,16.3 14.539,16.3 C -4.631,16.3 0,9.817 0,0" /></g><g
           transform="translate(54.9177,87.5029)"
           id="g24"><path
             id="path26"
             style="fill:#ffffff;fill-opacity:1;fill-rule:nonzero;stroke:none"
             d="m 0,0 v 58.245 h -11.947 v 6.576 H 19.171 V 58.245 H 7.224 V 0 Z" /></g><g
           transform="translate(102.3347,119.5405)"
           id="g28"><path
             id="path30"
             style="fill:#ffffff;fill-opacity:1;fill-rule:nonzero;stroke:none"
             d="m 0,0 c 5.373,0 7.965,2.501 7.965,8.706 v 8.611 c 0,5.928 -2.132,8.89 -7.412,8.89 H -6.393 V 0 Z m 0.553,32.783 c 10.19,0 14.541,-6.019 14.541,-15.836 V 9.17 C 15.094,-1.11 10.28,-6.481 0,-6.481 h -6.393 v -25.557 h -7.221 v 64.821 z" /></g><g
           transform="translate(149.3796,117.414)"
           id="g32"><path
             id="path34"
             style="fill:#ffffff;fill-opacity:1;fill-rule:nonzero;stroke:none"
             d="m 0,0 -9.54,-29.911 h -7.503 V 34.91 h 6.393 V -13.431 L -4.911,4.441 5.462,34.91 H 13.52 V -29.911 H 7.037 v 51.577 z" /></g><g
           transform="translate(211.1506,118.06)"
           id="g36"><path
             id="path38"
             style="fill:#ffffff;fill-opacity:1;fill-rule:nonzero;stroke:none"
             d="m 0,0 -3.427,-6.111 v -24.446 h -7.131 v 24.446 l -3.336,6.202 -12.409,-30.648 h -7.409 L -18.893,6.761 -33.34,34.264 h 7.223 L -10.558,4.446 v 29.818 h 7.131 V 4.446 l 15.65,29.818 h 7.225 L 5.094,6.944 19.818,-30.557 h -7.412 z" /></g><g
           transform="translate(256.5285,115.6528)"
           id="g40"><path
             id="path42"
             style="fill:#ffffff;fill-opacity:1;fill-rule:nonzero;stroke:none"
             d="M 0,0 -3.797,-6.391 V -28.15 h -7.224 v 64.821 h 7.224 V 5.373 l 17.226,31.298 h 7.316 L 4.352,7.131 21.3,-28.15 h -7.41 z" /></g><g
           transform="translate(300.8869,106.7621)"
           id="g44"><path
             id="path46"
             style="fill:#ffffff;fill-opacity:1;fill-rule:nonzero;stroke:none"
             d="M 0,0 H 14.448 L 7.132,37.414 Z m -0.925,-6.204 -2.5,-13.055 h -6.67 L 2.314,45.562 h 10.467 l 12.41,-64.821 h -7.223 l -2.502,13.055 z" /></g><g
           transform="translate(19.6086,17.5849)"
           id="g48"><path
             id="path50"
             style="fill:#ffffff;fill-opacity:1;fill-rule:nonzero;stroke:none"
             d="M 0,0 6.248,41.425 H 19.001 V -16.917 H 10.334 V 24.922 L 3.998,-16.917 h -8.665 l -6.838,41.258 v -41.258 h -8 v 58.342 h 12.753 z" /></g><g
           transform="translate(57.7805,19.1689)"
           id="g52"><path
             id="path54"
             style="fill:#ffffff;fill-opacity:1;fill-rule:nonzero;stroke:none"
             d="M 0,0 H 8.836 L 4.417,29.506 Z M 20.92,-18.501 H 11.669 L 10.084,-7.917 H -1.169 l -1.585,-10.584 h -8.416 l 9.336,58.342 h 13.418 z" /></g><g
           transform="translate(86.7024,0.6679)"
           id="g56"><path
             id="path58"
             style="fill:#ffffff;fill-opacity:1;fill-rule:nonzero;stroke:none"
             d="M 0,0 V 58.342 H 9.168 V 8.335 h 7.918 v 50.007 h 9.166 V 8.335 h 7.92 v 50.007 h 9.167 V 0 Z" /></g><g
           transform="translate(149.8786,0.6679)"
           id="g60"><path
             id="path62"
             style="fill:#ffffff;fill-opacity:1;fill-rule:nonzero;stroke:none"
             d="m 0,0 h -9.417 v 58.342 h 8.166 V 21.419 l 3.334,12.837 7.5,24.086 H 19.67 V 0 H 11.418 V 41.09 L 7.67,26.754 Z" /></g><g
           transform="translate(188.9685,0.6679)"
           id="g64"><path
             id="path66"
             style="fill:#ffffff;fill-opacity:1;fill-rule:nonzero;stroke:none"
             d="M 0,0 H -9.166 V 58.342 H 0 V 33.339 h 10.42 v 25.003 h 9.336 V 0 H 10.42 V 25.005 H 0 Z" /></g><g
           transform="translate(231.1433,23.9213)"
           id="g68"><path
             id="path70"
             style="fill:#ffffff;fill-opacity:1;fill-rule:nonzero;stroke:none"
             d="m 0,0 -2.833,-5.334 v -17.919 h -9.172 v 58.342 h 9.172 V 9.671 l 12,25.418 h 9.169 L 5.583,9.083 18.336,-23.253 H 8.917 Z" /></g><g
           transform="translate(265.8166,14.0863)"
           id="g72"><path
             id="path74"
             style="fill:#ffffff;fill-opacity:1;fill-rule:nonzero;stroke:none"
             d="M 0,0 C 0,-4.168 1.832,-5.752 4.749,-5.752 7.667,-5.752 9.5,-4.168 9.5,0 v 31.505 c 0,4.167 -1.833,5.752 -4.751,5.752 C 1.832,37.257 0,35.672 0,31.505 Z m -9.169,30.921 c 0,9.337 4.917,14.672 13.918,14.672 9,0 13.921,-5.335 13.921,-14.672 V 0.585 c 0,-9.336 -4.921,-14.671 -13.921,-14.671 -9.001,0 -13.918,5.335 -13.918,14.671 z" /></g><g
           transform="translate(312.989,72.0136)"
           id="g76"><path
             id="path78"
             style="fill:#ffffff;fill-opacity:1;fill-rule:nonzero;stroke:none"
             d="m 0,0 c -0.25,-3.083 -1.667,-3.833 -4.167,-3.833 -2.414,0 -3.669,0.75 -3.918,3.833 h -5.667 c 0.169,-5.667 3.169,-9.25 9.585,-9.25 6.501,0 9.753,3.583 9.753,9.25 z m -9.419,-71.346 h -9.416 v 58.343 h 8.166 v -36.924 l 3.336,12.838 7.499,24.086 H 10.254 V -71.346 H 1.999 v 41.091 l -3.748,-14.336 z" /></g></g></g></g></svg>