<?xml version="1.0" encoding="UTF-8" standalone="no"?>
<svg
   xmlns:dc="http://purl.org/dc/elements/1.1/"
   xmlns:cc="http://creativecommons.org/ns#"
   xmlns:rdf="http://www.w3.org/1999/02/22-rdf-syntax-ns#"
   xmlns:svg="http://www.w3.org/2000/svg"
   xmlns="http://www.w3.org/2000/svg"
   viewBox="0 0 435.20001 203.74133"
   height="203.74133"
   width="435.20001"
   xml:space="preserve"
   id="svg2"
   version="1.1"><metadata
     id="metadata8"><rdf:RDF><cc:Work
         rdf:about=""><dc:format>image/svg+xml</dc:format><dc:type
           rdf:resource="http://purl.org/dc/dcmitype/StillImage" /></cc:Work></rdf:RDF></metadata><defs
     id="defs6"><clipPath
       id="clipPath18"
       clipPathUnits="userSpaceOnUse"><path
         id="path16"
         d="M 0,152.806 H 326.4 V 0 H 0 Z" /></clipPath></defs><g
     transform="matrix(1.3333333,0,0,-1.3333333,0,203.74133)"
     id="g10"><g
       id="g12"><g
         clip-path="url(#clipPath18)"
         id="g14"><g
           transform="translate(5.9064,111.231)"
           id="g20"><path
             id="path22"
             style="fill:#ffffff;fill-opacity:1;fill-rule:nonzero;stroke:none"
             d="m 0,0 c 0,-4.909 2.071,-7.748 6.367,-7.748 4.372,0 6.367,2.839 6.367,7.748 v 28.383 c 0,4.831 -1.995,7.746 -6.367,7.746 C 2.071,36.129 0,33.214 0,28.383 Z m -5.906,28.075 c 0,8.209 4.065,13.5 12.273,13.5 8.284,0 12.35,-5.291 12.35,-13.5 V 0.306 c 0,-8.13 -4.066,-13.5 -12.35,-13.5 -8.208,0 -12.273,5.37 -12.273,13.5 z" /></g><g
           transform="translate(56.2326,146.8228)"
           id="g24"><path
             id="path26"
             style="fill:#ffffff;fill-opacity:1;fill-rule:nonzero;stroke:none"
             d="M 0,0 V -48.249 H -5.983 V 5.446 h 25.16 v -53.695 h -5.983 l 0,48.249 z" /></g><g
           transform="translate(108.323,114.5303)"
           id="g28"><path
             id="path30"
             style="fill:#ffffff;fill-opacity:1;fill-rule:nonzero;stroke:none"
             d="M 0,0 H 11.967 L 5.907,30.99 Z M -0.767,-5.141 -2.838,-15.957 H -8.361 L 1.918,37.739 h 8.668 L 20.865,-15.957 H 14.882 L 12.81,-5.141 Z" /></g><g
           transform="translate(177.5212,139.3062)"
           id="g32"><path
             id="path34"
             style="fill:#ffffff;fill-opacity:1;fill-rule:nonzero;stroke:none"
             d="m 0,0 v -4.833 h -5.676 v 5.141 c 0,4.831 -1.918,7.746 -6.29,7.746 -4.296,0 -6.29,-2.915 -6.29,-7.746 v -28.383 c 0,-4.833 1.994,-7.748 6.29,-7.748 4.372,0 6.29,2.915 6.29,7.748 v 6.98 H 0 v -6.675 c 0,-8.129 -3.835,-13.499 -12.12,-13.499 -8.208,0 -12.043,5.37 -12.043,13.499 V 0 c 0,8.132 3.835,13.5 12.043,13.5 C -3.835,13.5 0,8.132 0,0" /></g><g
           transform="translate(208.9006,122.7364)"
           id="g36"><path
             id="path38"
             style="fill:#ffffff;fill-opacity:1;fill-rule:nonzero;stroke:none"
             d="M 0,0 V -24.163 H -5.983 V 29.533 H 0 V 5.37 h 13.194 v 24.163 h 5.983 v -53.696 h -5.983 l 0,24.163 z" /></g><g
           transform="translate(259.6111,111.231)"
           id="g40"><path
             id="path42"
             style="fill:#ffffff;fill-opacity:1;fill-rule:nonzero;stroke:none"
             d="m 0,0 c 0,-4.909 2.07,-7.748 6.367,-7.748 4.371,0 6.366,2.839 6.366,7.748 v 28.383 c 0,4.831 -1.995,7.746 -6.366,7.746 C 2.07,36.129 0,33.214 0,28.383 Z m -5.907,28.075 c 0,8.209 4.065,13.5 12.274,13.5 8.283,0 12.35,-5.291 12.35,-13.5 V 0.306 c 0,-8.13 -4.067,-13.5 -12.35,-13.5 -8.209,0 -12.274,5.37 -12.274,13.5 z" /></g><g
           transform="translate(323.0539,128.4903)"
           id="g44"><path
             id="path46"
             style="fill:#ffffff;fill-opacity:1;fill-rule:nonzero;stroke:none"
             d="m 0,0 v -5.37 h -13.117 v -19.1 H 2.992 v -5.447 H -19.1 V 23.779 H 2.992 V 18.333 H -13.117 V 0 Z" /></g><g
           transform="translate(20.8635,10.4737)"
           id="g48"><path
             id="path50"
             style="fill:#ffffff;fill-opacity:1;fill-rule:nonzero;stroke:none"
             d="m 0,0 c 3.666,0 5.867,1.676 5.867,6.914 v 9.322 c 0,5.237 -2.201,6.913 -5.867,6.913 H -6.706 V 0 Z m -18.224,-10.474 v 73.319 h 32.26 V 52.371 H -6.706 V 33.622 H 0 c 11.521,0 17.386,-6.39 17.386,-18.119 V 7.646 c 0,-11.729 -5.865,-18.12 -17.386,-18.12 z" /></g><g
           transform="translate(74.8054,62.8443)"
           id="g52"><path
             id="path54"
             style="fill:#ffffff;fill-opacity:1;fill-rule:nonzero;stroke:none"
             d="m 0,0 v -24.823 h 5.449 c 3.666,0 5.655,1.676 5.655,6.912 V -6.912 C 11.104,-1.675 9.115,0 5.449,0 Z m 22.625,-7.644 v -9.533 c 0,-11.729 -5.657,-18.119 -17.176,-18.119 H 0 V -62.844 H -11.519 V 10.474 H 5.449 c 11.519,0 17.176,-6.387 17.176,-18.118" /></g><g
           transform="translate(131.8903)"
           id="g56"><path
             id="path58"
             style="fill:#ffffff;fill-opacity:1;fill-rule:nonzero;stroke:none"
             d="M 0,0 H -11.834 V 73.318 H -1.566 V 26.919 l 4.188,16.13 9.426,30.269 H 24.722 V 0 H 14.352 V 51.639 L 9.637,33.623 Z" /></g><g
           transform="translate(178.7126,73.3184)"
           id="g60"><path
             id="path62"
             style="fill:#ffffff;fill-opacity:1;fill-rule:nonzero;stroke:none"
             d="M 0,0 H 35.612 V -10.474 H 23.565 V -73.318 H 12.046 v 62.844 l -12.046,0 z" /></g><g
           transform="translate(253.6032,10.4737)"
           id="g64"><path
             id="path66"
             style="fill:#ffffff;fill-opacity:1;fill-rule:nonzero;stroke:none"
             d="m 0,0 c 3.666,0 5.657,1.676 5.657,6.914 v 10.997 c 0,5.238 -1.991,6.912 -5.657,6.912 H -5.446 V 0 Z m -16.966,-10.474 v 73.319 h 11.52 V 35.298 H 0 c 11.524,0 17.177,-6.388 17.177,-18.121 V 7.646 c 0,-11.729 -5.653,-18.12 -17.177,-18.12 z" /></g><path
           id="path68"
           style="fill:#ffffff;fill-opacity:1;fill-rule:nonzero;stroke:none"
           d="m 323.572,77.196 h -10.055 v 10.055 h 10.055 z m -15.92,0 h -10.055 v 10.055 h 10.055 z m -1.15,-34.775 h 15.815 V 31.947 H 306.502 V 10.474 H 326.4 V 0 H 294.978 V 73.318 H 326.4 V 62.844 h -19.898 z" /></g></g></g></svg>