<?xml version="1.0" encoding="UTF-8" standalone="no"?>
<svg
   xmlns:dc="http://purl.org/dc/elements/1.1/"
   xmlns:cc="http://creativecommons.org/ns#"
   xmlns:rdf="http://www.w3.org/1999/02/22-rdf-syntax-ns#"
   xmlns:svg="http://www.w3.org/2000/svg"
   xmlns="http://www.w3.org/2000/svg"
   viewBox="0 0 334.03601 61.644135"
   height="61.644135"
   width="334.03601"
   xml:space="preserve"
   id="svg2"
   version="1.1"><metadata
     id="metadata8"><rdf:RDF><cc:Work
         rdf:about=""><dc:format>image/svg+xml</dc:format><dc:type
           rdf:resource="http://purl.org/dc/dcmitype/StillImage" /></cc:Work></rdf:RDF></metadata><defs
     id="defs6" /><g
     transform="matrix(1.3333333,0,0,-1.3333333,0,61.644133)"
     id="g10"><g
       transform="translate(4.1346,30.0843)"
       id="g12"><path
         id="path14"
         style="fill:#939598;fill-opacity:1;fill-rule:nonzero;stroke:none"
         d="m 0,0 -4.135,-4.141 v -15.62 L 0,-23.901 h 8.031 l 4.206,4.174 -0.842,0.841 -3.825,-3.859 H 0.459 l -3.436,3.444 V -4.6 l 3.436,3.443 H 7.57 l 3.825,-3.892 0.84,0.847 L 8.031,0 Z" /></g><g
       transform="translate(37.5537,28.9271)"
       id="g16"><path
         id="path18"
         style="fill:#939598;fill-opacity:1;fill-rule:nonzero;stroke:none"
         d="m 0,0 h 10.548 l 3.436,-3.447 v -3.337 l -3.436,-3.447 -10.548,0 z m 11.008,-11.387 4.133,4.145 v 4.254 L 11.008,1.157 H -1.156 V -22.491 H 0 v 11.104 h 2.992 l 11.443,-11.427 0.842,0.838 -10.679,10.589 z" /></g><g
       transform="translate(80.9487,19.1488)"
       id="g20"><path
         id="path22"
         style="fill:#939598;fill-opacity:1;fill-rule:nonzero;stroke:none"
         d="M 0,0 -7.248,10.886 -8.256,10.309 -0.579,-1.192 V -12.713 H 0.579 V -1.192 L 8.257,10.309 7.248,10.886 Z" /></g><g
       transform="translate(155.2734,28.9271)"
       id="g24"><path
         id="path26"
         style="fill:#939598;fill-opacity:1;fill-rule:nonzero;stroke:none"
         d="M 0,0 H 7.318 V -22.491 H 8.475 V 0 h 7.318 V 1.157 H 0 Z" /></g><g
       transform="translate(234.4815,29.8008)"
       id="g28"><path
         id="path30"
         style="fill:#939598;fill-opacity:1;fill-rule:nonzero;stroke:none"
         d="m 0,0 v -23.618 h 16.046 v 1.157 H 1.157 V 0 Z" /></g><g
       transform="translate(197.4516,30.0843)"
       id="g32"><path
         id="path34"
         style="fill:#939598;fill-opacity:1;fill-rule:nonzero;stroke:none"
         d="m 0,0 h -0.096 -0.456 l -4.513,-11.716 1.017,-0.581 4.011,10.606 8.733,-22.229 1.015,0.581 L 0.463,0 Z" /></g><g
       transform="translate(114.1164,33.3819)"
       id="g36"><path
         id="path38"
         style="fill:#939598;fill-opacity:1;fill-rule:nonzero;stroke:none"
         d="m 0,0 -6.095,-6.102 21.149,-21.178 -4.481,-4.485 h -9.93 l -5.343,5.388 -1.175,-1.176 5.876,-5.829 h 11.215 l 6.095,6.103 -21.149,21.178 4.48,4.486 h 9.929 l 4.446,-4.523 -7.203,-7.213 1.129,-1.129 8.375,8.384 -0.451,0.449 L 11.216,0 Z" /></g><g
       transform="translate(143.4231,46.233)"
       id="g40"><path
         id="path42"
         style="fill:#939598;fill-opacity:1;fill-rule:nonzero;stroke:none"
         d="m 0,0 v -7.036 -0.249 -3.866 -0.117 h 0.424 0.201 4.889 l 2.09,2.081 v 4.055 l -2.09,2.089 H 3.275 v -0.969 l 0.337,0.336 H 5.257 L 6.971,-5.382 V -8.935 L 5.257,-10.643 H 0.625 V 0 Z" /></g><g
       transform="translate(130.1355,46.233)"
       id="g44"><path
         id="path46"
         style="fill:#939598;fill-opacity:1;fill-rule:nonzero;stroke:none"
         d="m 0,0 v -9.185 l 2.12,-2.13 0.454,0.453 -1.941,1.927 V 0 Z" /></g><g
       transform="translate(136.9477,35.5965)"
       id="g48"><path
         id="path50"
         style="fill:#939598;fill-opacity:1;fill-rule:nonzero;stroke:none"
         d="M 0,0 -1.708,1.707 V 5.253 L 0,6.963 H 1.648 L 5.129,3.481 1.648,0 Z M -0.25,7.593 -2.338,5.505 V 1.457 L -0.25,-0.631 H 1.9 L 6.011,3.481 1.9,7.593 Z" /></g></g></svg>