<?xml version="1.0" encoding="UTF-8" standalone="no"?>
<svg
   xmlns:dc="http://purl.org/dc/elements/1.1/"
   xmlns:cc="http://creativecommons.org/ns#"
   xmlns:rdf="http://www.w3.org/1999/02/22-rdf-syntax-ns#"
   xmlns:svg="http://www.w3.org/2000/svg"
   xmlns="http://www.w3.org/2000/svg"
   viewBox="0 0 1640.8533 895.38135"
   height="895.38135"
   width="1640.8533"
   xml:space="preserve"
   id="svg2"
   version="1.1"><metadata
     id="metadata8"><rdf:RDF><cc:Work
         rdf:about=""><dc:format>image/svg+xml</dc:format><dc:type
           rdf:resource="http://purl.org/dc/dcmitype/StillImage" /></cc:Work></rdf:RDF></metadata><defs
     id="defs6" /><g
     transform="matrix(1.3333333,0,0,-1.3333333,0,895.38133)"
     id="g10"><g
       transform="translate(446.0355,671.5359)"
       id="g12"><path
         id="path14"
         style="fill:#bebebe;fill-opacity:1;fill-rule:nonzero;stroke:none"
         d="m 0,0 -167.803,-167.782 v -174.726 l 329.123,-329.028 329.004,329.028 v 174.726 L 322.516,0 Z m -150.344,-335.275 v 160.261 L 7.232,-17.459 H 315.285 L 472.866,-175.014 V -335.275 L 161.319,-646.846 Z" /></g><g
       transform="translate(658.0425,192.4424)"
       id="g16"><path
         id="path18"
         style="fill:#bebebe;fill-opacity:1;fill-rule:nonzero;stroke:none"
         d="m 0,0 h -11.916 v -5.153 l 1.796,1.787 h 8.754 l 9.118,-9.08 v -18.913 l -9.118,-9.079 h -24.653 v 56.629 h -3.318 v -37.435 -1.318 -20.582 -0.619 h 2.252 1.066 H 0 l 11.121,11.081 v 21.558 z" /></g><g
       transform="translate(571.6912,150.8408)"
       id="g20"><path
         id="path22"
         style="fill:#bebebe;fill-opacity:1;fill-rule:nonzero;stroke:none"
         d="m 0,0 -10.331,10.242 v 47.551 h -3.366 V 8.92 L -2.411,-2.417 Z" /></g><g
       transform="translate(594.2476,152.041)"
       id="g24"><path
         id="path26"
         style="fill:#bebebe;fill-opacity:1;fill-rule:nonzero;stroke:none"
         d="M 0,0 -9.085,9.091 V 27.949 L 0,37.051 H 8.771 L 27.296,18.522 8.771,0 Z M -1.334,40.396 -12.447,29.288 V 7.746 L -1.334,-3.361 H 10.104 L 31.985,18.522 10.104,40.396 Z" /></g><g
       transform="translate(21.9933,459.1404)"
       id="g28"><path
         id="path30"
         style="fill:#bebebe;fill-opacity:1;fill-rule:nonzero;stroke:none"
         d="m 0,0 -21.993,-22.039 v -83.118 L 0,-127.19 h 42.73 l 22.396,22.21 -4.484,4.482 -20.355,-20.535 H 2.446 l -18.282,18.314 v 78.243 L 2.446,-6.162 H 40.287 L 60.642,-26.867 65.11,-22.358 42.73,0 Z" /></g><g
       transform="translate(183.638,452.9785)"
       id="g32"><path
         id="path34"
         style="fill:#bebebe;fill-opacity:1;fill-rule:nonzero;stroke:none"
         d="M 0,0 H 56.129 L 74.417,-18.336 V -36.102 L 56.129,-54.442 H 0 Z m 58.572,-60.594 22.002,22.055 v 22.642 L 58.572,6.162 H -6.159 V -119.684 H 0 v 59.09 h 15.914 l 60.896,-60.813 4.484,4.466 -56.83,56.347 z" /></g><g
       transform="translate(404.7989,400.9473)"
       id="g36"><path
         id="path38"
         style="fill:#bebebe;fill-opacity:1;fill-rule:nonzero;stroke:none"
         d="m 0,0 -38.566,57.932 -5.37,-3.078 40.855,-61.198 v -61.308 h 6.156 v 61.308 l 40.861,61.198 -5.373,3.078 z" /></g><g
       transform="translate(778.4173,452.9785)"
       id="g40"><path
         id="path42"
         style="fill:#bebebe;fill-opacity:1;fill-rule:nonzero;stroke:none"
         d="m 0,0 h 38.948 v -119.684 h 6.15 V 0 H 84.044 V 6.162 H 0 Z" /></g><g
       transform="translate(1145.2517,457.6311)"
       id="g44"><path
         id="path46"
         style="fill:#bebebe;fill-opacity:1;fill-rule:nonzero;stroke:none"
         d="m 0,0 v -125.681 h 85.386 v 6.157 H 6.16 L 6.16,0 Z" /></g><g
       transform="translate(980.5494,459.1406)"
       id="g48"><path
         id="path50"
         style="fill:#bebebe;fill-opacity:1;fill-rule:nonzero;stroke:none"
         d="m 0,0 h -0.512 -2.422 l -24.018,-62.35 5.41,-3.093 21.345,56.448 46.467,-118.291 5.407,3.089 L 2.465,0 Z" /></g><g
       transform="translate(631.3091,399.6299)"
       id="g52"><path
         id="path54"
         style="fill:#bebebe;fill-opacity:1;fill-rule:nonzero;stroke:none"
         d="m 0,0 44.557,44.615 -2.39,2.391 -30.075,30.052 H -47.59 L -80.024,44.583 32.516,-68.111 8.677,-91.975 h -52.845 l -28.435,28.67 -6.255,-6.258 31.276,-31.017 h 59.674 l 32.431,32.474 -112.54,112.695 23.844,23.868 H 8.664 L 32.319,44.402 -6.007,6.012 Z" /></g></g></svg>