<?xml version="1.0" encoding="UTF-8" standalone="no"?>
<svg
   xmlns:dc="http://purl.org/dc/elements/1.1/"
   xmlns:cc="http://creativecommons.org/ns#"
   xmlns:rdf="http://www.w3.org/1999/02/22-rdf-syntax-ns#"
   xmlns:svg="http://www.w3.org/2000/svg"
   xmlns="http://www.w3.org/2000/svg"
   viewBox="0 0 605.00403 300.66534"
   height="300.66534"
   width="605.00403"
   xml:space="preserve"
   id="svg2"
   version="1.1"><metadata
     id="metadata8"><rdf:RDF><cc:Work
         rdf:about=""><dc:format>image/svg+xml</dc:format><dc:type
           rdf:resource="http://purl.org/dc/dcmitype/StillImage" /></cc:Work></rdf:RDF></metadata><defs
     id="defs6"><clipPath
       id="clipPath28"
       clipPathUnits="userSpaceOnUse"><path
         id="path26"
         d="M 0,225.499 H 453.753 V 0 H 0 Z" /></clipPath></defs><g
     transform="matrix(1.3333333,0,0,-1.3333333,0,300.66533)"
     id="g10"><path
       id="path12"
       style="fill:#ff007f;fill-opacity:1;fill-rule:nonzero;stroke:none"
       d="M 4.783,197.256 H 7.17 V 225.1 H 4.783 Z" /><g
       transform="translate(0.0099,177.3666)"
       id="g14"><path
         id="path16"
         style="fill:#ff007f;fill-opacity:1;fill-rule:nonzero;stroke:none"
         d="m 0,0 v -2.387 h 7.041 l 2.505,-2.466 v -5.37 L 7.041,-12.729 H 3.859 L 0,-16.597 v -11.247 h 11.933 v 2.346 H 2.387 v 7.907 l 2.466,2.476 h 3.182 l 3.898,3.897 v 7.359 L 8.035,0 Z" /></g><g
       transform="translate(0.0099,129.6342)"
       id="g18"><path
         id="path20"
         style="fill:#ff007f;fill-opacity:1;fill-rule:nonzero;stroke:none"
         d="m 0,0 v -2.387 h 7.041 l 2.505,-2.466 v -5.37 L 7.041,-12.729 H 0 v -2.386 h 7.041 l 2.505,-2.476 v -5.39 L 7.041,-25.499 H 0 v -2.346 h 8.035 l 3.898,3.865 v 7.369 l -2.704,2.668 2.704,2.709 v 7.369 L 8.035,0 Z" /></g><g
       id="g22"><g
         clip-path="url(#clipPath28)"
         id="g24"><g
           transform="translate(208.7305,207.002)"
           id="g30"><path
             id="path32"
             style="fill:#ff007f;fill-opacity:1;fill-rule:nonzero;stroke:none"
             d="m 0,0 c 0,2.228 -1.552,3.778 -3.779,3.778 h -7.757 v 1.79 l 10.143,10.145 v 0.198 h -13.524 l -0.796,0.796 V 18.1 H 1.989 V 16.11 L -7.956,6.166 V 5.967 h 4.177 C 0.397,5.967 2.784,3.62 2.784,0 v -3.779 c 0,-3.62 -2.387,-5.967 -6.563,-5.967 h -11.735 v 2.187 h 11.735 c 2.227,0 3.779,1.552 3.779,3.78 z" /></g><g
           transform="translate(229.4155,199.0459)"
           id="g34"><path
             id="path36"
             style="fill:#ff007f;fill-opacity:1;fill-rule:nonzero;stroke:none"
             d="m 0,0 c 2.228,0 3.779,1.551 3.779,3.779 v 16.707 c 0,2.228 -1.551,3.78 -3.779,3.78 h -5.967 c -2.227,0 -3.779,-1.552 -3.779,-3.78 V 3.779 C -9.746,1.551 -8.194,0 -5.967,0 Z m -5.967,-2.188 c -4.177,0 -6.563,2.347 -6.563,5.967 v 16.707 c 0,3.62 2.386,5.967 6.563,5.967 H 0 c 4.177,0 6.563,-2.347 6.563,-5.967 V 3.779 C 6.563,0.159 4.177,-2.188 0,-2.188 Z" /></g><g
           transform="translate(254.8726,199.0459)"
           id="g38"><path
             id="path40"
             style="fill:#ff007f;fill-opacity:1;fill-rule:nonzero;stroke:none"
             d="m 0,0 c 2.228,0 3.779,1.551 3.779,3.779 v 16.707 c 0,2.228 -1.551,3.78 -3.779,3.78 h -5.967 c -2.227,0 -3.779,-1.552 -3.779,-3.78 V 3.779 C -9.746,1.551 -8.194,0 -5.967,0 Z m -5.967,-2.188 c -4.177,0 -6.563,2.347 -6.563,5.967 v 16.707 c 0,3.62 2.386,5.967 6.563,5.967 H 0 c 4.177,0 6.563,-2.347 6.563,-5.967 V 3.779 C 6.563,0.159 4.177,-2.188 0,-2.188 Z" /></g><g
           transform="translate(280.3306,199.0459)"
           id="g42"><path
             id="path44"
             style="fill:#ff007f;fill-opacity:1;fill-rule:nonzero;stroke:none"
             d="m 0,0 c 2.228,0 3.779,1.551 3.779,3.779 v 16.707 c 0,2.228 -1.551,3.78 -3.779,3.78 h -5.967 c -2.227,0 -3.779,-1.552 -3.779,-3.78 V 3.779 C -9.746,1.551 -8.194,0 -5.967,0 Z m -5.967,-2.188 c -4.177,0 -6.563,2.347 -6.563,5.967 v 16.707 c 0,3.62 2.386,5.967 6.563,5.967 H 0 c 4.177,0 6.563,-2.347 6.563,-5.967 V 3.779 C 6.563,0.159 4.177,-2.188 0,-2.188 Z" /></g><g
           transform="translate(207.3379,174.1855)"
           id="g46"><path
             id="path48"
             style="fill:#ff007f;fill-opacity:1;fill-rule:nonzero;stroke:none"
             d="m 0,0 c -3.858,-5.251 -7.717,-10.462 -11.536,-15.713 v -0.199 H 0.199 L 0.199,0 Z M 2.983,-15.912 H 7.359 V -18.1 H 2.983 v -6.563 H 0.199 v 6.563 h -14.917 v 1.99 L -0.795,3.183 h 3.778 z" /></g><g
           transform="translate(230.4097,151.3125)"
           id="g50"><path
             id="path52"
             style="fill:#ff007f;fill-opacity:1;fill-rule:nonzero;stroke:none"
             d="M 0,0 C 2.228,0 3.779,1.551 3.779,3.779 V 8.95 c 0,2.228 -1.551,3.779 -3.779,3.779 H -9.149 V 3.779 C -9.149,1.551 -7.598,0 -5.37,0 Z M -9.149,14.917 H 0 c 4.177,0 6.563,-2.347 6.563,-5.967 V 3.779 C 6.563,0.159 4.177,-2.188 0,-2.188 h -5.37 c -4.177,0 -6.564,2.347 -6.564,5.967 v 16.31 c 0,3.619 2.387,5.967 6.564,5.967 H 5.172 V 24.663 L 4.376,23.867 H -5.37 c -2.228,0 -3.779,-1.511 -3.779,-3.778 z" /></g><g
           transform="translate(254.8726,151.3125)"
           id="g54"><path
             id="path56"
             style="fill:#ff007f;fill-opacity:1;fill-rule:nonzero;stroke:none"
             d="m 0,0 c 2.228,0 3.779,1.551 3.779,3.779 v 16.707 c 0,2.228 -1.551,3.78 -3.779,3.78 h -5.967 c -2.227,0 -3.779,-1.552 -3.779,-3.78 V 3.779 C -9.746,1.551 -8.194,0 -5.967,0 Z m -5.967,-2.188 c -4.177,0 -6.563,2.347 -6.563,5.967 v 16.707 c 0,3.62 2.386,5.967 6.563,5.967 H 0 c 4.177,0 6.563,-2.347 6.563,-5.967 V 3.779 C 6.563,0.159 4.177,-2.188 0,-2.188 Z" /></g><g
           transform="translate(280.3296,151.3125)"
           id="g58"><path
             id="path60"
             style="fill:#ff007f;fill-opacity:1;fill-rule:nonzero;stroke:none"
             d="m 0,0 c 2.228,0 3.779,1.551 3.779,3.779 v 16.707 c 0,2.228 -1.551,3.78 -3.779,3.78 h -5.967 c -2.227,0 -3.779,-1.552 -3.779,-3.78 V 3.779 C -9.746,1.551 -8.194,0 -5.967,0 Z m -5.967,-2.188 c -4.177,0 -6.563,2.347 -6.563,5.967 v 16.707 c 0,3.62 2.386,5.967 6.563,5.967 H 0 c 4.177,0 6.563,-2.347 6.563,-5.967 V 3.779 C 6.563,0.159 4.177,-2.188 0,-2.188 Z" /></g><g
           transform="translate(207.1396,103.5791)"
           id="g62"><path
             id="path64"
             style="fill:#ff007f;fill-opacity:1;fill-rule:nonzero;stroke:none"
             d="m 0,0 c 2.228,0 3.778,1.552 3.778,3.779 v 5.172 c 0,2.228 -1.55,3.778 -3.778,3.778 H -9.149 V 3.779 C -9.149,1.552 -7.599,0 -5.371,0 Z M -9.149,14.918 H 0 c 4.177,0 6.563,-2.348 6.563,-5.967 V 3.779 C 6.563,0.159 4.177,-2.188 0,-2.188 h -5.371 c -4.177,0 -6.564,2.347 -6.564,5.967 v 16.31 c 0,3.62 2.387,5.967 6.564,5.967 H 5.171 V 24.664 L 4.375,23.868 h -9.746 c -2.228,0 -3.778,-1.512 -3.778,-3.779 z" /></g><g
           transform="translate(231.603,103.5791)"
           id="g66"><path
             id="path68"
             style="fill:#ff007f;fill-opacity:1;fill-rule:nonzero;stroke:none"
             d="m 0,0 c 2.228,0 3.779,1.552 3.779,3.779 v 16.708 c 0,2.228 -1.551,3.779 -3.779,3.779 h -5.967 c -2.227,0 -3.779,-1.551 -3.779,-3.779 V 3.779 C -9.746,1.552 -8.194,0 -5.967,0 Z m -5.967,-2.188 c -4.177,0 -6.563,2.347 -6.563,5.967 v 16.708 c 0,3.619 2.386,5.967 6.563,5.967 H 0 c 4.177,0 6.563,-2.348 6.563,-5.967 V 3.779 C 6.563,0.159 4.177,-2.188 0,-2.188 Z" /></g><g
           transform="translate(257.0601,103.5791)"
           id="g70"><path
             id="path72"
             style="fill:#ff007f;fill-opacity:1;fill-rule:nonzero;stroke:none"
             d="m 0,0 c 2.228,0 3.779,1.552 3.779,3.779 v 16.708 c 0,2.228 -1.551,3.779 -3.779,3.779 h -5.967 c -2.227,0 -3.779,-1.551 -3.779,-3.779 V 3.779 C -9.746,1.552 -8.194,0 -5.967,0 Z m -5.967,-2.188 c -4.177,0 -6.563,2.347 -6.563,5.967 v 16.708 c 0,3.619 2.386,5.967 6.563,5.967 H 0 c 4.177,0 6.563,-2.348 6.563,-5.967 V 3.779 C 6.563,0.159 4.177,-2.188 0,-2.188 Z" /></g><g
           transform="translate(282.5181,103.5791)"
           id="g74"><path
             id="path76"
             style="fill:#ff007f;fill-opacity:1;fill-rule:nonzero;stroke:none"
             d="m 0,0 c 2.228,0 3.779,1.552 3.779,3.779 v 16.708 c 0,2.228 -1.551,3.779 -3.779,3.779 h -5.967 c -2.227,0 -3.779,-1.551 -3.779,-3.779 V 3.779 C -9.746,1.552 -8.194,0 -5.967,0 Z m -5.967,-2.188 c -4.177,0 -6.563,2.347 -6.563,5.967 v 16.708 c 0,3.619 2.386,5.967 6.563,5.967 H 0 c 4.177,0 6.563,-2.348 6.563,-5.967 V 3.779 C 6.563,0.159 4.177,-2.188 0,-2.188 Z" /></g><g
           transform="translate(201.1719,12.918)"
           id="g78"><path
             id="path80"
             style="fill:#ff007f;fill-opacity:1;fill-rule:nonzero;stroke:none"
             d="m 0,0 h -2.784 v 25.459 h -5.57 v 1.193 l 6.166,1.194 H 0 Z" /></g><g
           transform="translate(224.2437,14.708)"
           id="g82"><path
             id="path84"
             style="fill:#ff007f;fill-opacity:1;fill-rule:nonzero;stroke:none"
             d="m 0,0 c 2.228,0 3.779,1.552 3.779,3.779 v 16.708 c 0,2.228 -1.551,3.779 -3.779,3.779 h -5.967 c -2.227,0 -3.78,-1.551 -3.78,-3.779 V 3.779 C -9.747,1.552 -8.194,0 -5.967,0 Z m -5.967,-2.188 c -4.177,0 -6.564,2.347 -6.564,5.967 v 16.708 c 0,3.619 2.387,5.967 6.564,5.967 H 0 c 4.177,0 6.563,-2.348 6.563,-5.967 V 3.779 C 6.563,0.159 4.177,-2.188 0,-2.188 Z" /></g><g
           transform="translate(253.0825,14.708)"
           id="g86"><path
             id="path88"
             style="fill:#ff007f;fill-opacity:1;fill-rule:nonzero;stroke:none"
             d="m 0,0 c 2.228,0 3.779,1.552 3.779,3.779 v 16.708 c 0,2.228 -1.551,3.779 -3.779,3.779 h -5.967 c -2.227,0 -3.779,-1.551 -3.779,-3.779 V 3.779 C -9.746,1.552 -8.194,0 -5.967,0 Z m -5.967,-2.188 c -4.177,0 -6.563,2.347 -6.563,5.967 v 16.708 c 0,3.619 2.386,5.967 6.563,5.967 H 0 c 4.177,0 6.563,-2.348 6.563,-5.967 V 3.779 C 6.563,0.159 4.177,-2.188 0,-2.188 Z" /></g><g
           transform="translate(281.9214,14.708)"
           id="g90"><path
             id="path92"
             style="fill:#ff007f;fill-opacity:1;fill-rule:nonzero;stroke:none"
             d="m 0,0 c 2.228,0 3.779,1.552 3.779,3.779 v 16.708 c 0,2.228 -1.551,3.779 -3.779,3.779 h -5.967 c -2.227,0 -3.779,-1.551 -3.779,-3.779 V 3.779 C -9.746,1.552 -8.194,0 -5.967,0 Z m -5.967,-2.188 c -4.177,0 -6.563,2.347 -6.563,5.967 v 16.708 c 0,3.619 2.386,5.967 6.563,5.967 H 0 c 4.177,0 6.563,-2.348 6.563,-5.967 V 3.779 C 6.563,0.159 4.177,-2.188 0,-2.188 Z" /></g><g
           transform="translate(29.2368,200.3096)"
           id="g94"><path
             id="path96"
             style="fill:#ff007f;fill-opacity:1;fill-rule:nonzero;stroke:none"
             d="M 0,0 C 0,-1.368 0.953,-2.321 2.321,-2.321 H 8.673 V -3.054 H 2.321 c -1.832,0 -3.176,1.344 -3.176,3.054 v 6.84 c 0,1.71 1.344,3.054 3.176,3.054 H 8.673 V 9.405 L 8.428,9.161 H 2.321 C 0.953,9.161 0,8.208 0,6.84 Z" /></g><g
           transform="translate(62.2192,207.3936)"
           id="g98"><path
             id="path100"
             style="fill:#ff007f;fill-opacity:1;fill-rule:nonzero;stroke:none"
             d="M 0,0 C 0,1.368 -0.953,2.321 -2.321,2.321 H -6.229 C -7.597,2.321 -8.55,1.368 -8.55,0 V -3.42 H 0 Z m -8.55,-4.152 v -2.932 c 0,-1.368 0.953,-2.321 2.321,-2.321 h 6.596 v -0.733 h -6.596 c -1.833,0 -3.176,1.344 -3.176,3.054 V 0 c 0,1.71 1.343,3.054 3.176,3.054 h 3.908 C -0.488,3.054 0.855,1.71 0.855,0 v -4.152 z" /></g><g
           transform="translate(88.1177,210.2031)"
           id="g102"><path
             id="path104"
             style="fill:#ff007f;fill-opacity:1;fill-rule:nonzero;stroke:none"
             d="m 0,0 v -0.488 l -0.244,-0.244 h -4.642 v -12.215 h -0.855 v 12.215 h -4.886 V 0 Z" /></g><g
           transform="translate(29.2368,152.5762)"
           id="g106"><path
             id="path108"
             style="fill:#ff007f;fill-opacity:1;fill-rule:nonzero;stroke:none"
             d="M 0,0 C 0,-1.368 0.953,-2.321 2.321,-2.321 H 8.673 V -3.054 H 2.321 c -1.832,0 -3.176,1.344 -3.176,3.054 v 6.84 c 0,1.71 1.344,3.054 3.176,3.054 H 8.673 V 9.405 L 8.428,9.161 H 2.321 C 0.953,9.161 0,8.208 0,6.84 Z" /></g><g
           transform="translate(62.2192,159.6602)"
           id="g110"><path
             id="path112"
             style="fill:#ff007f;fill-opacity:1;fill-rule:nonzero;stroke:none"
             d="M 0,0 C 0,1.368 -0.953,2.321 -2.321,2.321 H -6.229 C -7.597,2.321 -8.55,1.368 -8.55,0 V -3.42 H 0 Z m -8.55,-4.152 v -2.932 c 0,-1.368 0.953,-2.321 2.321,-2.321 h 6.596 v -0.733 h -6.596 c -1.833,0 -3.176,1.344 -3.176,3.054 V 0 c 0,1.71 1.343,3.054 3.176,3.054 h 3.908 C -0.488,3.054 0.855,1.71 0.855,0 v -4.152 z" /></g><g
           transform="translate(88.1177,162.4697)"
           id="g114"><path
             id="path116"
             style="fill:#ff007f;fill-opacity:1;fill-rule:nonzero;stroke:none"
             d="m 0,0 v -0.488 l -0.244,-0.244 h -4.642 v -12.215 h -0.855 v 12.215 h -4.886 V 0 Z" /></g><g
           transform="translate(105.5869,155.6299)"
           id="g118"><path
             id="path120"
             style="fill:#ff007f;fill-opacity:1;fill-rule:nonzero;stroke:none"
             d="m 0,0 c -1.368,0 -2.321,-0.953 -2.321,-2.321 v -0.977 c 0,-1.368 0.953,-2.321 2.321,-2.321 h 3.42 c 0.977,0 1.662,0.684 2.125,1.392 0.269,0.415 0.514,0.905 0.684,1.417 V 0 Z m 3.909,6.84 c 1.832,0 3.175,-1.344 3.175,-3.054 V -6.107 H 6.474 L 6.352,-4.153 H 6.229 C 6.059,-4.568 5.863,-4.935 5.594,-5.253 5.13,-5.814 4.471,-6.352 3.42,-6.352 H 0 c -1.832,0 -3.176,1.343 -3.176,3.054 v 0.977 c 0,1.71 1.344,3.053 3.176,3.053 h 6.229 v 3.054 c 0,1.368 -0.952,2.321 -2.32,2.321 H -2.199 V 6.84 Z" /></g><g
           transform="translate(29.2368,104.8428)"
           id="g122"><path
             id="path124"
             style="fill:#ff007f;fill-opacity:1;fill-rule:nonzero;stroke:none"
             d="M 0,0 C 0,-1.368 0.953,-2.32 2.321,-2.32 H 8.673 V -3.054 H 2.321 c -1.832,0 -3.176,1.344 -3.176,3.054 v 6.841 c 0,1.71 1.344,3.054 3.176,3.054 H 8.673 V 9.405 L 8.428,9.161 H 2.321 C 0.953,9.161 0,8.208 0,6.841 Z" /></g><g
           transform="translate(62.2192,111.9277)"
           id="g126"><path
             id="path128"
             style="fill:#ff007f;fill-opacity:1;fill-rule:nonzero;stroke:none"
             d="M 0,0 C 0,1.368 -0.953,2.32 -2.321,2.32 H -6.229 C -7.597,2.32 -8.55,1.368 -8.55,0 V -3.42 H 0 Z m -8.55,-4.153 v -2.932 c 0,-1.368 0.953,-2.32 2.321,-2.32 h 6.596 v -0.734 h -6.596 c -1.833,0 -3.176,1.344 -3.176,3.054 V 0 c 0,1.71 1.343,3.054 3.176,3.054 h 3.908 C -0.488,3.054 0.855,1.71 0.855,0 v -4.153 z" /></g><g
           transform="translate(88.1177,114.7373)"
           id="g130"><path
             id="path132"
             style="fill:#ff007f;fill-opacity:1;fill-rule:nonzero;stroke:none"
             d="m 0,0 v -0.489 l -0.244,-0.244 h -4.642 v -12.215 h -0.855 v 12.215 h -4.886 V 0 Z" /></g><g
           transform="translate(105.5869,107.8965)"
           id="g134"><path
             id="path136"
             style="fill:#ff007f;fill-opacity:1;fill-rule:nonzero;stroke:none"
             d="m 0,0 c -1.368,0 -2.321,-0.952 -2.321,-2.32 v -0.978 c 0,-1.368 0.953,-2.32 2.321,-2.32 h 3.42 c 0.977,0 1.662,0.683 2.125,1.391 0.269,0.416 0.514,0.905 0.684,1.417 V 0 Z m 3.909,6.841 c 1.832,0 3.175,-1.344 3.175,-3.054 V -6.107 H 6.474 L 6.352,-4.152 H 6.229 C 6.059,-4.568 5.863,-4.935 5.594,-5.252 5.13,-5.814 4.471,-6.352 3.42,-6.352 H 0 c -1.832,0 -3.176,1.344 -3.176,3.054 v 0.978 c 0,1.71 1.344,3.053 3.176,3.053 h 6.229 v 3.054 c 0,1.367 -0.952,2.32 -2.32,2.32 h -6.108 v 0.734 z" /></g><g
           transform="translate(294.6265,203.1436)"
           id="g138"><path
             id="path140"
             style="fill:#ff007f;fill-opacity:1;fill-rule:nonzero;stroke:none"
             d="m 0,0 h 2.928 c 0.949,0 1.627,0.179 2.032,0.536 0.405,0.358 0.608,0.861 0.608,1.512 0,0.47 -0.12,0.867 -0.36,1.192 C 4.968,3.565 4.656,3.781 4.272,3.888 4.016,3.963 3.558,4 2.896,4 H 0 Z m -2.672,-0.032 h 1.2 V 5.312 H 2.784 C 3.521,5.312 4.08,5.28 4.464,5.216 5.019,5.12 5.482,4.944 5.856,4.688 6.229,4.432 6.525,4.074 6.744,3.616 6.963,3.157 7.072,2.65 7.072,2.096 c 0,-0.96 -0.299,-1.774 -0.896,-2.44 -0.598,-0.667 -1.686,-1 -3.264,-1 H 0 v -0.992 h 6.192 v -1.28 H 0 v -2.272 h -1.472 v 2.272 h -1.2 v 1.28 h 1.2 v 0.992 h -1.2 z" /></g><g
           transform="translate(294.6265,155.4102)"
           id="g142"><path
             id="path144"
             style="fill:#ff007f;fill-opacity:1;fill-rule:nonzero;stroke:none"
             d="m 0,0 h 2.928 c 0.949,0 1.627,0.179 2.032,0.536 0.405,0.358 0.608,0.861 0.608,1.512 0,0.47 -0.12,0.867 -0.36,1.192 C 4.968,3.565 4.656,3.781 4.272,3.888 4.016,3.963 3.558,4 2.896,4 H 0 Z m -2.672,-0.032 h 1.2 V 5.312 H 2.784 C 3.521,5.312 4.08,5.28 4.464,5.216 5.019,5.12 5.482,4.944 5.856,4.688 6.229,4.432 6.525,4.074 6.744,3.616 6.963,3.157 7.072,2.65 7.072,2.096 c 0,-0.96 -0.299,-1.774 -0.896,-2.44 -0.598,-0.667 -1.686,-1 -3.264,-1 H 0 v -0.992 h 6.192 v -1.28 H 0 v -2.272 h -1.472 v 2.272 h -1.2 v 1.28 h 1.2 v 0.992 h -1.2 z" /></g><g
           transform="translate(294.6265,107.6777)"
           id="g146"><path
             id="path148"
             style="fill:#ff007f;fill-opacity:1;fill-rule:nonzero;stroke:none"
             d="m 0,0 h 2.928 c 0.949,0 1.627,0.178 2.032,0.535 0.405,0.358 0.608,0.861 0.608,1.513 0,0.469 -0.12,0.866 -0.36,1.191 C 4.968,3.564 4.656,3.781 4.272,3.888 4.016,3.962 3.558,4 2.896,4 H 0 Z m -2.672,-0.032 h 1.2 V 5.312 H 2.784 C 3.521,5.312 4.08,5.279 4.464,5.216 5.019,5.119 5.482,4.943 5.856,4.687 6.229,4.432 6.525,4.074 6.744,3.615 6.963,3.157 7.072,2.65 7.072,2.096 c 0,-0.96 -0.299,-1.774 -0.896,-2.441 -0.598,-0.666 -1.686,-1 -3.264,-1 H 0 V -2.337 H 6.192 V -3.616 H 0 v -2.273 h -1.472 v 2.273 h -1.2 v 1.279 h 1.2 v 0.992 h -1.2 z" /></g><g
           transform="translate(294.6265,18.8066)"
           id="g150"><path
             id="path152"
             style="fill:#ff007f;fill-opacity:1;fill-rule:nonzero;stroke:none"
             d="m 0,0 h 2.928 c 0.949,0 1.627,0.178 2.032,0.535 0.405,0.358 0.608,0.861 0.608,1.513 0,0.469 -0.12,0.866 -0.36,1.191 C 4.968,3.564 4.656,3.781 4.272,3.888 4.016,3.962 3.558,4 2.896,4 H 0 Z m -2.672,-0.032 h 1.2 V 5.312 H 2.784 C 3.521,5.312 4.08,5.279 4.464,5.216 5.019,5.119 5.482,4.943 5.856,4.687 6.229,4.432 6.525,4.074 6.744,3.615 6.963,3.157 7.072,2.65 7.072,2.096 c 0,-0.96 -0.299,-1.774 -0.896,-2.441 -0.598,-0.666 -1.686,-1 -3.264,-1 H 0 V -2.337 H 6.192 V -3.616 H 0 v -2.273 h -1.472 v 2.273 h -1.2 v 1.279 h 1.2 v 0.992 h -1.2 z" /></g><g
           transform="translate(334.7368,140.127)"
           id="g154"><path
             id="path156"
             style="fill:#ff007f;fill-opacity:1;fill-rule:nonzero;stroke:none"
             d="m 0,0 c -0.368,-0.97 -1.024,-1.639 -2.185,-1.639 h -0.683 v 0.751 h 0.683 c 0.546,0 0.984,0.41 1.161,0.888 l 0.205,0.546 v 0.123 l -2.95,6.774 v 0.478 h 0.888 l 2.54,-6.282 h 0.069 L 1.83,7.921 H 2.718 V 7.443 Z" /></g><g
           transform="translate(343.8013,148.0479)"
           id="g158"><path
             id="path160"
             style="fill:#ff007f;fill-opacity:1;fill-rule:nonzero;stroke:none"
             d="M 0,0 H 0.888 V -0.478 L -1.093,-3.551 1.093,-6.76 V -7.238 H 0.205 L -1.844,-3.96 H -3.892 V -7.238 H -4.848 V 0 h 0.956 v -3.209 h 2.048 z" /></g><g
           transform="translate(347.4175,141.5605)"
           id="g162"><path
             id="path164"
             style="fill:#ff007f;fill-opacity:1;fill-rule:nonzero;stroke:none"
             d="M 0,0 H 2.936 C 3.551,0 4.028,0.479 4.028,1.093 V 4.78 c 0,0.615 -0.477,1.093 -1.092,1.093 H 1.502 C 0.956,5.873 0.573,5.545 0.341,5.217 0.19,5.026 0.082,4.808 0,4.575 Z m -0.342,6.487 0.137,-0.956 h 0.068 c 0.082,0.205 0.205,0.383 0.355,0.546 0.26,0.274 0.67,0.547 1.284,0.547 h 1.434 c 1.311,0 2.048,-0.751 2.048,-1.844 V 1.093 C 4.984,0 4.247,-0.751 2.936,-0.751 H 0 v -2.321 h -0.956 v 9.559 z" /></g><g
           transform="translate(355.2661,144.7705)"
           id="g166"><path
             id="path168"
             style="fill:#ff007f;fill-opacity:1;fill-rule:nonzero;stroke:none"
             d="M 0,0 H 3.892 V 1.57 C 3.892,2.185 3.414,2.663 2.8,2.663 H 1.093 C 0.478,2.663 0,2.185 0,1.57 Z M 0,-0.751 V -2.117 C 0,-2.731 0.478,-3.21 1.093,-3.21 H 4.575 V -3.961 H 1.093 c -1.312,0 -2.049,0.751 -2.049,1.844 V 1.57 c 0,1.093 0.737,1.844 2.049,1.844 H 2.8 c 1.31,0 2.048,-0.751 2.048,-1.844 v -2.321 z" /></g><g
           transform="translate(362.1587,140.8096)"
           id="g170"><path
             id="path172"
             style="fill:#ff007f;fill-opacity:1;fill-rule:nonzero;stroke:none"
             d="M 0,0 V 7.238 H 6.009 V 0 H 5.053 V 6.487 H 0.956 L 0.956,0 Z" /></g><g
           transform="translate(369.4614,141.4248)"
           id="g174"><path
             id="path176"
             style="fill:#ff007f;fill-opacity:1;fill-rule:nonzero;stroke:none"
             d="M 0,0 H 0.272 C 0.819,0 1.229,0.396 1.297,1.16 L 1.775,6.623 H 6.76 V -0.615 H 5.804 V 5.872 H 2.663 L 2.253,1.16 C 2.157,0 1.434,-0.752 0.272,-0.752 H 0 Z" /></g><g
           transform="translate(379.2212,144.7705)"
           id="g178"><path
             id="path180"
             style="fill:#ff007f;fill-opacity:1;fill-rule:nonzero;stroke:none"
             d="M 0,0 H 3.892 V 1.57 C 3.892,2.185 3.414,2.663 2.8,2.663 H 1.093 C 0.478,2.663 0,2.185 0,1.57 Z M 0,-0.751 V -2.117 C 0,-2.731 0.478,-3.21 1.093,-3.21 H 4.575 V -3.961 H 1.093 c -1.312,0 -2.049,0.751 -2.049,1.844 V 1.57 c 0,1.093 0.737,1.844 2.049,1.844 H 2.8 c 1.31,0 2.048,-0.751 2.048,-1.844 v -2.321 z" /></g><g
           transform="translate(386.1147,140.8096)"
           id="g182"><path
             id="path184"
             style="fill:#ff007f;fill-opacity:1;fill-rule:nonzero;stroke:none"
             d="M 0,0 V 7.238 H 0.956 V 4.029 H 5.053 V 7.238 H 6.009 V 0 H 5.053 V 3.278 H 0.956 L 0.956,0 Z" /></g><g
           transform="translate(395.396,140.8096)"
           id="g186"><path
             id="path188"
             style="fill:#ff007f;fill-opacity:1;fill-rule:nonzero;stroke:none"
             d="m 0,0 h -1.092 v 7.238 h 0.956 V 3.005 L -0.272,1.161 h 0.068 C 1.106,3.196 2.5,5.203 3.824,7.238 H 4.917 V 0 H 3.961 V 4.233 L 4.098,6.077 H 4.029 Z" /></g><g
           transform="translate(403.314,144.7705)"
           id="g190"><path
             id="path192"
             style="fill:#ff007f;fill-opacity:1;fill-rule:nonzero;stroke:none"
             d="M 0,0 H 3.892 V 1.57 C 3.892,2.185 3.414,2.663 2.8,2.663 H 1.093 C 0.478,2.663 0,2.185 0,1.57 Z M 0,-0.751 V -2.117 C 0,-2.731 0.478,-3.21 1.093,-3.21 H 4.575 V -3.961 H 1.093 c -1.312,0 -2.049,0.751 -2.049,1.844 V 1.57 c 0,1.093 0.737,1.844 2.049,1.844 H 2.8 c 1.31,0 2.048,-0.751 2.048,-1.844 v -2.321 z" /></g><g
           transform="translate(413.5503,140.8096)"
           id="g194"><path
             id="path196"
             style="fill:#ff007f;fill-opacity:1;fill-rule:nonzero;stroke:none"
             d="m 0,0 v 0.751 h 3.415 c 0.614,0 1.092,0.478 1.092,1.093 V 3.278 H 1.503 v 0.751 h 3.004 v 1.366 c 0,0.614 -0.478,1.092 -1.092,1.092 H 0.273 L 0,6.761 v 0.477 h 3.415 c 1.311,0 2.048,-0.751 2.048,-1.843 V 1.844 C 5.463,0.751 4.726,0 3.415,0 Z" /></g><g
           transform="translate(424.7466,141.6289)"
           id="g198"><path
             id="path200"
             style="fill:#ff007f;fill-opacity:1;fill-rule:nonzero;stroke:none"
             d="m 0,0 -2.254,5.395 h -0.068 l -0.82,-6.214 h -0.887 v 0.478 l 0.956,6.76 h 1.365 L 0.614,0.956 H 0.683 L 3.004,6.419 H 4.37 l 0.955,-6.76 V -0.819 H 4.437 L 3.618,5.395 H 3.55 L 1.297,0 Z" /></g><g
           transform="translate(433.6177,144.1553)"
           id="g202"><path
             id="path204"
             style="fill:#ff007f;fill-opacity:1;fill-rule:nonzero;stroke:none"
             d="m 0,0 c -0.614,0 -1.093,-0.478 -1.093,-1.092 v -0.547 c 0,-0.614 0.479,-1.091 1.093,-1.091 h 1.434 c 0.546,0 0.901,0.313 1.161,0.641 0.136,0.192 0.246,0.409 0.341,0.655 V 0 Z m -1.366,3.893 h 3.21 c 1.31,0 2.048,-0.751 2.048,-1.844 V -3.346 H 3.277 L 3.141,-2.39 H 3.072 C 2.99,-2.595 2.868,-2.771 2.718,-2.936 2.458,-3.209 2.048,-3.482 1.434,-3.482 H 0 c -1.312,0 -2.049,0.752 -2.049,1.843 v 0.547 C -2.049,0 -1.312,0.752 0,0.752 h 2.936 v 1.297 c 0,0.614 -0.478,1.093 -1.092,1.093 h -3.21 z" /></g><g
           transform="translate(438.8032,141.4248)"
           id="g206"><path
             id="path208"
             style="fill:#ff007f;fill-opacity:1;fill-rule:nonzero;stroke:none"
             d="M 0,0 H 0.272 C 0.819,0 1.229,0.396 1.297,1.16 L 1.775,6.623 H 6.76 V -0.615 H 5.804 V 5.872 H 2.663 L 2.253,1.16 C 2.157,0 1.434,-0.752 0.272,-0.752 H 0 Z" /></g><g
           transform="translate(448.8374,140.8096)"
           id="g210"><path
             id="path212"
             style="fill:#ff007f;fill-opacity:1;fill-rule:nonzero;stroke:none"
             d="m 0,0 h -1.093 v 7.238 h 0.956 V 3.005 L -0.273,1.161 h 0.068 c 1.31,2.035 2.704,4.042 4.028,6.077 H 4.916 V 0 H 3.96 V 4.233 L 4.097,6.077 H 4.028 Z" /></g><g
           transform="translate(333.0161,132.0859)"
           id="g214"><path
             id="path216"
             style="fill:#ff007f;fill-opacity:1;fill-rule:nonzero;stroke:none"
             d="m 0,0 v -2.253 h 2.526 c 0.479,0 0.82,0.341 0.82,0.819 v 0.615 C 3.346,-0.342 3.005,0 2.526,0 Z m 3.005,2.254 c 0,0.477 -0.342,0.819 -0.819,0.819 H 0 V 0.956 h 2.186 c 0.477,0 0.819,0.342 0.819,0.819 z M 4.438,1.789 c 0,-0.56 -0.3,-0.86 -0.586,-1.038 C 3.688,0.655 3.496,0.587 3.277,0.546 V 0.479 C 3.551,0.437 3.797,0.355 4.029,0.26 4.397,0.082 4.78,-0.232 4.78,-0.819 v -0.615 c 0,-0.942 -0.819,-1.775 -2.117,-1.775 h -4.097 v 7.237 h 3.756 c 1.297,0 2.116,-0.833 2.116,-1.774 z" /></g><g
           transform="translate(348.9194,131.6084)"
           id="g218"><path
             id="path220"
             style="fill:#ff007f;fill-opacity:1;fill-rule:nonzero;stroke:none"
             d="m 0,0 -1.844,-2.731 h -1.365 v 0.614 l 2.39,3.005 -2.254,3.004 v 0.614 h 1.366 L 0,1.775 H 0.068 L 1.775,4.506 H 3.141 V 3.892 L 0.888,0.888 3.277,-2.117 V -2.731 H 1.912 L 0.068,0 Z" /></g><g
           transform="translate(361.7495,130.5156)"
           id="g222"><path
             id="path224"
             style="fill:#ff007f;fill-opacity:1;fill-rule:nonzero;stroke:none"
             d="m 0,0 c 0,-0.479 0.342,-0.819 0.819,-0.819 h 1.844 c 0.479,0 0.819,0.34 0.819,0.819 v 3.96 c 0,0.478 -0.34,0.819 -0.819,0.819 H 0.819 C 0.342,4.779 0,4.438 0,3.96 Z M 4.917,0 C 4.917,-0.942 4.098,-1.775 2.8,-1.775 H 0.684 c -1.298,0 -2.118,0.833 -2.118,1.775 v 3.96 c 0,0.942 0.82,1.775 2.118,1.775 H 2.8 c 1.298,0 2.117,-0.833 2.117,-1.775 z" /></g><g
           transform="translate(377.311,130.9932)"
           id="g226"><path
             id="path228"
             style="fill:#ff007f;fill-opacity:1;fill-rule:nonzero;stroke:none"
             d="m 0,0 c -0.041,-0.382 -0.246,-0.655 -0.465,-0.833 -0.123,-0.096 -0.273,-0.19 -0.423,-0.259 V -1.16 h 3.619 v 5.326 h -2.39 z m -2.322,-1.16 c 0.15,0.096 0.301,0.19 0.424,0.3 0.218,0.205 0.422,0.478 0.463,0.86 l 0.479,5.121 H 4.165 V -1.16 H 5.326 V -3.892 H 4.233 l -0.341,1.776 h -5.395 l -0.341,-1.776 h -1.093 v 2.732 z" /></g><g
           transform="translate(395.8765,134.4072)"
           id="g230"><path
             id="path232"
             style="fill:#ff007f;fill-opacity:1;fill-rule:nonzero;stroke:none"
             d="m 0,0 h -0.068 l -3.278,-5.53 h -1.638 v 7.237 h 1.433 v -3.618 l -0.137,-1.912 h 0.069 l 3.278,5.53 H 1.298 V -5.53 h -1.435 v 3.619 z" /></g><g
           transform="translate(405.2251,136.1143)"
           id="g234"><path
             id="path236"
             style="fill:#ff007f;fill-opacity:1;fill-rule:nonzero;stroke:none"
             d="M 0,0 H 6.351 V -0.478 L 5.94,-0.955 H 3.892 V -7.237 H 2.458 v 6.282 l -2.458,0 z" /></g><g
           transform="translate(335.7476,117.3525)"
           id="g238"><path
             id="path240"
             style="fill:#ff007f;fill-opacity:1;fill-rule:nonzero;stroke:none"
             d="M 0,0 C 0.765,0 1.298,0.533 1.298,1.298 V 1.775 C 1.298,2.54 0.765,3.073 0,3.073 H -3.482 V 0 Z M -3.482,6.419 V 3.482 h 3.209 c 0.765,0 1.297,0.534 1.297,1.298 v 0.341 c 0,0.766 -0.532,1.298 -1.297,1.298 z m 3.209,0.409 c 1.024,0 1.775,-0.751 1.775,-1.707 V 4.78 C 1.502,4.166 1.243,3.811 0.983,3.605 0.833,3.482 0.655,3.4 0.479,3.346 V 3.278 C 0.71,3.237 0.929,3.142 1.12,3.019 1.447,2.8 1.775,2.418 1.775,1.775 V 1.298 C 1.775,0.342 1.024,-0.409 0,-0.409 h -3.96 v 7.237 z" /></g><g
           transform="translate(345.0962,118.6504)"
           id="g242"><path
             id="path244"
             style="fill:#ff007f;fill-opacity:1;fill-rule:nonzero;stroke:none"
             d="M 0,0 C 0,-0.765 0.533,-1.298 1.298,-1.298 H 4.849 V -1.707 H 1.298 c -1.025,0 -1.776,0.751 -1.776,1.707 v 3.823 c 0,0.956 0.751,1.707 1.776,1.707 H 4.849 V 5.258 L 4.712,5.121 H 1.298 C 0.533,5.121 0,4.589 0,3.823 Z" /></g><g
           transform="translate(357.2476,124.1807)"
           id="g246"><path
             id="path248"
             style="fill:#ff007f;fill-opacity:1;fill-rule:nonzero;stroke:none"
             d="m 0,0 v -0.272 l -0.137,-0.137 h -2.594 v -6.828 h -0.478 v 6.828 H -5.94 l 0,0.409 z" /></g><g
           transform="translate(364.6187,122.6104)"
           id="g250"><path
             id="path252"
             style="fill:#ff007f;fill-opacity:1;fill-rule:nonzero;stroke:none"
             d="m 0,0 c 0,0.765 -0.533,1.298 -1.298,1.298 h -2.39 C -4.452,1.298 -4.985,0.765 -4.985,0 v -4.097 c 0,-0.764 0.533,-1.298 1.297,-1.298 h 2.39 c 0.765,0 1.298,0.534 1.298,1.298 z m -5.463,0 c 0,0.956 0.751,1.707 1.775,1.707 h 2.39 C -0.273,1.707 0.478,0.956 0.478,0 v -4.097 c 0,-0.956 -0.751,-1.707 -1.776,-1.707 h -2.39 c -1.024,0 -1.775,0.751 -1.775,1.707 z" /></g><g
           transform="translate(368.6431,116.9434)"
           id="g254"><path
             id="path256"
             style="fill:#ff007f;fill-opacity:1;fill-rule:nonzero;stroke:none"
             d="m 0,0 h -0.614 v 7.237 h 0.477 V 1.912 L -0.205,0.614 h 0.068 L 4.507,7.237 H 5.121 V 0 H 4.644 V 5.326 L 4.712,6.623 H 4.644 Z" /></g><g
           transform="translate(383.8667,124.1807)"
           id="g258"><path
             id="path260"
             style="fill:#ff007f;fill-opacity:1;fill-rule:nonzero;stroke:none"
             d="M 0,0 H 0.614 L 1.639,-6.965 V -7.237 H 1.229 L 0.272,-0.546 H 0.204 l -2.73,-5.735 h -0.616 l -2.731,5.735 h -0.068 l -0.955,-6.691 h -0.411 v 0.272 L -6.282,0 h 0.614 l 2.8,-5.804 H -2.8 Z" /></g><g
           transform="translate(393.5571,122.6104)"
           id="g262"><path
             id="path264"
             style="fill:#ff007f;fill-opacity:1;fill-rule:nonzero;stroke:none"
             d="m 0,0 c 0,0.765 -0.533,1.298 -1.298,1.298 h -2.39 C -4.452,1.298 -4.985,0.765 -4.985,0 v -4.097 c 0,-0.764 0.533,-1.298 1.297,-1.298 h 2.39 c 0.765,0 1.298,0.534 1.298,1.298 z m -5.463,0 c 0,0.956 0.751,1.707 1.775,1.707 h 2.39 C -0.273,1.707 0.478,0.956 0.478,0 v -4.097 c 0,-0.956 -0.751,-1.707 -1.776,-1.707 h -2.39 c -1.024,0 -1.775,0.751 -1.775,1.707 z" /></g><g
           transform="translate(397.2397,118.6504)"
           id="g266"><path
             id="path268"
             style="fill:#ff007f;fill-opacity:1;fill-rule:nonzero;stroke:none"
             d="M 0,0 C 0,-0.765 0.533,-1.298 1.298,-1.298 H 4.849 V -1.707 H 1.298 c -1.025,0 -1.776,0.751 -1.776,1.707 v 3.823 c 0,0.956 0.751,1.707 1.776,1.707 H 4.849 V 5.258 L 4.712,5.121 H 1.298 C 0.533,5.121 0,4.589 0,3.823 Z" /></g><g
           transform="translate(409.3911,124.1807)"
           id="g270"><path
             id="path272"
             style="fill:#ff007f;fill-opacity:1;fill-rule:nonzero;stroke:none"
             d="m 0,0 v -0.272 l -0.137,-0.137 h -2.594 v -6.828 h -0.478 v 6.828 H -5.94 l 0,0.409 z" /></g><g
           transform="translate(416.6255,119.7432)"
           id="g274"><path
             id="path276"
             style="fill:#ff007f;fill-opacity:1;fill-rule:nonzero;stroke:none"
             d="m 0,0 c 0,0.765 -0.533,1.297 -1.298,1.297 h -3.346 v -3.688 h 3.346 c 0.765,0 1.298,0.534 1.298,1.298 z m 0.478,-1.093 c 0,-0.956 -0.751,-1.707 -1.776,-1.707 h -3.823 v 7.237 h 0.477 v -2.73 h 3.346 C -0.273,1.707 0.478,0.955 0.478,0 Z" /></g><g
           transform="translate(424.4712,118.6504)"
           id="g278"><path
             id="path280"
             style="fill:#ff007f;fill-opacity:1;fill-rule:nonzero;stroke:none"
             d="M 0,0 C 0,-0.765 0.533,-1.298 1.298,-1.298 H 4.849 V -1.707 H 1.298 c -1.025,0 -1.776,0.751 -1.776,1.707 v 3.823 c 0,0.956 0.751,1.707 1.776,1.707 H 4.849 V 5.258 L 4.712,5.121 H 1.298 C 0.533,5.121 0,4.589 0,3.823 Z" /></g><g
           transform="translate(436.7593,122.6104)"
           id="g282"><path
             id="path284"
             style="fill:#ff007f;fill-opacity:1;fill-rule:nonzero;stroke:none"
             d="M 0,0 C 0,0.765 -0.533,1.298 -1.298,1.298 H -3.482 C -4.247,1.298 -4.78,0.765 -4.78,0 V -1.912 H 0 Z M -4.78,-2.321 V -3.96 c 0,-0.765 0.533,-1.298 1.298,-1.298 h 3.687 v -0.409 h -3.687 c -1.025,0 -1.776,0.751 -1.776,1.707 V 0 c 0,0.956 0.751,1.707 1.776,1.707 h 2.184 C -0.273,1.707 0.478,0.956 0.478,0 v -2.321 z" /></g><g
           transform="translate(445.0864,124.1807)"
           id="g286"><path
             id="path288"
             style="fill:#ff007f;fill-opacity:1;fill-rule:nonzero;stroke:none"
             d="m 0,0 v -0.272 l -0.137,-0.137 h -2.594 v -6.828 h -0.478 v 6.828 H -5.94 l 0,0.409 z" /></g><g
           transform="translate(448.7017,120.3574)"
           id="g290"><path
             id="path292"
             style="fill:#ff007f;fill-opacity:1;fill-rule:nonzero;stroke:none"
             d="m 0,0 c -0.765,0 -1.298,-0.533 -1.298,-1.298 v -0.546 c 0,-0.764 0.533,-1.298 1.298,-1.298 h 1.912 c 0.546,0 0.929,0.383 1.188,0.78 0.15,0.231 0.287,0.505 0.382,0.792 l 0,1.57 z m 2.185,3.823 c 1.024,0 1.775,-0.751 1.775,-1.707 v -5.53 H 3.619 L 3.551,-2.321 H 3.482 C 3.387,-2.554 3.277,-2.759 3.127,-2.937 2.868,-3.25 2.499,-3.551 1.912,-3.551 H 0 c -1.024,0 -1.775,0.751 -1.775,1.707 v 0.546 c 0,0.956 0.751,1.707 1.775,1.707 h 3.482 v 1.707 c 0,0.766 -0.532,1.298 -1.297,1.298 h -3.414 v 0.409 z" /></g><g
           transform="translate(0.7329,37.2334)"
           id="g294"><path
             id="path296"
             style="fill:#ff007f;fill-opacity:1;fill-rule:nonzero;stroke:none"
             d="M 0,0 6.352,-12.459 H 6.474 L 11.726,0 h 0.733 V -0.489 L 6.596,-14.169 C 5.741,-16.124 4.52,-17.345 2.565,-17.345 H 1.344 v 0.733 h 1.221 c 1.588,0 2.589,0.977 3.176,2.443 l 0.244,0.61 -6.718,13.07 V 0 Z" /></g><g
           transform="translate(26.3853,33.0801)"
           id="g298"><path
             id="path300"
             style="fill:#ff007f;fill-opacity:1;fill-rule:nonzero;stroke:none"
             d="m 0,0 h 0.733 v -0.488 l -3.787,-5.864 4.276,-6.107 v -0.488 H 0.489 l -4.275,6.229 h -4.398 v -6.229 H -9.039 V 0 h 0.855 v -5.985 h 4.398 z" /></g><g
           transform="translate(32.7388,20.8652)"
           id="g302"><path
             id="path304"
             style="fill:#ff007f;fill-opacity:1;fill-rule:nonzero;stroke:none"
             d="M 0,0 H 6.229 C 7.598,0 8.55,0.953 8.55,2.321 v 7.084 c 0,1.368 -0.952,2.322 -2.321,2.322 H 2.81 C 1.832,11.727 1.124,11.018 0.66,10.31 0.391,9.895 0.171,9.43 0,8.917 Z m -0.244,12.215 0.122,-1.954 H 0 c 0.171,0.415 0.366,0.781 0.635,1.098 0.464,0.563 1.124,1.1 2.175,1.1 h 3.419 c 1.833,0 3.176,-1.344 3.176,-3.054 V 2.321 c 0,-1.71 -1.343,-3.053 -3.176,-3.053 H 0 v -4.154 h -0.855 v 17.101 z" /></g><g
           transform="translate(56.4365,30.2705)"
           id="g306"><path
             id="path308"
             style="fill:#ff007f;fill-opacity:1;fill-rule:nonzero;stroke:none"
             d="M 0,0 C 0,1.368 -0.953,2.321 -2.321,2.321 H -6.229 C -7.597,2.321 -8.55,1.368 -8.55,0 V -3.42 H 0 Z m -8.55,-4.152 v -2.932 c 0,-1.368 0.953,-2.321 2.321,-2.321 h 6.596 v -0.733 h -6.596 c -1.833,0 -3.176,1.344 -3.176,3.054 V 0 c 0,1.71 1.343,3.054 3.176,3.054 h 3.908 C -0.488,3.054 0.855,1.71 0.855,0 v -4.152 z" /></g><g
           transform="translate(62.5459,20.1328)"
           id="g310"><path
             id="path312"
             style="fill:#ff007f;fill-opacity:1;fill-rule:nonzero;stroke:none"
             d="M 0,0 V 12.947 H 10.26 V 0 H 9.405 V 12.215 H 0.855 L 0.855,0 Z" /></g><g
           transform="translate(76.4717,20.6211)"
           id="g314"><path
             id="path316"
             style="fill:#ff007f;fill-opacity:1;fill-rule:nonzero;stroke:none"
             d="m 0,0 h 0.245 c 1.245,0 2.149,0.953 2.32,2.688 l 0.855,9.771 h 8.551 V -0.488 H 11.116 V 11.727 H 4.153 L 3.42,2.688 C 3.249,0.61 1.979,-0.732 0.245,-0.732 H 0 Z" /></g><g
           transform="translate(103.1016,30.2705)"
           id="g318"><path
             id="path320"
             style="fill:#ff007f;fill-opacity:1;fill-rule:nonzero;stroke:none"
             d="M 0,0 C 0,1.368 -0.953,2.321 -2.321,2.321 H -6.229 C -7.597,2.321 -8.55,1.368 -8.55,0 V -3.42 H 0 Z m -8.55,-4.152 v -2.932 c 0,-1.368 0.953,-2.321 2.321,-2.321 h 6.596 v -0.733 h -6.596 c -1.833,0 -3.176,1.344 -3.176,3.054 V 0 c 0,1.71 1.343,3.054 3.176,3.054 h 3.908 C -0.488,3.054 0.855,1.71 0.855,0 v -4.152 z" /></g><g
           transform="translate(109.2109,20.1328)"
           id="g322"><path
             id="path324"
             style="fill:#ff007f;fill-opacity:1;fill-rule:nonzero;stroke:none"
             d="M 0,0 V 12.947 H 0.855 V 6.84 h 8.55 v 6.107 H 10.26 V 0 H 9.405 V 6.107 H 0.855 L 0.855,0 Z" /></g><g
           transform="translate(126.1909,20.1328)"
           id="g326"><path
             id="path328"
             style="fill:#ff007f;fill-opacity:1;fill-rule:nonzero;stroke:none"
             d="m 0,0 h -1.099 v 12.947 h 0.855 V 3.42 L -0.366,1.099 h 0.122 L 8.062,12.947 H 9.161 V 0 H 8.306 v 9.527 l 0.122,2.321 H 8.306 Z" /></g><g
           transform="translate(150.0107,30.2705)"
           id="g330"><path
             id="path332"
             style="fill:#ff007f;fill-opacity:1;fill-rule:nonzero;stroke:none"
             d="M 0,0 C 0,1.368 -0.953,2.321 -2.321,2.321 H -6.229 C -7.597,2.321 -8.55,1.368 -8.55,0 V -3.42 H 0 Z m -8.55,-4.152 v -2.932 c 0,-1.368 0.953,-2.321 2.321,-2.321 h 6.596 v -0.733 h -6.596 c -1.833,0 -3.176,1.344 -3.176,3.054 V 0 c 0,1.71 1.343,3.054 3.176,3.054 h 3.908 C -0.488,3.054 0.855,1.71 0.855,0 v -4.152 z" /></g><g
           transform="translate(8.7944,6.3516)"
           id="g334"><path
             id="path336"
             style="fill:#ff007f;fill-opacity:1;fill-rule:nonzero;stroke:none"
             d="M 0,0 H -5.985 V 0.732 H 0 V 3.786 C 0,5.154 -0.953,6.107 -2.321,6.107 H -8.428 L -8.672,6.352 V 6.84 h 6.351 c 1.833,0 3.176,-1.344 3.176,-3.054 v -6.84 c 0,-1.71 -1.343,-3.053 -3.176,-3.053 h -6.351 v 0.732 h 6.351 c 1.368,0 2.321,0.953 2.321,2.321 z" /></g><g
           transform="translate(27.3623,13.1914)"
           id="g338"><path
             id="path340"
             style="fill:#ff007f;fill-opacity:1;fill-rule:nonzero;stroke:none"
             d="m 0,0 h 1.099 l 1.832,-12.459 v -0.488 H 2.199 L 0.488,-0.978 H 0.366 L -4.52,-11.237 h -1.099 l -4.886,10.259 h -0.122 l -1.71,-11.969 h -0.733 v 0.488 L -11.238,0 h 1.1 l 5.008,-10.383 h 0.122 z" /></g><g
           transform="translate(37.9912,6.3516)"
           id="g342"><path
             id="path344"
             style="fill:#ff007f;fill-opacity:1;fill-rule:nonzero;stroke:none"
             d="m 0,0 c -1.368,0 -2.321,-0.953 -2.321,-2.321 v -0.977 c 0,-1.368 0.953,-2.321 2.321,-2.321 h 3.42 c 0.977,0 1.662,0.684 2.125,1.392 0.269,0.415 0.514,0.905 0.684,1.417 V 0 Z m 3.909,6.84 c 1.832,0 3.175,-1.344 3.175,-3.054 V -6.107 H 6.474 L 6.352,-4.153 H 6.229 C 6.059,-4.568 5.863,-4.935 5.594,-5.253 5.13,-5.814 4.471,-6.352 3.42,-6.352 H 0 c -1.832,0 -3.176,1.343 -3.176,3.054 v 0.977 c 0,1.71 1.344,3.053 3.176,3.053 h 6.229 v 3.054 c 0,1.368 -0.952,2.321 -2.32,2.321 H -2.199 V 6.84 Z" /></g><g
           transform="translate(48.7417,0.7324)"
           id="g346"><path
             id="path348"
             style="fill:#ff007f;fill-opacity:1;fill-rule:nonzero;stroke:none"
             d="m 0,0 h 0.245 c 1.245,0 2.149,0.953 2.32,2.688 l 0.855,9.771 h 8.551 V -0.488 H 11.116 V 11.727 H 4.153 L 3.42,2.688 C 3.249,0.61 1.979,-0.732 0.245,-0.732 H 0 Z" /></g><g
           transform="translate(67.4316,0.2441)"
           id="g350"><path
             id="path352"
             style="fill:#ff007f;fill-opacity:1;fill-rule:nonzero;stroke:none"
             d="m 0,0 h -1.099 v 12.947 h 0.855 V 3.42 L -0.366,1.099 h 0.122 L 8.062,12.947 H 9.161 V 0 H 8.306 v 9.527 l 0.122,2.321 H 8.306 Z" /></g><g
           transform="translate(306.6089,157.4902)"
           id="g354"><path
             id="path356"
             style="fill:none;stroke:#ff007f;stroke-width:1.56799996;stroke-linecap:butt;stroke-linejoin:miter;stroke-miterlimit:10;stroke-dasharray:none;stroke-opacity:1"
             d="m 0,0 16.506,-16.505 v -18.21 L -0.183,-51.404" /></g><g
           transform="translate(116.439,206.8145)"
           id="g358"><path
             id="path360"
             style="fill:none;stroke:#ff007f;stroke-width:1.56799996;stroke-linecap:butt;stroke-linejoin:miter;stroke-miterlimit:10;stroke-dasharray:none;stroke-opacity:1"
             d="M 0,0 H 64.328" /></g><g
           transform="translate(132.3501,157.4902)"
           id="g362"><path
             id="path364"
             style="fill:none;stroke:#ff007f;stroke-width:1.56799996;stroke-linecap:butt;stroke-linejoin:miter;stroke-miterlimit:10;stroke-dasharray:none;stroke-opacity:1"
             d="M 0,0 H 48.417" /></g><g
           transform="translate(132.3501,108.21)"
           id="g366"><path
             id="path368"
             style="fill:none;stroke:#ff007f;stroke-width:1.56799996;stroke-linecap:butt;stroke-linejoin:miter;stroke-miterlimit:10;stroke-dasharray:none;stroke-opacity:1"
             d="M 0,0 H 48.417" /></g><g
           transform="translate(164.1724,28.9297)"
           id="g370"><path
             id="path372"
             style="fill:none;stroke:#ff007f;stroke-width:1.56799996;stroke-linecap:butt;stroke-linejoin:miter;stroke-miterlimit:10;stroke-dasharray:none;stroke-opacity:1"
             d="M 0,0 H 16.594" /></g></g></g></g></svg>