<?xml version="1.0" encoding="UTF-8" standalone="no"?>
<svg
   xmlns:dc="http://purl.org/dc/elements/1.1/"
   xmlns:cc="http://creativecommons.org/ns#"
   xmlns:rdf="http://www.w3.org/1999/02/22-rdf-syntax-ns#"
   xmlns:svg="http://www.w3.org/2000/svg"
   xmlns="http://www.w3.org/2000/svg"
   viewBox="0 0 337.50534 428.07733"
   height="428.07733"
   width="337.50534"
   xml:space="preserve"
   id="svg2"
   version="1.1"><metadata
     id="metadata8"><rdf:RDF><cc:Work
         rdf:about=""><dc:format>image/svg+xml</dc:format><dc:type
           rdf:resource="http://purl.org/dc/dcmitype/StillImage" /></cc:Work></rdf:RDF></metadata><defs
     id="defs6"><clipPath
       id="clipPath18"
       clipPathUnits="userSpaceOnUse"><path
         id="path16"
         d="M 0,321.058 H 253.129 V 0 H 0 Z" /></clipPath></defs><g
     transform="matrix(1.3333333,0,0,-1.3333333,0,428.07733)"
     id="g10"><g
       id="g12"><g
         clip-path="url(#clipPath18)"
         id="g14"><g
           transform="translate(253.1289,162.7661)"
           id="g20"><path
             id="path22"
             style="fill:#000000;fill-opacity:1;fill-rule:nonzero;stroke:none"
             d="m 0,0 c 0,-69.899 -56.665,-126.564 -126.564,-126.564 -69.9,0 -126.565,56.665 -126.565,126.564 0,69.9 56.665,126.564 126.565,126.564 C -56.665,126.564 0,69.9 0,0" /></g><g
           transform="translate(126.5644,63.603)"
           id="g24"><path
             id="path26"
             style="fill:#ffffff;fill-opacity:1;fill-rule:nonzero;stroke:none"
             d="m 0,0 c -54.766,0 -99.163,44.397 -99.163,99.163 0,54.767 44.397,99.164 99.163,99.164 54.766,0 99.163,-44.397 99.163,-99.164 C 99.163,44.397 54.766,0 0,0 m 0,217.75 c -65.493,0 -118.586,-53.094 -118.586,-118.587 0,-65.493 53.093,-118.586 118.586,-118.586 65.493,0 118.586,53.093 118.586,118.586 C 118.586,164.656 65.493,217.75 0,217.75" /></g><g
           transform="translate(177.4463,208.3389)"
           id="g28"><path
             id="path30"
             style="fill:#000000;fill-opacity:1;fill-rule:nonzero;stroke:none"
             d="M 0,0 -3.223,3.169 -0.679,5.607 3.107,3.011 Z" /></g><g
           transform="translate(61.7148,159.0469)"
           id="g32"><path
             id="path34"
             style="fill:#ffffff;fill-opacity:1;fill-rule:nonzero;stroke:none"
             d="m 0,0 -9.56,-0.002 -0.002,29.583 -5.672,-0.002 -10e-4,8.403 H 5.621 V 29.58 l -5.622,0.002 z" /></g><g
           transform="translate(80.1059,159.0449)"
           id="g36"><path
             id="path38"
             style="fill:#ffffff;fill-opacity:1;fill-rule:nonzero;stroke:none"
             d="M 0,0 -7.562,7.359 -7.563,30.728 0,37.985 8.197,37.986 15.763,30.729 15.765,7.358 8.2,0.002 Z M 1.999,29.689 2,8.402 6.2,8.403 6.199,29.687 Z" /></g><g
           transform="translate(111.6884,159.0469)"
           id="g40"><path
             id="path42"
             style="fill:#ffffff;fill-opacity:1;fill-rule:nonzero;stroke:none"
             d="m 0,0 h -9.565 l -0.003,37.984 15.448,0.002 6.673,-5.41 V 17.71 l -6.62,-5.467 -5.934,10e-4 z m -0.001,20.436 2.998,0.001 -10e-4,9.145 h -2.997 z" /></g><g
           transform="translate(132.5771,165.7227)"
           id="g44"><path
             id="path46"
             style="fill:#ffffff;fill-opacity:1;fill-rule:nonzero;stroke:none"
             d="m 0,0 -0.001,24.644 6.618,6.666 7.412,0.002 6.673,-6.666 10e-4,-7.153 H 13.349 L 13.348,24.646 7.354,24.645 V -0.001 L 13.35,0 13.349,6.355 h -2.948 v 6.467 H 20.703 L 20.705,0 14.033,-6.672 6.621,-6.675 Z" /></g><g
           transform="translate(166.3642,159.0522)"
           id="g48"><path
             id="path50"
             style="fill:#ffffff;fill-opacity:1;fill-rule:nonzero;stroke:none"
             d="m 0,0 -6.676,6.671 -0.002,31.31 7.36,0.002 L 0.683,6.673 6.464,6.672 6.461,37.984 H 13.82 L 13.821,6.672 7.146,0 Z" /></g><g
           transform="translate(201.2509,166.7256)"
           id="g52"><path
             id="path54"
             style="fill:#ffffff;fill-opacity:1;fill-rule:nonzero;stroke:none"
             d="m 0,0 -7.668,15.814 h -0.058 l 0.002,-23.488 h -6.934 l -0.002,37.985 6.566,0.001 8.093,-15.653 -0.001,15.653 H 6.936 L 6.939,-7.671 0.001,-7.674 Z" /></g><g
           transform="translate(72.2885,142.127)"
           id="g56"><path
             id="path58"
             style="fill:#ffffff;fill-opacity:1;fill-rule:nonzero;stroke:none"
             d="m 0,0 h -7.607 v -15.51 h -4.877 V 0 h -7.608 V 4.465 H 0 Z" /></g><g
           transform="translate(124.165,142.127)"
           id="g60"><path
             id="path62"
             style="fill:#ffffff;fill-opacity:1;fill-rule:nonzero;stroke:none"
             d="m 0,0 h -7.607 v -15.51 h -4.877 V 0 h -7.608 V 4.465 H 0 Z" /></g><g
           transform="translate(91.5166,133.667)"
           id="g64"><path
             id="path66"
             style="fill:#ffffff;fill-opacity:1;fill-rule:nonzero;stroke:none"
             d="M 0,0 -3.114,7.461 -6.286,0 Z M 1.675,-3.936 H -7.96 l -1.323,-3.113 h -5.111 l 8.548,19.974 H -0.47 L 8.107,-7.049 h -5.14 z" /></g><g
           transform="translate(163.9966,136.8809)"
           id="g68"><path
             id="path70"
             style="fill:#ffffff;fill-opacity:1;fill-rule:nonzero;stroke:none"
             d="m 0,0 c 0,-3.261 2.644,-5.875 5.904,-5.875 3.202,0 5.846,2.614 5.846,5.875 0,3.231 -2.644,5.846 -5.846,5.846 C 2.644,5.846 0,3.231 0,0 m 16.215,0 c 0,-5.699 -4.641,-10.34 -10.311,-10.34 -5.728,0 -10.31,4.641 -10.31,10.34 0,5.67 4.582,10.34 10.31,10.34 5.67,0 10.311,-4.67 10.311,-10.34" /></g><g
           transform="translate(191.9751,136.8809)"
           id="g72"><path
             id="path74"
             style="fill:#ffffff;fill-opacity:1;fill-rule:nonzero;stroke:none"
             d="m 0,0 c 0,-3.261 2.643,-5.875 5.904,-5.875 3.202,0 5.846,2.614 5.846,5.875 0,3.231 -2.644,5.846 -5.846,5.846 C 2.643,5.846 0,3.231 0,0 m 16.215,0 c 0,-5.699 -4.642,-10.34 -10.311,-10.34 -5.728,0 -10.311,4.641 -10.311,10.34 0,5.67 4.583,10.34 10.311,10.34 5.669,0 10.311,-4.67 10.311,-10.34" /></g><g
           transform="translate(153.0019,142.127)"
           id="g76"><path
             id="path78"
             style="fill:#ffffff;fill-opacity:1;fill-rule:nonzero;stroke:none"
             d="m 0,0 h -7.607 v -15.51 h -4.877 V 0 h -7.607 V 4.465 H 0 Z" /></g></g></g><text
       id="text82"
       style="font-variant:normal;font-weight:normal;font-stretch:normal;font-size:9.935462px;font-family:Airborne;-inkscape-font-specification:Airborne;writing-mode:lr-tb;fill:#000000;fill-opacity:1;fill-rule:nonzero;stroke:none"
       transform="matrix(0.65641641,-0.75439877,-0.75439877,-0.65641641,39.3289,89.2464)"><tspan
         id="tspan80"
         y="0"
         x="0">Б</tspan></text>
<text
       id="text86"
       style="font-variant:normal;font-weight:normal;font-stretch:normal;font-size:9.93544102px;font-family:Airborne;-inkscape-font-specification:Airborne;writing-mode:lr-tb;fill:#000000;fill-opacity:1;fill-rule:nonzero;stroke:none"
       transform="matrix(0.79065439,-0.61226271,-0.61226271,-0.79065439,54.9554,73.6292)"><tspan
         id="tspan84"
         y="0"
         x="0">У</tspan></text>
<text
       id="text90"
       style="font-variant:normal;font-weight:normal;font-stretch:normal;font-size:9.93541336px;font-family:Airborne;-inkscape-font-specification:Airborne;writing-mode:lr-tb;fill:#000000;fill-opacity:1;fill-rule:nonzero;stroke:none"
       transform="matrix(0.8965807,-0.44288041,-0.44288041,-0.8965807,73.3424,61.3503)"><tspan
         id="tspan88"
         y="0"
         x="0">Д</tspan></text>
<text
       id="text94"
       style="font-variant:normal;font-weight:normal;font-stretch:normal;font-size:9.93544674px;font-family:Airborne;-inkscape-font-specification:Airborne;writing-mode:lr-tb;fill:#000000;fill-opacity:1;fill-rule:nonzero;stroke:none"
       transform="matrix(0.96592536,-0.25882077,-0.25882077,-0.96592536,94.3776,52.7517)"><tspan
         id="tspan92"
         y="0"
         x="0">Е</tspan></text>
<text
       id="text98"
       style="font-variant:normal;font-weight:normal;font-stretch:normal;font-size:9.93545341px;font-family:Airborne;-inkscape-font-specification:Airborne;writing-mode:lr-tb;fill:#000000;fill-opacity:1;fill-rule:nonzero;stroke:none"
       transform="matrix(0.99813261,-0.06108428,-0.06108428,-0.99813261,115.6798,48.5747)"><tspan
         id="tspan96"
         y="0"
         x="0">М</tspan></text>
<text
       id="text102"
       style="font-variant:normal;font-weight:normal;font-stretch:normal;font-size:9.93548775px;font-family:Airborne;-inkscape-font-specification:Airborne;writing-mode:lr-tb;fill:#000000;fill-opacity:1;fill-rule:nonzero;stroke:none"
       transform="matrix(0.95257525,0.30430312,0.30430312,-0.95257525,157.9636,52.4945)"><tspan
         id="tspan100"
         y="0"
         x="0">Б</tspan></text>
<text
       id="text106"
       style="font-variant:normal;font-weight:normal;font-stretch:normal;font-size:9.93542194px;font-family:Airborne;-inkscape-font-specification:Airborne;writing-mode:lr-tb;fill:#000000;fill-opacity:1;fill-rule:nonzero;stroke:none"
       transform="matrix(0.87450742,0.48501213,0.48501213,-0.87450742,178.4833,60.6859)"><tspan
         id="tspan104"
         y="0"
         x="0">И</tspan></text>
<text
       id="text110"
       style="font-variant:normal;font-weight:normal;font-stretch:normal;font-size:9.93548107px;font-family:Airborne;-inkscape-font-specification:Airborne;writing-mode:lr-tb;fill:#000000;fill-opacity:1;fill-rule:nonzero;stroke:none"
       transform="matrix(0.76595186,0.64289793,0.64289793,-0.76595186,196.9642,72.6905)"><tspan
         id="tspan108"
         y="0"
         x="0">Т</tspan></text>
<text
       id="text114"
       style="font-variant:normal;font-weight:normal;font-stretch:normal;font-size:9.93544388px;font-family:Airborne;-inkscape-font-specification:Airborne;writing-mode:lr-tb;fill:#000000;fill-opacity:1;fill-rule:nonzero;stroke:none"
       transform="matrix(0.62802429,0.77819373,0.77819373,-0.62802429,212.576,87.7514)"><tspan
         id="tspan112"
         y="0"
         x="0">Ь</tspan></text>
<text
       id="text118"
       style="font-variant:normal;font-weight:normal;font-stretch:normal;font-size:9.93543625px;font-family:Airborne;-inkscape-font-specification:Airborne;writing-mode:lr-tb;fill:#000000;fill-opacity:1;fill-rule:nonzero;stroke:none"
       transform="matrix(0.62545821,0.78025766,0.78025766,-0.62545821,42.4322,224.8924)"><tspan
         id="tspan116"
         y="0"
         x="0">Т</tspan></text>
<text
       id="text122"
       style="font-variant:normal;font-weight:normal;font-stretch:normal;font-size:9.9354887px;font-family:Airborne;-inkscape-font-specification:Airborne;writing-mode:lr-tb;fill:#000000;fill-opacity:1;fill-rule:nonzero;stroke:none"
       transform="matrix(0.76521649,0.64377304,0.64377304,-0.76521649,56.2923,239.9519)"><tspan
         id="tspan120"
         y="0"
         x="0">А</tspan></text>
<text
       id="text126"
       style="font-variant:normal;font-weight:normal;font-stretch:normal;font-size:9.93544388px;font-family:Airborne;-inkscape-font-specification:Airborne;writing-mode:lr-tb;fill:#000000;fill-opacity:1;fill-rule:nonzero;stroke:none"
       transform="matrix(0.87645805,0.48147823,0.48147823,-0.87645805,73.1238,252.2191)"><tspan
         id="tspan124"
         y="0"
         x="0">Т</tspan></text>
<text
       id="text130"
       style="font-variant:normal;font-weight:normal;font-stretch:normal;font-size:9.93548298px;font-family:Airborne;-inkscape-font-specification:Airborne;writing-mode:lr-tb;fill:#000000;fill-opacity:1;fill-rule:nonzero;stroke:none"
       transform="matrix(0.9535218,0.30132404,0.30132404,-0.9535218,91.6951,260.8123)"><tspan
         id="tspan128"
         y="0"
         x="0">У</tspan></text>
<text
       id="text134"
       style="font-variant:normal;font-weight:normal;font-stretch:normal;font-size:9.93550968px;font-family:Airborne;-inkscape-font-specification:Airborne;writing-mode:lr-tb;fill:#000000;fill-opacity:1;fill-rule:nonzero;stroke:none"
       transform="matrix(0.99402044,0.10919419,0.10919419,-0.99402044,111.9612,265.716)"><tspan
         id="tspan132"
         y="0"
         x="0">И</tspan></text>
<text
       id="text138"
       style="font-variant:normal;font-weight:normal;font-stretch:normal;font-size:9.93548298px;font-family:Airborne;-inkscape-font-specification:Airborne;writing-mode:lr-tb;fill:#000000;fill-opacity:1;fill-rule:nonzero;stroke:none"
       transform="matrix(0.99618707,-0.08724286,-0.08724286,-0.99618707,132.7688,266.5672)"><tspan
         id="tspan136"
         y="0"
         x="0">Р</tspan></text>
<text
       id="text142"
       style="font-variant:normal;font-weight:normal;font-stretch:normal;font-size:9.93540955px;font-family:Airborne;-inkscape-font-specification:Airborne;writing-mode:lr-tb;fill:#000000;fill-opacity:1;fill-rule:nonzero;stroke:none"
       transform="matrix(0.95946721,-0.28182028,-0.28182028,-0.95946721,153.3477,263.3215)"><tspan
         id="tspan140"
         y="0"
         x="0">О</tspan></text>
<text
       id="text146"
       style="font-variant:normal;font-weight:normal;font-stretch:normal;font-size:9.93551254px;font-family:Airborne;-inkscape-font-specification:Airborne;writing-mode:lr-tb;fill:#000000;fill-opacity:1;fill-rule:nonzero;stroke:none"
       transform="matrix(0.88485621,-0.46586424,-0.46586424,-0.88485621,172.8758,256.0791)"><tspan
         id="tspan144"
         y="0"
         x="0">В</tspan></text>
<text
       id="text150"
       style="font-variant:normal;font-weight:normal;font-stretch:normal;font-size:9.93546963px;font-family:Airborne;-inkscape-font-specification:Airborne;writing-mode:lr-tb;fill:#000000;fill-opacity:1;fill-rule:nonzero;stroke:none"
       transform="matrix(0.77727581,-0.62916001,-0.62916001,-0.77727581,190.6042,245.1275)"><tspan
         id="tspan148"
         y="0"
         x="0">К</tspan></text>
<text
       id="text154"
       style="font-variant:normal;font-weight:normal;font-stretch:normal;font-size:9.93550777px;font-family:Airborne;-inkscape-font-specification:Airborne;writing-mode:lr-tb;fill:#000000;fill-opacity:1;fill-rule:nonzero;stroke:none"
       transform="matrix(0.63897086,-0.76923094,-0.76923094,-0.63897086,205.8508,230.9557)"><tspan
         id="tspan152"
         y="0"
         x="0">И</tspan></text>
</g></svg>