<?xml version="1.0" encoding="UTF-8" standalone="no"?>
<svg
   xmlns:dc="http://purl.org/dc/elements/1.1/"
   xmlns:cc="http://creativecommons.org/ns#"
   xmlns:rdf="http://www.w3.org/1999/02/22-rdf-syntax-ns#"
   xmlns:svg="http://www.w3.org/2000/svg"
   xmlns="http://www.w3.org/2000/svg"
   viewBox="0 0 224.70399 158.35867"
   height="158.35867"
   width="224.70399"
   xml:space="preserve"
   id="svg2"
   version="1.1"><metadata
     id="metadata8"><rdf:RDF><cc:Work
         rdf:about=""><dc:format>image/svg+xml</dc:format><dc:type
           rdf:resource="http://purl.org/dc/dcmitype/StillImage" /></cc:Work></rdf:RDF></metadata><defs
     id="defs6"><clipPath
       id="clipPath18"
       clipPathUnits="userSpaceOnUse"><path
         id="path16"
         d="M 0,118.769 H 168.528 V 0 H 0 Z" /></clipPath></defs><g
     transform="matrix(1.3333333,0,0,-1.3333333,0,158.35867)"
     id="g10"><g
       id="g12"><g
         clip-path="url(#clipPath18)"
         id="g14"><g
           transform="translate(141.906,9.8679)"
           id="g20"><path
             id="path22"
             style="fill:#ffffff;fill-opacity:1;fill-rule:nonzero;stroke:none"
             d="m 0,0 h -1.654 c -1.083,0 -1.998,-0.179 -2.743,-0.536 -0.745,-0.36 -1.282,-0.972 -1.611,-1.843 -0.329,0.716 -0.832,1.237 -1.51,1.567 -0.676,0.329 -1.537,0.493 -2.582,0.493 h -0.726 c -1.568,0 -2.737,-0.372 -3.512,-1.118 -0.773,-0.745 -1.161,-1.949 -1.161,-3.612 V -9.868 H 4.818 v 5.022 c 0,1.606 -0.412,2.815 -1.234,3.627 C 2.762,-0.405 1.567,0 0,0 m -7.227,-6.675 h -5.369 v 1.538 c 0,0.561 0.164,0.973 0.493,1.234 0.33,0.261 0.861,0.392 1.596,0.392 h 1.132 c 0.813,0 1.374,-0.17 1.685,-0.509 0.309,-0.338 0.463,-0.807 0.463,-1.407 z m 9.143,0 h -6.24 v 1.422 c 0,0.735 0.174,1.263 0.521,1.582 0.349,0.318 0.997,0.479 1.946,0.479 h 1.77 c 0.754,0 1.276,-0.141 1.567,-0.421 0.291,-0.281 0.436,-0.692 0.436,-1.233 z" /></g><g
           transform="translate(126.407,17.0954)"
           id="g24"><path
             id="path26"
             style="fill:#ffffff;fill-opacity:1;fill-rule:nonzero;stroke:none"
             d="m 0,0 20.316,-3.251 v 2.932 L 16.632,0.232 V 4.15 l 3.684,0.551 V 7.923 L 0,4.674 Z M 3.6,2.178 13.874,3.715 V 0.639 Z" /></g><g
           transform="translate(144.2566,38.9792)"
           id="g28"><path
             id="path30"
             style="fill:#ffffff;fill-opacity:1;fill-rule:nonzero;stroke:none"
             d="m 0,0 h -3.135 c -1.063,0 -1.968,-0.15 -2.713,-0.45 -0.745,-0.301 -1.282,-0.856 -1.611,-1.669 -0.658,1.393 -2.031,2.09 -4.121,2.09 h -1.597 c -1.567,0 -2.736,-0.372 -3.51,-1.117 -0.775,-0.746 -1.163,-1.951 -1.163,-3.614 V -9.577 H 2.468 v 3.191 h -8.273 v 1.104 c 0,0.735 0.195,1.266 0.58,1.596 0.389,0.33 1.055,0.494 2.003,0.494 h 3.193 c 0.406,0 0.745,0.004 1.016,0.013 0.271,0.011 0.493,0.03 0.667,0.06 0.175,0.028 0.32,0.062 0.437,0.1 0.115,0.04 0.241,0.078 0.377,0.117 v 3.25 C 2.08,0.193 1.698,0.097 1.32,0.058 0.943,0.019 0.504,0 0,0 m -8.707,-6.386 h -6.24 v 1.539 c 0,0.562 0.165,0.972 0.494,1.234 0.329,0.261 0.86,0.391 1.597,0.391 h 2.002 c 0.812,0 1.374,-0.169 1.682,-0.507 0.311,-0.339 0.465,-0.809 0.465,-1.408 z" /></g><g
           transform="translate(141.906,53.8386)"
           id="g32"><path
             id="path34"
             style="fill:#ffffff;fill-opacity:1;fill-rule:nonzero;stroke:none"
             d="m 0,0 h -1.654 c -1.083,0 -1.998,-0.179 -2.743,-0.536 -0.745,-0.36 -1.282,-0.973 -1.611,-1.844 -0.329,0.716 -0.832,1.238 -1.51,1.568 -0.676,0.329 -1.537,0.493 -2.582,0.493 h -0.726 c -1.568,0 -2.737,-0.372 -3.512,-1.118 -0.773,-0.745 -1.161,-1.949 -1.161,-3.613 V -9.868 H 4.818 v 5.021 c 0,1.606 -0.412,2.815 -1.234,3.628 C 2.762,-0.406 1.567,0 0,0 m -7.227,-6.676 h -5.369 v 1.539 c 0,0.561 0.164,0.973 0.493,1.234 0.33,0.261 0.861,0.392 1.596,0.392 h 1.132 c 0.813,0 1.374,-0.17 1.685,-0.509 0.309,-0.338 0.463,-0.808 0.463,-1.407 z m 9.143,0 h -6.24 v 1.423 c 0,0.735 0.174,1.263 0.521,1.582 0.349,0.318 0.997,0.479 1.946,0.479 h 1.77 c 0.754,0 1.276,-0.141 1.567,-0.421 0.291,-0.281 0.436,-0.692 0.436,-1.234 z" /></g><g
           transform="translate(126.407,58.657)"
           id="g36"><path
             id="path38"
             style="fill:#ffffff;fill-opacity:1;fill-rule:nonzero;stroke:none"
             d="M 0,0 H 20.316 V 8.707 H 17.414 V 3.192 H 11.465 V 7.574 H 8.563 V 3.192 H 2.902 V 8.707 H 0 Z" /></g><g
           transform="translate(144.2566,81.8171)"
           id="g40"><path
             id="path42"
             style="fill:#ffffff;fill-opacity:1;fill-rule:nonzero;stroke:none"
             d="m 0,0 h -3.135 c -1.063,0 -1.968,-0.15 -2.713,-0.45 -0.745,-0.301 -1.282,-0.857 -1.611,-1.669 -0.658,1.393 -2.031,2.09 -4.121,2.09 h -1.597 c -1.567,0 -2.736,-0.373 -3.51,-1.117 -0.775,-0.746 -1.163,-1.951 -1.163,-3.614 V -9.578 H 2.468 v 3.192 h -8.273 v 1.103 c 0,0.735 0.195,1.267 0.58,1.596 0.389,0.33 1.055,0.495 2.003,0.495 h 3.193 c 0.406,0 0.745,0.004 1.016,0.013 0.271,0.01 0.493,0.03 0.667,0.059 0.175,0.028 0.32,0.062 0.437,0.101 0.115,0.039 0.241,0.078 0.377,0.117 v 3.25 C 2.08,0.193 1.698,0.097 1.32,0.058 0.943,0.019 0.504,0 0,0 m -8.707,-6.386 h -6.24 v 1.538 c 0,0.562 0.165,0.973 0.494,1.235 0.329,0.26 0.86,0.391 1.597,0.391 h 2.002 c 0.812,0 1.374,-0.17 1.682,-0.508 0.311,-0.339 0.465,-0.808 0.465,-1.408 z" /></g><path
           id="path44"
           style="fill:#ffffff;fill-opacity:1;fill-rule:nonzero;stroke:none"
           d="M 168.354,1.425 H 148.036 V 0.09 h 20.318 z" /><g
           transform="translate(148.0359,11.99)"
           id="g46"><path
             id="path48"
             style="fill:#ffffff;fill-opacity:1;fill-rule:nonzero;stroke:none"
             d="M 0,0 H 17.153 L 0,-6.097 v -1.74 h 20.318 v 1.218 H 2.206 l 18.112,6.357 V 1.219 L 0,1.219 Z" /></g><g
           transform="translate(163.3034,24.8757)"
           id="g50"><path
             id="path52"
             style="fill:#ffffff;fill-opacity:1;fill-rule:nonzero;stroke:none"
             d="m 0,0 h -10.217 c -2.991,0 -5.051,-1.364 -5.051,-4.499 V -8.97 H 5.051 v 4.471 C 5.051,-1.364 2.989,0 0,0 m 3.831,-7.634 h -17.88 v 3.107 c 0,2.234 1.538,3.192 3.773,3.192 H 0.058 c 2.235,0 3.773,-0.929 3.773,-3.192 z" /></g><g
           transform="translate(163.3904,36.1081)"
           id="g54"><path
             id="path56"
             style="fill:#ffffff;fill-opacity:1;fill-rule:nonzero;stroke:none"
             d="M 0,0 H -15.354 V -1.248 H 0.059 c 2.176,0 3.86,-0.814 3.86,-3.048 0,-2.235 -1.684,-3.048 -3.86,-3.048 H -15.354 V -8.68 H 0 c 2.902,0 5.138,1.249 5.138,4.355 C 5.138,-1.219 2.902,0 0,0" /></g><g
           transform="translate(152.9118,38.7185)"
           id="g58"><path
             id="path60"
             style="fill:#ffffff;fill-opacity:1;fill-rule:nonzero;stroke:none"
             d="m 0,0 c 5.66,0 5.747,7.345 10.624,7.345 2.177,0 3.744,-0.843 3.744,-3.078 0,-2.235 -1.567,-3.077 -3.744,-3.077 H 9.491 v -1.277 h 1.045 c 2.932,0 5.08,1.277 5.08,4.383 0,3.106 -2.148,4.384 -5.08,4.384 -5.602,0 -5.688,-7.345 -10.623,-7.345 -2.148,0 -3.745,0.813 -3.745,3.019 0,2.207 1.626,3.019 3.774,3.019 H 0.464 V 8.65 H 0.029 c -2.932,0 -5.08,-1.248 -5.08,-4.325 C -5.021,1.335 -3.048,0 0,0" /></g><g
           transform="translate(148.0359,49.2536)"
           id="g62"><path
             id="path64"
             style="fill:#ffffff;fill-opacity:1;fill-rule:nonzero;stroke:none"
             d="M 0,0 H 1.219 V 4.123 H 20.318 V 5.458 H 1.219 v 4.15 H 0 Z" /></g><g
           transform="translate(168.3542,62.2575)"
           id="g66"><path
             id="path68"
             style="fill:#ffffff;fill-opacity:1;fill-rule:nonzero;stroke:none"
             d="m 0,0 h -9.085 v 2.118 c 0,2.322 0.754,3.803 3.453,3.803 h 3.194 c 1.102,0 1.828,0.087 2.438,0.435 L 0,7.75 C -0.668,7.314 -1.597,7.257 -2.438,7.257 h -3.165 c -2.206,0 -3.685,-0.843 -4.15,-2.933 -0.465,2.003 -1.829,2.933 -4.209,2.933 h -1.77 c -2.874,0 -4.586,-1.249 -4.586,-4.356 V -1.336 L 0,-1.336 Z M -10.305,0 H -19.1 v 2.873 c 0,2.206 1.307,3.048 3.484,3.048 h 1.915 c 2.728,0 3.396,-1.393 3.396,-3.774 z" /></g><g
           transform="translate(148.0359,81.0359)"
           id="g70"><path
             id="path72"
             style="fill:#ffffff;fill-opacity:1;fill-rule:nonzero;stroke:none"
             d="M 0,0 10.682,-3.889 0,-7.779 v -1.393 l 12.51,4.557 h 7.808 V -3.28 H 12.51 L 0,1.308 Z" /></g><g
           transform="translate(131.323,110.3996)"
           id="g74"><path
             id="path76"
             style="fill:#ffffff;fill-opacity:1;fill-rule:nonzero;stroke:none"
             d="m 0,0 c -0.165,4.676 -3.88,8.369 -8.362,8.369 -0.092,0 -0.192,0 -0.284,-0.012 -4.607,-0.151 -8.208,-4.158 -8.036,-8.948 0.144,-4.137 3.067,-7.495 6.828,-8.222 l -7.962,-19.894 0.451,-1.113 4.622,-5.033 5.927,26.03 C -2.812,-8.069 0.153,-4.357 0,0 m -8.329,-6.628 c -3.275,0 -5.987,2.696 -6.11,6.115 -0.124,3.492 2.506,6.427 5.872,6.55 h 0.216 c 3.269,0 5.984,-2.694 6.106,-6.113 0.121,-3.497 -2.507,-6.429 -5.874,-6.552 z" /></g><g
           transform="translate(113.1745,80.864)"
           id="g78"><path
             id="path80"
             style="fill:#ffffff;fill-opacity:1;fill-rule:nonzero;stroke:none"
             d="m 0,0 -0.171,0.409 -0.158,0.42 -7.965,19.894 c 3.769,0.727 6.687,4.085 6.833,8.222 0.168,4.79 -3.431,8.797 -8.041,8.949 -0.092,0.011 -0.188,0.011 -0.278,0.011 -4.483,0 -8.201,-3.683 -8.363,-8.369 -0.153,-4.359 2.812,-8.069 6.813,-8.823 l 5.926,-26.032 0.099,-0.444 0.413,-1.822 1.359,-5.966 1.023,-4.48 2.51,-42.163 0.158,-2.597 0.154,-2.6 0.104,-1.719 1.186,1.958 2.044,35.734 0.905,15.867 0.13,2.247 0.106,1.866 0.109,1.853 0.099,1.796 -4.747,5.172 z m -10.031,22.908 c -3.36,0.123 -5.992,3.055 -5.874,6.552 0.13,3.419 2.841,6.113 6.113,6.113 h 0.215 c 3.365,-0.123 5.992,-3.057 5.869,-6.55 -0.123,-3.419 -2.835,-6.115 -6.11,-6.115 z M 1.727,-16.302 0.864,-17.8 H -0.86 l -0.861,1.498 0.861,1.489 h 1.724 z" /></g><g
           transform="translate(108.6257,67.3122)"
           id="g82"><path
             id="path84"
             style="fill:#ffffff;fill-opacity:1;fill-rule:nonzero;stroke:none"
             d="m 0,0 0.617,-10.77 2.332,-40.831 1.187,-1.956 0.103,1.718 -2.122,35.63 -0.694,11.637 -1.55,6.819 z" /></g><g
           transform="translate(-3e-4,79.9441)"
           id="g86"><path
             id="path88"
             style="fill:#ffffff;fill-opacity:1;fill-rule:nonzero;stroke:none"
             d="m 0,0 0.002,-17.578 11.864,0.003 0.006,-61.886 19.999,0.004 -0.002,61.884 11.76,-0.004 0,17.577 z" /></g><g
           transform="translate(67.8777,79.9441)"
           id="g90"><path
             id="path92"
             style="fill:#ffffff;fill-opacity:1;fill-rule:nonzero;stroke:none"
             d="m 0,0 -13.847,-13.946 0.004,-51.551 13.851,-13.964 15.504,0.005 13.959,13.961 -0.002,26.82 H 7.917 v -13.528 h 6.165 l 0.002,-13.294 -12.542,-0.002 v 51.555 l 12.538,0.006 0.002,-14.965 H 29.469 L 29.465,-13.94 15.506,0.005 Z" /></g><path
           id="path94"
           style="fill:#ffffff;fill-opacity:1;fill-rule:nonzero;stroke:none"
           d="m 41.703,0.483 h 8.702 v 8.702 h -8.702 z" /><path
           id="path96"
           style="fill:#ffffff;fill-opacity:1;fill-rule:nonzero;stroke:none"
           d="m 99.469,0.483 h 8.701 v 8.702 h -8.701 z" /></g></g></g></svg>