<?xml version="1.0" standalone="no"?>
<!DOCTYPE svg PUBLIC "-//W3C//DTD SVG 1.1//EN" "http://www.w3.org/Graphics/SVG/1.1/DTD/svg11.dtd">
<!--Generator: Xara Designer (www.xara.com), SVG filter version: 4.0.0.1-->
<svg stroke-width="0.501" stroke-linejoin="bevel" fill-rule="evenodd" xmlns:xlink="http://www.w3.org/1999/xlink" xmlns="http://www.w3.org/2000/svg" version="1.1" overflow="visible" width="32.99pt" height="27pt" viewBox="0 0 32.99 27">
 <defs>
  <marker id="DefaultArrow2" markerUnits="strokeWidth" viewBox="0 0 1 1" markerWidth="1" markerHeight="1" overflow="visible" orient="auto">
   <!-- REF_ARROW_STRAIGHT (-2) -->
   <g transform="scale(0.0092592592)">
    <!-- 1/108 -->
    <path d="M -9 54 L -9 -54 L 117 0 z"/>
   </g>
  </marker>
  <marker id="DefaultArrow3" markerUnits="strokeWidth" viewBox="0 0 1 1" markerWidth="1" markerHeight="1" overflow="visible" orient="auto">
   <!-- REF_ARROW_ANGLED -->
   <g transform="scale(0.0092592592)">
    <path d="M -27 54 L -9 0 L -27 -54 L 135 0 z"/>
   </g>
  </marker>
  <marker id="DefaultArrow4" markerUnits="strokeWidth" viewBox="0 0 1 1" markerWidth="1" markerHeight="1" overflow="visible" orient="auto">
   <!-- REF_ARROW_ROUNDED -->
   <g transform="scale(0.0092592592)">
    <path d="M -9,0 L -9,-45 C -9,-51.708 2.808,-56.580 9,-54 L 117,-9 C 120.916,-7.369 126.000,-4.242 126,0 C 126,4.242 120.916,7.369 117,9 L 9,54 C 2.808,56.580 -9,51.708 -9,45 z"/>
   </g>
  </marker>
  <marker id="DefaultArrow5" markerUnits="strokeWidth" viewBox="0 0 1 1" markerWidth="1" markerHeight="1" overflow="visible" orient="auto">
   <!-- REF_ARROW_SPOT -->
   <g transform="scale(0.0092592592)">
    <path d="M -54, 0 C -54,29.807 -29.807,54 0,54 C 29.807,54 54,29.807 54,0 C 54,-29.807 29.807,-54 0,-54 C -29.807,-54 -54,-29.807 -54,0 z"/>
   </g>
  </marker>
  <marker id="DefaultArrow6" markerUnits="strokeWidth" viewBox="0 0 1 1" markerWidth="1" markerHeight="1" overflow="visible" orient="auto">
   <!-- REF_ARROW_DIAMOND -->
   <g transform="scale(0.0092592592)">
    <path d="M -63,0 L 0,63 L 63,0 L 0,-63 z"/>
   </g>
  </marker>
  <marker id="DefaultArrow7" markerUnits="strokeWidth" viewBox="0 0 1 1" markerWidth="1" markerHeight="1" overflow="visible" orient="auto">
   <!-- REF_ARROW_FEATHER -->
   <g transform="scale(0.0092592592)">
    <path d="M 18,-54 L 108,-54 L 63,0 L 108,54 L 18, 54 L -36,0 z"/>
   </g>
  </marker>
  <marker id="DefaultArrow8" markerUnits="strokeWidth" viewBox="0 0 1 1" markerWidth="1" markerHeight="1" overflow="visible" orient="auto">
   <!-- REF_ARROW_FEATHER2 -->
   <g transform="scale(0.0092592592)">
    <path d="M -36,0 L 18,-54 L 54,-54 L 18,-18 L 27,-18 L 63,-54 L 99,-54 L 63,-18 L 72,-18 L 108,-54 L 144,-54 L 90,0 L 144,54 L 108,54 L 72,18 L 63,18 L 99,54 L 63,54 L 27,18 L 18,18 L 54,54 L 18,54 z"/>
   </g>
  </marker>
  <marker id="DefaultArrow9" markerUnits="strokeWidth" viewBox="0 0 1 1" markerWidth="1" markerHeight="1" overflow="visible" orient="auto">
   <!-- REF_ARROW_HOLLOWDIAMOND -->
   <g transform="scale(0.0092592592)">
    <path d="M 0,45 L -45,0 L 0, -45 L 45, 0 z M 0, 63 L-63, 0 L 0, -63 L 63, 0 z"/>
   </g>
  </marker>
  <filter id="StainedFilter">
   <feBlend mode="multiply" in2="BackgroundImage" in="SourceGraphic" result="blend"/>
   <feComposite in="blend" in2="SourceAlpha" operator="in" result="comp"/>
  </filter>
  <filter id="BleachFilter">
   <feBlend mode="screen" in2="BackgroundImage" in="SourceGraphic" result="blend"/>
   <feComposite in="blend" in2="SourceAlpha" operator="in" result="comp"/>
  </filter>
  <filter id="InvertTransparencyBitmapFilter">
   <feComponentTransfer>
    <feFuncR type="gamma" amplitude="1.055" exponent=".416666666" offset="-0.055"/>
    <feFuncG type="gamma" amplitude="1.055" exponent=".416666666" offset="-0.055"/>
    <feFuncB type="gamma" amplitude="1.055" exponent=".416666666" offset="-0.055"/>
   </feComponentTransfer>
   <feComponentTransfer>
    <feFuncR type="linear" slope="-1" intercept="1"/>
    <feFuncG type="linear" slope="-1" intercept="1"/>
    <feFuncB type="linear" slope="-1" intercept="1"/>
    <feFuncA type="linear" slope="1" intercept="0"/>
   </feComponentTransfer>
   <feComponentTransfer>
    <feFuncR type="gamma" amplitude="1" exponent="2.4" offset="0"/>
    <feFuncG type="gamma" amplitude="1" exponent="2.4" offset="0"/>
    <feFuncB type="gamma" amplitude="1" exponent="2.4" offset="0"/>
   </feComponentTransfer>
  </filter>
 </defs>
 <g id="Document" fill="none" stroke="black" font-family="Times New Roman" font-size="16" transform="scale(1 -1)">
  <g id="Spread" transform="translate(0 -27)">
   <g id="Layer 1">
    <g id="Group" stroke="none">
     <path d="M -0.003,26.998 L -0.003,-0.001 L 33,-0.001 L 33,26.998 L -0.003,26.998 Z" stroke-linejoin="round" marker-start="none" marker-end="none"/>
     <path d="M 7.5,4.5 L 7.499,7.276 C 7.094,7.433 6.73,7.624 6.404,7.846 C 5.355,8.559 4.777,9.535 4.42,10.538 C 3.788,12.315 3.755,14.429 3.548,16.419 C 3.406,17.485 3.093,18.061 2.801,18.362 C 2.522,18.649 2.201,18.75 1.875,18.75 L 1.874,18.776 C 1.452,18.834 1.058,18.989 0.738,19.23 C 0.318,19.545 -0.001,20.03 -0.001,20.625 C -0.001,21.222 0.32,21.707 0.738,22.02 C 1.151,22.33 1.687,22.5 2.248,22.5 L 30.751,22.5 C 31.311,22.5 31.847,22.33 32.26,22.02 C 32.68,21.705 33,21.22 33,20.625 C 33,20.028 32.678,19.543 32.26,19.23 C 31.94,18.99 31.546,18.834 31.125,18.776 L 31.125,18.75 C 30.798,18.75 30.477,18.649 30.198,18.362 C 29.906,18.061 29.593,17.485 29.451,16.419 C 29.254,14.525 29.216,12.329 28.579,10.538 C 28.222,9.535 27.644,8.559 26.595,7.846 C 26.078,7.495 25.469,7.222 24.75,7.037 L 24.75,4.5 C 24.75,4.086 24.413,3.75 24,3.75 L 23.25,3.75 C 23.013,3.75 22.791,3.861 22.65,4.05 L 20.625,6.75 L 11.625,6.75 L 9.6,4.05 C 9.458,3.861 9.236,3.75 9,3.75 L 8.25,3.75 C 7.836,3.75 7.5,4.086 7.5,4.5 Z M 9,5.75 L 9.779,6.789 C 9.508,6.811 9.248,6.842 8.999,6.882 L 9,5.75 Z M 23.25,5.75 L 23.25,6.791 C 23.008,6.771 22.757,6.758 22.497,6.753 L 23.25,5.75 Z M 25.752,9.087 C 26.46,9.568 26.88,10.237 27.166,11.041 C 27.732,12.634 27.782,14.874 27.962,16.596 C 28.081,17.494 28.318,18.205 28.636,18.751 L 4.368,18.751 C 4.692,18.194 4.918,17.481 5.037,16.596 C 5.23,14.754 5.272,12.618 5.833,11.041 C 6.119,10.237 6.539,9.568 7.247,9.087 C 7.963,8.601 9.058,8.25 10.8,8.25 L 22.2,8.25 C 23.941,8.25 25.036,8.601 25.752,9.087 Z M 10.501,10.5 L 10.501,14.689 L 9.531,13.719 C 9.238,13.426 8.763,13.426 8.47,13.719 C 8.177,14.012 8.177,14.487 8.47,14.78 L 10.72,17.03 C 11.191,17.501 12.001,17.166 12.001,16.5 L 12.001,10.5 C 12.001,10.086 11.664,9.75 11.251,9.75 C 10.837,9.75 10.501,10.086 10.501,10.5 Z M 18.743,12.75 L 18.743,14.249 C 18.743,15.881 19.891,17.249 21.375,17.249 C 22.862,17.249 24.008,15.878 24.008,14.249 L 24.008,12.75 C 24.008,11.117 22.859,9.75 21.375,9.75 C 19.888,9.75 18.743,11.12 18.743,12.75 Z M 13.586,10.685 C 13.3,10.985 13.311,11.46 13.611,11.745 C 13.911,12.031 14.386,12.02 14.671,11.72 C 14.956,11.421 15.297,11.257 15.708,11.257 C 15.951,11.257 16.112,11.34 16.231,11.491 C 16.365,11.662 16.5,11.993 16.5,12.567 C 16.5,13.053 16.37,13.247 16.287,13.326 C 16.197,13.412 16.027,13.493 15.708,13.493 C 15.408,13.493 15.16,13.405 14.905,13.228 C 14.825,13.173 14.74,13.136 14.651,13.115 C 14.535,13.041 14.398,12.999 14.251,12.999 C 13.837,12.999 13.501,13.335 13.501,13.749 L 13.501,16.5 C 13.501,16.913 13.837,17.25 14.251,17.25 L 17.251,17.25 C 17.664,17.25 18.001,16.913 18.001,16.5 C 18.001,16.086 17.664,15.75 17.251,15.75 L 15.001,15.75 L 15,14.904 C 15.221,14.961 15.456,14.993 15.708,14.993 C 16.259,14.993 16.86,14.854 17.323,14.411 C 17.793,13.962 18,13.318 18,12.567 C 18,11.782 17.818,11.083 17.41,10.564 C 16.985,10.024 16.376,9.757 15.708,9.757 C 14.839,9.757 14.118,10.127 13.586,10.685 Z M 22.508,12.75 L 22.508,14.249 C 22.508,15.136 21.931,15.749 21.375,15.749 C 20.81,15.749 20.243,15.126 20.243,14.249 L 20.243,12.75 C 20.243,11.862 20.819,11.25 21.375,11.25 C 21.94,11.25 22.508,11.872 22.508,12.75 Z M 31.36,20.43 C 31.483,20.522 31.5,20.595 31.5,20.625 C 31.5,20.653 31.481,20.73 31.36,20.82 C 31.23,20.917 31.017,21 30.751,21 L 2.248,21 C 1.981,21 1.768,20.917 1.638,20.82 C 1.515,20.728 1.499,20.655 1.499,20.625 C 1.499,20.597 1.517,20.52 1.638,20.43 C 1.768,20.333 1.981,20.251 2.248,20.251 L 30.751,20.251 C 31.017,20.251 31.23,20.333 31.36,20.43 Z" stroke-width="0.5" fill="#bababa" fill-rule="evenodd" marker-start="none" marker-end="none" stroke-miterlimit="79.8403193612775"/>
    </g>
   </g>
  </g>
 </g>
</svg>
