<?xml version="1.0" standalone="no"?>
<!DOCTYPE svg PUBLIC "-//W3C//DTD SVG 20010904//EN"
 "http://www.w3.org/TR/2001/REC-SVG-20010904/DTD/svg10.dtd">
<svg version="1.0" xmlns="http://www.w3.org/2000/svg"
 width="1280.000000pt" height="912.000000pt" viewBox="0 0 1280.000000 912.000000"
 preserveAspectRatio="xMidYMid meet">
<g transform="translate(0.000000,912.000000) scale(0.100000,-0.100000)"
fill="#fff" stroke="none">
<path d="M4040 8924 c-14 -2 -65 -9 -115 -15 -376 -45 -772 -192 -1087 -402
-557 -372 -939 -978 -1043 -1657 -34 -219 -23 -192 -85 -214 -237 -82 -327
-119 -485 -196 -493 -242 -850 -572 -1051 -972 -74 -148 -119 -285 -149 -461
-27 -156 -31 -241 -15 -328 5 -30 16 -96 25 -148 44 -259 176 -532 374 -775
32 -39 125 -141 207 -228 82 -86 198 -208 258 -272 229 -245 486 -419 913
-615 60 -27 88 -49 170 -135 57 -59 130 -149 174 -216 222 -334 566 -599 1003
-775 359 -144 700 -208 1111 -209 243 0 360 10 594 49 167 29 228 31 298 10
63 -19 107 -49 228 -155 561 -492 1271 -783 2115 -865 170 -17 592 -19 765 -5
751 64 1421 300 1983 697 279 198 540 467 723 745 138 212 225 412 298 687 63
235 80 258 290 405 350 245 573 491 731 805 178 356 220 774 114 1146 -27 95
-172 452 -231 570 -228 452 -666 831 -1247 1079 -144 62 -279 108 -471 162
-276 78 -267 73 -338 178 -139 208 -261 349 -412 475 -292 243 -679 421 -1100
506 -247 50 -351 59 -660 59 -337 0 -406 -7 -801 -86 l-262 -51 -123 128
c-590 610 -1353 992 -2149 1075 -88 9 -494 12 -550 4z"/>
</g>
</svg>
