<?xml version="1.0" encoding="utf-8"?>
<!-- Generator: Adobe Illustrator 19.0.1, SVG Export Plug-In . SVG Version: 6.00 Build 0)  -->
<svg version="1.1" id="Слой_1" xmlns="http://www.w3.org/2000/svg" xmlns:xlink="http://www.w3.org/1999/xlink" x="0px" y="0px"
	 viewBox="0 0 73.7 38.8" style="enable-background:new 0 0 73.7 38.8;" xml:space="preserve">
<style type="text/css">
	.st0{fill:#fff;}
</style>
<path class="st0" d="M56.9,38.7c-4.6,0-8.8-1.6-11.7-4.2c-3.3,2.6-7.5,4.2-12,4.2c-5.1,0-9.8-2-13.3-5.2c-2.1,2.5-5.1,4-8.6,4
	C5.1,37.6,0,32.5,0,26.3c0-5.1,3.4-9.4,8.1-10.8c-0.4-1.1-0.6-2.3-0.6-3.6c0-6.2,5-11.3,11.2-11.3c2,0,3.9,0.5,5.6,1.5
	C26.9,0.8,29.9,0,33.1,0c8.1,0,15.1,5,18,12.1c1.8-0.6,3.7-0.9,5.8-0.9c9,0,16.3,6.1,16.3,13.7C73.2,32.5,65.9,38.7,56.9,38.7
	L56.9,38.7z"/>
</svg>
