<?xml version="1.0" standalone="no"?>
<!DOCTYPE svg PUBLIC "-//W3C//DTD SVG 20010904//EN"
 "http://www.w3.org/TR/2001/REC-SVG-20010904/DTD/svg10.dtd">
<svg version="1.0" xmlns="http://www.w3.org/2000/svg"
 width="1280.000000pt" height="793.000000pt" viewBox="0 0 1280.000000 793.000000"
 preserveAspectRatio="xMidYMid meet">
<g transform="translate(0.000000,793.000000) scale(0.100000,-0.100000)"
fill="#fff" stroke="none">
<path d="M8055 7924 c-213 -21 -278 -29 -395 -50 -605 -111 -1127 -362 -1584
-763 -193 -170 -417 -436 -543 -648 l-55 -92 -80 40 c-186 93 -390 142 -603
142 -555 1 -1064 -344 -1355 -918 -59 -116 -116 -262 -149 -384 -11 -41 -23
-76 -25 -78 -2 -3 -55 13 -118 35 -441 154 -965 200 -1451 127 -733 -110
-1340 -479 -1580 -960 -222 -443 -124 -913 271 -1297 258 -251 609 -434 1037
-542 110 -28 320 -66 365 -66 16 0 31 -4 34 -8 2 -4 -8 -35 -24 -67 -82 -168
-55 -320 96 -548 82 -123 302 -349 469 -481 432 -342 1057 -672 1728 -910 644
-229 1283 -367 2002 -432 270 -25 897 -25 1160 -1 845 79 1582 270 2277 592
874 404 1536 978 1672 1449 32 110 33 174 1 246 -13 30 -22 56 -21 58 2 1 42
-7 90 -18 343 -80 740 -5 1046 196 92 60 236 196 296 281 332 465 198 1058
-313 1389 -196 126 -438 201 -688 210 -117 5 -155 3 -230 -14 -49 -11 -91 -19
-92 -18 -1 1 9 40 22 86 114 396 123 808 29 1209 -175 743 -654 1370 -1367
1790 -375 220 -817 366 -1292 427 -113 14 -543 27 -630 18z"/>
</g>
</svg>
