<?xml version="1.0" standalone="no"?>
<!DOCTYPE svg PUBLIC "-//W3C//DTD SVG 1.1//EN" "http://www.w3.org/Graphics/SVG/1.1/DTD/svg11.dtd">
<!--Generator: Xara Designer (www.xara.com), SVG filter version: 4.0.0.1-->
<svg stroke-width="0.501" stroke-linejoin="bevel" fill-rule="evenodd" xmlns:xlink="http://www.w3.org/1999/xlink" xmlns="http://www.w3.org/2000/svg" version="1.1" overflow="visible" width="38.994pt" height="27pt" viewBox="0 0 38.994 27">
 <defs>
  <marker id="DefaultArrow2" markerUnits="strokeWidth" viewBox="0 0 1 1" markerWidth="1" markerHeight="1" overflow="visible" orient="auto">
   <!-- REF_ARROW_STRAIGHT (-2) -->
   <g transform="scale(0.0092592592)">
    <!-- 1/108 -->
    <path d="M -9 54 L -9 -54 L 117 0 z"/>
   </g>
  </marker>
  <marker id="DefaultArrow3" markerUnits="strokeWidth" viewBox="0 0 1 1" markerWidth="1" markerHeight="1" overflow="visible" orient="auto">
   <!-- REF_ARROW_ANGLED -->
   <g transform="scale(0.0092592592)">
    <path d="M -27 54 L -9 0 L -27 -54 L 135 0 z"/>
   </g>
  </marker>
  <marker id="DefaultArrow4" markerUnits="strokeWidth" viewBox="0 0 1 1" markerWidth="1" markerHeight="1" overflow="visible" orient="auto">
   <!-- REF_ARROW_ROUNDED -->
   <g transform="scale(0.0092592592)">
    <path d="M -9,0 L -9,-45 C -9,-51.708 2.808,-56.580 9,-54 L 117,-9 C 120.916,-7.369 126.000,-4.242 126,0 C 126,4.242 120.916,7.369 117,9 L 9,54 C 2.808,56.580 -9,51.708 -9,45 z"/>
   </g>
  </marker>
  <marker id="DefaultArrow5" markerUnits="strokeWidth" viewBox="0 0 1 1" markerWidth="1" markerHeight="1" overflow="visible" orient="auto">
   <!-- REF_ARROW_SPOT -->
   <g transform="scale(0.0092592592)">
    <path d="M -54, 0 C -54,29.807 -29.807,54 0,54 C 29.807,54 54,29.807 54,0 C 54,-29.807 29.807,-54 0,-54 C -29.807,-54 -54,-29.807 -54,0 z"/>
   </g>
  </marker>
  <marker id="DefaultArrow6" markerUnits="strokeWidth" viewBox="0 0 1 1" markerWidth="1" markerHeight="1" overflow="visible" orient="auto">
   <!-- REF_ARROW_DIAMOND -->
   <g transform="scale(0.0092592592)">
    <path d="M -63,0 L 0,63 L 63,0 L 0,-63 z"/>
   </g>
  </marker>
  <marker id="DefaultArrow7" markerUnits="strokeWidth" viewBox="0 0 1 1" markerWidth="1" markerHeight="1" overflow="visible" orient="auto">
   <!-- REF_ARROW_FEATHER -->
   <g transform="scale(0.0092592592)">
    <path d="M 18,-54 L 108,-54 L 63,0 L 108,54 L 18, 54 L -36,0 z"/>
   </g>
  </marker>
  <marker id="DefaultArrow8" markerUnits="strokeWidth" viewBox="0 0 1 1" markerWidth="1" markerHeight="1" overflow="visible" orient="auto">
   <!-- REF_ARROW_FEATHER2 -->
   <g transform="scale(0.0092592592)">
    <path d="M -36,0 L 18,-54 L 54,-54 L 18,-18 L 27,-18 L 63,-54 L 99,-54 L 63,-18 L 72,-18 L 108,-54 L 144,-54 L 90,0 L 144,54 L 108,54 L 72,18 L 63,18 L 99,54 L 63,54 L 27,18 L 18,18 L 54,54 L 18,54 z"/>
   </g>
  </marker>
  <marker id="DefaultArrow9" markerUnits="strokeWidth" viewBox="0 0 1 1" markerWidth="1" markerHeight="1" overflow="visible" orient="auto">
   <!-- REF_ARROW_HOLLOWDIAMOND -->
   <g transform="scale(0.0092592592)">
    <path d="M 0,45 L -45,0 L 0, -45 L 45, 0 z M 0, 63 L-63, 0 L 0, -63 L 63, 0 z"/>
   </g>
  </marker>
  <filter id="StainedFilter">
   <feBlend mode="multiply" in2="BackgroundImage" in="SourceGraphic" result="blend"/>
   <feComposite in="blend" in2="SourceAlpha" operator="in" result="comp"/>
  </filter>
  <filter id="BleachFilter">
   <feBlend mode="screen" in2="BackgroundImage" in="SourceGraphic" result="blend"/>
   <feComposite in="blend" in2="SourceAlpha" operator="in" result="comp"/>
  </filter>
  <filter id="InvertTransparencyBitmapFilter">
   <feComponentTransfer>
    <feFuncR type="gamma" amplitude="1.055" exponent=".416666666" offset="-0.055"/>
    <feFuncG type="gamma" amplitude="1.055" exponent=".416666666" offset="-0.055"/>
    <feFuncB type="gamma" amplitude="1.055" exponent=".416666666" offset="-0.055"/>
   </feComponentTransfer>
   <feComponentTransfer>
    <feFuncR type="linear" slope="-1" intercept="1"/>
    <feFuncG type="linear" slope="-1" intercept="1"/>
    <feFuncB type="linear" slope="-1" intercept="1"/>
    <feFuncA type="linear" slope="1" intercept="0"/>
   </feComponentTransfer>
   <feComponentTransfer>
    <feFuncR type="gamma" amplitude="1" exponent="2.4" offset="0"/>
    <feFuncG type="gamma" amplitude="1" exponent="2.4" offset="0"/>
    <feFuncB type="gamma" amplitude="1" exponent="2.4" offset="0"/>
   </feComponentTransfer>
  </filter>
 </defs>
 <g id="Document" fill="none" stroke="black" font-family="Times New Roman" font-size="16" transform="scale(1 -1)">
  <g id="Spread" transform="translate(0 -27)">
   <g id="Layer 1">
    <g id="Group" stroke="none">
     <path d="M 0,26.998 L 0,-0.001 L 38.999,-0.001 L 38.999,26.998 L 0,26.998 Z" stroke-linejoin="round" marker-start="none" marker-end="none"/>
     <path d="M 7.5,4.5 L 7.499,7.276 C 7.094,7.433 6.73,7.624 6.404,7.846 C 5.355,8.559 4.777,9.535 4.42,10.538 C 3.788,12.315 3.755,14.429 3.548,16.419 C 3.406,17.485 3.093,18.061 2.801,18.362 C 2.522,18.649 2.201,18.75 1.875,18.75 L 1.874,18.776 C 1.452,18.834 1.058,18.989 0.738,19.23 C 0.318,19.545 -0.001,20.03 -0.001,20.625 C -0.001,21.222 0.32,21.707 0.738,22.02 C 1.151,22.33 1.687,22.5 2.248,22.5 L 36.751,22.5 C 37.311,22.5 37.847,22.33 38.26,22.02 C 38.68,21.705 39,21.22 39,20.625 C 39,20.028 38.678,19.543 38.26,19.23 C 37.94,18.99 37.546,18.834 37.125,18.776 L 37.125,18.75 C 36.798,18.75 36.477,18.649 36.198,18.362 C 35.906,18.061 35.593,17.485 35.451,16.419 C 35.254,14.525 35.216,12.329 34.579,10.538 C 34.222,9.535 33.644,8.559 32.595,7.846 C 32.078,7.495 31.469,7.222 30.75,7.037 L 30.75,4.5 C 30.75,4.086 30.413,3.75 30,3.75 L 29.25,3.75 C 29.013,3.75 28.791,3.861 28.65,4.05 L 26.625,6.75 L 11.625,6.75 L 9.6,4.05 C 9.458,3.861 9.236,3.75 9,3.75 L 8.25,3.75 C 7.836,3.75 7.5,4.086 7.5,4.5 Z M 9,5.75 L 9.779,6.789 C 9.508,6.811 9.248,6.842 8.999,6.882 L 9,5.75 Z M 29.25,5.75 L 29.25,6.791 C 29.008,6.771 28.757,6.758 28.497,6.753 L 29.25,5.75 Z M 31.752,9.087 C 32.46,9.568 32.88,10.237 33.166,11.041 C 33.732,12.634 33.782,14.874 33.962,16.596 C 34.081,17.494 34.318,18.205 34.636,18.751 L 4.368,18.751 C 4.692,18.194 4.918,17.481 5.037,16.596 C 5.23,14.754 5.272,12.618 5.833,11.041 C 6.119,10.237 6.539,9.568 7.247,9.087 C 7.963,8.601 9.058,8.25 10.8,8.25 L 28.2,8.25 C 29.941,8.25 31.036,8.601 31.752,9.087 Z M 15.751,10.5 L 15.751,14.689 L 14.781,13.719 C 14.488,13.426 14.013,13.426 13.72,13.719 C 13.427,14.012 13.427,14.487 13.72,14.78 L 15.97,17.03 C 16.441,17.501 17.251,17.166 17.251,16.5 L 17.251,10.5 C 17.251,10.086 16.914,9.75 16.501,9.75 C 16.087,9.75 15.751,10.086 15.751,10.5 Z M 23.993,12.75 L 23.993,14.249 C 23.993,15.881 25.141,17.249 26.625,17.249 C 28.112,17.249 29.258,15.878 29.258,14.249 L 29.258,12.75 C 29.258,11.117 28.109,9.75 26.625,9.75 C 25.138,9.75 23.993,11.12 23.993,12.75 Z M 18.749,12.004 C 18.749,12.578 18.964,13.103 19.319,13.502 C 18.968,13.894 18.754,14.41 18.754,14.98 C 18.754,16.219 19.77,17.209 21.002,17.209 C 22.233,17.209 23.25,16.219 23.25,14.98 C 23.25,14.409 23.034,13.892 22.682,13.499 C 23.036,13.101 23.251,12.577 23.251,12.004 C 23.251,10.761 22.243,9.751 21,9.751 C 19.756,9.751 18.749,10.761 18.749,12.004 Z M 9.172,10.769 C 8.907,11.088 8.95,11.561 9.268,11.826 L 10.828,13.125 L 9.268,14.423 C 8.95,14.688 8.907,15.161 9.172,15.48 C 9.437,15.798 9.91,15.841 10.229,15.576 L 12.48,13.701 C 12.839,13.401 12.839,12.848 12.48,12.548 L 10.229,10.673 C 9.91,10.408 9.437,10.451 9.172,10.769 Z M 27.758,12.75 L 27.758,14.249 C 27.758,15.136 27.181,15.749 26.625,15.749 C 26.06,15.749 25.493,15.126 25.493,14.249 L 25.493,12.75 C 25.493,11.862 26.069,11.25 26.625,11.25 C 27.19,11.25 27.758,11.872 27.758,12.75 Z M 21.751,12.004 C 21.751,12.39 21.456,12.71 21.084,12.752 C 21.055,12.751 21.029,12.751 21.002,12.751 C 20.973,12.751 20.945,12.751 20.916,12.752 C 20.543,12.711 20.249,12.391 20.249,12.004 C 20.249,11.588 20.587,11.251 21,11.251 C 21.412,11.251 21.751,11.588 21.751,12.004 Z M 21,14.257 C 21.028,14.257 21.056,14.256 21.086,14.255 C 21.464,14.296 21.75,14.613 21.75,14.98 C 21.75,15.372 21.422,15.709 21.002,15.709 C 20.581,15.709 20.254,15.372 20.254,14.98 C 20.254,14.613 20.538,14.296 20.916,14.255 C 20.945,14.256 20.972,14.257 21,14.257 Z M 37.36,20.43 C 37.483,20.522 37.5,20.595 37.5,20.625 C 37.5,20.653 37.481,20.73 37.36,20.82 C 37.23,20.917 37.017,21 36.751,21 L 2.248,21 C 1.981,21 1.768,20.917 1.638,20.82 C 1.515,20.728 1.499,20.655 1.499,20.625 C 1.499,20.597 1.517,20.52 1.638,20.43 C 1.768,20.333 1.981,20.251 2.248,20.251 L 36.751,20.251 C 37.017,20.251 37.23,20.333 37.36,20.43 Z" stroke-width="0.5" fill="#bababa" fill-rule="evenodd" marker-start="none" marker-end="none" stroke-miterlimit="79.8403193612775"/>
    </g>
   </g>
  </g>
 </g>
</svg>
