<?xml version="1.0" standalone="no"?>
<!DOCTYPE svg PUBLIC "-//W3C//DTD SVG 1.1//EN" "http://www.w3.org/Graphics/SVG/1.1/DTD/svg11.dtd">
<!--Generator: Xara Designer (www.xara.com), SVG filter version: 4.0.0.1-->
<svg stroke-width="0.501" stroke-linejoin="bevel" fill-rule="evenodd" xmlns:xlink="http://www.w3.org/1999/xlink" xmlns="http://www.w3.org/2000/svg" version="1.1" overflow="visible" width="32.993pt" height="27pt" viewBox="0 0 32.993 27">
 <defs>
  <marker id="DefaultArrow2" markerUnits="strokeWidth" viewBox="0 0 1 1" markerWidth="1" markerHeight="1" overflow="visible" orient="auto">
   <!-- REF_ARROW_STRAIGHT (-2) -->
   <g transform="scale(0.0092592592)">
    <!-- 1/108 -->
    <path d="M -9 54 L -9 -54 L 117 0 z"/>
   </g>
  </marker>
  <marker id="DefaultArrow3" markerUnits="strokeWidth" viewBox="0 0 1 1" markerWidth="1" markerHeight="1" overflow="visible" orient="auto">
   <!-- REF_ARROW_ANGLED -->
   <g transform="scale(0.0092592592)">
    <path d="M -27 54 L -9 0 L -27 -54 L 135 0 z"/>
   </g>
  </marker>
  <marker id="DefaultArrow4" markerUnits="strokeWidth" viewBox="0 0 1 1" markerWidth="1" markerHeight="1" overflow="visible" orient="auto">
   <!-- REF_ARROW_ROUNDED -->
   <g transform="scale(0.0092592592)">
    <path d="M -9,0 L -9,-45 C -9,-51.708 2.808,-56.580 9,-54 L 117,-9 C 120.916,-7.369 126.000,-4.242 126,0 C 126,4.242 120.916,7.369 117,9 L 9,54 C 2.808,56.580 -9,51.708 -9,45 z"/>
   </g>
  </marker>
  <marker id="DefaultArrow5" markerUnits="strokeWidth" viewBox="0 0 1 1" markerWidth="1" markerHeight="1" overflow="visible" orient="auto">
   <!-- REF_ARROW_SPOT -->
   <g transform="scale(0.0092592592)">
    <path d="M -54, 0 C -54,29.807 -29.807,54 0,54 C 29.807,54 54,29.807 54,0 C 54,-29.807 29.807,-54 0,-54 C -29.807,-54 -54,-29.807 -54,0 z"/>
   </g>
  </marker>
  <marker id="DefaultArrow6" markerUnits="strokeWidth" viewBox="0 0 1 1" markerWidth="1" markerHeight="1" overflow="visible" orient="auto">
   <!-- REF_ARROW_DIAMOND -->
   <g transform="scale(0.0092592592)">
    <path d="M -63,0 L 0,63 L 63,0 L 0,-63 z"/>
   </g>
  </marker>
  <marker id="DefaultArrow7" markerUnits="strokeWidth" viewBox="0 0 1 1" markerWidth="1" markerHeight="1" overflow="visible" orient="auto">
   <!-- REF_ARROW_FEATHER -->
   <g transform="scale(0.0092592592)">
    <path d="M 18,-54 L 108,-54 L 63,0 L 108,54 L 18, 54 L -36,0 z"/>
   </g>
  </marker>
  <marker id="DefaultArrow8" markerUnits="strokeWidth" viewBox="0 0 1 1" markerWidth="1" markerHeight="1" overflow="visible" orient="auto">
   <!-- REF_ARROW_FEATHER2 -->
   <g transform="scale(0.0092592592)">
    <path d="M -36,0 L 18,-54 L 54,-54 L 18,-18 L 27,-18 L 63,-54 L 99,-54 L 63,-18 L 72,-18 L 108,-54 L 144,-54 L 90,0 L 144,54 L 108,54 L 72,18 L 63,18 L 99,54 L 63,54 L 27,18 L 18,18 L 54,54 L 18,54 z"/>
   </g>
  </marker>
  <marker id="DefaultArrow9" markerUnits="strokeWidth" viewBox="0 0 1 1" markerWidth="1" markerHeight="1" overflow="visible" orient="auto">
   <!-- REF_ARROW_HOLLOWDIAMOND -->
   <g transform="scale(0.0092592592)">
    <path d="M 0,45 L -45,0 L 0, -45 L 45, 0 z M 0, 63 L-63, 0 L 0, -63 L 63, 0 z"/>
   </g>
  </marker>
  <filter id="StainedFilter">
   <feBlend mode="multiply" in2="BackgroundImage" in="SourceGraphic" result="blend"/>
   <feComposite in="blend" in2="SourceAlpha" operator="in" result="comp"/>
  </filter>
  <filter id="BleachFilter">
   <feBlend mode="screen" in2="BackgroundImage" in="SourceGraphic" result="blend"/>
   <feComposite in="blend" in2="SourceAlpha" operator="in" result="comp"/>
  </filter>
  <filter id="InvertTransparencyBitmapFilter">
   <feComponentTransfer>
    <feFuncR type="gamma" amplitude="1.055" exponent=".416666666" offset="-0.055"/>
    <feFuncG type="gamma" amplitude="1.055" exponent=".416666666" offset="-0.055"/>
    <feFuncB type="gamma" amplitude="1.055" exponent=".416666666" offset="-0.055"/>
   </feComponentTransfer>
   <feComponentTransfer>
    <feFuncR type="linear" slope="-1" intercept="1"/>
    <feFuncG type="linear" slope="-1" intercept="1"/>
    <feFuncB type="linear" slope="-1" intercept="1"/>
    <feFuncA type="linear" slope="1" intercept="0"/>
   </feComponentTransfer>
   <feComponentTransfer>
    <feFuncR type="gamma" amplitude="1" exponent="2.4" offset="0"/>
    <feFuncG type="gamma" amplitude="1" exponent="2.4" offset="0"/>
    <feFuncB type="gamma" amplitude="1" exponent="2.4" offset="0"/>
   </feComponentTransfer>
  </filter>
 </defs>
 <g id="Document" fill="none" stroke="black" font-family="Times New Roman" font-size="16" transform="scale(1 -1)">
  <g id="Spread" transform="translate(0 -27)">
   <g id="Layer 1">
    <g id="Group" stroke="none">
     <path d="M -0.003,26.998 L -0.003,-0.001 L 33,-0.001 L 33,26.998 L -0.003,26.998 Z" stroke-linejoin="round" marker-start="none" marker-end="none"/>
     <path d="M 3.12,5.501 C 0.604,7.611 0,10.511 0,13.5 C 0,16.535 0.822,19.417 3.42,21.507 C 5.97,23.559 10.104,24.742 16.47,24.749 C 16.479,24.75 16.489,24.749 16.499,24.749 C 16.51,24.749 16.52,24.75 16.53,24.749 C 22.894,24.742 27.028,23.559 29.579,21.507 C 32.177,19.417 33,16.535 33,13.5 C 33,10.511 32.395,7.611 29.879,5.501 C 27.414,3.434 23.263,2.257 16.53,2.25 C 16.52,2.25 16.51,2.25 16.499,2.25 C 16.489,2.25 16.479,2.25 16.47,2.25 C 9.735,2.257 5.584,3.434 3.12,5.501 Z M 28.915,6.651 C 30.931,8.342 31.5,10.692 31.5,13.5 C 31.5,16.26 30.764,18.628 28.638,20.339 C 26.476,22.078 22.746,23.246 16.499,23.249 C 10.252,23.246 6.522,22.078 4.361,20.339 C 2.235,18.628 1.5,16.26 1.5,13.5 C 1.5,10.692 2.068,8.342 4.084,6.651 C 6.139,4.925 9.853,3.753 16.499,3.75 C 23.145,3.753 26.859,4.925 28.915,6.651 Z M 15.902,5.25 L 15.901,5.259 C 10.413,5.355 7.179,6.173 5.311,7.601 C 3.232,9.188 3,11.395 3,13.5 C 3,15.627 3.301,17.822 5.405,19.402 C 7.295,20.821 10.519,21.642 15.901,21.74 L 15.902,21.75 C 16.09,21.75 16.276,21.749 16.46,21.747 C 16.642,21.749 16.827,21.75 17.015,21.75 L 17.015,21.74 C 22.434,21.643 25.679,20.822 27.581,19.403 C 29.697,17.824 30.001,15.628 30.001,13.5 C 30.001,11.394 29.766,9.187 27.675,7.6 C 25.795,6.173 22.541,5.354 17.015,5.259 L 17.015,5.25 C 16.827,5.25 16.642,5.25 16.46,5.252 C 16.276,5.25 16.09,5.25 15.902,5.25 Z M 26.768,8.794 C 28.254,9.922 28.501,11.465 28.501,13.5 C 28.501,15.511 28.205,17.065 26.684,18.201 C 25.125,19.364 22.15,20.196 16.46,20.247 C 10.807,20.196 7.853,19.364 6.305,18.202 C 4.794,17.067 4.5,15.512 4.5,13.5 C 4.5,11.464 4.745,9.921 6.221,8.793 C 7.737,7.635 10.687,6.802 16.46,6.752 C 22.269,6.802 25.241,7.635 26.768,8.794 Z M 9.751,13.5 C 9.751,13.914 10.087,14.25 10.501,14.25 C 10.915,14.25 11.251,13.914 11.251,13.5 C 11.251,13.086 10.915,12.75 10.501,12.75 C 10.087,12.75 9.751,13.086 9.751,13.5 Z" stroke-width="0.5" fill="#bababa" fill-rule="evenodd" marker-start="none" marker-end="none" stroke-miterlimit="79.8403193612775"/>
    </g>
   </g>
  </g>
 </g>
</svg>
