<?xml version="1.0" standalone="no"?>
<!DOCTYPE svg PUBLIC "-//W3C//DTD SVG 1.1//EN" "http://www.w3.org/Graphics/SVG/1.1/DTD/svg11.dtd">
<!--Generator: Xara Designer (www.xara.com), SVG filter version: 4.0.0.1-->
<svg stroke-width="0.501" stroke-linejoin="bevel" fill-rule="evenodd" xmlns:xlink="http://www.w3.org/1999/xlink" xmlns="http://www.w3.org/2000/svg" version="1.1" overflow="visible" width="26.992pt" height="27pt" viewBox="0 0 26.992 27">
 <defs>
  <marker id="DefaultArrow2" markerUnits="strokeWidth" viewBox="0 0 1 1" markerWidth="1" markerHeight="1" overflow="visible" orient="auto">
   <!-- REF_ARROW_STRAIGHT (-2) -->
   <g transform="scale(0.0092592592)">
    <!-- 1/108 -->
    <path d="M -9 54 L -9 -54 L 117 0 z"/>
   </g>
  </marker>
  <marker id="DefaultArrow3" markerUnits="strokeWidth" viewBox="0 0 1 1" markerWidth="1" markerHeight="1" overflow="visible" orient="auto">
   <!-- REF_ARROW_ANGLED -->
   <g transform="scale(0.0092592592)">
    <path d="M -27 54 L -9 0 L -27 -54 L 135 0 z"/>
   </g>
  </marker>
  <marker id="DefaultArrow4" markerUnits="strokeWidth" viewBox="0 0 1 1" markerWidth="1" markerHeight="1" overflow="visible" orient="auto">
   <!-- REF_ARROW_ROUNDED -->
   <g transform="scale(0.0092592592)">
    <path d="M -9,0 L -9,-45 C -9,-51.708 2.808,-56.580 9,-54 L 117,-9 C 120.916,-7.369 126.000,-4.242 126,0 C 126,4.242 120.916,7.369 117,9 L 9,54 C 2.808,56.580 -9,51.708 -9,45 z"/>
   </g>
  </marker>
  <marker id="DefaultArrow5" markerUnits="strokeWidth" viewBox="0 0 1 1" markerWidth="1" markerHeight="1" overflow="visible" orient="auto">
   <!-- REF_ARROW_SPOT -->
   <g transform="scale(0.0092592592)">
    <path d="M -54, 0 C -54,29.807 -29.807,54 0,54 C 29.807,54 54,29.807 54,0 C 54,-29.807 29.807,-54 0,-54 C -29.807,-54 -54,-29.807 -54,0 z"/>
   </g>
  </marker>
  <marker id="DefaultArrow6" markerUnits="strokeWidth" viewBox="0 0 1 1" markerWidth="1" markerHeight="1" overflow="visible" orient="auto">
   <!-- REF_ARROW_DIAMOND -->
   <g transform="scale(0.0092592592)">
    <path d="M -63,0 L 0,63 L 63,0 L 0,-63 z"/>
   </g>
  </marker>
  <marker id="DefaultArrow7" markerUnits="strokeWidth" viewBox="0 0 1 1" markerWidth="1" markerHeight="1" overflow="visible" orient="auto">
   <!-- REF_ARROW_FEATHER -->
   <g transform="scale(0.0092592592)">
    <path d="M 18,-54 L 108,-54 L 63,0 L 108,54 L 18, 54 L -36,0 z"/>
   </g>
  </marker>
  <marker id="DefaultArrow8" markerUnits="strokeWidth" viewBox="0 0 1 1" markerWidth="1" markerHeight="1" overflow="visible" orient="auto">
   <!-- REF_ARROW_FEATHER2 -->
   <g transform="scale(0.0092592592)">
    <path d="M -36,0 L 18,-54 L 54,-54 L 18,-18 L 27,-18 L 63,-54 L 99,-54 L 63,-18 L 72,-18 L 108,-54 L 144,-54 L 90,0 L 144,54 L 108,54 L 72,18 L 63,18 L 99,54 L 63,54 L 27,18 L 18,18 L 54,54 L 18,54 z"/>
   </g>
  </marker>
  <marker id="DefaultArrow9" markerUnits="strokeWidth" viewBox="0 0 1 1" markerWidth="1" markerHeight="1" overflow="visible" orient="auto">
   <!-- REF_ARROW_HOLLOWDIAMOND -->
   <g transform="scale(0.0092592592)">
    <path d="M 0,45 L -45,0 L 0, -45 L 45, 0 z M 0, 63 L-63, 0 L 0, -63 L 63, 0 z"/>
   </g>
  </marker>
  <filter id="StainedFilter">
   <feBlend mode="multiply" in2="BackgroundImage" in="SourceGraphic" result="blend"/>
   <feComposite in="blend" in2="SourceAlpha" operator="in" result="comp"/>
  </filter>
  <filter id="BleachFilter">
   <feBlend mode="screen" in2="BackgroundImage" in="SourceGraphic" result="blend"/>
   <feComposite in="blend" in2="SourceAlpha" operator="in" result="comp"/>
  </filter>
  <filter id="InvertTransparencyBitmapFilter">
   <feComponentTransfer>
    <feFuncR type="gamma" amplitude="1.055" exponent=".416666666" offset="-0.055"/>
    <feFuncG type="gamma" amplitude="1.055" exponent=".416666666" offset="-0.055"/>
    <feFuncB type="gamma" amplitude="1.055" exponent=".416666666" offset="-0.055"/>
   </feComponentTransfer>
   <feComponentTransfer>
    <feFuncR type="linear" slope="-1" intercept="1"/>
    <feFuncG type="linear" slope="-1" intercept="1"/>
    <feFuncB type="linear" slope="-1" intercept="1"/>
    <feFuncA type="linear" slope="1" intercept="0"/>
   </feComponentTransfer>
   <feComponentTransfer>
    <feFuncR type="gamma" amplitude="1" exponent="2.4" offset="0"/>
    <feFuncG type="gamma" amplitude="1" exponent="2.4" offset="0"/>
    <feFuncB type="gamma" amplitude="1" exponent="2.4" offset="0"/>
   </feComponentTransfer>
  </filter>
 </defs>
 <g id="Document" fill="none" stroke="black" font-family="Times New Roman" font-size="16" transform="scale(1 -1)">
  <g id="Spread" transform="translate(0 -27)">
   <g id="Layer 1">
    <g id="Group" stroke-linejoin="round" stroke="none">
     <path d="M -0.001,26.998 L -0.001,-0.001 L 26.999,-0.001 L 26.999,26.998 L -0.001,26.998 Z" marker-start="none" marker-end="none"/>
     <path d="M 6.773,2.068 L 6.103,4.746 L 5.731,4.945 C 4.358,5.785 3.233,7.092 2.599,8.163 L 2.482,8.381 L 0.513,9.038 C 0.207,9.14 0.001,9.427 0.001,9.75 L 0.001,13.5 C 0.001,13.913 0.337,14.25 0.751,14.25 L 2.484,14.25 L 2.724,14.883 C 3.111,15.809 3.587,16.676 4.311,17.408 L 4.501,17.58 L 4.501,21.75 C 4.501,22.331 5.137,22.692 5.636,22.393 L 9.081,20.325 L 9.914,20.633 C 10.311,20.745 10.722,20.832 11.142,20.894 C 10.739,21.45 10.501,22.135 10.501,22.875 C 10.501,24.738 12.012,26.25 13.876,26.25 C 15.739,26.25 17.251,24.738 17.251,22.875 C 17.251,21.978 16.901,21.163 16.33,20.558 C 16.918,20.4 17.483,20.202 18.012,19.971 L 19.106,19.408 L 19.138,19.39 L 20.052,18.839 C 22.086,17.434 23.496,15.229 23.898,12.812 C 23.934,12.756 23.962,12.696 23.983,12.632 C 24.089,12.298 24.349,12.094 24.622,12.035 C 24.886,11.978 25.14,12.054 25.313,12.289 L 25.339,12.323 C 25.357,12.344 25.406,12.422 25.45,12.552 C 25.492,12.678 25.517,12.817 25.516,12.951 C 25.512,13.191 25.436,13.38 25.184,13.515 C 24.818,13.709 24.68,14.164 24.875,14.529 C 25.069,14.895 25.524,15.033 25.889,14.838 C 26.715,14.398 27.007,13.647 27.015,12.97 C 27.022,12.428 26.851,11.889 26.605,11.516 L 26.506,11.382 C 26.511,11.388 26.516,11.395 26.522,11.402 L 26.503,11.377 L 26.498,11.37 C 25.942,10.637 25.074,10.402 24.305,10.569 C 24.196,10.592 24.09,10.623 23.985,10.662 C 23.812,8.647 22.907,6.605 21.07,4.847 L 20.146,4.065 L 19.462,2.012 C 19.36,1.706 19.073,1.5 18.751,1.5 L 15.001,1.5 C 14.587,1.5 14.251,1.836 14.251,2.25 L 14.251,3.75 L 12.001,3.75 L 12.001,2.25 C 12.001,1.836 11.664,1.5 11.251,1.5 L 7.501,1.5 C 7.156,1.5 6.856,1.734 6.773,2.068 Z M 10.501,3 L 10.501,4.5 C 10.501,4.913 10.837,5.25 11.251,5.25 L 15.001,5.25 C 15.414,5.25 15.751,4.913 15.751,4.5 L 15.751,3 L 18.21,3 L 18.789,4.737 C 18.837,4.881 18.928,5.008 19.051,5.1 C 24.564,9.235 22.855,15.77 18.405,18.084 L 18.362,18.108 C 15.916,19.587 11.918,20.033 9.318,18.82 C 9.092,18.714 8.828,18.728 8.615,18.856 L 6.001,20.425 L 6.001,17.25 C 6.001,17.024 5.899,16.81 5.724,16.668 C 4.749,15.874 4.247,14.771 3.707,13.249 C 3.601,12.95 3.318,12.75 3.001,12.75 L 1.501,12.75 L 1.501,10.29 L 3.238,9.711 C 3.431,9.647 3.59,9.506 3.677,9.323 C 4.182,8.266 5.52,6.639 7.063,5.931 C 7.27,5.836 7.423,5.652 7.478,5.431 L 8.086,3 L 10.501,3 Z M 26.499,11.372 L 26.503,11.377 L 26.506,11.382 C 26.504,11.378 26.501,11.375 26.499,11.372 Z M 5.251,13.5 C 5.251,13.914 5.587,14.25 6.001,14.25 C 6.415,14.25 6.751,13.914 6.751,13.5 C 6.751,13.086 6.415,12.75 6.001,12.75 C 5.587,12.75 5.251,13.086 5.251,13.5 Z M 11.251,17.25 C 11.251,17.663 11.587,18 12.001,18 L 15.751,18 C 16.164,18 16.501,17.663 16.501,17.25 C 16.501,16.836 16.164,16.5 15.751,16.5 L 12.001,16.5 C 11.587,16.5 11.251,16.836 11.251,17.25 Z M 15.751,22.875 C 15.751,23.909 14.91,24.75 13.876,24.75 C 12.841,24.75 12.001,23.909 12.001,22.875 C 12.001,21.84 12.841,21 13.876,21 C 14.91,21 15.751,21.84 15.751,22.875 Z" fill="#bababa" marker-start="none" marker-end="none"/>
    </g>
   </g>
  </g>
 </g>
</svg>
