<?xml version="1.0" standalone="no"?>
<!DOCTYPE svg PUBLIC "-//W3C//DTD SVG 1.1//EN" "http://www.w3.org/Graphics/SVG/1.1/DTD/svg11.dtd">
<!--Generator: Xara Designer (www.xara.com), SVG filter version: 4.0.0.1-->
<svg stroke-width="0.501" stroke-linejoin="bevel" fill-rule="evenodd" xmlns:xlink="http://www.w3.org/1999/xlink" xmlns="http://www.w3.org/2000/svg" version="1.1" overflow="visible" width="32.991pt" height="27pt" viewBox="0 0 32.991 27">
 <defs>
  <marker id="DefaultArrow2" markerUnits="strokeWidth" viewBox="0 0 1 1" markerWidth="1" markerHeight="1" overflow="visible" orient="auto">
   <!-- REF_ARROW_STRAIGHT (-2) -->
   <g transform="scale(0.0092592592)">
    <!-- 1/108 -->
    <path d="M -9 54 L -9 -54 L 117 0 z"/>
   </g>
  </marker>
  <marker id="DefaultArrow3" markerUnits="strokeWidth" viewBox="0 0 1 1" markerWidth="1" markerHeight="1" overflow="visible" orient="auto">
   <!-- REF_ARROW_ANGLED -->
   <g transform="scale(0.0092592592)">
    <path d="M -27 54 L -9 0 L -27 -54 L 135 0 z"/>
   </g>
  </marker>
  <marker id="DefaultArrow4" markerUnits="strokeWidth" viewBox="0 0 1 1" markerWidth="1" markerHeight="1" overflow="visible" orient="auto">
   <!-- REF_ARROW_ROUNDED -->
   <g transform="scale(0.0092592592)">
    <path d="M -9,0 L -9,-45 C -9,-51.708 2.808,-56.580 9,-54 L 117,-9 C 120.916,-7.369 126.000,-4.242 126,0 C 126,4.242 120.916,7.369 117,9 L 9,54 C 2.808,56.580 -9,51.708 -9,45 z"/>
   </g>
  </marker>
  <marker id="DefaultArrow5" markerUnits="strokeWidth" viewBox="0 0 1 1" markerWidth="1" markerHeight="1" overflow="visible" orient="auto">
   <!-- REF_ARROW_SPOT -->
   <g transform="scale(0.0092592592)">
    <path d="M -54, 0 C -54,29.807 -29.807,54 0,54 C 29.807,54 54,29.807 54,0 C 54,-29.807 29.807,-54 0,-54 C -29.807,-54 -54,-29.807 -54,0 z"/>
   </g>
  </marker>
  <marker id="DefaultArrow6" markerUnits="strokeWidth" viewBox="0 0 1 1" markerWidth="1" markerHeight="1" overflow="visible" orient="auto">
   <!-- REF_ARROW_DIAMOND -->
   <g transform="scale(0.0092592592)">
    <path d="M -63,0 L 0,63 L 63,0 L 0,-63 z"/>
   </g>
  </marker>
  <marker id="DefaultArrow7" markerUnits="strokeWidth" viewBox="0 0 1 1" markerWidth="1" markerHeight="1" overflow="visible" orient="auto">
   <!-- REF_ARROW_FEATHER -->
   <g transform="scale(0.0092592592)">
    <path d="M 18,-54 L 108,-54 L 63,0 L 108,54 L 18, 54 L -36,0 z"/>
   </g>
  </marker>
  <marker id="DefaultArrow8" markerUnits="strokeWidth" viewBox="0 0 1 1" markerWidth="1" markerHeight="1" overflow="visible" orient="auto">
   <!-- REF_ARROW_FEATHER2 -->
   <g transform="scale(0.0092592592)">
    <path d="M -36,0 L 18,-54 L 54,-54 L 18,-18 L 27,-18 L 63,-54 L 99,-54 L 63,-18 L 72,-18 L 108,-54 L 144,-54 L 90,0 L 144,54 L 108,54 L 72,18 L 63,18 L 99,54 L 63,54 L 27,18 L 18,18 L 54,54 L 18,54 z"/>
   </g>
  </marker>
  <marker id="DefaultArrow9" markerUnits="strokeWidth" viewBox="0 0 1 1" markerWidth="1" markerHeight="1" overflow="visible" orient="auto">
   <!-- REF_ARROW_HOLLOWDIAMOND -->
   <g transform="scale(0.0092592592)">
    <path d="M 0,45 L -45,0 L 0, -45 L 45, 0 z M 0, 63 L-63, 0 L 0, -63 L 63, 0 z"/>
   </g>
  </marker>
  <filter id="StainedFilter">
   <feBlend mode="multiply" in2="BackgroundImage" in="SourceGraphic" result="blend"/>
   <feComposite in="blend" in2="SourceAlpha" operator="in" result="comp"/>
  </filter>
  <filter id="BleachFilter">
   <feBlend mode="screen" in2="BackgroundImage" in="SourceGraphic" result="blend"/>
   <feComposite in="blend" in2="SourceAlpha" operator="in" result="comp"/>
  </filter>
  <filter id="InvertTransparencyBitmapFilter">
   <feComponentTransfer>
    <feFuncR type="gamma" amplitude="1.055" exponent=".416666666" offset="-0.055"/>
    <feFuncG type="gamma" amplitude="1.055" exponent=".416666666" offset="-0.055"/>
    <feFuncB type="gamma" amplitude="1.055" exponent=".416666666" offset="-0.055"/>
   </feComponentTransfer>
   <feComponentTransfer>
    <feFuncR type="linear" slope="-1" intercept="1"/>
    <feFuncG type="linear" slope="-1" intercept="1"/>
    <feFuncB type="linear" slope="-1" intercept="1"/>
    <feFuncA type="linear" slope="1" intercept="0"/>
   </feComponentTransfer>
   <feComponentTransfer>
    <feFuncR type="gamma" amplitude="1" exponent="2.4" offset="0"/>
    <feFuncG type="gamma" amplitude="1" exponent="2.4" offset="0"/>
    <feFuncB type="gamma" amplitude="1" exponent="2.4" offset="0"/>
   </feComponentTransfer>
  </filter>
 </defs>
 <g id="Document" fill="none" stroke="black" font-family="Times New Roman" font-size="16" transform="scale(1 -1)">
  <g id="Spread" transform="translate(0 -27)">
   <g id="Layer 1">
    <g id="Group" stroke="none">
     <path d="M 0.002,26.998 L 0.002,-0.001 L 32.999,-0.001 L 32.999,26.998 L 0.002,26.998 Z" stroke-linejoin="round" marker-start="none" marker-end="none"/>
     <path d="M 17.133,3.756 L 17.133,5.256 L 20.132,5.256 L 20.132,3.756 L 17.133,3.756 Z M 23.131,3.756 L 23.131,5.256 L 26.13,5.256 L 26.13,3.756 L 23.131,3.756 Z M 29.129,3.756 L 29.129,5.256 L 32.128,5.256 L 32.128,3.756 L 29.129,3.756 Z M 10.945,4.33 L 11.435,5.748 C 12.168,5.495 13.065,5.324 14.169,5.272 L 14.099,3.774 C 12.88,3.831 11.838,4.022 10.945,4.33 Z M 6.627,8.783 C 6.6,8.86 6.574,8.936 6.549,9.011 L 7.973,9.483 C 7.996,9.414 8.02,9.343 8.044,9.272 C 8.324,8.461 8.701,7.74 9.245,7.141 L 8.135,6.132 C 7.416,6.924 6.951,7.842 6.627,8.783 Z M 5.502,15.069 L 6.994,15.216 C 7.11,14.05 7.184,13.148 7.313,12.27 L 5.828,12.053 C 5.693,12.977 5.614,13.938 5.502,15.069 Z M 16.082,12.98 C 15.712,13.165 15.431,13.451 15.167,13.777 C 15.133,13.82 15.103,13.865 15.079,13.914 L 14.536,15 L 14.25,15 C 13.836,15 13.5,15.336 13.5,15.75 C 13.5,16.163 13.836,16.5 14.25,16.5 L 15,16.5 C 15.284,16.5 15.543,16.339 15.67,16.085 L 16.38,14.663 L 16.409,14.628 C 16.579,14.43 16.678,14.357 16.751,14.322 C 16.827,14.284 16.946,14.25 17.25,14.25 L 20.25,14.25 C 20.553,14.25 20.672,14.284 20.748,14.322 C 20.82,14.357 20.919,14.43 21.089,14.628 L 21.118,14.663 L 21.829,16.085 C 21.956,16.339 22.215,16.5 22.5,16.5 L 23.25,16.5 C 23.663,16.5 24,16.163 24,15.75 C 24,15.336 23.663,15 23.25,15 L 22.963,15 L 22.42,13.914 C 22.396,13.865 22.366,13.82 22.332,13.777 C 22.068,13.451 21.787,13.165 21.417,12.98 C 21.04,12.792 20.65,12.75 20.25,12.75 L 17.25,12.75 C 16.849,12.75 16.459,12.792 16.082,12.98 Z M 3,18.75 L 1.892,18.75 C 1.311,18.75 0.818,18.972 0.478,19.349 C 0.149,19.713 0,20.18 0,20.625 C 0,21.069 0.149,21.536 0.478,21.9 C 0.819,22.278 1.31,22.5 1.892,22.5 L 33,22.5 L 33,21 L 1.892,21 C 1.711,21 1.633,20.94 1.592,20.896 C 1.541,20.838 1.5,20.743 1.5,20.625 C 1.5,20.506 1.541,20.411 1.592,20.353 C 1.632,20.309 1.712,20.25 1.892,20.25 L 33,20.25 L 33,18.75 L 5.841,18.75 C 5.923,18.635 6.003,18.513 6.079,18.383 L 4.783,17.627 C 4.268,18.51 3.604,18.75 3,18.75 Z" stroke-width="0.5" fill="#bababa" fill-rule="evenodd" marker-start="none" marker-end="none" stroke-miterlimit="79.8403193612775"/>
    </g>
   </g>
  </g>
 </g>
</svg>
