<?xml version="1.0" standalone="no"?>
<!DOCTYPE svg PUBLIC "-//W3C//DTD SVG 1.1//EN" "http://www.w3.org/Graphics/SVG/1.1/DTD/svg11.dtd">
<!--Generator: Xara Designer (www.xara.com), SVG filter version: 4.0.0.1-->
<svg stroke-width="0.501" stroke-linejoin="bevel" fill-rule="evenodd" xmlns:xlink="http://www.w3.org/1999/xlink" xmlns="http://www.w3.org/2000/svg" version="1.1" overflow="visible" width="26.99pt" height="27pt" viewBox="0 0 26.99 27">
 <defs>
  <marker id="DefaultArrow2" markerUnits="strokeWidth" viewBox="0 0 1 1" markerWidth="1" markerHeight="1" overflow="visible" orient="auto">
   <!-- REF_ARROW_STRAIGHT (-2) -->
   <g transform="scale(0.0092592592)">
    <!-- 1/108 -->
    <path d="M -9 54 L -9 -54 L 117 0 z"/>
   </g>
  </marker>
  <marker id="DefaultArrow3" markerUnits="strokeWidth" viewBox="0 0 1 1" markerWidth="1" markerHeight="1" overflow="visible" orient="auto">
   <!-- REF_ARROW_ANGLED -->
   <g transform="scale(0.0092592592)">
    <path d="M -27 54 L -9 0 L -27 -54 L 135 0 z"/>
   </g>
  </marker>
  <marker id="DefaultArrow4" markerUnits="strokeWidth" viewBox="0 0 1 1" markerWidth="1" markerHeight="1" overflow="visible" orient="auto">
   <!-- REF_ARROW_ROUNDED -->
   <g transform="scale(0.0092592592)">
    <path d="M -9,0 L -9,-45 C -9,-51.708 2.808,-56.580 9,-54 L 117,-9 C 120.916,-7.369 126.000,-4.242 126,0 C 126,4.242 120.916,7.369 117,9 L 9,54 C 2.808,56.580 -9,51.708 -9,45 z"/>
   </g>
  </marker>
  <marker id="DefaultArrow5" markerUnits="strokeWidth" viewBox="0 0 1 1" markerWidth="1" markerHeight="1" overflow="visible" orient="auto">
   <!-- REF_ARROW_SPOT -->
   <g transform="scale(0.0092592592)">
    <path d="M -54, 0 C -54,29.807 -29.807,54 0,54 C 29.807,54 54,29.807 54,0 C 54,-29.807 29.807,-54 0,-54 C -29.807,-54 -54,-29.807 -54,0 z"/>
   </g>
  </marker>
  <marker id="DefaultArrow6" markerUnits="strokeWidth" viewBox="0 0 1 1" markerWidth="1" markerHeight="1" overflow="visible" orient="auto">
   <!-- REF_ARROW_DIAMOND -->
   <g transform="scale(0.0092592592)">
    <path d="M -63,0 L 0,63 L 63,0 L 0,-63 z"/>
   </g>
  </marker>
  <marker id="DefaultArrow7" markerUnits="strokeWidth" viewBox="0 0 1 1" markerWidth="1" markerHeight="1" overflow="visible" orient="auto">
   <!-- REF_ARROW_FEATHER -->
   <g transform="scale(0.0092592592)">
    <path d="M 18,-54 L 108,-54 L 63,0 L 108,54 L 18, 54 L -36,0 z"/>
   </g>
  </marker>
  <marker id="DefaultArrow8" markerUnits="strokeWidth" viewBox="0 0 1 1" markerWidth="1" markerHeight="1" overflow="visible" orient="auto">
   <!-- REF_ARROW_FEATHER2 -->
   <g transform="scale(0.0092592592)">
    <path d="M -36,0 L 18,-54 L 54,-54 L 18,-18 L 27,-18 L 63,-54 L 99,-54 L 63,-18 L 72,-18 L 108,-54 L 144,-54 L 90,0 L 144,54 L 108,54 L 72,18 L 63,18 L 99,54 L 63,54 L 27,18 L 18,18 L 54,54 L 18,54 z"/>
   </g>
  </marker>
  <marker id="DefaultArrow9" markerUnits="strokeWidth" viewBox="0 0 1 1" markerWidth="1" markerHeight="1" overflow="visible" orient="auto">
   <!-- REF_ARROW_HOLLOWDIAMOND -->
   <g transform="scale(0.0092592592)">
    <path d="M 0,45 L -45,0 L 0, -45 L 45, 0 z M 0, 63 L-63, 0 L 0, -63 L 63, 0 z"/>
   </g>
  </marker>
  <filter id="StainedFilter">
   <feBlend mode="multiply" in2="BackgroundImage" in="SourceGraphic" result="blend"/>
   <feComposite in="blend" in2="SourceAlpha" operator="in" result="comp"/>
  </filter>
  <filter id="BleachFilter">
   <feBlend mode="screen" in2="BackgroundImage" in="SourceGraphic" result="blend"/>
   <feComposite in="blend" in2="SourceAlpha" operator="in" result="comp"/>
  </filter>
  <filter id="InvertTransparencyBitmapFilter">
   <feComponentTransfer>
    <feFuncR type="gamma" amplitude="1.055" exponent=".416666666" offset="-0.055"/>
    <feFuncG type="gamma" amplitude="1.055" exponent=".416666666" offset="-0.055"/>
    <feFuncB type="gamma" amplitude="1.055" exponent=".416666666" offset="-0.055"/>
   </feComponentTransfer>
   <feComponentTransfer>
    <feFuncR type="linear" slope="-1" intercept="1"/>
    <feFuncG type="linear" slope="-1" intercept="1"/>
    <feFuncB type="linear" slope="-1" intercept="1"/>
    <feFuncA type="linear" slope="1" intercept="0"/>
   </feComponentTransfer>
   <feComponentTransfer>
    <feFuncR type="gamma" amplitude="1" exponent="2.4" offset="0"/>
    <feFuncG type="gamma" amplitude="1" exponent="2.4" offset="0"/>
    <feFuncB type="gamma" amplitude="1" exponent="2.4" offset="0"/>
   </feComponentTransfer>
  </filter>
 </defs>
 <g id="Document" fill="none" stroke="black" font-family="Times New Roman" font-size="16" transform="scale(1 -1)">
  <g id="Spread" transform="translate(0 -27)">
   <g id="Layer 1">
    <g id="Group" stroke="none">
     <path d="M 0,27 L 0,0.001 L 27,0.001 L 27,27 L 0,27 Z" stroke-linejoin="round" marker-start="none" marker-end="none"/>
     <path d="M 4.5,3.75 L 4.499,5.597 C 3.24,6.064 2.573,6.962 2.209,8.019 C 2.071,8.418 1.992,9.104 1.933,9.827 C 1.871,10.587 1.826,11.497 1.789,12.401 C 1.715,14.243 1.677,16.006 1.616,16.608 C 1.525,17.311 1.329,17.654 1.18,17.813 C 1.113,17.884 1.043,17.93 0.972,17.959 L 0.747,17.999 L 0,18 L 0,19.5 L 12.751,19.5 L 12.751,23.003 C 12.751,23.416 13.087,23.753 13.501,23.753 C 13.914,23.753 14.251,23.416 14.251,23.003 L 14.251,19.5 L 27,19.5 L 27,18 L 26.25,18 C 26.096,18 25.953,17.955 25.819,17.813 C 25.67,17.654 25.474,17.311 25.383,16.608 C 25.322,16.006 25.284,14.243 25.21,12.401 C 25.173,11.497 25.128,10.587 25.066,9.827 C 25.008,9.115 24.927,8.414 24.79,8.019 C 24.425,6.96 23.757,6.063 22.5,5.596 L 22.5,3.75 L 21,3.75 L 21,5.281 C 20.778,5.262 20.545,5.253 20.3,5.253 L 6.7,5.253 C 6.454,5.253 6.221,5.262 5.999,5.281 L 6,3.75 L 4.5,3.75 Z M 22.519,7.282 C 22.934,7.573 23.191,7.983 23.373,8.508 C 23.434,8.687 23.508,9.184 23.571,9.949 C 23.619,10.552 23.659,11.263 23.691,12 L 22.818,12 C 22.643,12 22.5,12.143 22.5,12.318 L 22.5,13.181 C 22.5,13.356 22.643,13.499 22.818,13.499 L 23.749,13.499 C 23.799,14.911 23.836,16.23 23.892,16.779 C 23.953,17.25 24.06,17.656 24.204,17.999 L 14.251,17.999 L 14.251,11.314 L 16.72,13.783 C 17.013,14.076 17.488,14.076 17.781,13.783 C 18.074,13.49 18.074,13.015 17.781,12.722 L 14.031,8.972 C 13.884,8.825 13.692,8.752 13.5,8.752 C 13.452,8.752 13.404,8.756 13.357,8.765 C 13.215,8.793 13.079,8.862 12.97,8.972 L 9.22,12.722 C 8.927,13.015 8.927,13.49 9.22,13.783 C 9.513,14.076 9.988,14.076 10.281,13.783 L 12.751,11.313 L 12.751,17.999 L 2.794,17.999 L 2.98,17.442 C 3.033,17.237 3.076,17.016 3.107,16.779 C 3.162,16.229 3.199,14.907 3.249,13.492 C 3.271,13.497 3.294,13.5 3.318,13.5 L 4.183,13.5 C 4.358,13.5 4.501,13.357 4.501,13.182 L 4.501,12.319 C 4.501,12.144 4.358,12.001 4.183,12.001 L 3.307,12.001 C 3.339,11.264 3.379,10.553 3.428,9.949 C 3.491,9.173 3.563,8.691 3.626,8.508 C 3.808,7.983 4.065,7.573 4.48,7.282 C 4.902,6.986 5.574,6.753 6.7,6.753 L 20.3,6.753 C 21.425,6.753 22.097,6.986 22.519,7.282 Z M 19.499,12.318 L 19.499,13.181 C 19.499,13.356 19.642,13.499 19.817,13.499 L 20.682,13.499 C 20.857,13.499 21,13.356 21,13.181 L 21,12.318 C 21,12.143 20.857,12 20.682,12 L 19.817,12 C 19.642,12 19.499,12.143 19.499,12.318 Z M 6,12.319 L 6,13.182 C 6,13.357 6.143,13.5 6.318,13.5 L 7.183,13.5 C 7.358,13.5 7.501,13.357 7.501,13.182 L 7.501,12.319 C 7.501,12.144 7.358,12.001 7.183,12.001 L 6.318,12.001 C 6.143,12.001 6,12.144 6,12.319 Z" stroke-width="0.5" fill="#bababa" fill-rule="evenodd" marker-start="none" marker-end="none" stroke-miterlimit="79.8403193612775"/>
    </g>
   </g>
  </g>
 </g>
</svg>
